<svg width="16" height="21" viewBox="0 0 16 21" fill="none" xmlns="http://www.w3.org/2000/svg">
<path d="M3.57447 10.2047C3.6591 10.8782 3.57241 11.4153 3.4616 11.9995C3.40195 12.3001 3.34452 12.6094 3.3282 12.9534C3.28899 13.7467 3.34773 14.7841 3.54588 15.4599C3.77363 16.1945 4.22061 16.8697 4.69028 17.2205C4.4309 17.0453 4.51768 17.1224 4.53149 17.1163C4.56363 17.1267 4.61939 17.1428 4.67673 17.1578C4.79474 17.1888 4.93085 17.2201 5.0684 17.2501C5.34478 17.3103 5.6285 17.3664 5.90502 17.4211C6.49896 17.5383 7.10561 17.6527 7.71681 17.7703C8.21418 17.8665 8.69817 17.9172 9.11401 17.8929C9.32268 17.8808 9.50837 17.8511 9.68192 17.8012C9.86521 17.7486 9.98905 17.6905 10.3319 17.5355C10.3415 17.5314 10.351 17.5273 10.3604 17.5233C10.442 17.4881 10.5006 17.4935 10.5356 17.4782C10.8973 17.3266 11.209 17.1169 11.4515 16.9128C11.5953 16.7976 11.7792 16.6317 11.9793 16.4369C12.2882 16.1581 12.4884 15.6404 12.569 15.2431C12.622 15.0135 12.6434 14.7508 12.716 14.6506C12.7238 14.554 12.6628 14.4984 12.66 14.4726C12.6601 14.4723 12.6602 14.472 12.6602 14.4717C12.6522 14.3903 12.6941 14.1743 12.6899 14.1246C12.6893 14.1173 12.6457 14.1633 12.6564 14.0441C12.6572 14.0345 12.6817 14.0405 12.6853 13.9704C12.6858 13.9642 12.6859 13.9572 12.6857 13.9495C12.6878 13.9257 12.6193 13.7185 12.603 13.6812C12.5521 13.5044 12.5207 13.3534 12.1405 13.055C12.0903 13.0139 12.0475 13.0021 11.9836 12.9485C11.972 12.9388 11.9598 12.9253 11.9481 12.9113C11.9457 12.9017 11.944 12.8896 11.9419 12.8881C11.9319 12.879 11.7973 12.8926 11.9257 12.7708C11.812 12.7092 11.8086 12.7775 11.7887 12.8082C11.651 12.7318 11.5832 12.6063 11.4943 12.6566C11.164 12.4799 10.7238 12.2434 10.3283 11.9353C9.53739 11.3287 8.98763 10.5167 8.61246 9.73577C8.59964 9.74165 8.58682 9.74753 8.57401 9.75342C8.45456 9.37857 8.32129 9.29751 8.31465 9.06911C8.24864 8.95515 8.18489 8.84149 8.12314 8.72962C8.00698 8.40806 7.90307 8.09348 7.80557 7.83787C7.46697 6.93834 7.46487 6.19102 7.38039 5.5727C7.31032 4.96239 7.25933 4.34394 7.28288 3.66911C7.29674 3.32887 7.32759 2.97907 7.41761 2.58797C7.46293 2.39326 7.52579 2.18746 7.61072 1.98492C7.65266 1.88418 7.70129 1.78358 7.74037 1.70702C7.77899 1.63807 7.80486 1.55762 7.7479 1.71154C7.74712 1.71384 7.74387 1.72314 7.73741 1.74896C7.73564 1.75658 7.72664 1.79078 7.71832 1.84928C7.71416 1.87954 7.7096 1.91779 7.70771 1.97349C7.73332 1.98163 7.60006 2.18803 7.94714 2.74137C8.04366 2.87475 8.19708 3.01955 8.38671 3.11497C8.58273 3.21468 8.76866 3.24472 8.90557 3.24977C9.19595 3.25734 9.37456 3.18139 9.49031 3.12813C9.71322 3.01577 9.78058 2.92852 9.79477 2.92003C9.8484 2.86926 9.87192 2.84044 9.88929 2.81991C9.91787 2.78489 9.9187 2.78226 9.92319 2.77644C9.92942 2.76761 9.90294 2.80921 9.88292 2.84401C9.83873 2.91967 9.78798 3.01156 9.73875 3.10277C9.63839 3.28888 9.53822 3.48259 9.43952 3.67738C9.24222 4.06746 9.04902 4.4647 8.87025 4.85401C8.82081 4.96257 8.77985 4.97876 8.70264 5.15494C8.64512 5.28693 8.58299 5.47984 8.54899 5.6115C8.52363 5.69974 8.4956 5.79167 8.46624 5.87756C8.37963 6.13105 8.22621 6.49409 8.12787 6.77297C8.10568 6.83601 8.10841 6.8877 8.10592 6.8948C8.09121 6.93641 8.06198 6.92895 8.0476 6.96928C8.03048 7.01752 8.03209 7.08317 8.0122 7.1387C7.93795 7.34617 7.8714 7.57546 7.86245 7.60158C7.81865 7.72755 7.78212 7.74562 7.77833 7.75631C7.7301 7.89548 7.7723 7.85084 7.75968 7.88541C7.69537 8.06255 7.59057 8.17366 7.58372 8.42623C7.56192 8.41304 7.54015 8.39973 7.51842 8.38633C7.4545 8.56072 7.55087 8.4607 7.55203 8.5001C7.55305 8.50569 7.5075 8.66488 7.49472 8.7209C7.47445 8.81455 7.45644 8.89189 7.4531 8.90553C7.42307 9.02633 7.39047 9.02149 7.3878 9.03194C7.3813 9.05821 7.35258 9.3597 7.29815 9.48545C7.23354 9.63605 7.20527 9.43805 7.1853 9.47439C7.18113 9.48231 7.15693 9.64458 7.13412 9.6584C7.1077 9.67812 7.13234 9.54415 7.12337 9.54306C7.11476 9.54749 7.03304 9.75438 7.00973 9.70767C6.97944 9.68042 7.08151 9.3645 7.08547 9.28281C7.08572 9.27007 7.04317 9.28508 7.04412 9.27395C7.04568 9.24812 7.11582 8.92958 7.17177 8.65592C7.19244 8.55721 7.23233 8.42204 7.23718 8.41312C7.24342 8.45612 7.24981 8.49969 7.25777 8.53895C7.27158 8.49256 7.28735 8.44152 7.30369 8.39014C7.29636 8.46782 7.29053 8.5434 7.28918 8.60864C7.44726 8.55925 7.40588 8.18107 7.34264 8.14378C7.31229 8.12857 7.16794 8.31333 7.17846 8.10351C7.16106 8.13166 7.14407 8.15874 7.12723 8.18564C7.12232 8.25189 7.11856 8.3156 7.11554 8.37897C7.13524 8.34107 7.15499 8.30407 7.17517 8.26627C7.18062 8.28343 7.18586 8.30138 7.19122 8.31902C7.17487 8.43462 7.15972 8.55225 7.15766 8.63823C7.15513 8.64433 7.15248 8.64845 7.14967 8.65148C7.13118 8.68649 7.1108 8.67858 7.09827 8.71576C6.91016 9.25552 7.0753 8.91692 6.98729 9.26299C6.96135 9.3083 6.93567 9.35312 6.91047 9.39711C6.97891 9.39197 6.9048 9.53801 6.90986 9.69333C6.8915 9.67255 6.87347 9.65063 6.85571 9.62799C6.84733 9.69808 6.82774 9.78669 6.81666 9.8412C6.78407 10.094 6.74579 10.3306 6.83226 10.2295C6.81921 10.2938 6.8063 10.3559 6.79337 10.4193C6.81006 10.4738 6.82673 10.5292 6.84349 10.5831C6.83793 10.6581 6.8325 10.7314 6.82705 10.8062C6.81666 10.8061 6.80628 10.806 6.7959 10.8059C6.79844 10.7461 6.801 10.6865 6.80354 10.6281C6.77004 10.6699 6.73639 10.7152 6.70291 10.7571C6.70623 10.8014 6.70959 10.8451 6.71295 10.8892C6.75071 10.7078 6.78904 10.9516 6.82833 11.0115C6.83721 11.1666 6.77904 11.2641 6.7745 11.3156C6.77231 11.3395 6.85639 11.632 6.75591 11.5144C6.76283 11.6624 6.76987 11.812 6.77712 11.9601C6.76691 12.018 6.75677 12.0745 6.74657 12.1332C6.70225 12.0054 6.63015 12.367 6.61959 12.0984C6.6117 11.898 6.65934 11.8503 6.66267 11.7544C6.66568 11.6699 6.63671 11.6216 6.63897 11.5292C6.65478 10.9149 6.68211 10.4163 6.72358 9.8368C6.72423 9.82936 6.72506 9.82082 6.72599 9.81233C6.73415 9.73718 6.73382 9.64224 6.74788 9.57417C6.76435 9.4962 6.78433 9.60179 6.79376 9.49932C6.80471 9.38976 6.77963 9.3579 6.78498 9.32848C6.78847 9.30987 6.82855 9.25718 6.84043 9.20212C6.88355 9.00385 6.92707 8.70268 6.9401 8.60931C6.94091 8.60195 6.94179 8.59606 6.94239 8.59332C6.935 8.58781 7.13824 7.97569 7.1551 7.94646C7.16241 7.93156 7.2523 7.99473 7.1883 7.82478C7.20002 7.78039 7.21118 7.73809 7.22307 7.69376C7.24079 7.70713 7.25852 7.72047 7.27627 7.73378C7.28206 7.45427 7.29608 7.55595 7.3703 7.30751C7.52784 6.78118 7.79267 6.04174 8.00025 5.42516C8.02097 5.36321 8.04771 5.29104 8.0734 5.22392C8.12459 5.09165 8.1222 5.03266 8.19027 4.8719C8.25228 4.72323 8.50168 4.3658 8.36854 4.40647C8.60615 4.11289 8.49407 3.99307 8.66197 3.86968C8.65926 3.84345 8.65657 3.81723 8.6539 3.79102C8.79722 3.6382 8.7772 3.56009 8.8706 3.36175C8.9106 3.27731 8.9184 3.40133 8.94186 3.20138C8.96357 3.17123 8.98527 3.14125 9.00661 3.1121C9.01646 3.12668 9.02629 3.14128 9.03612 3.1559C9.12291 2.96401 9.13629 2.95779 9.07374 2.9513C9.13192 2.86511 9.18782 2.78454 9.24602 2.7022C9.23539 2.68222 9.22468 2.66241 9.21391 2.64275C9.14657 2.64213 8.14335 4.75792 8.06872 5.05072C8.01673 5.14226 7.95851 5.27362 7.91656 5.39674C7.79393 5.75765 7.67275 6.19016 7.59612 6.39509C7.55264 6.51111 7.49421 6.5495 7.43209 6.71874C7.36996 6.88796 7.33597 7.11538 7.30766 7.20637C7.2018 7.51621 6.77839 8.92295 7.01094 7.94813C6.98217 7.97037 6.9536 7.99216 6.92525 8.01345C6.88257 8.4141 6.87337 8.27487 6.79601 8.56248C6.79465 8.5681 6.79342 8.57388 6.79235 8.57958C6.76247 8.73754 6.73274 9.04674 6.64849 9.00916C6.67012 8.86426 6.70747 8.71514 6.74291 8.56964C6.76625 8.47995 6.80191 8.37013 6.82783 8.27506C6.83242 8.25578 6.86568 7.98637 6.91878 7.85658C6.9666 7.73933 7.02682 7.84955 7.0124 7.55756C7.16944 7.3937 7.12039 7.25332 7.12799 7.19901C7.14135 7.10468 7.19121 7.11061 7.22597 7.02353C7.26394 6.92878 7.2551 6.85194 7.25931 6.8386C7.30213 6.70569 7.53151 6.01266 7.56133 5.98742C7.56023 6.01783 7.55907 6.04839 7.55787 6.07911C7.63203 5.90425 7.57186 5.92505 7.58207 5.87626C7.59422 5.84107 7.60648 5.80559 7.6185 5.77081C7.62368 5.788 7.62884 5.80525 7.63398 5.82256C7.70411 5.60946 7.61451 5.76029 7.71798 5.45907C7.73125 5.42043 7.74671 5.38044 7.76186 5.34421C7.81603 5.21817 7.88888 5.10732 7.89218 5.09235C7.89354 5.08675 7.84538 5.13407 7.87221 5.05832C7.91505 4.93621 8.00814 4.72627 8.05254 4.71696C8.0745 4.65499 8.03941 4.64606 8.04225 4.6377C8.05238 4.60105 8.32046 4.00071 8.37258 3.89374C8.51081 3.59721 8.68287 3.27311 8.84267 2.95828C8.85939 2.92544 8.86871 2.95684 8.88518 2.92427C8.91067 2.87258 9.02192 2.59311 9.04205 2.55388C9.06628 2.50455 9.11783 2.41802 9.16375 2.34659C9.18459 2.31411 9.20819 2.27944 9.2171 2.2674C9.21734 2.26438 9.2308 2.2578 9.17868 2.30205C9.15372 2.31908 9.11705 2.35522 9.00825 2.37487C8.91697 2.41252 8.66008 2.29879 8.62526 2.18638C8.54373 1.98489 8.59019 2.01203 8.58131 1.99361C8.58168 1.99069 8.5821 1.99319 8.58284 2.00071C8.58624 2.00897 8.5753 2.01213 8.60198 2.11246C8.61716 2.15861 8.65452 2.24814 8.76061 2.31385C8.87654 2.38105 8.96679 2.36938 9.02388 2.35812C9.13661 2.32754 9.15159 2.29618 9.16822 2.28372C9.18423 2.26386 9.1902 2.25318 9.15238 2.27876C9.13679 2.2874 9.12182 2.30463 9.04714 2.32827C9.00821 2.33794 8.95079 2.35344 8.85501 2.32624C8.74428 2.29669 8.65864 2.18772 8.63965 2.1245C8.6012 1.98394 8.62515 2.00542 8.6222 1.9844C8.62427 1.97158 8.62643 1.96561 8.62715 1.96502C8.62909 1.96508 8.62594 1.97768 8.6223 1.98651C8.61472 1.9967 8.59141 1.97656 8.59053 1.97797C8.51609 2.0994 8.40859 2.36683 8.3626 2.54246C8.34372 2.60363 8.27975 2.71158 8.26827 2.80293C8.26684 2.81362 8.29995 2.79959 8.29893 2.81014C8.2826 2.94526 8.21002 3.0573 8.19771 3.11556C8.16927 3.25361 8.21972 3.18304 8.21882 3.19041C8.20718 3.28575 8.17976 3.40401 8.17199 3.54593C8.14312 4.16647 8.17567 4.65687 8.23674 5.29188C8.24365 5.36056 8.23161 5.44546 8.22957 5.47413C8.22926 5.47796 8.22914 5.48071 8.2293 5.48217C8.23372 5.51876 8.26529 5.50413 8.27646 5.60985C8.29987 5.83296 8.32283 6.04124 8.35067 6.26886C8.35631 6.31456 8.32863 6.33819 8.33269 6.37352C8.34316 6.49192 8.49502 6.88608 8.40318 6.91461C8.54261 7.13675 8.51848 7.31581 8.59436 7.51026C8.59602 7.51446 8.5977 7.51867 8.5994 7.5229C8.75296 7.90666 8.99228 8.55415 9.16345 8.967C9.19884 9.05476 9.19427 9.10628 9.215 9.15516C9.24734 9.24458 9.512 9.72803 9.52776 9.75342C9.55001 9.80561 9.4322 9.8363 9.6724 10.0368C9.77252 10.179 9.72442 10.1867 9.74251 10.2183C9.88742 10.4655 10.1488 10.6111 10.0427 10.6317C10.2788 10.8724 10.4731 10.9785 10.5173 11.1365C10.5441 11.1042 10.6697 11.1842 10.8072 11.3053C10.8116 11.3091 10.8159 11.313 10.8203 11.3169C10.8141 11.3151 10.8082 11.3133 10.8024 11.3116C10.6229 11.2544 10.5885 11.3029 10.2633 10.9683C10.2582 10.9628 10.2904 10.9511 10.2853 10.9457C10.2388 10.8962 10.1299 10.8036 10.056 10.7147C9.98254 10.6258 10.0403 10.6608 10.0104 10.6258C9.98342 10.5937 9.96111 10.6136 9.92271 10.5662C9.79845 10.4121 9.69298 10.2734 9.63128 10.1809C9.59207 10.1223 9.57267 10.0426 9.54445 9.99658C9.43219 9.8205 9.2092 9.44378 9.10713 9.20633C9.08553 9.15701 9.12123 9.16589 9.07611 9.05766C9.07097 9.04508 9.0227 9.01178 8.97726 8.92006C8.93191 8.82832 8.91678 8.74991 8.8898 8.69057C8.86751 8.64126 8.85031 8.67233 8.80858 8.56938C8.77585 8.49761 8.54293 7.80647 8.45895 7.57863C8.43691 7.51917 8.42393 7.47923 8.42094 7.4689C8.39573 7.37978 8.41931 7.32694 8.39865 7.27573C8.3949 7.26677 8.35478 7.26162 8.34283 7.22978C8.1752 6.81293 8.12353 6.0382 8.0735 5.49225C8.05701 5.32097 8.04427 5.16746 8.03307 5.04057C7.94724 4.04413 7.90658 2.7781 8.41183 1.92032C8.41471 1.91091 8.4154 1.90583 8.41238 1.91836C8.4105 1.92942 8.40424 1.94677 8.40293 2.00869C8.4038 2.01653 8.39818 2.08632 8.43364 2.18882C8.45906 2.2865 8.60867 2.49908 8.83148 2.54144C9.19178 2.58672 9.24831 2.45133 9.29589 2.43269C9.4137 2.31769 9.34023 2.38771 9.34357 2.39238C9.31736 2.43319 9.28629 2.486 9.25348 2.5434C9.24986 2.56237 9.24589 2.58211 9.24158 2.60256C9.286 2.52122 9.38711 2.3666 9.36222 2.40021C9.37422 2.4128 9.38601 2.42562 9.39755 2.43869C9.36155 2.46107 9.44114 2.44941 9.18462 2.58451C9.11574 2.61161 9.00292 2.64604 8.84709 2.62061C8.67011 2.60072 8.46912 2.43713 8.41185 2.31863C8.29066 2.07793 8.33768 2.00083 8.32885 1.99416C8.33426 1.90529 8.34306 1.89934 8.34387 1.89586C8.34845 1.88818 8.35031 1.89626 8.35329 1.90191C8.37101 1.89165 8.38806 1.90567 8.40198 1.91032C8.39847 1.89281 8.36599 1.93736 8.32842 1.98574C8.35629 2.04566 8.11241 2.49135 8.06873 2.72811C8.03063 2.88194 8.02497 3.06212 8.01266 3.13995C7.98687 3.30536 7.95279 3.29375 7.95027 3.30743C7.94611 3.33186 7.95818 3.55877 7.95156 3.71954C7.94228 3.95643 7.88332 3.98178 7.93829 4.30002C7.92071 4.68672 7.96547 5.09561 8.01789 5.4987C8.0211 5.52324 8.02422 5.54757 8.02727 5.57175C7.96623 5.50063 8.05618 5.85774 8.07428 6.02818C8.12538 6.4793 8.1747 7.0334 8.39299 7.6048C8.59817 8.16093 8.80232 8.81713 9.06144 9.38045C9.12076 9.51118 9.14317 9.6228 9.18213 9.69444C9.20339 9.73342 9.24461 9.73273 9.26978 9.78876C9.27427 9.79852 9.24719 9.82216 9.29973 9.92453C9.42108 10.1866 9.89824 10.742 9.98642 10.919C10.1856 11.136 10.4064 11.3377 10.6466 11.5166C11.2259 11.9602 11.934 12.2161 12.2626 12.469C12.2653 12.4891 12.2672 12.5088 12.2683 12.5281C12.2715 12.5284 12.2747 12.5289 12.2781 12.5295C12.5161 12.6453 12.8927 12.9982 12.9723 13.1598C13.1012 13.3473 13.1898 13.6313 13.2051 13.9546C13.2158 14.1616 13.2204 14.3524 13.2173 14.5148C13.2154 14.6145 13.1916 14.6946 13.1862 14.7869C13.1839 14.8265 13.2066 14.8778 13.2032 14.9189C13.172 15.3847 13.0032 15.9613 12.8002 16.3144C12.6885 16.5202 12.5525 16.7008 12.3921 16.8578C11.8108 17.433 11.3626 17.7695 10.5754 18.0881C10.5198 18.1127 10.4687 18.1367 10.4218 18.1586C9.56565 18.6152 8.63078 18.5818 7.60005 18.4019C6.99376 18.2923 6.39065 18.1849 5.79318 18.0717C5.49372 18.0148 5.19732 17.9569 4.90872 17.8935C4.76448 17.8617 4.62413 17.829 4.49146 17.7932C4.42697 17.7757 4.36315 17.757 4.31183 17.7395C4.26945 17.7295 4.19308 17.6803 4.28694 17.7425C3.66216 17.2571 3.19261 16.4828 2.932 15.655C2.7653 15.0969 2.69234 14.3841 2.65994 13.7152C2.65767 13.6643 2.68812 13.6654 2.68657 13.6257C2.67564 13.3922 2.64464 12.8676 2.65434 12.6016C2.65929 12.3892 2.72283 12.057 2.68138 11.9815C2.5643 12.7284 2.57343 13.5327 2.62642 14.3112C2.63022 14.366 2.60232 14.376 2.60246 14.3828C2.60554 14.5095 2.63605 14.4267 2.65871 14.607C2.66229 14.6685 2.65804 15.2326 2.73989 15.1508C2.73382 15.2141 2.7655 15.4678 2.82714 15.6884C2.90173 15.9559 3.01378 16.2222 3.05788 16.3018C3.08315 16.3481 3.0923 16.3028 3.0979 16.3118C3.12245 16.3506 3.09752 16.3853 3.11429 16.4221C3.15795 16.5223 3.3183 16.748 3.34615 16.7907C3.40411 16.8942 3.58218 17.2051 3.69031 17.3179C3.78723 17.4227 3.79945 17.3767 3.88367 17.463C3.9514 17.529 3.85336 17.4797 3.99846 17.6353C4.0361 17.6747 4.1323 17.7555 4.22646 17.8207C4.14467 17.7672 4.31421 17.84 4.33688 17.8417C4.41793 17.8673 4.51427 17.918 4.64586 17.9486C4.83412 17.9937 5.26557 18.0715 5.47006 18.1042C5.48233 18.1062 5.51824 18.0824 5.54736 18.0888C5.60866 18.1023 5.58286 18.1355 5.62942 18.1486C5.67441 18.1625 6.49005 18.3129 6.62971 18.3387C6.72674 18.357 6.79508 18.3469 6.84902 18.3571C6.89087 18.3651 6.889 18.3965 6.93136 18.4047C6.94447 18.4072 7.06133 18.4012 7.1731 18.4225C7.24318 18.4359 7.43866 18.4836 7.57872 18.5174C7.64791 18.5342 7.70055 18.5462 7.71535 18.5488C7.74408 18.5537 7.71497 18.5266 7.80079 18.5411C7.87892 18.5541 7.92241 18.5895 7.96813 18.5964C8.07045 18.6116 8.18687 18.6009 8.29406 18.611C8.60215 18.6375 8.58313 18.6664 8.602 18.6698C8.65322 18.6754 8.67343 18.6431 8.69056 18.643C8.76262 18.6432 8.93016 18.6373 8.99275 18.6334C9.06751 18.6294 9.10293 18.6589 9.18295 18.6533C9.24329 18.6489 9.36029 18.6083 9.49063 18.5857C9.78942 18.5368 10.0993 18.4275 10.3905 18.2885C10.4801 18.247 10.5086 18.2649 10.539 18.2517C10.5706 18.2379 10.6012 18.2233 10.6289 18.2094C10.7261 18.1599 10.7773 18.1149 10.8105 18.1004C11.1197 17.9734 11.583 17.777 11.8043 17.5984C11.8965 17.5365 12.2691 17.1807 12.487 16.967C12.4896 16.9646 12.4918 16.9628 12.4937 16.9615C12.5088 16.9521 12.5075 16.9784 12.5263 16.9552C12.5756 16.8932 12.5364 16.8675 12.5641 16.8396C12.5773 16.8262 12.625 16.8116 12.6625 16.7699C12.8551 16.5544 12.9295 16.3613 12.9886 16.2418C13.3087 15.5863 13.3749 14.7712 13.3512 13.9501C13.3376 13.3656 13.1562 12.9825 12.7136 12.6245C12.6367 12.5587 12.5314 12.4925 12.4047 12.3831C12.3687 12.3517 12.3288 12.3168 12.2841 12.2757C12.2873 12.2608 12.2904 12.2458 12.2933 12.2307C12.2798 12.2383 12.2663 12.2459 12.2528 12.2536C12.0579 12.1363 11.9605 12.1095 11.7227 11.9633C11.7017 11.9506 11.666 11.8589 11.5866 11.9071C11.3589 11.7172 11.4717 11.8465 11.2766 11.7407C11.0905 11.6373 10.921 11.5068 10.7549 11.3741C10.7463 11.3673 10.7377 11.3604 10.7292 11.3536C10.7049 11.3237 10.7291 11.3275 10.7755 11.3471C10.8812 11.3932 11.1067 11.5066 11.126 11.5178C11.1697 11.5462 11.1947 11.6087 11.2365 11.6365C11.3608 11.7195 11.4988 11.759 11.51 11.8056C11.6908 11.8612 11.4792 11.7676 11.5157 11.7488C11.6177 11.821 11.7192 11.89 11.8166 11.9571C11.941 11.885 12.369 12.3107 12.3686 12.2194C12.3928 12.2586 12.4141 12.2975 12.4322 12.3359C12.4362 12.3364 12.4402 12.337 12.444 12.3376C12.6903 12.4174 12.7544 12.5517 12.9152 12.7495C12.9118 12.7266 12.908 12.7036 12.9037 12.6804C12.9146 12.6789 13.0866 12.825 12.9877 12.8082C13.1949 12.9248 13.0799 12.9915 13.2562 13.1053C13.3174 13.2026 13.2449 13.1611 13.3158 13.3498C13.3551 13.463 13.416 13.6109 13.4325 13.7601C13.4362 13.7938 13.4057 13.8111 13.4079 13.8417C13.4099 13.8724 13.442 13.8846 13.4443 13.9228C13.4448 13.9307 13.445 13.9388 13.445 13.9472C13.4453 14.0289 13.4297 14.126 13.4322 14.1734C13.4346 14.2217 13.4632 14.2901 13.4665 14.4054C13.4737 14.8066 13.4336 14.6828 13.4186 14.7448C13.4005 14.8105 13.4499 14.8623 13.4316 14.9942C13.4297 15.0074 13.4009 14.9701 13.398 15.0132C13.3953 15.0477 13.4293 15.069 13.4212 15.184C13.4305 15.2342 13.2903 15.9216 13.2398 16.0131C13.1912 16.1682 13.0131 16.4718 12.9227 16.602C12.8896 16.6535 12.8751 16.724 12.8352 16.7765C12.7731 16.8585 12.6874 16.9592 12.5868 17.0564C12.46 17.1797 12.3254 17.3055 12.205 17.4119C11.9999 17.6011 11.5985 17.8193 11.5054 17.9328C11.1949 18.1222 11.0787 18.1095 11.0547 18.1231C10.9834 18.1544 10.9634 18.1985 10.8716 18.2413C10.8097 18.2701 10.7469 18.2987 10.6814 18.3284C9.76741 18.8715 8.60498 18.8562 7.5544 18.6489C7.31012 18.6031 7.076 18.5596 6.85694 18.5194C5.93363 18.3439 4.74526 18.1541 4.13796 17.9353C3.46027 17.4064 2.97349 16.5934 2.69948 15.7289C2.45342 14.869 2.39558 13.86 2.39835 12.9019C2.38428 12.8941 2.37022 12.8863 2.35616 12.8784C2.34474 13.2201 2.33165 13.6229 2.3487 13.96C2.36723 14.4124 2.50958 15.0604 2.48684 15.392C2.45042 15.2658 2.45126 15.0469 2.40316 15.0579C2.43832 15.2933 2.48118 15.5265 2.54349 15.7455C2.56342 15.7324 2.5834 15.7194 2.60342 15.7064C2.60886 15.723 2.61422 15.739 2.6195 15.7544C2.69256 15.969 2.77022 16.1843 2.86606 16.3877C2.88397 16.4256 2.89034 16.3897 2.90587 16.423C2.92335 16.4602 2.89241 16.444 2.89552 16.451C2.93947 16.5444 2.97362 16.5629 2.97875 16.5741C2.99263 16.603 2.96252 16.59 3.00099 16.6756C3.07295 16.834 3.18527 16.9109 3.08665 16.9226C3.11562 16.971 3.14549 17.019 3.17576 17.0658C3.20423 17.0646 3.23284 17.0635 3.2612 17.0619C3.37181 17.4038 3.61137 17.412 3.63258 17.6417C3.69055 17.6736 3.74783 17.7027 3.80635 17.7309C3.81318 17.7721 3.82134 17.814 3.8303 17.8559C3.84966 17.8452 3.86892 17.8343 3.88805 17.8233C3.95001 17.8861 4.01855 17.9461 4.08832 17.9995C4.15256 18.0394 4.49731 18.1228 4.7132 18.1729C4.94022 18.227 4.9937 18.2464 5.199 18.2878C5.65567 18.3771 5.19347 18.3264 5.56603 18.4468C5.55085 18.4175 5.53587 18.3882 5.52109 18.359C5.58677 18.3624 5.65037 18.3652 5.71624 18.3684C5.75655 18.3977 5.79549 18.4267 5.83621 18.456C6.05187 18.3863 6.16294 18.4968 6.18936 18.5018C6.21056 18.5056 6.29678 18.4551 6.51876 18.5532C6.43907 18.4469 6.69651 18.5858 6.71764 18.5902C6.73834 18.5945 7.00914 18.6243 7.11649 18.6449C7.20206 18.6614 7.37923 18.7138 7.50663 18.7364C7.51803 18.7384 7.52824 18.7399 7.53739 18.741C7.61694 18.7499 7.61245 18.7237 7.61976 18.7248C7.75338 18.7453 7.66431 18.7542 7.762 18.7715C7.85936 18.7883 7.9363 18.7726 7.9576 18.7779C7.96798 18.7806 7.92883 18.8039 7.97675 18.8132C8.10414 18.8387 8.34036 18.8387 8.48724 18.8479C8.53744 18.8514 8.60477 18.879 8.66124 18.8817C8.75167 18.8857 8.79081 18.8538 8.84338 18.855C8.86121 18.8553 8.97562 18.9056 9.11675 18.8902C9.14432 18.8871 9.21193 18.7788 9.32991 18.9156C9.33585 18.894 9.34162 18.8724 9.34722 18.8507C9.795 18.7424 9.96132 18.8509 10.1085 18.6444C10.4249 18.5403 10.2345 18.6766 10.2717 18.6722C10.2961 18.6689 10.3939 18.6092 10.4051 18.6049C10.4262 18.5974 10.4305 18.6161 10.4527 18.6059C10.6454 18.515 10.7136 18.4729 10.7356 18.4514C10.7591 18.4274 10.7345 18.4214 10.8001 18.3795C11.0944 18.1899 11.3858 18.1863 10.8252 18.4009C10.8294 18.4105 10.8337 18.4201 10.8379 18.4297C10.9728 18.3611 11.3077 18.2073 11.2194 18.3082C11.1834 18.3514 10.9342 18.4678 10.7763 18.5437C10.6357 18.6135 10.5732 18.6518 10.7926 18.5806C10.797 18.5792 10.8016 18.5778 10.8063 18.5763C10.918 18.5413 10.9571 18.4821 11.1693 18.4658C11.2909 18.413 11.2664 18.3202 11.4394 18.2735C11.3982 18.2575 11.3576 18.241 11.3171 18.2241C11.5072 18.0816 11.775 17.9795 11.9085 17.8544C11.9556 17.813 12.025 17.552 12.086 17.7071C12.162 17.6379 12.5472 17.3264 12.6037 17.2481C12.613 17.2361 12.5997 17.2016 12.6532 17.1242C12.6812 17.0819 12.7285 17.028 12.8079 16.9522C12.8294 16.9434 12.8508 16.9343 12.8722 16.9249C12.7193 17.1572 13.0541 16.7983 13.0339 16.9501C12.9783 16.9675 12.8147 17.123 12.7756 17.134C12.7141 17.1543 12.7983 17.0145 12.6756 17.147C12.6687 17.1543 12.6611 17.1622 12.653 17.1709C12.6462 17.2536 12.6865 17.2455 12.7412 17.2139C12.8181 17.1721 12.9148 17.0765 12.9454 17.156C13.1073 16.8768 13.1585 16.8777 13.2035 16.8197C13.3795 16.5634 13.4499 16.3785 13.5634 16.1074C13.5678 16.0355 13.3369 16.5086 13.3066 16.5647C13.3313 16.3137 13.15 16.6681 13.0925 16.8344C13.0613 16.8301 13.0302 16.8256 12.9993 16.8203C13.1371 16.6548 13.2481 16.47 13.3116 16.2626C13.3268 16.2539 13.3419 16.245 13.357 16.2359C13.3531 16.2869 13.3478 16.3385 13.3413 16.3898C13.4394 16.2317 13.3231 16.3045 13.4764 16.1007C13.4492 16.0829 13.4219 16.0653 13.3945 16.0479C13.48 15.8342 13.5454 15.6092 13.5942 15.3788C13.5571 15.2491 13.6208 14.8029 13.6944 14.8904C13.7128 14.7055 13.6544 14.9311 13.6451 14.7568C13.641 14.6812 13.6432 14.5341 13.6657 14.4978C13.7442 14.5149 13.7464 14.7389 13.7948 14.8098C13.8143 14.7802 13.8019 14.2007 13.81 13.9361C13.8147 13.842 13.8235 13.7886 13.8494 13.8111C13.8533 13.726 13.812 13.7677 13.7814 13.6219C13.7246 13.2143 13.4618 12.5842 13.1129 12.4572C13.3409 12.7709 13.4482 12.8183 13.5804 13.0825C13.639 13.18 13.7667 13.637 13.747 13.9381C13.7431 14.1329 13.7253 14.2511 13.6919 14.1482C13.7031 14.1913 13.714 14.2351 13.7247 14.2784C13.7003 14.323 13.6756 14.3659 13.6505 14.4097C13.6482 14.2871 13.6433 14.1638 13.6368 14.0401C13.6606 14.0099 13.6843 13.9792 13.7079 13.9491C13.7036 13.9459 13.6992 13.9428 13.6949 13.9396C13.6813 13.9299 13.6677 13.9203 13.654 13.9109C13.6486 13.8615 13.6419 13.8123 13.634 13.7642C13.6562 13.7758 13.6784 13.7879 13.7004 13.8004C13.6982 13.7237 13.6926 13.6459 13.6835 13.5696C13.6591 13.5944 13.6344 13.6189 13.6094 13.6429C13.5407 13.3004 13.5778 13.4178 13.5695 13.2144C13.521 13.0795 13.5663 13.3169 13.4316 13.0528C13.2415 12.7687 13.4561 12.8983 13.1299 12.5616C13.1152 12.5668 13.1005 12.5721 13.0859 12.5774C13.0222 12.4955 12.9514 12.4156 12.8759 12.3349C12.8759 12.3576 12.8758 12.3802 12.8755 12.4027C12.7936 12.3295 12.6833 12.2503 12.5901 12.1686C12.5125 12.1002 12.4421 12.0424 12.4316 11.9936C12.5871 12.1418 12.6554 12.0545 12.6252 11.9997C12.6067 11.8728 11.5755 11.4384 11.0229 11.0215C10.855 10.8981 10.73 10.7852 10.6684 10.7272C10.3292 10.402 10.1508 10.0967 9.87765 9.76652C9.96308 10.0565 10.6626 10.8184 10.8125 10.9465C10.8249 10.9609 10.7514 11.0443 10.9264 11.0262C10.9447 11.0423 10.9636 11.0583 10.983 11.0741C11.2802 11.3221 11.6954 11.5109 12.0928 11.7221C12.0649 11.7429 12.0373 11.764 12.0096 11.7849C11.7806 11.59 11.4584 11.5798 11.554 11.4921C11.501 11.4621 11.4486 11.4316 11.3961 11.3999C11.3852 11.418 11.3743 11.436 11.3633 11.4541C11.2836 11.406 11.2045 11.3557 11.1267 11.3029C11.1386 11.2854 11.1504 11.268 11.1623 11.2505C11.0988 11.2075 11.0357 11.1624 10.9744 11.1162C10.9597 11.1254 10.9449 11.1345 10.9301 11.1436C10.9257 11.1463 10.9212 11.1491 10.9167 11.1518C10.7441 10.9919 10.1154 10.4896 10.447 10.6584C10.3723 10.5795 10.3006 10.498 10.2317 10.414C10.2199 10.4241 10.2082 10.4342 10.1965 10.4442C10.1651 10.4092 10.1342 10.3738 10.1037 10.3377C10.1242 10.3414 10.1447 10.345 10.1653 10.3484C10.0119 10.1948 9.96029 9.98599 9.84572 9.89469C9.88585 9.97808 9.92817 10.0609 9.97308 10.1431C9.88502 9.98779 9.6821 9.72988 9.66846 9.70332C9.62418 9.62615 9.62873 9.56983 9.58527 9.48464C9.54624 9.40745 9.53075 9.42895 9.52407 9.41425C9.33891 8.98468 9.5387 9.0919 9.30846 8.95742C9.31844 8.9279 9.32861 8.8986 9.33889 8.86938C9.3107 8.84819 9.28264 8.82693 9.25469 8.80563C9.20335 8.67911 9.15488 8.55287 9.10781 8.42575C9.09934 8.47688 9.09157 8.52933 9.08367 8.58085C8.99803 8.39471 9.01537 8.28809 9.00931 8.26899C8.99271 8.21578 8.95327 8.20426 8.94713 8.18787C8.66815 7.41991 8.86896 7.87661 8.84101 7.45442C8.83425 7.44648 8.828 7.4399 8.82222 7.4345C8.77152 7.3836 8.75521 7.42123 8.74186 7.46638C8.73327 7.49009 8.72528 7.51577 8.71203 7.52826C8.70791 7.51201 8.7039 7.497 8.69998 7.483C8.65337 7.31873 8.61943 7.25393 8.56982 7.06071C8.5561 7.00541 8.56829 6.9403 8.56101 6.90587C8.5545 6.87611 8.50692 6.78822 8.49386 6.71631C8.47154 6.59666 8.46425 6.43588 8.4436 6.27541C8.42496 6.14147 8.36227 5.73929 8.33006 5.46247C8.33004 5.46233 8.33003 5.46219 8.33001 5.46205C8.31581 5.33802 8.34296 5.36481 8.33948 5.33317C8.33795 5.31926 8.29992 5.2317 8.292 5.15039C8.23179 4.51079 8.21526 3.85153 8.30347 3.18496C8.33233 2.97689 8.37173 2.76149 8.4385 2.54879C8.49481 2.34687 8.63906 2.08515 8.67032 2.00161C8.67617 1.986 8.68033 1.9547 8.67508 1.99387C8.67488 2.00439 8.67318 1.99502 8.67547 2.03409C8.68071 2.0625 8.68404 2.18371 8.84257 2.26079C9.13147 2.32205 9.11479 2.20205 9.13167 2.21541C9.14709 2.20042 9.14285 2.20337 9.14074 2.20649C9.10463 2.25634 9.10639 2.21796 9.08672 2.24624C9.07845 2.25946 9.10228 2.2865 9.01836 2.40064C8.98919 2.4404 8.9957 2.37825 8.96993 2.42037C8.95706 2.44186 8.97956 2.4654 8.91471 2.59719C8.79946 2.83399 8.69455 2.94489 8.68505 2.96512C8.66633 3.00608 8.69583 3.00669 8.66877 3.06058C8.5388 3.3203 8.4326 3.54134 8.31979 3.77585C8.26408 3.88457 7.91363 4.64457 7.89483 4.68504C7.844 4.77437 7.83206 4.66367 7.78098 4.78596C7.779 4.82584 7.77847 4.8627 7.77664 4.90306C7.80905 4.85344 7.84135 4.80521 7.87464 4.75552C7.79387 4.89554 7.74825 5.07174 7.70718 5.17818C7.70344 5.18776 7.67328 5.24617 7.64664 5.30508C7.62161 5.36213 7.59465 5.42712 7.58038 5.47299C7.585 5.42718 7.58936 5.38213 7.59402 5.33617C7.58057 5.34824 7.56708 5.36044 7.55354 5.37277C7.49891 5.57513 7.42683 5.78563 7.35612 5.98817C7.33051 6.06167 7.31867 6.02962 7.2928 6.1037C7.14233 6.5351 7.26376 6.45381 6.96575 6.81741C7.02649 6.68147 7.17894 6.16156 7.2097 6.08877C7.23097 6.03805 7.43353 5.88242 7.27071 5.90938C7.41262 5.49369 7.36581 5.88078 7.48122 5.48704C7.46179 5.48899 7.44236 5.49097 7.42292 5.49297C7.44748 5.39667 7.46764 5.31656 7.49636 5.25406C7.50819 5.22896 7.5228 5.20517 7.54094 5.1834C7.46534 5.12816 7.69412 4.69863 7.8008 4.45656C7.95146 4.10426 8.12245 3.70352 8.2906 3.36182C8.34869 3.24383 8.41276 3.1931 8.42015 3.1784C8.43085 3.15694 8.43525 3.08368 8.45742 3.04046C8.53796 2.87992 8.83969 2.42429 8.83861 2.26949C8.31862 3.19828 7.83179 4.15879 7.44255 5.14642C7.46395 5.11718 7.45491 5.16198 7.43666 5.23378C7.37501 5.47239 7.17432 6.06828 7.1599 6.10685C7.14198 6.15418 7.12878 6.10478 7.12234 6.11847C7.07481 6.22105 7.08312 6.32509 7.07174 6.35892C7.06309 6.38461 7.02724 6.43066 6.99693 6.52246C6.99135 6.53931 7.00912 6.55046 7.00312 6.56856C6.96308 6.68824 6.92351 6.80626 6.88395 6.92646C6.88138 6.93359 6.84303 6.95481 6.83299 6.98516C6.82296 7.01564 6.84144 7.05476 6.83899 7.06254C6.80718 7.15868 6.73517 7.31782 6.70578 7.40909C6.69555 7.44108 6.72338 7.42562 6.7118 7.46119C6.67664 7.56998 6.64716 7.52134 6.61506 7.66037C6.60454 7.70661 6.63641 7.71373 6.60558 7.79921C6.58387 7.85956 6.53011 7.83665 6.52513 7.8457C6.51845 7.85803 6.49874 8.08429 6.44279 8.14411C6.38937 7.96343 6.3906 8.31087 6.4372 8.30565C6.41212 8.36918 6.38826 8.43113 6.36713 8.49403C6.36064 8.51372 6.35414 8.53331 6.34758 8.55295C6.35201 8.58475 6.35634 8.61661 6.36062 8.64844C6.23998 8.9886 6.21385 9.2056 6.14173 9.54576C6.13836 9.55847 6.09857 9.73496 6.08357 9.80659C6.07885 9.82529 6.07442 9.83906 6.07127 9.83531C6.07027 9.82588 6.06945 9.81427 6.06855 9.80588C6.05538 9.63789 6.08813 9.47386 6.15198 9.37815C6.09777 9.17765 6.17041 9.18853 6.22239 8.892C6.23983 8.79261 6.217 8.78036 6.21915 8.76894C6.23533 8.68069 6.25394 8.58042 6.27341 8.47517C6.34597 8.11685 6.4845 7.71909 6.59773 7.54149C6.60121 7.46486 6.51391 7.71671 6.53113 7.61348C6.5365 7.55566 6.94115 6.25753 6.88424 6.69633C6.89628 6.65282 6.9083 6.60944 6.9204 6.56594C6.85966 6.49813 6.94822 6.29128 7.01473 6.3406C7.0062 6.31543 6.99775 6.29003 6.98926 6.26476C6.98974 6.22066 6.99868 6.17131 7.01688 6.10394C7.04955 5.98269 7.18609 5.58732 7.32272 5.19509C7.48287 4.75185 7.69105 4.3357 7.70237 4.29171C7.6862 4.28217 7.67003 4.27263 7.65386 4.26308C7.50828 4.55833 7.37772 4.85915 7.26958 5.17705C7.15243 5.53083 7.02858 5.89265 6.87218 6.2682C6.89588 6.2527 6.91958 6.23723 6.94327 6.2218C6.82255 6.50305 6.70266 6.7844 6.58446 7.06735C6.65438 6.75009 6.79274 6.25388 6.92636 5.94134C6.95003 5.88599 6.95905 5.93549 6.96627 5.92339C6.98522 5.89143 6.9574 5.84144 6.99542 5.71671C7.03329 5.5924 7.16694 5.29298 7.1756 5.26483C7.18265 5.2418 7.18788 5.19827 7.19315 5.1511C7.20093 5.08456 7.21396 5.00366 7.23581 4.94845C7.28471 4.82632 7.28035 4.9195 7.29061 4.8952C7.33461 4.79298 7.3584 4.69873 7.3939 4.62192C7.44651 4.5069 7.60221 4.29068 7.56874 4.17921C7.52796 4.25902 7.48704 4.34035 7.44768 4.4198C7.62235 3.96345 7.87729 3.66569 8.02358 3.2045C7.9889 3.06476 7.82174 3.42481 7.93696 3.10717C7.91062 3.16217 7.8844 3.21726 7.85844 3.27219C7.86964 3.29375 7.88084 3.31531 7.89205 3.33687C7.8328 3.42429 7.77386 3.51213 7.71535 3.6002C7.74419 3.58098 7.77306 3.56181 7.80193 3.54272C7.64997 3.88151 7.50909 4.22935 7.36983 4.31019C7.38742 4.32657 7.40503 4.3429 7.42267 4.35919C7.25096 4.66143 7.1535 5.1958 7.07015 5.06206C7.07064 5.07834 7.07132 5.09433 7.0722 5.11002C7.07236 5.11217 7.07251 5.11431 7.07267 5.11646C6.98171 5.30367 7.05997 5.23614 7.04034 5.31225C7.03497 5.33319 6.87994 5.70498 6.90156 5.52462C6.7482 5.88647 6.89922 5.81024 6.86948 5.91408C6.73307 6.13319 6.67301 6.58967 6.6455 6.38006C6.6303 6.41445 6.61513 6.44884 6.59995 6.48328C6.63018 6.62294 6.51357 6.71217 6.44559 6.83037C6.4298 6.87304 6.41428 6.91504 6.39851 6.95793C6.41235 6.99451 6.42637 7.03063 6.44028 7.06714C6.19794 7.43671 6.5439 7.40585 6.22922 7.51085C6.22323 7.47629 6.2168 7.44329 6.21075 7.4092C6.22547 7.33735 6.24014 7.26639 6.25485 7.19578C6.15908 7.47092 6.06438 7.74687 5.97647 8.03229C5.91469 8.15542 5.87778 8.26578 5.85162 8.39031C5.81355 8.57421 5.79506 8.7505 5.70095 9.00471C5.69984 9.04411 5.6987 9.0841 5.69775 9.124C5.64646 9.07298 5.68615 8.92277 5.60181 9.19917C5.55462 9.21485 5.58824 9.0216 5.6388 8.94524C5.65103 8.92656 5.64601 9.1066 5.68896 8.91247C5.71799 8.78255 5.61685 9.00536 5.7193 8.62353C5.70599 8.63551 5.69268 8.64742 5.67933 8.65947C5.68863 8.61794 5.69781 8.57664 5.70682 8.53558C5.73834 8.504 5.76974 8.47255 5.80101 8.44105C5.79764 8.41861 5.7931 8.39822 5.78867 8.37764C5.77782 8.28516 5.76949 8.19742 5.82694 8.01976C5.82434 8.08676 5.89446 8.01382 5.92594 7.90253C5.90906 7.89763 5.89218 7.89273 5.8753 7.88783C5.94359 7.61643 5.96564 7.72377 5.99461 7.49304C6.01471 7.47552 6.03489 7.45783 6.05514 7.43998C6.03686 7.30367 6.14012 6.85852 6.19667 6.96433C6.15633 6.81693 6.27615 6.57513 6.37124 6.50232C6.35708 6.48959 6.34293 6.47685 6.32878 6.4641C6.3421 6.41294 6.35549 6.3617 6.36889 6.31057C6.38825 6.286 6.4076 6.26153 6.42699 6.23696C6.42889 6.19813 6.43077 6.1594 6.43267 6.12066C6.45649 6.10482 6.4803 6.08903 6.50409 6.07328C6.50328 6.00997 6.50276 5.94593 6.50198 5.88272C6.52705 5.85224 6.55206 5.82195 6.57701 5.79189C6.54371 5.77615 6.65267 5.43004 6.70804 5.34189C6.70759 5.31025 6.70753 5.27745 6.70709 5.24577C6.72831 5.23741 6.74934 5.22959 6.77065 5.22095C6.76481 5.19492 6.75889 5.16911 6.75289 5.14354C6.77847 5.10594 6.80505 5.06536 6.83053 5.02796C6.83463 5.02152 6.83876 5.01505 6.84292 5.00855C6.84325 4.75439 6.91797 4.77936 6.93601 4.73061C6.96995 4.64024 7.04655 4.32813 7.0712 4.28129C7.09543 4.23369 7.13315 4.22447 7.15331 4.18685C7.48711 3.57733 7.29454 3.80323 7.34174 3.6712C7.36753 3.60092 7.41624 3.56569 7.4422 3.50498C7.48546 3.40087 7.70627 2.87561 7.72566 2.84821C7.75208 2.80836 7.82109 2.96878 7.86035 2.81634C7.79834 2.77796 8.01671 2.51728 7.85516 2.60877C7.92631 2.49169 7.99914 2.37338 8.07228 2.25755C7.99031 2.22931 8.11878 2.10603 8.21134 1.93702C8.24063 1.88421 8.27215 1.82315 8.3193 1.74282C8.3521 1.69398 8.34209 1.68421 8.46093 1.5486C8.48653 1.52614 8.47217 1.52354 8.59438 1.43958C8.65368 1.40569 8.74217 1.34582 8.93521 1.33634C9.02613 1.33379 9.15943 1.35006 9.29389 1.42993C9.42335 1.5063 9.50603 1.61729 9.54824 1.70161C9.68133 2.05931 9.60619 2.02215 9.61992 2.0729C9.61704 2.10856 9.61293 2.13413 9.60893 2.1564C9.59413 2.23216 9.58865 2.24732 9.57761 2.28692C9.48369 2.55371 9.44918 2.57643 9.41793 2.63694C9.38762 2.68526 9.36341 2.70867 9.3412 2.69448C9.34166 2.74359 9.3446 2.79147 9.34931 2.83925C9.22361 3.11529 9.21013 3.4823 9.20119 3.8547C9.19021 4.32418 9.22308 4.83419 9.27823 5.35241C9.35277 6.03675 9.38559 6.67494 9.56666 7.13912C9.59245 7.20671 9.61703 7.27367 9.64093 7.33999C9.66135 7.39692 9.63136 7.39881 9.64601 7.44011C9.72342 7.65853 9.9334 8.18275 10.0422 8.4526C10.0765 8.53985 10.0693 8.59273 10.08 8.62039C10.1166 8.71458 10.1406 8.67726 10.1586 8.71962C10.1852 8.78768 10.3225 9.14305 10.3855 9.2549C10.4154 9.31134 10.4786 9.36101 10.5096 9.42819C10.5123 9.43398 10.4804 9.43992 10.4828 9.44478C10.5514 9.56082 10.5303 9.47812 10.5536 9.51711C10.7205 9.79353 10.9319 10.0593 11.1747 10.2917C11.2346 10.35 11.3183 10.4484 11.3741 10.4938C11.3922 10.5086 11.3769 10.476 11.4176 10.5024C11.4248 10.5071 11.4337 10.5135 11.4449 10.5222C11.4707 10.5422 11.4623 10.5731 11.4916 10.5964C11.6205 10.6969 11.7166 10.6437 11.7983 10.7833C12.0314 10.9225 12.5145 11.1219 12.805 11.3097C12.8717 11.3527 12.8945 11.3895 12.9584 11.4355C12.9958 11.4627 13.0682 11.4946 13.1324 11.5414C13.1412 11.5472 13.1499 11.5534 13.1581 11.5603C13.2042 11.5994 13.2682 11.6841 13.3799 11.7758C13.4969 11.8699 13.6623 12.0049 13.6892 12.0341C13.7226 12.068 13.714 12.1065 13.7466 12.1413C13.8485 12.239 14.1148 12.5539 14.1954 12.7379C14.2891 12.9294 14.3073 13.0547 14.328 13.1215C14.3467 13.1834 14.3911 13.2496 14.3978 13.2787C14.4084 13.3244 14.3787 13.3398 14.3897 13.3962C14.4069 13.4869 14.4415 13.5784 14.4537 13.7134C14.4598 13.7823 14.4637 13.8478 14.4661 13.9162C14.5213 15.1621 14.3647 16.7128 13.2745 17.7578C12.7605 18.2677 12.0653 18.819 11.3559 19.0978C11.2491 19.1447 11.1704 19.185 11.0788 19.2299C11.0069 19.2656 10.9103 19.3168 10.7487 19.3837C10.6134 19.4382 10.6567 19.3833 10.5528 19.4327C10.5048 19.4547 10.528 19.474 10.4657 19.4989C10.1912 19.6105 9.84466 19.6606 9.72222 19.6802C9.67352 19.6886 9.62136 19.7277 9.5191 19.7412C8.82916 19.8331 8.06144 19.757 7.37282 19.6313C7.30545 19.6191 7.23972 19.6073 7.17431 19.5958C6.79907 19.5292 6.23012 19.4398 5.79693 19.359C5.45873 19.2958 5.11285 19.2291 4.75999 19.1527C4.5828 19.1141 4.40751 19.0742 4.22232 19.0252C4.12984 19.0006 4.03697 18.9745 3.93477 18.9405C3.82298 18.8962 3.75145 18.898 3.5181 18.7374C3.02317 18.3498 2.66024 17.8926 2.37699 17.4387C2.10189 16.9952 1.89 16.5216 1.73255 16.0363C1.36445 14.7171 1.34306 13.5186 1.40132 12.273C1.29382 13.0754 1.32736 14.1758 1.45932 15.089C1.50499 15.4007 1.55749 15.7089 1.66456 16.0579C1.98465 17.0672 2.54281 18.0646 3.47383 18.7947C3.70115 18.9527 3.77329 18.9537 3.87658 18.9954C3.97179 19.0279 4.05797 19.0524 4.14049 19.0747C4.30818 19.1197 4.46383 19.1553 4.62119 19.1897C4.93431 19.2578 5.23975 19.3168 5.54625 19.3748C6.15664 19.4897 6.7596 19.5973 7.35864 19.708C7.44094 19.7232 7.51859 19.7366 7.60032 19.7499C8.5097 19.9112 9.89118 19.9446 10.9155 19.4215C10.9582 19.4026 11.0345 19.3407 11.1064 19.3113C11.1077 19.3108 11.1102 19.31 11.1137 19.3091C11.1626 19.2944 11.3808 19.2365 11.4571 19.2015C11.3477 19.1703 11.6979 19.082 11.8037 19.022C11.9327 18.9528 12.1948 18.7641 12.4821 18.571C12.7401 18.3955 12.6878 18.4686 12.7031 18.4599C12.795 18.3992 12.793 18.3399 12.8513 18.2831C12.9308 18.2061 13.1207 18.0335 13.3374 17.822C13.8891 17.3267 14.2818 16.4113 14.3552 16.0853C14.3907 15.9584 14.4187 15.9617 14.4262 15.9329C14.4452 15.8563 14.4414 15.7416 14.4637 15.6205C14.5051 15.4017 14.5598 15.155 14.5696 15.0357C14.5972 14.7596 14.5748 14.2546 14.5588 13.9133C14.5583 13.8987 14.5577 13.8843 14.5571 13.8702C14.5516 13.7571 14.5814 13.7611 14.5773 13.7086C14.5731 13.4807 14.3926 12.8531 14.2179 12.5767C13.9757 12.1138 13.5636 11.7497 13.2815 11.5356C13.2729 11.5108 13.2647 11.4863 13.2577 11.4625C13.2421 11.4578 13.2269 11.4534 13.2121 11.4492C13.1848 11.4359 13.1575 11.4233 13.1304 11.4115C12.437 10.8864 11.8966 10.7671 11.4768 10.4244C11.4679 10.4176 11.4591 10.4108 11.4503 10.4039C11.3995 10.3691 11.1906 10.1482 11.1572 10.1095C11.1277 10.0798 11.0739 10.073 11.0346 10.0229C10.9802 9.95212 11.0828 9.97232 10.975 9.87543C10.9461 9.84867 10.9492 9.89582 10.8924 9.84001C10.8688 9.828 10.5621 9.41062 10.5536 9.37963C10.5315 9.33753 10.5609 9.2714 10.5558 9.26029C10.5297 9.20252 10.492 9.22726 10.4674 9.19208C10.394 9.08797 10.3453 8.9241 10.3357 8.90558C10.2136 8.68646 9.99297 8.24953 9.91465 7.97371C9.90357 7.93574 9.93675 7.92831 9.93535 7.92146C9.92621 7.87705 9.88092 7.86508 9.86506 7.82467C9.79298 7.64112 9.71022 7.35227 9.62645 7.1154C9.61702 7.08733 9.60844 7.06057 9.60054 7.03565C9.59412 7.01573 9.56217 6.97935 9.55249 6.942C9.50091 6.72861 9.55163 6.78798 9.54878 6.77621C9.5446 6.74651 9.5001 6.70266 9.48138 6.62067C9.43035 6.41531 9.38153 5.95603 9.35492 5.68175C9.33451 5.47788 9.37165 5.47581 9.37094 5.46245C9.3697 5.44388 9.35363 5.40625 9.33699 5.34559C9.32767 5.31251 9.3184 5.27281 9.31215 5.22662C9.27999 4.98442 9.31278 5.00605 9.30263 4.90875C9.30203 4.90086 9.27421 4.91684 9.26234 4.80522C9.23729 4.59005 9.24623 4.11209 9.25277 3.89591C9.25425 3.81183 9.22721 3.79125 9.23084 3.70586C9.23418 3.56797 9.29844 3.28308 9.30383 3.26389C9.30481 3.25782 9.27544 3.23863 9.28151 3.2037C9.28869 3.16263 9.31176 3.13072 9.31794 3.10142C9.34698 2.93835 9.38892 2.69089 9.46895 2.79752C9.4596 2.74604 9.45237 2.69425 9.45115 2.63414C9.48346 2.56423 9.52506 2.52513 9.60654 2.29602C9.62131 2.24187 9.6247 2.25721 9.64894 2.11426C9.65123 2.09696 9.65338 2.07725 9.65473 2.05295C9.65387 2.02164 9.66411 2.0288 9.64543 1.88815C9.63386 1.82592 9.61498 1.73948 9.54458 1.62677C9.47794 1.51601 9.32955 1.38171 9.15784 1.33259C8.84906 1.25142 8.69472 1.3509 8.61067 1.38986C8.43887 1.49716 8.46352 1.50223 8.43194 1.52781C8.41108 1.54958 8.39619 1.56713 8.38315 1.58308C8.3114 1.67421 8.29101 1.7127 8.2603 1.76085C8.2035 1.85359 8.16194 1.92844 8.116 2.01203C8.02901 2.17136 7.94798 2.32865 7.86692 2.48708C7.82193 2.57511 7.76434 2.63915 7.72653 2.71468C7.68864 2.7892 7.55364 3.13514 7.52713 3.19108C7.47788 3.28923 7.2095 3.85489 7.17529 3.92651C7.10606 4.06358 7.00194 4.1804 6.98473 4.24188C6.9708 4.29155 7.01375 4.25965 6.98196 4.35059C6.92594 4.5082 6.7851 4.76467 6.76556 4.82112C6.75791 4.84361 6.78896 4.80702 6.727 4.9928C6.7246 5.00034 6.722 5.00833 6.71918 5.01683C6.68586 5.11754 6.64625 5.16333 6.63393 5.19986C6.63027 5.21101 6.67087 5.20615 6.59872 5.40285C6.54894 5.53838 6.50211 5.58785 6.49707 5.60234C6.48943 5.62428 6.50067 5.68556 6.47016 5.7723C6.3988 5.9743 6.24053 6.33547 6.17365 6.52898C6.16075 6.56626 6.19962 6.56521 6.14699 6.71389C6.10924 6.82075 6.08792 6.79233 6.07349 6.83257C6.0508 6.89612 6.05382 7.00171 6.00705 7.14338C5.9689 7.26918 5.75939 7.82214 5.62877 8.34547C5.5771 8.56351 5.53016 8.74137 5.52187 8.7649C5.50542 8.81006 5.49305 8.86506 5.4725 8.88518C5.46198 8.8619 5.45154 8.83832 5.44102 8.81519C5.538 8.62051 5.46021 8.69125 5.46816 8.63623C5.47591 8.58285 5.51014 8.43515 5.52979 8.32556C5.54438 8.24819 5.55638 8.19167 5.55877 8.16324C5.56143 8.13342 5.51264 8.1902 5.53705 8.03124C5.56407 7.86282 5.63899 7.81555 5.58161 7.73034C5.72928 7.54011 5.70405 7.31065 5.60443 7.54922C5.58026 7.61709 5.48278 7.86264 5.37754 8.29492C5.28639 8.68243 5.1563 9.19641 5.12653 9.39985C5.1123 9.4864 5.09639 9.59926 5.09056 9.75971C5.0855 9.97094 5.08256 10.238 5.06989 10.4274C5.05874 10.5908 5.03748 10.993 4.99631 10.9753C4.985 11.1192 5.03312 10.9682 5.03766 10.9987C5.04696 11.0631 4.99983 11.5157 4.99783 11.6009C4.98686 12.0244 5.01501 12.5587 4.94898 12.968C4.93837 12.9486 4.92776 12.9292 4.91715 12.9099C4.89945 12.8161 4.94336 12.3895 4.89131 12.339C4.88043 12.6496 4.87032 12.9578 4.86077 13.2686C4.85254 13.5364 4.82622 13.7887 4.77734 14.0153C4.83465 14.0292 4.66893 14.5368 4.63 14.5288C4.61382 14.5115 4.59737 14.4945 4.58083 14.4777C4.7659 14.2644 4.64805 14.2409 4.75686 14.0606C4.77702 13.9751 4.73483 13.9943 4.73667 13.9505C4.73854 13.5043 4.81825 13.9613 4.82899 13.6076C4.76565 13.7088 4.77539 13.4173 4.7705 13.2785C4.77047 13.2762 4.77058 13.2719 4.77081 13.2659C4.77404 13.173 4.7994 12.7443 4.80053 12.69C4.8066 12.3602 4.79799 11.7924 4.84021 11.4657C4.85394 11.2066 4.82188 11.0636 4.82312 10.8285C4.82411 10.6508 4.84863 10.7016 4.85259 10.6184C4.86115 10.4418 4.7827 10.3816 4.90098 10.2735C4.89242 10.1535 4.88402 10.0332 4.87574 9.91305C4.8933 9.9139 4.91086 9.91476 4.92841 9.91561C4.93106 9.86099 4.93393 9.80295 4.93633 9.75243C4.93791 9.71903 4.94006 9.68692 4.94256 9.65629C4.92792 9.62031 4.91379 9.58534 4.89999 9.55118C4.96648 9.22868 4.99148 9.37857 5.04877 9.32766C5.06241 9.26656 5.07652 9.20858 5.0908 9.15246C5.06173 9.10135 5.03293 9.0506 5.00417 9.00065C5.05746 8.75759 5.1108 8.5397 5.1569 8.33164C5.17684 8.32174 5.19676 8.3118 5.21666 8.30192C5.19959 8.29798 5.18251 8.29404 5.16544 8.29011C5.1678 8.27793 5.17013 8.26578 5.17244 8.25366C5.28245 7.74659 5.39034 7.43071 5.50415 7.05253C5.50918 6.94179 5.29655 7.54628 5.28139 7.59829C5.23829 7.73194 5.17512 7.94319 5.11047 8.24119C5.07039 8.43169 5.02238 8.60933 4.99105 8.60284C5.00361 8.76365 4.87995 9.2678 4.7995 9.50398C4.84521 9.17439 4.90436 8.94068 4.95686 8.70909C4.93479 8.71206 4.91274 8.71494 4.89065 8.71802C5.01815 8.48307 5.03592 8.42789 5.02133 8.22326C5.023 8.17848 5.02559 8.12923 5.02704 8.08343C5.05444 8.08955 5.08184 8.09568 5.10924 8.10181C5.07837 7.80905 5.34769 7.5006 5.2356 7.45369C5.27865 7.34567 5.32216 7.23898 5.36548 7.13447C5.426 6.89924 5.22026 7.22386 5.54952 6.33899C5.57231 6.27844 5.59724 6.3007 5.62594 6.20794C5.63421 6.18124 5.64258 6.0145 5.74473 5.72658C5.76071 5.68158 5.78706 5.68681 5.80608 5.64114C5.85024 5.53561 5.87335 5.3038 5.92143 5.42919C6.09004 5.01084 5.96314 5.16539 5.98172 5.02379C5.99367 4.93095 6.03627 4.96345 6.05086 4.88476C6.06104 4.83025 6.04377 4.82127 6.05121 4.76333C6.06255 4.70117 6.09784 4.58603 6.18439 4.40021C6.16746 4.45133 6.15296 4.4973 6.13546 4.55259C6.15848 4.53143 6.18165 4.51032 6.20389 4.49193C6.27135 4.2347 6.30734 4.28029 6.28173 4.14039C6.38574 3.98784 6.45085 3.84918 6.54545 3.63042C6.73048 3.20902 6.55296 3.38337 6.88391 2.96493C6.90681 2.88265 6.93055 2.79935 6.95393 2.71744C7.04674 2.60797 7.03285 2.72773 7.1345 2.54683C6.9869 2.65343 7.21258 2.27916 7.18355 2.17756C7.20274 2.17883 7.22192 2.18013 7.24108 2.18147C7.26207 2.1416 7.2853 2.09773 7.30704 2.05698C7.29467 2.05022 7.28229 2.04345 7.26992 2.03669C7.30753 1.98859 7.34898 1.93387 7.3874 1.8854C7.3991 1.83468 7.4093 1.78709 7.42102 1.73722C7.48693 1.67933 7.55279 1.62268 7.62242 1.56212C7.65277 1.51437 7.68455 1.46506 7.72134 1.41042C7.69275 1.4164 7.66416 1.42267 7.63547 1.42933C7.66047 1.3953 7.68421 1.36368 7.71843 1.31816C7.75804 1.26978 7.75746 1.25596 7.9132 1.08168C7.81431 1.18125 7.80832 1.18331 7.79066 1.19174C7.77744 1.19615 7.77533 1.18566 7.79044 1.15488C7.79503 1.14359 7.81746 1.10855 7.85989 1.05659C7.88227 1.02961 7.91049 0.996614 7.96023 0.948591C7.97233 0.937686 8.04218 0.866057 8.17858 0.778886C8.31963 0.705667 8.55042 0.512891 9.14407 0.566797C9.43316 0.585612 9.90001 0.833263 10.0886 1.10199C10.2973 1.37052 10.3501 1.5932 10.3806 1.74199C10.4277 2.08277 10.4006 2.03813 10.4031 2.11684C10.3958 2.22676 10.3828 2.29435 10.3713 2.35161C10.3562 2.42545 10.3437 2.47127 10.3283 2.52297C10.3104 2.58139 10.2889 2.63879 10.2708 2.68196C10.1804 2.88594 10.1843 2.8229 10.1557 2.85078C10.1342 2.8624 10.0873 2.92641 10.0719 2.99428C10.0697 3.00777 10.108 3.02965 10.0773 3.15612C10.0412 3.33573 10.0272 3.24697 10.018 3.27919C10.0164 3.28594 10.0289 3.35608 10.0232 3.42601C10.0198 3.46513 9.99466 3.50319 9.99415 3.50843C9.99233 3.53402 10.0207 3.54568 10.0184 3.58177C10.0122 3.67546 9.99098 3.80672 9.99052 3.91053C9.99017 3.95587 10.0073 4.00203 10.0075 4.02305C10.0076 4.0548 9.98109 4.09678 9.98164 4.13143C9.98313 4.25541 10.0803 4.44806 9.96137 4.51506C10.0803 4.63313 9.96691 4.91295 10.041 4.88597C10.0416 4.97824 10.0555 5.10996 10.0762 5.25979C10.1374 5.73528 10.2182 6.20508 10.1251 6.19316C10.2589 6.35491 10.1791 6.34553 10.1927 6.41381C10.2083 6.48594 10.2218 6.44482 10.2322 6.49985C10.2568 6.62611 10.2767 6.72726 10.3118 6.8207C10.2899 6.81231 10.268 6.8032 10.2461 6.79336C10.2565 6.82861 10.2668 6.84575 10.2772 6.85721C10.3098 6.9102 10.3359 6.92122 10.3932 7.05839C10.5436 7.42285 10.4538 7.27508 10.431 7.34517C10.469 7.32089 10.6085 7.72155 10.6172 7.75836C10.6226 7.78206 10.531 7.70379 10.6365 7.92615C10.648 7.90731 10.6595 7.88852 10.671 7.86976C10.6884 7.98429 10.8275 8.24021 10.8416 8.28421C10.8475 8.30479 10.7672 8.47238 10.9135 8.51871C10.9032 8.53764 10.8929 8.55663 10.8827 8.57568C10.9523 8.67069 11.0232 8.76088 11.0951 8.84558C11.0762 8.8762 11.0575 8.90703 11.039 8.93808C11.0565 8.96842 11.0742 8.99825 11.0921 9.02766C11.1042 8.99353 11.1166 8.95975 11.1292 8.92591C11.2251 9.11758 11.4029 9.28333 11.3534 9.37189C11.3932 9.39475 11.4328 9.41597 11.4725 9.43609C11.4655 9.47674 11.459 9.51736 11.4534 9.55848C11.5876 9.69473 11.6065 9.68006 11.7198 9.7402C11.6997 9.75514 11.6796 9.76997 11.6593 9.78471C11.7185 9.80921 11.7995 9.85146 11.8793 9.89503C11.9265 9.92137 11.9738 9.94887 12.0166 9.97612C12.0717 10.012 12.1567 10.1045 12.1737 10.1108C12.1894 10.1174 12.4072 10.0893 12.3713 10.2001C12.641 10.289 12.7677 10.4105 12.9041 10.485C12.9957 10.5351 13.0527 10.5351 13.1699 10.6035C13.3384 10.7011 13.5203 10.8518 13.6291 10.9444C13.6331 10.9477 13.6369 10.9508 13.6406 10.9536C13.6622 10.967 13.6833 10.9538 13.701 10.9677C13.8024 11.0463 13.7205 11.014 13.85 11.1182C13.862 11.1283 13.9851 11.1844 14.1201 11.3131C14.1942 11.3798 14.374 11.6201 14.391 11.6435C14.4672 11.737 14.4744 11.6019 14.6568 12.006C14.6615 11.9876 14.666 11.9692 14.6703 11.9508C15.0007 12.3962 14.9459 12.5217 14.9878 12.6188C14.9926 12.6308 15.0609 12.7448 15.0799 12.8183C15.1128 12.9429 15.0918 13.0003 15.0973 13.0268C15.1193 13.1219 15.1934 13.4313 15.1754 13.624C15.2165 13.6009 15.2609 13.7319 15.2754 13.8915C15.2917 14.0314 15.2774 14.2134 15.2197 14.2755C15.2411 14.368 15.2614 14.4616 15.2802 14.5582C15.2617 14.6006 15.2428 14.6436 15.2236 14.6865C15.2402 14.7134 15.2566 14.7407 15.2729 14.7683C15.2278 14.9081 15.1793 15.0488 15.1265 15.1889C15.164 15.202 15.2015 15.215 15.239 15.2283C15.2304 15.2687 15.2213 15.3095 15.212 15.3503C15.1776 15.3787 15.143 15.4069 15.1082 15.4348C15.1071 15.4871 15.1053 15.5389 15.1028 15.5917C15.1227 15.6081 15.1425 15.6246 15.1623 15.6412C15.1324 15.932 14.9725 15.7328 15.0076 16.3247C14.9657 16.4056 14.9217 16.4859 14.8755 16.5651C14.9229 16.6901 14.8044 16.8551 14.7462 17.0038C14.7047 17.1087 14.7387 17.1186 14.6673 17.2583C14.5934 17.398 14.5661 17.3761 14.5603 17.3868C14.4945 17.4971 14.4657 17.5952 14.4076 17.6715C14.3986 17.6828 14.3474 17.6921 14.2742 17.7885C14.1998 17.8844 14.1875 17.969 14.0612 18.1027C13.996 18.1704 13.9533 18.1685 13.8946 18.2257C13.867 18.2523 13.8402 18.2798 13.8138 18.3078C13.6372 18.5011 13.518 18.7711 13.2384 18.7804C13.2186 18.8328 12.9619 19.1576 12.8001 19.2624C12.5556 19.4227 12.6259 19.3259 12.5248 19.3838C12.5103 19.3909 12.4411 19.4547 12.2283 19.5699C12.1905 19.5901 12.2095 19.6042 12.2042 19.6074C11.9841 19.7285 11.6212 19.8768 11.4034 19.9663C11.3848 19.9736 11.3618 19.9835 11.3386 19.9938C11.3225 20.0001 11.2631 20.0978 11.0113 20.1205C10.7116 20.3305 9.95102 20.4175 9.49596 20.5396C9.42796 20.5487 9.34942 20.5335 9.31953 20.5363C9.07581 20.5554 9.15626 20.63 8.61964 20.5256C8.66177 20.5599 8.53591 20.5877 8.36278 20.5738C8.10198 20.5507 8.29344 20.5037 8.08666 20.49C8.08494 20.5075 8.08321 20.5249 8.08149 20.5423C7.67612 20.4574 7.55226 20.4887 7.22255 20.4442C7.18205 20.4387 7.13834 20.4318 7.09052 20.423C6.94893 20.397 6.74597 20.32 6.71261 20.3137C6.70029 20.3115 6.53574 20.324 6.52158 20.3217C6.43741 20.3074 6.39367 20.2795 6.32171 20.266C6.0826 20.2211 5.78566 20.2209 5.85635 20.1327C5.78497 20.1407 5.71714 20.1492 5.64553 20.157C5.41503 20.0046 5.19781 20.1112 5.16466 19.9991C5.11654 20.0113 5.06468 20.0227 5.0157 20.0346C4.76835 19.9819 4.51856 19.9272 4.2537 19.8616C4.12037 19.8284 3.98376 19.7929 3.82719 19.7454C3.74808 19.7211 3.66516 19.6947 3.55926 19.6545C3.44278 19.6015 3.35932 19.6023 3.03079 19.368C2.36854 18.8404 1.912 18.2279 1.55316 17.5725C1.49146 17.5432 1.24395 17.0067 1.24279 16.9758C1.21139 16.8405 1.33138 16.9454 1.21369 16.6951C1.17313 16.6785 1.13253 16.6613 1.09193 16.6435C0.963344 16.3182 1.05089 16.4655 1.02734 16.3295C1.01274 16.2934 0.999893 16.2934 0.985115 16.2738C0.97759 16.2627 0.969412 16.2465 0.960254 16.2183C0.799194 15.7389 0.688502 14.9653 0.648868 14.5469C0.640447 14.4639 0.664719 14.4741 0.662372 14.4481C0.65561 14.3766 0.614794 14.239 0.605283 14.096C0.559012 13.4345 0.563732 12.5748 0.629225 11.8183C0.649141 11.5845 0.66969 11.36 0.691002 11.1532C0.696883 11.0964 0.72481 11.0922 0.729108 11.0536C0.73488 11.0006 0.722077 10.8803 0.729161 10.8237C0.735655 10.7711 0.759414 10.7383 0.766822 10.6818C0.800668 10.4223 0.803135 10.0602 0.902184 9.78392C0.909963 9.75998 1.06138 9.47985 1.07003 9.47479C1.11876 9.44292 1.14564 9.71088 1.27373 9.29583C1.27027 9.68415 1.38123 9.57579 1.50904 9.09893C1.47948 9.34394 1.45395 9.59068 1.43361 9.83788C1.445 9.83975 1.45639 9.84161 1.46778 9.84348C1.55423 9.62808 1.60494 9.41085 1.66775 9.0783C1.67646 9.09053 1.68519 9.10273 1.69394 9.11488C1.69537 9.4174 1.65301 9.77733 1.69777 10.0117C1.79235 9.68801 1.89631 9.36812 2.00673 9.05444C2.01215 9.0721 2.01768 9.08926 2.0231 9.10717C2.01667 9.26615 1.97558 9.60767 1.97816 9.74032C1.98606 10.2445 2.09812 9.317 2.1245 9.47677C2.0405 9.99386 1.98211 10.5162 1.93977 11.0365C1.95111 11.054 2.29529 9.07199 2.41971 9.11856C2.39822 9.27995 2.37848 9.44158 2.36093 9.6033C2.39841 9.53545 2.43616 9.46858 2.47431 9.40174C2.47945 9.42281 2.48463 9.44375 2.48986 9.46458C2.46692 9.73702 2.4502 10.0092 2.44001 10.2813C2.51662 9.45937 2.61488 9.08254 2.85613 8.92753C2.85722 8.95071 2.85836 8.97371 2.85957 8.99653C2.69371 9.14698 2.59803 9.98448 2.58292 10.4293C2.62989 10.3431 2.64818 9.95191 2.68389 9.87331C2.69372 9.85108 2.70903 9.93559 2.73012 9.88378C2.78222 9.74832 2.92715 9.16291 2.95652 9.25638C2.96828 9.31826 2.86514 10.2714 2.84981 10.458C2.94643 10.0271 3.02674 9.58657 3.16646 9.16301C3.20193 9.45275 3.26154 9.70793 3.2034 10.1999C3.22353 10.3537 3.4366 9.32684 3.47263 9.30609C3.46655 9.49065 3.46307 9.674 3.46278 9.85589C3.4781 9.70427 3.49556 9.55238 3.515 9.39932C3.52374 9.40038 3.53247 9.40144 3.54121 9.40249C3.51341 9.80334 3.53681 10.1625 3.4854 10.61C3.53282 10.5998 3.5571 10.3327 3.57447 10.2047ZM4.72611 11.6576C4.68719 11.666 4.70034 11.4888 4.70515 11.3871C4.69754 11.4019 4.68993 11.4167 4.68231 11.4317C4.69794 11.2173 4.72957 10.8186 4.65554 10.8004C4.65281 10.6479 4.71497 10.7169 4.72449 10.6683C4.72823 10.6504 4.69925 10.4474 4.75269 10.2895C4.75418 10.2532 4.75588 10.2128 4.75743 10.1758C4.73327 10.1671 4.70912 10.1584 4.68496 10.1498C4.71714 10.0996 4.74948 10.0465 4.78176 9.99529C4.76037 10.5495 4.74212 11.1035 4.72614 11.6568C4.72613 11.657 4.72612 11.6573 4.72611 11.6576ZM5.74876 5.93875C5.82627 5.75151 5.94612 5.46638 5.86249 5.50373C5.82503 5.62521 5.78741 5.74749 5.75007 5.86942C5.74961 5.8926 5.74919 5.91565 5.74876 5.93875ZM15.0668 15.1545C14.9805 15.3479 15.0172 15.5396 14.9401 15.8581C14.9538 15.8606 14.9676 15.863 14.9814 15.8655C14.9782 15.7268 15.0566 15.3872 15.0668 15.1545ZM4.14608 15.1755C4.13525 15.1734 4.12306 15.1714 4.10955 15.1692C4.13482 15.0856 4.15216 15.1332 4.16127 15.1212C4.16138 15.1207 4.1529 15.1057 4.15291 15.1056C4.15256 15.1044 4.16289 15.1223 4.16193 15.1227C4.16034 15.1233 4.15122 15.1167 4.14332 15.1162L4.11145 15.1496C4.13349 15.1219 4.15826 15.0931 4.18608 15.064C4.25744 14.9896 4.27805 15.0158 4.29908 14.9922C4.32413 14.9655 4.39659 14.7513 4.48282 14.6889C4.57925 14.6218 4.51408 14.8108 4.15362 15.1882L4.18377 15.1566C4.2001 15.1531 4.16142 15.1751 4.14608 15.1755ZM3.94293 15.1784C3.94936 15.1818 3.9464 15.1791 3.93122 15.1721C3.93712 15.2027 3.93061 15.2105 3.90005 15.2028C3.86423 15.1918 3.80059 15.1824 3.84999 15.1874L3.79684 15.1841C3.79757 15.1841 3.79831 15.1841 3.79904 15.1842C3.79878 15.1866 3.79795 15.1888 3.79659 15.1909L3.84939 15.1942C3.74172 15.2044 4.01811 15.2905 3.85289 15.2199C3.88987 15.2112 3.92223 15.1985 3.94293 15.1784ZM4.96741 13.2143C4.96751 13.2377 4.96593 13.2566 4.96314 13.2718C4.94937 13.3369 4.90513 13.3198 4.89029 13.3153C4.89088 13.3002 4.89141 13.285 4.89188 13.2696C4.89271 13.2426 4.89354 13.2158 4.89437 13.1891C4.91871 13.1975 4.94306 13.2059 4.96741 13.2143ZM4.8932 14.0747C4.86198 14.0346 4.88689 13.8041 4.89473 13.6869C4.89522 13.6817 4.9144 13.7168 4.92115 13.6336C4.9246 13.6102 4.85944 13.3558 4.94876 13.4158C4.9462 13.6478 4.929 13.8696 4.89327 14.0744C4.89325 14.0745 4.89323 14.0746 4.8932 14.0747ZM4.8113 14.2838C4.81111 14.2419 4.81031 14.1984 4.80811 14.1562C4.8322 14.1409 4.85653 14.1236 4.88032 14.1073C4.87369 14.1558 4.86618 14.2028 4.85728 14.2497C4.84197 14.2615 4.82683 14.2723 4.8113 14.2838ZM1.66569 16.6931C1.6525 16.7153 1.6394 16.7375 1.62638 16.7598C1.63633 16.8204 1.84111 17.0477 1.81796 16.9563C1.76513 16.8696 1.71459 16.7823 1.66569 16.6931ZM1.34905 15.5047C1.34794 15.4445 1.34807 15.3874 1.34842 15.3285C1.30269 15.2703 1.25746 15.211 1.21281 15.1511C1.23034 15.4343 1.2737 15.7547 1.36404 15.6825C1.37885 15.7496 1.39469 15.8167 1.41267 15.8863C1.35695 15.8383 1.34154 15.8468 1.36822 16.0425C1.39255 16.0504 1.41267 16.0847 1.43228 16.1317C1.46495 16.2081 1.49503 16.3291 1.55056 16.4543C1.51301 16.3457 1.47855 16.2374 1.44625 16.1273C1.43385 16.0854 1.42148 16.0407 1.41107 16.0005C1.42117 15.9977 1.43127 15.9948 1.44138 15.992C1.45909 16.0572 1.47438 16.0996 1.48264 16.1157C1.48993 16.1296 1.49309 16.1269 1.49274 16.1125C1.48669 16.0484 1.44035 15.8121 1.38499 15.6788C1.39474 15.6581 1.4048 15.6385 1.41489 15.6188C1.39263 15.581 1.37055 15.5423 1.34905 15.5047ZM11.2879 9.98251C11.3009 10.0104 11.3145 10.0385 11.3283 10.0661C11.5046 10.0422 11.245 9.98268 11.2179 9.78561C11.1918 9.88252 11.0297 9.68839 11.0175 9.67839C11.014 9.7188 11.0109 9.75929 11.0086 9.80014C11.1005 9.86704 11.1938 9.92799 11.2879 9.98251ZM11.896 10.5703C11.8345 10.4579 12.3039 10.7199 12.5094 10.8405C12.5549 10.8687 12.6251 10.9495 12.6642 10.966C12.6931 10.9662 12.7225 10.9668 12.7522 10.9678C12.7517 11.014 13.0746 11.159 13.3119 11.3337C13.3371 11.3486 13.3623 11.3631 13.3832 11.3749C13.3825 11.3971 13.3819 11.4194 13.3819 11.442C13.4291 11.4719 13.4804 11.5046 13.5346 11.5405C13.5171 11.5487 13.4998 11.557 13.4826 11.5655C13.5329 11.5797 13.5851 11.596 13.6386 11.6143C13.8139 11.7373 13.6513 11.719 13.793 11.8109C13.9534 11.9212 13.7672 11.6611 13.7957 11.6403C13.6726 11.539 13.4279 11.3718 13.3613 11.3154C13.3506 11.3065 13.3487 11.2994 13.3479 11.2921C13.3349 11.2647 13.3278 11.2128 13.0422 11.0845C12.9789 11.0207 12.9165 10.9615 12.8561 10.9055C12.7144 10.8551 12.5844 10.818 12.4622 10.7852C12.4531 10.7528 12.4447 10.7207 12.4362 10.6885C12.4235 10.6779 12.1663 10.6038 12.1715 10.6268C12.1027 10.536 11.9338 10.4322 11.7756 10.3206C11.7527 10.3211 11.7298 10.3214 11.7067 10.3213C11.8791 10.4052 11.7484 10.3672 11.7816 10.4204C11.8009 10.4512 11.8734 10.5311 11.896 10.5703ZM2.71274 18.3037C2.36577 17.9768 2.57977 18.1766 2.28724 17.7654C2.28046 17.8119 2.27494 17.8598 2.26935 17.9069C2.45673 18.0822 2.70024 18.4217 2.71306 18.304C2.71295 18.3039 2.71285 18.3038 2.71274 18.3037ZM1.06604 13.9116C1.10022 14.1516 1.14004 14.0274 1.18011 14.3307C1.18012 14.3309 1.18014 14.331 1.18015 14.3312C1.17014 14.1728 1.16286 14.0158 1.1579 13.8587C1.12725 13.8763 1.09663 13.8939 1.06604 13.9116ZM12.4059 18.9248C12.6311 18.7847 12.5742 18.7944 12.7875 18.6903C13.0134 18.4281 12.7956 18.6184 12.7624 18.5753C12.712 18.6367 12.6611 18.6968 12.6063 18.7578C12.4201 18.8325 12.554 18.7023 12.5499 18.699C12.5497 18.6991 12.5496 18.6992 12.5495 18.6993C12.5395 18.6864 12.5435 18.6796 12.478 18.7155C12.4566 18.7846 12.4323 18.8547 12.4059 18.9248ZM13.191 18.2005C13.156 18.2816 13.1611 18.3409 13.3321 18.2123C13.3322 18.2122 13.3323 18.2121 13.3324 18.212C13.2954 18.1486 13.4409 18.0705 13.5167 18.0049C13.528 17.9949 13.538 17.9853 13.5463 17.9762C13.5612 17.9489 13.5756 17.9217 13.5896 17.8943C13.5569 17.9225 13.5236 17.9501 13.4897 17.9773C13.3915 18.0525 13.2925 18.1267 13.191 18.2005ZM14.6443 14.6896C14.7329 14.6914 14.7342 14.8772 14.8258 14.6206C14.8257 14.5702 14.8253 14.52 14.8244 14.4702C14.8055 14.4375 14.7863 14.4045 14.767 14.3721C14.8281 14.1392 14.8214 13.97 14.8006 13.906C14.7873 13.8563 14.7686 13.8536 14.7547 13.9074C14.7287 13.9834 14.7227 14.1944 14.752 14.6183C14.7521 14.6184 14.7521 14.6186 14.7522 14.6187C14.7163 14.6427 14.6804 14.6665 14.6443 14.6896ZM14.5137 15.8224C14.5573 15.8407 14.6009 15.8592 14.6445 15.8779C14.5014 15.9988 14.5598 16.2183 14.3801 16.4802C14.3838 16.5109 14.3873 16.5417 14.3903 16.5728C14.3559 16.6211 14.2286 16.9059 14.0913 17.1428C13.9571 17.3806 13.8251 17.5718 13.9308 17.4904C14.0245 17.4176 14.1169 17.1873 14.1265 17.1698C14.1648 17.111 14.2451 17.0495 14.2957 16.942C14.3254 16.8794 14.3433 16.7303 14.393 16.6045C14.5106 16.3283 14.7753 15.8219 14.7048 15.4322C14.7225 15.4078 14.7401 15.3828 14.7575 15.358C14.7818 15.0827 14.7277 15.1707 14.8004 14.9236C14.611 14.7297 14.6863 15.9431 14.5377 15.6672C14.5377 15.6674 14.5376 15.6675 14.5376 15.6677C14.5304 15.719 14.5224 15.7708 14.5137 15.8224ZM8.7895 20.0448C8.77449 20.0068 8.46007 20.0566 8.53779 19.964C8.43446 19.9923 8.33239 20.0185 8.23039 20.0429C8.23038 20.0518 8.23038 20.0607 8.23037 20.0696C8.32997 20.0712 8.43026 20.0711 8.53332 20.069C8.53305 20.0831 8.53279 20.0971 8.53253 20.1111C8.68317 20.0768 9.33027 20.0788 9.31864 20.1219C9.35306 20.0982 9.38521 20.0742 9.41926 20.0498C9.74401 20.0737 10.0163 19.9639 10.3788 19.909C10.401 19.8837 10.4225 19.8584 10.4431 19.8331C10.4644 19.8407 10.4867 19.8479 10.5087 19.855C10.6339 19.813 10.7563 19.7653 10.8699 19.7171C11.2065 19.5049 10.4735 19.7531 10.3673 19.7802C10.3548 19.7853 10.3683 19.8198 10.2903 19.8495C10.1506 19.9219 9.34017 20.0236 9.10492 20.0387C9.10188 20.0147 9.09886 19.9907 9.09587 19.9667C8.99519 19.9953 8.89313 20.0213 8.7895 20.0448ZM14.6485 13.1907C14.6676 13.1648 14.6863 13.1385 14.7048 13.1119C14.5876 12.7569 14.4804 12.5278 14.4531 12.6519C14.4532 12.652 14.4533 12.6522 14.4534 12.6524C14.5387 12.8295 14.6024 13.0109 14.6485 13.1907ZM5.8068 7.00544C5.85553 7.01327 5.91125 6.89984 5.92869 6.7347C5.91281 6.73767 5.89693 6.74064 5.88105 6.74362C5.89412 6.83741 5.79229 6.91442 5.72136 7.16807C5.74473 7.17552 5.76811 7.18296 5.79149 7.19041C5.79647 7.12874 5.80156 7.06715 5.8068 7.00544ZM14.694 13.4917C14.6826 13.5978 14.7892 13.8783 14.7795 13.6877C14.7705 13.5406 14.7008 13.4327 14.694 13.4917ZM1.08687 12.9661C1.08174 13.0274 1.07696 13.0901 1.07251 13.1517C1.09373 13.1834 1.11505 13.2158 1.13645 13.2476C1.13645 13.2474 1.13645 13.2473 1.13645 13.2471C1.11914 13.1532 1.10262 13.0596 1.08687 12.9661ZM11.6346 19.3606C11.8319 19.2649 12.0462 19.1514 12.252 19.0188C12.2468 19.006 12.2417 18.9931 12.2365 18.9803C12.055 19.1512 11.9418 19.1462 11.8929 19.1691C11.8931 19.169 11.8933 19.1689 11.8935 19.1688C11.7331 19.2408 11.5866 19.3002 11.4443 19.3468C11.5066 19.3523 11.5702 19.3569 11.6346 19.3606ZM10.9755 19.5658C11.0318 19.6279 11.0932 19.6213 11.2116 19.5311C11.2445 19.509 11.2817 19.4824 11.3264 19.4499C11.3103 19.4441 11.2942 19.4382 11.2781 19.4324C11.2439 19.4494 11.215 19.4648 11.1885 19.4789C11.1253 19.5149 11.0785 19.5419 11.0817 19.4978C11.0488 19.5193 11.0131 19.5423 10.9755 19.5658ZM13.8226 17.557C13.7739 17.5787 13.5488 17.8816 13.571 17.8751C13.5861 17.8794 13.931 17.5226 13.8226 17.557ZM5.25284 9.2588C5.27343 9.18526 5.29461 9.11493 5.3159 9.04647C5.30694 9.14164 5.29829 9.23921 5.29109 9.34309C5.27823 9.31469 5.26545 9.28684 5.25284 9.2588ZM5.30889 10.1118C5.29439 10.1595 5.2153 9.99924 5.17959 10.2854C5.18611 10.1107 5.19318 9.93443 5.19988 9.76487C5.20214 9.71092 5.20594 9.66143 5.21049 9.61432C5.21054 9.66191 5.21135 9.71167 5.21371 9.76552C5.21994 9.82518 5.22573 9.8914 5.23173 9.95474C5.25738 9.93862 5.28306 9.92206 5.30865 9.90733C5.30869 9.97543 5.30875 10.044 5.30889 10.1118ZM5.23514 10.3328C5.30573 10.2247 5.28413 10.815 5.27401 10.8701C5.2716 10.8819 5.21936 10.9377 5.20774 10.9592C5.21147 10.8693 5.21517 10.7818 5.21907 10.6911C5.20211 10.7199 5.18507 10.7507 5.16815 10.7789C5.16734 10.6734 5.16651 10.5703 5.16589 10.4648C5.17966 10.5091 5.19332 10.556 5.20711 10.6006C5.21635 10.5121 5.22573 10.4219 5.23514 10.3328ZM5.63721 7.81873C5.6135 7.89455 5.5904 7.97028 5.56728 8.05078C5.5952 8.04122 5.62363 8.03002 5.65128 8.02186C5.66382 7.97578 5.6769 7.92917 5.68993 7.8837C5.67242 7.86172 5.65487 7.84 5.63721 7.81873ZM5.31856 9.40231C5.22255 9.25228 5.53798 8.98598 5.37365 9.3427C5.3573 9.37984 5.32792 9.41612 5.31856 9.40231ZM5.25061 11.0909C5.32713 11.3268 5.13925 11.266 5.20398 11.049C5.2074 11.038 5.245 11.0728 5.25061 11.0909ZM5.18899 12.8319C5.18774 12.8507 5.12506 12.8817 5.17786 13.0633C5.16989 13.0932 5.16196 13.122 5.15402 13.1514C5.12738 13.0811 5.13003 12.4866 5.18833 12.5715C5.18624 12.6611 5.19394 12.7388 5.18899 12.8319ZM5.43621 12.2656C5.43768 12.176 5.43914 12.0881 5.44074 11.9983C5.42039 12.0268 5.40003 12.0557 5.37968 12.0847C5.37604 12.0401 5.37241 11.996 5.36877 11.9525C5.4048 11.8783 5.44078 11.8063 5.47692 11.7315C5.47486 11.9251 5.47308 12.1186 5.47157 12.3122C5.45978 12.2966 5.448 12.2811 5.43621 12.2656ZM5.58261 9.90179C5.55008 10.072 5.56578 10.2826 5.54921 10.5612C5.54915 10.5613 5.54908 10.5615 5.54901 10.5616C5.54811 10.5755 5.52059 10.5978 5.51754 10.6431C5.51458 10.6818 5.51247 11.4323 5.4702 11.3732C5.44168 11.0799 5.50754 10.975 5.41071 10.9006C5.43235 10.8874 5.45396 10.8748 5.47563 10.861C5.52411 10.5827 5.45495 10.5005 5.43544 10.3416C5.45127 10.3429 5.46709 10.3443 5.48291 10.3456C5.48931 10.241 5.49585 10.1357 5.50245 10.0315C5.49133 10.0454 5.4802 10.0598 5.46903 10.0747C5.47085 10.0367 5.47265 9.99935 5.47438 9.96356C5.52582 9.8736 5.5422 9.76303 5.58261 9.90179ZM5.39612 12.668C5.46218 12.7179 5.45661 12.9899 5.44215 13.2865C5.43201 13.5008 5.40164 13.7206 5.39181 13.8638C5.34982 13.7025 5.40315 13.4739 5.41614 13.2857C5.41774 13.2628 5.41899 13.2408 5.41972 13.2196C5.43383 12.8144 5.38068 13.0931 5.36341 13.0238C5.35486 12.9894 5.43943 12.763 5.39612 12.668ZM5.64786 9.21073C5.59801 9.42062 5.60209 9.53971 5.54221 9.76108C5.53455 9.74097 5.5271 9.72173 5.5199 9.70204C5.5269 9.60758 5.64886 9.09823 5.64786 9.21073ZM5.26674 14.3166C5.39037 14.001 5.24323 14.1396 5.35768 13.981C5.34274 14.0984 5.3229 14.2131 5.29708 14.3251C5.28696 14.3223 5.27685 14.3194 5.26674 14.3166ZM14.2796 14.0473C14.281 14.2163 14.2586 14.4075 14.3016 14.5111C14.311 14.3945 14.3181 14.2771 14.3235 14.1613C14.309 14.1234 14.2944 14.0849 14.2796 14.0473ZM10.8526 10.8302C10.8737 10.864 11.0097 10.9334 11.0223 10.9423C11.0453 10.9602 11.0294 10.9678 11.0272 10.9713C11.0352 10.9773 11.0424 10.9825 11.0491 10.9871C11.1711 11.0693 11.076 10.9437 11.1893 11.0137C11.2079 11.028 11.4682 11.23 11.5874 11.293C11.7671 11.3936 11.949 11.4908 12.0176 11.5264C12.1331 11.5863 12.3663 11.6638 12.5502 11.7831C12.6256 11.8328 12.6341 11.8749 12.7049 11.9298C12.7224 11.9435 12.7405 11.9582 12.7587 11.9736C12.9793 12.161 13.3332 12.3935 13.5661 12.7344C13.8051 13.0705 13.8887 13.4741 13.9021 13.7189C13.9068 13.7955 13.8956 13.8711 13.8866 13.9338C13.8807 13.9727 13.8765 14.0074 13.8784 14.0332C13.8937 14.0845 13.9088 14.1369 13.9235 14.1889C13.798 14.3507 13.9111 14.4027 13.9185 14.5775C13.9226 14.6884 13.8819 14.7383 13.8813 14.7528C13.8767 14.8505 13.891 14.9001 13.8875 14.9774C13.8837 15.0642 13.8524 15.1864 13.8513 15.2171C13.8492 15.2362 13.9145 15.1823 13.8564 15.5174C13.7922 15.8577 13.6896 16.1883 13.5356 16.5074C13.7232 16.4634 13.671 16.3223 13.7142 16.1852C13.7258 16.1478 13.7402 16.1791 13.7504 16.1465C13.7801 16.0539 13.808 15.8707 13.8316 15.7951C13.8575 15.7135 13.9055 15.7542 13.9085 15.6429C13.9086 15.6372 13.8826 15.6496 13.8841 15.6237C13.8955 15.3651 13.9487 15.2895 13.9798 14.9676C13.9948 14.8403 14.0078 14.327 13.9878 13.9307C13.9788 13.6534 13.9288 13.4287 13.9309 13.4103C13.941 13.2807 14.0451 13.576 14.0615 13.9285C14.0827 14.254 14.0723 14.6314 14.0639 14.7105C14.059 14.7668 14.0366 14.7066 14.0292 14.7574C14.0262 14.7785 14.0644 14.9769 14.0455 15.1721C14.0285 15.4085 13.9014 15.8719 13.8272 16.087C13.6679 16.602 13.3886 17.0929 12.9954 17.4731C12.4231 18.0586 11.6833 18.5769 10.9178 18.8647C10.463 19.0875 9.91235 19.2927 9.3712 19.3378C9.32917 19.3419 9.27826 19.377 9.14383 19.3848C8.57109 19.4151 8.00279 19.3512 7.44387 19.2469C6.23128 18.987 5.07608 18.9106 3.77755 18.4016C3.21548 17.9604 2.79399 17.3821 2.48362 16.7641C2.34527 16.4874 2.22319 16.2046 2.1257 15.9113C2.04798 15.6741 1.99958 15.4367 1.96759 15.1964C1.9352 15.1322 1.90366 15.0682 1.87272 15.0034C1.91291 15.1735 1.92791 15.5014 1.93521 15.5311C1.93748 15.5419 1.97442 15.6033 2.00002 15.7103C2.03082 15.8375 2.03923 15.9115 2.04253 15.9377C2.04318 15.9427 2.04372 15.9461 2.04434 15.948C2.05632 15.9855 2.0693 15.9543 2.08077 15.9898C2.16685 16.253 2.25271 16.4518 2.36014 16.6833C2.48356 16.9435 2.52206 17.0933 2.67005 17.2508C2.6674 17.2799 2.66569 17.3102 2.66378 17.3399C2.79734 17.4447 3.36944 18.1906 3.69496 18.4201C3.71272 18.4346 3.72577 18.4463 3.73549 18.4561C3.82389 18.5277 3.79756 18.5294 3.83843 18.5516C3.86629 18.5612 3.88757 18.5446 4.18818 18.6427C4.34051 18.69 4.36934 18.7262 4.44702 18.7448C4.4873 18.754 4.48715 18.7241 4.54685 18.7383C4.88358 18.8173 5.15622 18.8817 5.48434 18.9521C5.57538 18.9715 5.57257 18.9957 5.59338 18.9994C5.66912 19.013 5.80987 18.9984 6.00277 19.0351C6.3209 19.0959 6.95408 19.213 7.21049 19.2807C7.24872 19.2908 7.27428 19.3251 7.30245 19.3299C7.34497 19.337 7.3673 19.3102 7.37481 19.3114C7.39915 19.3158 7.41679 19.3198 7.42971 19.3235C7.49479 19.3417 7.44442 19.3514 7.52716 19.3603C7.58037 19.3657 7.64151 19.3414 7.76513 19.3562C7.92812 19.3748 7.89202 19.4106 7.96021 19.4155C7.96785 19.4158 7.97185 19.3876 8.04084 19.395C8.29687 19.4236 8.67211 19.4403 8.91871 19.4354C8.98974 19.4344 9.04197 19.4526 9.14294 19.4477C9.34619 19.4821 10.4798 19.1924 10.5533 19.1248C10.5631 19.1217 10.4861 19.2015 10.6346 19.1353C10.6706 19.1 10.7054 19.0647 10.7388 19.0298C10.8195 19.0232 10.8989 19.0165 10.9721 19.0147C10.9679 19.0057 10.9678 18.9958 10.971 18.9854C11.0066 18.8919 11.3305 18.743 11.3659 18.8237C11.4126 18.8063 11.4597 18.7883 11.5067 18.7697C11.5701 18.6611 11.6457 18.654 11.8035 18.5159C11.8419 18.5177 11.8801 18.5193 11.919 18.52C11.9186 18.5037 11.918 18.4875 11.9174 18.4713C12.0527 18.4776 12.1596 18.3083 12.175 18.2958C12.2416 18.245 12.3024 18.2221 12.3332 18.1972C12.4481 18.1065 12.6652 17.8825 12.7934 17.7784C12.7994 17.7736 12.8166 17.8022 12.8534 17.7732C12.9204 17.7202 12.8931 17.6806 13.0138 17.6419C13.0202 17.6162 13.0267 17.5904 13.0333 17.5643C13.0445 17.5584 13.0558 17.5524 13.0672 17.5464C13.0791 17.5398 13.091 17.5331 13.1028 17.5264C13.2089 17.4145 13.3074 17.2943 13.3961 17.1686C13.3538 17.3141 13.4814 17.2044 13.531 17.0504C13.5472 16.9991 13.494 17.0191 13.4992 17.0019C13.521 16.9864 13.8465 16.3859 13.8683 16.3449C13.87 16.311 13.8713 16.2771 13.8721 16.2434C13.8974 16.2352 13.9227 16.2268 13.948 16.2182C13.9468 16.1989 13.9455 16.1796 13.944 16.1604C14.042 16.0019 14.0562 15.5377 14.071 15.4607C14.081 15.4184 14.1664 15.4717 14.1855 15.2618C14.1619 15.2515 14.1382 15.2412 14.1146 15.2311C14.1169 15.1836 14.1187 15.136 14.1198 15.0889C14.1312 15.001 14.183 14.8758 14.2123 14.8736C14.1966 14.8446 14.1808 14.8157 14.1648 14.7873C14.2285 14.716 14.2175 14.32 14.1767 14.1648C14.1933 14.1194 14.2097 14.0725 14.2258 14.0271C14.2131 13.9927 14.2003 13.9581 14.1874 13.9246C14.1774 13.8958 14.1671 13.8676 14.1564 13.84C14.1403 13.6887 14.1858 13.8474 14.1865 13.8146C14.1939 13.7433 14.0843 13.4021 14.1562 13.4104C14.147 13.3624 14.1358 13.3121 14.1237 13.2643C14.0969 13.2442 14.0698 13.2248 14.0426 13.2065C14.0856 13.1052 14.0282 12.9633 13.8958 12.676C13.8682 12.6617 13.8401 12.6475 13.8123 12.6346C13.7813 12.5412 13.7433 12.4489 13.6998 12.3592C13.6658 12.3614 13.6321 12.3644 13.5988 12.3681C13.5691 12.34 13.5393 12.3132 13.5089 12.2871C13.4972 12.1841 13.3457 12.1338 13.3099 12.0694C13.2564 11.9751 13.3451 11.9868 13.4987 12.1202C13.5189 12.0707 13.1213 11.7593 13.0153 11.6768C13.0024 11.6662 12.9912 11.6572 12.9823 11.6501C12.9843 11.6633 12.9863 11.6764 12.9881 11.6895C12.9913 11.692 12.9945 11.6946 12.9978 11.6971C13.085 11.7636 13.185 11.8339 13.2886 11.9121C13.3009 12.061 13.0666 11.8417 12.9486 11.754C12.9403 11.7474 12.9322 11.7414 12.9244 11.7359C12.9102 11.7265 12.8116 11.696 12.6695 11.5972C12.6152 11.5566 12.4258 11.3746 12.3859 11.3504C12.0675 11.1471 12.2653 11.3554 11.9887 11.1192C12.025 11.2063 11.8684 11.069 11.6893 10.9758C11.6575 10.9618 11.3867 10.845 11.371 10.8326C11.2677 10.7684 11.4031 10.8027 11.2586 10.7115C11.2577 10.7109 11.2568 10.7103 11.2559 10.7097C11.2308 10.7081 11.2056 10.7063 11.1803 10.7041C11.1482 10.6788 11.1167 10.653 11.0853 10.6264C10.9807 10.3715 10.8847 10.3967 10.8128 10.341C10.7848 10.3183 10.8395 10.3295 10.7719 10.2668C10.7468 10.2432 10.7 10.2327 10.6376 10.1621C10.4432 9.93547 10.4836 9.7898 10.2347 9.62474C10.227 9.57949 10.2199 9.53438 10.2135 9.48943C10.181 9.47568 10.1485 9.46149 10.1161 9.44701C10.0613 9.22583 10.0467 9.32516 10.0092 9.25428C9.90956 9.069 9.74413 8.66587 9.77709 8.61052C9.59899 8.48559 9.63944 8.22945 9.60963 8.16315C9.5811 8.12739 9.55277 8.09173 9.52429 8.05534C9.51957 8.0025 9.5147 7.94878 9.51016 7.89569C9.41297 7.95914 9.42457 7.66712 9.41719 7.64216C9.41085 7.62195 9.32514 7.43123 9.24897 7.26517C9.21951 7.20236 9.19564 7.14243 9.1826 7.10183C9.13728 6.96946 9.11316 6.72002 9.10997 6.69806C9.10403 6.67431 9.02917 6.43676 9.00507 6.23728C8.99019 6.13345 8.96061 5.70596 8.92624 5.39326C8.90395 5.19321 8.88602 5.05093 8.86848 5.07775C8.86126 5.14911 8.85885 5.2439 8.86188 5.32962C8.86251 5.34745 8.8638 5.37116 8.86578 5.40028C8.89413 5.76111 8.96305 6.87031 9.16003 7.30046C9.18385 7.3639 9.20365 7.41884 9.21822 7.45976C9.48283 8.22387 9.7531 8.9961 10.1588 9.6619C10.1824 9.70091 10.1615 9.7224 10.1823 9.7559C10.2138 9.80725 10.3232 9.91517 10.3573 9.96212C10.482 10.1412 10.6531 10.3434 10.734 10.4265C10.901 10.6011 11.0213 10.7235 11.1628 10.8376C11.1733 10.846 11.184 10.8543 11.1947 10.8626C11.243 10.9024 11.5197 11.0492 11.7014 11.1673C11.7314 11.1939 11.7619 11.2205 11.7925 11.2468C11.6885 11.2023 11.4232 11.0733 11.3102 10.9966C11.2368 10.9484 11.1832 10.9046 11.1406 10.8667C11.085 10.817 11.0501 10.7787 11.0175 10.752C10.9681 10.7151 10.7152 10.5195 10.6181 10.4094C10.5875 10.3763 10.6041 10.3487 10.5786 10.32C10.439 10.1645 10.2748 9.94385 10.1503 9.80623C10.1964 9.8649 9.968 9.45844 9.96015 9.43484C9.93984 9.39811 9.89266 9.37218 9.85268 9.29558C9.77714 9.14783 9.84022 9.14133 9.69777 8.97967C9.69199 8.92545 9.68713 8.87209 9.68235 8.8179C9.60359 8.84891 9.45951 8.20593 9.30777 8.06401C9.29165 8.06494 9.57368 8.86754 9.60899 8.92894C9.76862 9.31945 10.0923 9.8527 10.3367 10.1775C10.404 10.2789 10.629 10.5982 10.6539 10.6161C10.6884 10.6485 10.6778 10.5986 10.6929 10.6123C11.0094 10.8821 10.8229 10.7797 10.8526 10.8302ZM5.61414 10.3498C5.62327 10.223 5.63262 10.0951 5.64202 9.96936C5.65913 9.9793 5.67627 9.98885 5.69338 9.99895C5.68371 10.0573 5.67414 10.1145 5.66455 10.1728C5.67291 10.2183 5.68135 10.2626 5.68971 10.309C5.66453 10.3223 5.63934 10.3359 5.61414 10.3498ZM5.67355 10.667C5.67762 10.7762 5.64031 10.7817 5.63743 10.8063C5.62864 10.8824 5.64085 10.9482 5.63723 11.0221C5.55281 10.9331 5.60088 10.7539 5.67355 10.667ZM6.0101 8.36549C6.00727 8.37294 5.9952 8.39084 5.98083 8.41631C5.94416 8.47625 5.88722 8.58883 5.92098 8.73568C5.86393 8.86669 5.80588 8.9989 5.74904 9.13546C5.84135 8.90202 5.86929 8.57394 5.89303 8.46261C5.89987 8.43166 5.91771 8.42214 5.92973 8.40602C5.93439 8.39901 5.93831 8.39097 5.94076 8.3801C5.99345 8.15233 5.98879 7.94621 6.08714 7.95017C6.00412 8.13331 6.02208 8.33211 6.0101 8.36549ZM5.72848 9.60497C5.70392 9.63901 5.67977 9.67488 5.65644 9.71274C5.66856 9.5699 5.69013 9.44287 5.71299 9.31894C5.72683 9.35594 5.74083 9.39335 5.7552 9.4306C5.74536 9.4873 5.73624 9.54494 5.72848 9.60497ZM8.91289 2.91074C8.92914 2.84717 8.94789 2.78385 8.9689 2.72305C8.95345 2.72204 8.93063 2.79256 8.91367 2.81674C8.91371 2.81662 8.91374 2.8165 8.91377 2.81639C8.89466 2.84269 8.8796 2.82513 8.85686 2.87853C8.8755 2.88935 8.89417 2.90008 8.91289 2.91074ZM1.92214 14.9044C1.89187 14.781 1.80385 13.6358 1.76377 13.7353C1.73822 13.7864 1.78616 14.1783 1.79741 14.2943C1.80817 14.4498 1.80133 14.8814 1.92214 14.9044ZM1.80852 12.875C1.75186 12.8548 1.75339 13.5736 1.7699 13.6437C1.77686 13.6282 1.79285 13.6048 1.79593 13.5849C1.8089 13.4873 1.79127 13.0295 1.80852 12.875ZM8.93825 6.88029C8.9517 6.82034 8.96647 6.76096 8.98231 6.7022C8.95069 6.72316 8.91917 6.74428 8.88781 6.76583C8.90413 6.80444 8.92092 6.84257 8.93825 6.88029ZM11.8399 11.2542C12.1677 11.4373 12.5301 11.592 12.8515 11.8663C13.272 12.1984 13.7882 12.652 13.9322 13.2612C13.8939 13.1786 13.8508 13.0984 13.8027 13.0219C13.6191 12.542 13.1862 12.1878 12.8271 11.8945C12.538 11.6475 12.2113 11.5031 11.9176 11.3544C11.8914 11.321 11.8655 11.2877 11.8399 11.2542ZM6.2326 8.13285C6.29976 7.8949 6.33585 7.69148 6.45517 7.45008C6.41673 7.70387 6.32032 7.80613 6.3077 8.06024C6.30766 8.06037 6.30762 8.06051 6.30759 8.06064C6.28231 8.08527 6.25792 8.10715 6.2326 8.13285ZM8.18642 3.03469C8.17428 3.1121 8.16243 3.18948 8.15084 3.26688C8.19099 3.18735 8.23197 3.10694 8.27237 3.02848C8.24376 3.03046 8.2151 3.03253 8.18642 3.03469ZM12.0127 18.1158C11.8399 18.3259 11.2048 18.5384 11.0416 18.6734C11.0309 18.6827 11.1551 18.6573 10.9939 18.7865C11.1274 18.7158 11.2207 18.6608 11.2132 18.6186C11.2602 18.6124 11.3069 18.606 11.3537 18.5991C11.417 18.557 11.4798 18.5138 11.5414 18.4692C11.5532 18.5092 11.5584 18.5054 11.6465 18.4242C11.6979 18.4074 11.7493 18.3894 11.8003 18.3705C11.8106 18.3437 11.8204 18.3171 11.83 18.2903C11.8817 18.2864 11.9338 18.2813 11.9858 18.2754C12.1192 18.1501 12.0013 18.1745 12.0127 18.1158ZM12.7033 17.5454C12.6833 17.5814 11.7699 18.3528 12.2481 18.0793C12.3586 17.9889 12.4654 17.8943 12.5695 17.7976C12.3922 17.7747 12.7574 17.6075 12.7818 17.5858C12.8382 17.5411 12.8938 17.4817 12.9458 17.4226C13.0042 17.3565 13.0531 17.291 13.0925 17.2473C13.157 17.1756 13.2115 17.1456 13.2529 17.0902C13.3971 16.9056 13.5687 16.577 13.5356 16.5074C13.4584 16.6673 13.3677 16.8241 13.2621 16.9763C13.1707 17.1056 13.0589 17.1956 12.9061 17.3821C12.8684 17.4274 12.8306 17.4773 12.7891 17.5366C12.7193 17.5923 12.7126 17.5397 12.7033 17.5454ZM8.04558 3.46441C7.99847 3.43056 7.81146 3.8438 7.83115 3.85617C7.84245 3.86273 7.90632 3.72973 7.92002 3.71313C7.92008 3.71301 7.92014 3.71288 7.9202 3.71276C7.92599 3.70584 7.926 3.75525 7.96168 3.69576C7.98932 3.61865 8.01744 3.54122 8.04558 3.46441ZM2.53328 16.5958C2.53415 16.5614 2.38121 16.2168 2.27119 15.8651C2.16254 15.5202 2.10553 15.1711 2.09341 15.1532C2.08739 15.1428 2.07626 15.1606 2.06759 15.1575C2.1317 15.3621 2.1717 15.6307 2.23564 15.8764C2.27007 16.0081 2.30641 16.1319 2.34488 16.2353C2.37566 16.3172 2.38735 16.2846 2.38948 16.289C2.38955 16.2892 2.38963 16.2894 2.38971 16.2896C2.4065 16.3348 2.44501 16.5647 2.53328 16.5958ZM10.6473 18.8807C10.7051 18.8636 10.7623 18.8463 10.8191 18.8298C10.8251 18.8077 10.8312 18.7857 10.8377 18.7636C10.8376 18.7636 10.8374 18.7637 10.8373 18.7637C10.7743 18.8017 10.7114 18.8414 10.6473 18.8807ZM8.61989 19.2081C8.63372 19.221 8.64752 19.2338 8.66136 19.2466C8.81266 19.2532 8.9633 19.2543 9.11402 19.2484C9.09915 19.2562 9.08352 19.2638 9.06884 19.2714C9.29978 19.2793 9.39011 19.2234 9.51182 19.2135C9.51168 19.2136 9.51154 19.2136 9.51141 19.2136C9.52457 19.2124 9.54303 19.236 9.59273 19.229C9.70487 19.2173 10.0237 19.1498 10.0526 19.1108C10.1185 19.0445 9.49753 19.2165 9.37589 19.2118C9.32072 19.2166 9.25581 19.1995 9.22236 19.2014C9.18581 19.2035 9.14025 19.2373 9.05166 19.2398C9.0259 19.2421 8.74193 19.2098 8.61989 19.2081ZM6.01234 18.8382C6.05249 18.8742 6.15172 18.8656 6.18545 18.8765C6.19355 18.8792 6.12473 18.8899 6.20168 18.9115C6.22671 18.9 6.25249 18.8887 6.27695 18.8772C6.18816 18.8642 6.10121 18.8514 6.01234 18.8382ZM7.73973 4.16006C7.75034 4.15078 7.85202 3.93057 7.85398 3.91827C7.87068 3.76463 7.65985 4.2225 7.73973 4.16006ZM6.05712 10.0133C6.13497 9.90613 6.00323 11.2211 6.00329 11.3498C5.9572 11.3412 6.0166 11.0303 5.94633 11.1912C5.98753 11.0365 5.98782 10.6004 6.00266 10.4999C6.01162 10.4374 6.0523 10.4242 6.05398 10.4151C6.06009 10.3781 6.02916 10.0514 6.05712 10.0133ZM5.93101 12.4396C5.94417 12.3137 5.9574 12.1891 5.97077 12.064C5.97062 12.2117 5.97059 12.3609 5.97077 12.5084C5.95751 12.4854 5.94426 12.4624 5.93101 12.4396ZM5.94663 12.5982C5.99159 12.5949 5.94327 13.0198 5.95021 13.1326C5.87784 13.003 5.95659 12.7959 5.94663 12.5982ZM7.25564 5.69305C7.34703 5.51656 7.24438 5.39326 7.22402 5.63815C7.22359 5.64555 7.25152 5.70028 7.25564 5.69305ZM11.8524 17.9935C11.8274 18.0163 11.466 18.1861 11.4539 18.212C11.4228 18.3092 11.6411 18.1577 11.7285 18.1305C11.8717 18.0868 11.7174 18.2389 11.993 18.0126C11.9895 18.0326 11.986 18.0525 11.9824 18.0725C12.1545 17.9513 12.0386 17.9144 12.0608 17.8821C12.0681 17.8721 12.1729 17.7984 12.187 17.7781C12.3596 17.534 11.8834 17.985 11.8524 17.9935ZM8.60215 2.69448C8.4613 3.07219 8.55582 2.91882 8.49419 3.31965C8.51442 3.3344 8.59856 2.75101 8.60215 2.69448ZM13.7392 14.9832C13.7142 15.3821 13.6154 15.6919 13.5518 16.0575C13.6772 16.0691 13.7963 14.8808 13.7392 14.9832ZM2.21656 11.9966C2.04046 13.1817 2.05324 14.5698 2.40454 15.8227C2.52493 16.1934 2.67874 16.548 2.86361 16.8778C2.95208 17.0335 2.93468 17.0642 2.97201 17.1181C2.99696 17.1532 3.01502 17.1322 3.04602 17.1796C3.29692 17.5605 3.60023 17.9054 3.95233 18.1755C5.03881 18.569 6.32496 18.6949 7.50156 18.9348C7.82468 18.9946 8.14462 19.0398 8.4695 19.0635C8.58966 19.0807 9.19623 19.135 9.31248 19.0267C9.40025 18.955 8.98625 19.0378 8.91279 19.0328C8.85996 19.0329 8.85745 19.002 8.82168 19.0017C8.78368 19.0013 8.8149 19.0227 8.77158 19.0225C8.58607 19.0215 8.38404 18.9996 8.21521 18.984C7.97937 18.9625 7.74422 18.9293 7.51025 18.8878C6.32014 18.6574 5.00868 18.5002 3.9916 18.1246C3.83839 18.0056 3.6947 17.8703 3.56044 17.7247C3.42931 17.5795 3.47626 17.5915 3.46954 17.5846C3.46941 17.5845 3.46928 17.5845 3.46915 17.5844C3.0531 17.097 2.69878 16.4765 2.47404 15.8006C2.33885 15.3829 2.27043 14.923 2.23095 14.4828C2.16499 13.6792 2.1704 12.8707 2.23086 12.0674C2.22604 12.0439 2.22127 12.0203 2.21656 11.9966ZM12.5593 17.5218C12.4218 17.5203 12.472 17.6108 12.1715 17.813C12.1595 17.8433 12.1459 17.8747 12.1332 17.9051C12.281 17.7833 12.4214 17.6546 12.5597 17.5214C12.5596 17.5215 12.5594 17.5217 12.5593 17.5218ZM10.5253 18.7317C10.4217 18.6584 9.72612 19.0078 9.35824 18.9969C9.29979 19.0723 9.81042 18.9689 9.92548 18.9331C9.9841 18.9237 10.3185 18.8853 10.5337 18.7419C10.5309 18.7385 10.5281 18.7351 10.5253 18.7317ZM6.45897 8.69134C6.46756 8.63357 6.47595 8.57564 6.484 8.51754C6.48417 8.51621 6.48434 8.51487 6.48452 8.51352C6.4841 8.51482 6.48369 8.51612 6.48328 8.5174C6.44042 8.66066 6.39551 8.8021 6.35074 8.9428C6.38749 8.80035 6.42438 8.65717 6.45915 8.51254C6.47887 8.43264 6.50442 8.34748 6.53082 8.26308C6.54439 8.31251 6.5589 8.35978 6.57394 8.40717C6.55607 8.44696 6.53835 8.48877 6.52311 8.52541C6.50199 8.58105 6.48057 8.63633 6.45897 8.69134ZM6.63163 7.95793C6.52565 8.35375 6.57793 7.92424 6.63913 7.83345C6.67486 7.78031 6.64253 7.91746 6.63163 7.95793ZM7.00057 6.94758C6.9831 7.1451 6.8666 7.51681 6.82215 7.35698C6.92707 7.17151 6.93493 7.03289 7.05384 6.75321C7.05646 6.80081 7.05924 6.84802 7.06193 6.8956C7.06186 6.8958 7.0618 6.89599 7.06174 6.89619C7.04133 6.91335 7.02094 6.93049 7.00057 6.94758ZM6.63193 8.15313C6.50606 8.39635 6.74361 7.65487 6.70692 7.8999C6.70489 7.91069 6.63616 8.14383 6.63193 8.15313ZM2.3 13.7095C2.26842 13.6787 2.27944 13.8836 2.28234 13.9525C2.29205 14.2489 2.342 14.6259 2.38336 14.9282C2.38974 14.9042 2.39617 14.88 2.40266 14.8556C2.35031 14.4783 2.31796 14.0934 2.3 13.7095ZM2.58592 15.8425C2.65085 16.0386 2.72597 16.2318 2.8113 16.419C2.81892 16.4361 2.88064 16.5073 2.85782 16.4439C2.75614 16.2505 2.6653 16.0485 2.58592 15.8425ZM13.2225 16.4046C13.1437 16.5324 13.248 16.1064 13.3204 16.1555C13.2912 16.2401 13.2587 16.3231 13.2225 16.4046ZM13.5518 15.0093C13.551 15.1083 13.5477 15.2074 13.5415 15.3059C13.531 15.3044 13.5206 15.303 13.5101 15.3015C13.5267 15.2051 13.5405 15.1074 13.5518 15.0093ZM2.30361 12.8777C2.26646 12.9856 2.27389 13.2431 2.27814 13.4035C2.30559 13.292 2.28671 13.0294 2.30361 12.8777ZM11.5826 18.016C11.6134 18.038 11.0562 18.3178 11.2293 18.1807C11.3511 18.1299 11.4685 18.076 11.5826 18.016ZM10.4 18.5484C10.5188 18.4886 10.6248 18.4472 10.6142 18.4952C10.5445 18.5259 10.4778 18.5556 10.4124 18.5832C10.4083 18.5716 10.4042 18.56 10.4 18.5484ZM7.30362 6.27348C7.37622 6.04758 7.44946 5.8214 7.52249 5.59594C7.52958 5.60791 7.53685 5.61931 7.54402 5.63103C7.47356 5.84873 7.40314 6.06648 7.3332 6.28433C7.32334 6.28071 7.31348 6.27709 7.30362 6.27348ZM2.3997 12.7473C2.39496 12.5882 2.39259 12.4284 2.39256 12.2689C2.37862 12.4279 2.367 12.5877 2.35777 12.7471C2.3718 12.7473 2.38584 12.7475 2.39988 12.7477C2.39982 12.7475 2.39976 12.7474 2.3997 12.7473ZM6.55733 9.38941C6.75333 8.70549 6.6038 9.6142 6.52895 9.74165C6.52899 9.74182 6.52903 9.74199 6.52908 9.74216C6.52127 9.75503 6.49359 9.72292 6.47876 9.74438C6.49895 9.68528 6.52239 9.62256 6.54745 9.55875C6.54064 9.49532 6.53547 9.42941 6.53112 9.36261C6.54202 9.343 6.55297 9.32352 6.56403 9.30375C6.56164 9.33257 6.55939 9.3611 6.55733 9.38941ZM6.41852 12.2425C6.38992 12.8981 6.33562 12.2242 6.40901 11.9016C6.42297 11.9052 6.42116 12.1818 6.41852 12.2425ZM6.471 10.5232C6.46867 10.4193 6.46642 10.3157 6.46428 10.2122C6.47372 10.1998 6.48318 10.1871 6.49267 10.1738C6.49771 10.2531 6.50274 10.3337 6.50791 10.4131C6.49559 10.4497 6.4833 10.4863 6.471 10.5232ZM7.24406 7.35331C7.3047 7.19923 7.2761 6.96785 7.13674 7.48097C7.14687 7.48395 7.15701 7.48693 7.16714 7.4899C7.17195 7.46943 7.18178 7.40681 7.18349 7.40412C7.189 7.39569 7.21892 7.41764 7.24406 7.35331ZM6.6543 13.4829C6.65664 13.5029 6.76999 13.5236 6.63666 13.7342C6.63775 13.8004 6.63753 13.8691 6.63627 13.9365C6.60978 13.9507 6.58335 13.964 6.55666 13.9786C6.60775 13.7233 6.55573 13.694 6.55723 13.6748C6.55921 13.5903 6.57987 13.6546 6.58417 13.6007C6.59015 13.5252 6.59165 13.4017 6.60054 13.3221C6.60826 13.26 6.62359 13.2308 6.65563 13.2925C6.66015 13.3012 6.66293 13.3121 6.66447 13.3241C6.67121 13.384 6.65198 13.4661 6.6543 13.4829ZM6.7337 13.0238C6.72353 13.0509 6.6938 12.9617 6.68393 12.9821C6.6753 12.9994 6.63342 13.2726 6.58075 13.1966C6.58446 13.1522 6.58821 13.107 6.59197 13.0619C6.60752 13.0471 6.62308 13.0324 6.63863 13.0177C6.62611 12.9742 6.61362 12.9299 6.60114 12.8858C6.64071 12.8138 6.69406 12.6597 6.71825 12.8455C6.71728 12.7785 6.71645 12.7084 6.71555 12.6411C6.69891 12.6059 6.68234 12.5689 6.66574 12.5332C6.69225 12.5526 6.71875 12.5721 6.74526 12.5917C6.74128 12.7352 6.7374 12.88 6.7337 13.0238ZM6.22342 15.4298C6.21607 15.4137 6.20863 15.3978 6.20111 15.3818C6.08108 15.6883 5.76781 16.0827 5.87214 15.8071C6.12518 15.46 6.30294 15.0546 6.40563 14.6636C6.42342 14.6398 6.44047 14.6176 6.45763 14.5942C6.33494 14.8739 6.52813 14.8386 6.38302 15.0831C6.35579 15.1238 6.35859 14.9738 6.27229 15.2614C6.28961 15.2578 6.30696 15.2539 6.32433 15.2499C6.29226 15.3113 6.2587 15.3711 6.22342 15.4298ZM3.84678 16.9765C4.35676 16.9798 3.88551 17.0468 3.72973 17.0122C3.72134 17.0123 3.6963 17.0098 3.68792 17.0096C3.67031 17.0056 3.65509 17.0009 3.6446 16.996C3.6448 16.996 3.64501 16.996 3.64522 16.996C3.48026 16.9192 3.57845 16.9183 3.69527 16.9269C3.70279 16.9272 3.72525 16.9294 3.73278 16.9293C3.84655 16.9321 4.02608 16.9425 4.04672 16.9401C4.10067 16.9332 4.19172 16.8584 4.51133 16.9143C4.27307 16.9671 4.05224 16.9793 3.84678 16.9765ZM5.66309 16.2018C5.63739 16.2336 5.63717 16.2026 5.62552 16.2156C5.62541 16.2157 5.62531 16.2158 5.62521 16.2159C5.57898 16.2675 5.51611 16.3358 5.46742 16.3908C5.46316 16.396 5.44868 16.4101 5.4442 16.4151C5.12605 16.7556 4.63013 16.8901 4.56658 16.852C4.69283 16.8201 5.11591 16.6738 5.40473 16.3757C5.40888 16.371 5.42232 16.358 5.42627 16.3531C5.53711 16.2387 5.69199 16.0857 5.72169 16.0818C5.70168 16.1232 5.68214 16.163 5.66309 16.2018ZM6.53793 14.4032C6.61673 14.2482 6.54264 14.6216 6.48941 14.7146C6.47978 14.7311 6.45719 14.5614 6.53793 14.4032ZM8.76623 4.1129C8.87557 3.82881 8.67652 4.17513 8.69974 4.03288C8.67744 4.08657 8.65527 4.14036 8.63329 4.19413C8.67754 4.16697 8.72191 4.13977 8.76623 4.1129ZM12.5046 13.0151C12.5417 13.0549 12.5394 13.0188 12.5432 13.0217C12.5688 13.0459 12.5762 13.0818 12.5864 13.0887C12.7621 13.2112 12.6823 13.0972 12.6845 13.0915C12.6992 13.0705 12.7619 13.0939 12.726 13.0143C12.6839 12.9838 12.6383 12.9529 12.5881 12.9203C12.5755 12.8905 12.5613 12.8597 12.5456 12.8282C12.4251 12.7664 12.5534 12.8842 12.5382 12.9245C12.5327 12.9404 12.4367 12.882 12.5046 13.0151ZM9.08337 3.66418C9.06561 3.60145 9.07177 3.46696 8.97785 3.55335C8.97779 3.55347 8.97772 3.55359 8.97766 3.55371C8.96056 3.56933 8.91634 3.64672 8.89367 3.66644C8.85864 3.86758 8.94621 3.82768 9.08337 3.66418ZM11.5593 12.447C11.4595 12.3827 11.3508 12.3142 11.2384 12.2403C11.2532 12.2182 11.268 12.1961 11.2828 12.174C11.3414 12.2145 11.3994 12.2537 11.4555 12.2916C11.4822 12.2921 11.5081 12.2921 11.5344 12.2923C11.4763 12.2275 11.4154 12.1609 11.3538 12.0927C11.257 12.0517 11.1579 12.0075 11.0578 11.9594C11.0942 11.9977 11.1306 12.0353 11.1669 12.0723C10.9275 11.9495 11.0097 11.9239 10.834 11.7795C10.7553 11.7562 10.6767 11.731 10.5974 11.703C10.5809 11.6844 10.5644 11.6655 10.5479 11.6464C10.485 11.5741 10.426 11.5014 10.3687 11.4267C10.2146 11.3075 10.1893 11.3069 10.2691 11.4173C10.1737 11.3756 10.13 11.2654 10.0387 11.1916C10.0311 11.1855 10.0224 11.2197 10.0162 11.2139C9.58306 10.7846 9.6881 10.7459 9.62823 10.6725C9.58854 10.6199 9.39217 10.4352 9.37556 10.441C9.35386 10.4475 9.58039 10.9724 9.09926 10.2411C9.27225 10.6642 9.67 11.0351 9.53683 10.7079C9.60645 10.8341 10.0593 11.2946 10.0947 11.3193C10.1352 11.3641 10.0939 11.3768 10.1494 11.4295C10.1817 11.4577 10.3018 11.4774 10.5086 11.6981C10.5252 11.7155 10.5422 11.7341 10.5598 11.754C10.6044 11.7694 10.6486 11.7839 10.6932 11.798C10.7206 11.8312 10.7484 11.8642 10.7764 11.8968C10.6823 11.8834 10.5878 11.8675 10.4918 11.8478C10.7997 12.0191 10.9995 12.2298 11.2032 12.2624C11.345 12.3501 11.407 12.3911 11.33 12.3913C11.3725 12.414 11.4139 12.436 11.4544 12.4573C11.4899 12.4541 11.525 12.4508 11.5593 12.447ZM9.43796 2.85649C9.54051 2.75675 9.48763 2.67296 9.47303 2.68782C9.39033 2.77577 9.38387 2.91034 9.43796 2.85649ZM12.3568 12.8292C12.3049 12.7726 12.2464 12.7112 12.1817 12.641C12.1562 12.6031 12.1222 12.5622 12.0796 12.5192C12.064 12.5425 12.0484 12.5657 12.0328 12.589C12.0813 12.6183 12.122 12.6456 12.1557 12.6712C12.2296 12.7318 12.2965 12.7829 12.3568 12.8292ZM8.80354 4.18021C8.77828 4.18418 8.75299 4.18822 8.72772 4.19226C8.72121 4.38168 8.54821 4.49111 8.53323 4.5775C8.53004 4.59619 8.57917 4.57833 8.60128 4.54979C8.61453 4.53167 8.79575 4.21115 8.80354 4.18021ZM6.91681 10.9433C6.90559 10.8755 6.89435 10.8092 6.88316 10.7425C6.9066 10.7472 6.93004 10.7518 6.95347 10.7565C6.95646 10.7887 6.95934 10.8236 6.96238 10.8552C6.9472 10.884 6.93199 10.9138 6.91681 10.9433ZM6.91323 10.188C6.92041 10.0747 6.92777 9.96268 6.93516 9.84679C6.93533 9.84487 6.93551 9.84285 6.9357 9.84073C6.93581 9.84291 6.93594 9.84494 6.93607 9.84684C6.93633 10.2794 6.96438 9.91983 6.98182 10.1913C6.95896 10.1902 6.93609 10.1891 6.91323 10.188ZM7.1027 9.15297C7.11338 9.17017 7.12411 9.18717 7.13485 9.20419C7.11013 9.31813 7.08654 9.42849 7.06669 9.53141C7.12731 9.47557 7.18915 9.41815 7.25182 9.35869C7.26048 9.31854 7.26947 9.27744 7.27863 9.23581C7.21996 9.20828 7.1613 9.18074 7.1027 9.15297ZM12.776 15.1545C12.7683 15.2121 12.7739 15.4133 12.79 15.4082C12.8256 15.3322 12.8592 15.2527 12.8906 15.1706C12.8628 15.1662 12.8351 15.1619 12.8074 15.1575C12.8229 15.1478 12.8384 15.1377 12.8539 15.1276C12.85 15.0781 12.8454 15.0283 12.84 14.9785C12.8669 14.9565 12.8938 14.9337 12.9205 14.9107C12.8948 14.883 12.869 14.8553 12.8429 14.828C12.7736 15.0623 12.82 15.0554 12.8141 15.1045C12.8107 15.1289 12.7912 15.1419 12.7814 15.1491C12.7796 15.1509 12.7778 15.1527 12.776 15.1545ZM12.1526 12.8927C12.4279 13.1253 12.5491 13.1379 12.5874 13.2778C12.6191 13.1843 12.4686 13.0614 12.0854 12.7525C12.006 12.6832 11.8436 12.5822 11.753 12.4845C11.7139 12.4873 11.6739 12.4898 11.6331 12.492C11.8044 12.5615 11.8682 12.6501 11.9171 12.6888C11.9553 12.7194 11.962 12.6978 11.9651 12.7002C11.9652 12.7003 11.9654 12.7004 11.9655 12.7004C12.0192 12.7442 12.033 12.7707 12.049 12.7945C12.0808 12.8274 12.1132 12.8588 12.1526 12.8927ZM8.79048 4.44593C8.85857 4.38008 8.92271 4.23984 8.87982 4.21678C8.82933 4.28853 8.77939 4.35995 8.72964 4.43192C8.74848 4.42131 8.77886 4.45709 8.79048 4.44593ZM7.26513 9.04641C7.29604 8.97955 7.31909 8.80375 7.26217 8.86945C7.25203 8.8818 7.24456 9.0567 7.19166 8.94182C7.15743 9.10565 7.24751 9.08445 7.26513 9.04641ZM8.22185 8.1751C8.20009 8.11963 8.17824 8.06401 8.15711 8.01085C8.134 8.00501 8.11081 7.99897 8.08773 7.99329C8.13215 8.0524 8.17683 8.11325 8.22185 8.1751ZM8.51739 5.12717C8.40072 5.15517 8.43674 5.30984 8.31858 5.39759C8.30193 5.43939 8.28519 5.48356 8.27298 5.51771C8.27297 5.51773 8.27296 5.51775 8.27296 5.51776C8.27292 5.51787 8.27289 5.51797 8.27286 5.51807C8.29723 5.52791 8.32161 5.53775 8.34598 5.54759C8.3465 5.54609 8.34703 5.54459 8.34755 5.54309C8.38824 5.42834 8.45213 5.27514 8.51739 5.12717ZM10.4695 11.7853C10.4649 11.7794 10.4603 11.7736 10.4557 11.7677C10.4304 11.7355 10.4058 11.7033 10.3817 11.6709C10.3089 11.6309 10.2358 11.588 10.1648 11.5441C10.1914 11.5813 10.2188 11.6183 10.247 11.6552C10.3141 11.6969 10.3813 11.7363 10.4503 11.7748C10.4567 11.7783 10.4631 11.7818 10.4695 11.7853ZM8.21776 5.965C8.29134 5.7861 8.23597 5.68927 8.15589 5.92398C8.12247 6.02225 8.14067 6.1526 8.21776 5.965ZM11.2352 17.3821C11.2811 17.3618 11.3263 17.3404 11.3722 17.3171C11.3762 17.2929 11.3805 17.2683 11.384 17.2441C11.3349 17.2924 11.2859 17.3381 11.2352 17.3821ZM7.10625 9.82181C7.08911 9.81627 7.07204 9.81027 7.055 9.80411C7.062 9.77082 7.07124 9.72948 7.08198 9.68516C7.09741 9.69915 7.1129 9.71308 7.1286 9.7261C7.11967 9.76259 7.11208 9.79587 7.10625 9.82181ZM11.522 17.1931C11.5579 17.1693 11.5941 17.1445 11.6303 17.1189C11.6485 17.0928 11.6651 17.0677 11.6832 17.0409C11.6452 17.0623 11.6079 17.0824 11.5711 17.1015C11.5546 17.1325 11.5389 17.1626 11.522 17.1931ZM7.63508 7.68613C7.67709 7.62388 7.70496 7.32525 7.60773 7.57038C7.54615 7.72662 7.62874 7.69551 7.63508 7.68613ZM7.53808 8.06404C7.65844 7.81426 7.39873 7.9527 7.43458 8.29764C7.50901 7.98458 7.53168 8.0779 7.53808 8.06404ZM7.22212 10.2457C7.22169 10.2525 7.19204 10.2573 7.18831 10.3138C7.17496 10.5171 7.15151 10.7847 7.14349 10.931C7.12322 11.282 7.13612 12.3557 7.04738 12.4796C7.02863 12.5049 6.97737 12.4434 6.97427 12.4537C6.96553 12.4838 6.98522 12.6657 6.9471 12.6308C6.95342 12.4538 6.95995 12.2774 6.96669 12.1012C6.99276 12.1464 7.01894 12.1894 7.04506 12.234C7.04623 11.795 7.0428 11.9396 6.98721 11.8111C7.01341 11.7373 7.03964 11.6638 7.06589 11.5907C7.04875 11.4278 7.03182 11.265 7.0151 11.1023C7.03108 11.1394 7.04701 11.178 7.06304 11.2145C7.10555 10.9725 7.08153 11.0391 7.04477 10.9039C7.06228 10.9043 7.07979 10.9048 7.0973 10.9053C7.0648 10.6683 7.11941 10.6251 7.12234 10.5735C7.12818 10.4682 6.9269 10.3247 7.15254 9.93173C7.13697 9.903 7.13012 9.87586 7.12867 9.85593C7.11935 9.81964 7.24372 9.82318 7.16604 9.76168C7.26015 9.63103 7.23969 9.79755 7.23283 9.86085C7.22502 9.97623 7.21336 10.0977 7.20786 10.1869C7.20785 10.1871 7.20784 10.1872 7.20784 10.1873C7.20661 10.2066 7.22683 10.177 7.22212 10.2457ZM7.31103 8.95103C7.34255 9.07244 7.41599 8.85184 7.42381 8.70663C7.41896 8.66749 7.39922 8.62277 7.33754 8.66835C7.33419 8.6759 7.33115 8.68235 7.32844 8.68744C7.32144 8.70896 7.31444 8.73024 7.30739 8.7515C7.30872 8.819 7.30983 8.88569 7.31094 8.95145C7.31097 8.95131 7.311 8.95117 7.31103 8.95103ZM9.54832 3.20423C9.80317 2.66076 9.59348 2.93244 9.54138 3.13555C9.5308 3.17654 9.53192 3.20396 9.54832 3.20423ZM12.4223 13.2129C12.434 13.209 12.4457 13.205 12.4575 13.2012C12.3788 13.1334 12.0586 12.8251 12.0013 12.8685C12.1973 13.031 12.3302 13.1288 12.4223 13.2129ZM11.246 12.474C11.2904 12.5033 11.4571 12.6029 11.4485 12.5672C11.3852 12.5118 11.3176 12.4541 11.2477 12.394C11.2051 12.3848 11.1616 12.3748 11.1178 12.3643C11.1688 12.3977 11.2347 12.4667 11.246 12.474Z" fill="currentColor" fill-opacity="0.67"/>
</svg>
