<svg fill="none" xmlns="http://www.w3.org/2000/svg">
<path d="M8.65712 12.9555C8.86403 13.7041 8.86669 14.3368 8.81533 14.9539C8.76642 15.5364 8.66824 16.0858 8.66458 16.696C8.65068 17.6135 8.76474 18.8123 8.99391 19.2536C9.15813 19.5838 9.34412 19.7889 9.4729 19.8664C9.60045 19.9429 9.72606 19.9829 10.0326 19.9691C10.6581 19.9435 11.5663 19.5656 12.6841 19.2465C12.9199 19.1835 13.1765 19.1211 13.4909 19.0789C14.7775 18.8967 16.1423 18.882 17.2172 18.7884C18.1244 18.7023 19.0679 18.6871 19.719 18.6156C19.8012 18.6057 19.8445 18.6368 19.8724 18.6322C19.9323 18.6294 20.0269 18.5736 19.8285 18.6648C19.6575 18.75 19.4823 18.9359 19.4173 19.0565C19.3469 19.1799 19.343 19.2273 19.3408 19.2186C19.343 19.1984 19.3534 19.01 19.3675 18.8015C19.3718 18.7442 19.377 18.6788 19.3852 18.6005C19.4751 17.6562 19.5733 15.9396 19.6589 15.0597C19.6972 14.6629 19.7265 14.2528 19.826 14.1044C19.8387 13.9587 19.7608 13.8742 19.7583 13.8365C19.7584 13.8361 19.7585 13.8357 19.7586 13.8352C19.7515 13.7119 19.8258 13.4064 19.8259 13.3369C19.8258 13.327 19.7629 13.3855 19.7897 13.2218C19.792 13.2071 19.8318 13.2233 19.8397 13.0837C19.8419 13.0463 19.804 12.5766 19.8069 12.4441C19.8116 12.2415 19.8348 11.9197 19.8609 11.5725C19.927 11.0254 19.9064 10.3229 20.6031 9.4712C20.8049 9.25684 20.9559 9.0954 21.3025 8.93277C21.4857 8.8457 21.7683 8.80998 21.8189 8.80453C21.9379 8.77919 22.2371 8.73524 22.4004 8.75467C22.5688 8.77106 22.6274 8.81371 22.5196 8.91316C22.5418 8.91578 22.5613 8.91819 22.5779 8.92015C23.0497 8.99542 22.9284 8.91058 22.951 8.86167C23.5904 9.04919 23.7874 9.37903 23.9919 9.38661C24.6672 9.94007 24.955 10.6604 25.0973 11.1715C25.1311 11.3102 25.1762 11.4122 25.1766 11.7658C25.1749 11.8904 25.1473 12.2443 24.9499 12.5823C24.7263 13.0076 24.2076 13.3228 23.8784 13.3841C23.2118 13.5026 23.0725 13.3721 22.9003 13.3389C22.7589 13.2928 22.6608 13.2464 22.5924 13.213C22.3079 13.0683 22.1749 12.9677 22.0267 12.8647C21.7453 12.6624 21.519 12.4771 21.2948 12.291C20.8501 11.9198 20.4378 11.5519 20.0361 11.1977C20.0235 11.2116 20.0109 11.2256 19.9983 11.2395C19.8908 11.1073 19.7967 11.029 19.7193 10.9718C19.5803 10.8665 19.4758 10.8028 19.3982 10.6463C19.2593 10.5556 19.1218 10.4635 18.9835 10.3678C18.1667 9.58589 17.3761 8.69025 16.7269 7.71812C16.2078 6.94113 15.8877 6.26294 15.5492 5.8275C14.7784 4.77665 14.1638 3.52155 13.9071 3.3365C14.3159 3.67284 14.5402 3.64823 14.6221 3.66917C14.7103 3.67724 14.7138 3.67197 14.7005 3.67475C14.6673 3.67834 14.5561 3.69857 14.4383 3.72804C14.1962 3.7876 13.902 3.87788 13.6038 3.97336C13.5317 3.99475 13.2823 4.10873 13.0611 4.22749C12.9381 4.29323 12.886 4.27515 12.6727 4.39541C12.437 4.52866 12.12 4.77143 11.7969 4.9695C11.5155 5.14151 11.0749 5.37334 10.7531 5.57073C10.6795 5.6159 10.6423 5.66961 10.6339 5.67477C10.5858 5.70418 10.5619 5.67188 10.5147 5.70055C10.4581 5.7351 10.4086 5.80193 10.343 5.84161C10.1011 5.98817 9.8437 6.16543 9.81412 6.18356C9.66612 6.27395 9.6118 6.26222 9.59992 6.26932C9.43506 6.36943 9.51477 6.36035 9.47308 6.38467C9.25715 6.51036 9.05972 6.53216 8.8169 6.78873C8.80709 6.75607 8.79726 6.72341 8.78742 6.69075C8.72097 6.72709 8.68924 6.7515 8.67723 6.76862C8.66253 6.7937 8.69274 6.80464 8.70831 6.81708C8.71396 6.82093 8.71771 6.82512 8.71692 6.8305C8.71683 6.83295 8.71582 6.83558 8.71365 6.83844C8.70225 6.84848 8.3103 7.10642 8.2801 7.13109C8.17332 7.20361 8.14427 7.17188 8.13487 7.17813C8.11144 7.19295 7.88283 7.4359 7.72631 7.52049C7.54045 7.6196 7.6675 7.39479 7.61787 7.41525C7.60954 7.41805 7.44965 7.56807 7.40932 7.56727C7.365 7.56625 7.50871 7.44145 7.49858 7.43405C7.4912 7.42791 7.21178 7.59263 7.22991 7.52157C7.23897 7.45549 7.60124 7.21311 7.65889 7.14331C7.66845 7.1313 7.61405 7.10958 7.62315 7.09969C7.6571 7.04827 8.43462 6.47383 8.47777 6.47231C8.44952 6.51823 8.42142 6.56464 8.39375 6.61131C8.43768 6.5841 8.48164 6.5575 8.5253 6.53173C8.53882 6.52364 8.55232 6.51556 8.5658 6.50749C8.55406 6.51826 8.54229 6.52905 8.53051 6.53984C8.47389 6.59515 8.41709 6.65207 8.36146 6.7096C8.44486 6.74021 8.52841 6.70495 8.59876 6.64627C8.74193 6.53189 8.84848 6.34671 8.82697 6.28942C8.81025 6.24742 8.50094 6.31024 8.69544 6.10638C8.65443 6.11917 8.61251 6.13253 8.57199 6.145C8.51269 6.20454 8.45284 6.26442 8.39247 6.32462C8.39067 6.32653 8.38886 6.32845 8.38706 6.33036C8.38953 6.32949 8.39201 6.32862 8.39448 6.32775C8.4464 6.30775 8.49811 6.28788 8.54959 6.26815C8.53917 6.29069 8.52872 6.31326 8.51824 6.33584C8.49271 6.35748 8.4671 6.37917 8.4414 6.40091C8.35799 6.47457 8.27516 6.55077 8.19352 6.62882C8.12877 6.66241 8.11815 6.62173 8.07273 6.64494C7.5078 6.94724 7.91166 6.79414 7.57315 7.04092C7.51298 7.06287 7.45337 7.08495 7.39292 7.10831C7.46558 7.16165 7.28616 7.23985 7.1395 7.42196C7.1409 7.3827 7.14286 7.34305 7.14477 7.30355C6.90408 7.53133 6.30887 7.91299 6.55189 7.89485C6.48693 7.93955 6.42144 7.98538 6.35669 8.03106C6.32774 8.09597 6.299 8.16108 6.27074 8.22608C6.20404 8.28948 6.13818 8.35276 6.07179 8.41722C6.06155 8.40791 6.05131 8.3986 6.04107 8.38929C6.09245 8.33602 6.14301 8.284 6.19467 8.2313C6.12572 8.24133 6.05746 8.2509 5.9885 8.26144C5.95548 8.30552 5.92265 8.34963 5.89003 8.39374C6.07681 8.25718 5.91531 8.51856 5.90552 8.61016C5.78815 8.76364 5.65148 8.8047 5.60454 8.85038C5.58255 8.87116 5.43265 9.22273 5.42491 9.02408C5.31206 9.17225 5.19945 9.32197 5.0878 9.47202C5.03074 9.51958 4.97463 9.5663 4.91778 9.61403C4.97487 9.45167 4.60939 9.74447 4.81521 9.47224C4.96886 9.26949 5.05588 9.2645 5.13621 9.17494C5.20836 9.09484 5.21659 9.02473 5.29443 8.937C5.81978 8.34828 6.26801 7.89439 6.81427 7.41331C6.92205 7.31889 7.00557 7.21723 7.07957 7.15598C7.16284 7.08745 7.09495 7.21499 7.19025 7.11551C7.2905 7.01153 7.28734 6.95999 7.31595 6.93475C7.33389 6.91908 7.41496 6.90075 7.46824 6.85741C7.68476 6.67797 7.99078 6.41086 8.02369 6.38981C8.03905 6.37926 8.17041 6.29453 8.31837 6.20908C8.53691 6.08111 8.7846 5.93702 8.8058 5.92762C8.82585 5.91876 8.86389 6.06035 8.94181 5.83334C8.9895 5.79943 9.03724 5.7655 9.08552 5.73123C9.09257 5.75987 9.09961 5.78852 9.10664 5.81717C9.34155 5.5407 9.27377 5.65448 9.55095 5.46695C10.2139 5.0188 11.2218 4.40187 11.951 3.95994C12.113 3.86191 12.1596 3.79568 12.3514 3.68438C12.5323 3.57597 13.0333 3.43224 12.8714 3.3605C13.2023 3.29889 13.2547 3.18119 13.3446 3.15505C13.3891 3.14232 13.4371 3.13929 13.5001 3.15223C13.5212 3.12609 13.5427 3.09983 13.564 3.07372C13.8264 3.07808 13.8803 2.98754 14.1284 2.91242C14.2338 2.88201 14.1339 2.9928 14.3209 2.8521C14.3619 2.85033 14.4016 2.84942 14.4399 2.84945C14.435 2.8714 14.4303 2.89335 14.4258 2.91528C14.6326 2.8601 14.6236 2.88032 14.6006 2.80314C14.6795 2.80322 14.7687 2.841 14.6492 2.82681C14.641 2.79741 14.6329 2.76711 14.6233 2.73427C14.6369 2.73699 14.7283 2.75849 14.7126 2.75042C14.7018 2.7457 14.6048 2.7463 14.465 2.77248C14.1829 2.82234 13.7486 2.95644 13.3272 3.10032C12.8409 3.28404 12.2225 3.68633 12.0865 3.77274C11.645 3.95952 10.8504 4.53877 10.5106 4.73866C10.3737 4.81871 10.2831 4.80809 10.086 4.92529C9.8878 5.04319 9.67083 5.24388 9.56834 5.31173C9.22751 5.53749 7.58223 6.58033 8.65818 5.8048C8.6112 5.80169 8.56411 5.79866 8.51691 5.79569C8.34666 5.95418 8.2757 6.01443 8.21746 6.05174C8.14902 6.09629 8.10089 6.09978 7.90865 6.22687C7.7644 6.31991 7.47789 6.62035 7.41763 6.50747C7.65171 6.29276 7.94574 6.12944 8.17396 5.98392C8.18012 5.97997 8.18623 5.97602 8.1923 5.97208C8.21748 5.95571 8.48198 5.717 8.64203 5.63298C8.7879 5.55645 8.75738 5.72005 8.98324 5.41337C9.27666 5.38304 9.3393 5.19968 9.39124 5.15118C9.48004 5.06792 9.52658 5.11603 9.63205 5.05765C9.7459 4.99487 9.79927 4.90917 9.81397 4.89945C9.96445 4.8013 10.7479 4.29903 10.7985 4.29989C10.773 4.32952 10.7473 4.35935 10.7215 4.38928C10.9373 4.27625 10.8568 4.24769 10.9075 4.20661C10.948 4.18167 10.9882 4.15702 11.028 4.13267C11.0196 4.15423 11.0111 4.17584 11.0026 4.19748C11.2426 4.04572 11.0319 4.11813 11.376 3.90915C11.5944 3.77694 11.8487 3.68856 11.8666 3.67358C11.8724 3.66891 11.7859 3.67819 11.8719 3.62205C12.0151 3.52825 12.2721 3.3841 12.3233 3.41193C12.3927 3.36562 12.3631 3.32771 12.3722 3.32143C12.4108 3.2874 13.1294 2.90582 13.2294 2.88932C13.239 2.88584 13.2483 2.88257 13.2573 2.87951C13.6414 2.75222 14.0786 2.62566 14.4521 2.55378C14.4905 2.54678 14.4709 2.58078 14.5087 2.57416C14.5819 2.55084 14.8312 2.52155 14.7402 2.50436C14.7309 2.49852 14.7115 2.48913 14.6832 2.46404C14.7776 2.54188 14.9205 2.73632 14.9562 2.76611C14.9625 2.77101 14.9269 2.657 15.0168 2.7531C15.1162 2.86345 15.0236 2.83226 15.0281 2.83902C15.1876 3.09427 15.3248 3.24995 15.4459 3.43533C15.4849 3.49557 15.5172 3.63221 15.58 3.71478C15.5873 3.72433 15.6087 3.68439 15.6162 3.69351C15.7128 3.81778 15.7256 3.98164 15.7568 4.04332C15.8327 4.19388 15.8317 4.08804 15.8364 4.09536C15.8952 4.19092 15.9567 4.33121 16.0508 4.47742C16.1977 4.70555 16.3428 4.91913 16.4983 5.12623C16.7505 5.45999 16.9589 5.82045 17.218 6.27525C17.2682 6.36293 17.2977 6.48681 17.3058 6.50048C17.331 6.5422 17.3611 6.50778 17.4333 6.62935C17.5215 6.77717 17.6109 6.91789 17.7054 7.05759C17.7736 7.15834 17.8434 7.2586 17.9163 7.36099C17.9511 7.40972 17.9329 7.45393 17.9592 7.49145C18.0458 7.61944 18.4515 7.96168 18.3558 8.05048C18.6389 8.21042 18.6939 8.42561 18.86 8.60616C19.2487 9.03473 19.9177 9.63542 20.3404 10.0136C20.3865 10.0555 20.4145 10.0927 20.438 10.1251C20.4569 10.1526 20.4729 10.1769 20.4958 10.1976C20.5805 10.2735 21.0956 10.6955 21.1194 10.7228C21.1651 10.7757 21.0351 10.862 21.39 10.9947C21.5545 11.1231 21.4964 11.1539 21.5272 11.1844C21.7687 11.4222 22.1142 11.5255 21.9871 11.584C22.3193 11.8098 22.5731 11.9108 22.6545 12.1085C22.6989 12.0625 22.8291 12.1424 23.1518 12.3101C22.7895 12.2452 22.7812 12.3117 22.3103 11.9458C22.3031 11.94 22.3422 11.9177 22.335 11.9119C22.2698 11.8592 22.1232 11.7715 22.0173 11.6831C21.912 11.5952 21.989 11.6209 21.946 11.5867C21.9072 11.5558 21.8834 11.5877 21.827 11.542C21.645 11.3942 21.482 11.2701 21.3813 11.1853C21.318 11.132 21.2703 11.0452 21.2219 11.0037C21.0336 10.8428 20.623 10.5207 20.394 10.32C20.3589 10.2892 20.3734 10.2742 20.3455 10.234C20.3337 10.2177 20.3152 10.1974 20.2854 10.1707C20.2727 10.1593 20.1987 10.1499 20.0963 10.0718C19.9936 9.99349 19.9325 9.91194 19.8683 9.85982C19.8152 9.81662 19.8111 9.86217 19.7051 9.76839C19.6079 9.70021 18.6713 8.72284 18.636 8.65252C18.5707 8.56747 18.5759 8.49616 18.5287 8.45153C18.5202 8.44383 18.4706 8.46173 18.4418 8.43377C18.1815 8.18338 17.8052 7.7045 17.4856 7.20599C17.2145 6.78746 17.0008 6.37131 16.8444 6.1045C16.6659 5.79669 16.4939 5.52023 16.3045 5.26941C15.6013 4.33959 15.1263 3.25012 14.555 2.67222C14.539 2.66732 14.5236 2.6633 14.5087 2.66016C14.5134 2.66566 14.5181 2.67101 14.5228 2.67619C14.5174 2.6718 14.5121 2.66722 14.5067 2.66246C14.5691 2.7182 14.6419 2.79853 14.7138 2.89027C14.6961 2.90519 14.6784 2.9201 14.6608 2.935C14.7561 3.06449 14.7881 3.02017 14.8117 2.99555C14.8378 3.05536 14.864 3.11776 14.8894 3.18087C14.9891 3.17935 15.1927 3.60827 15.3226 3.83332C15.4071 3.97695 15.5365 4.13712 15.581 4.21656C15.6751 4.38454 15.6309 4.40648 15.638 4.41986C15.6502 4.44261 15.829 4.65364 15.9382 4.82424C16.0736 5.03442 16.0657 5.11924 16.2366 5.3196C16.2642 5.35038 16.2975 5.38451 16.3385 5.42441C16.5569 5.80014 16.8174 6.24242 17.1096 6.72071C16.9968 6.66648 17.2926 7.04211 17.4332 7.24135C17.4368 7.2465 17.4402 7.25154 17.4435 7.25644C18.1533 8.34577 19.2372 9.51017 20.2279 10.3727C20.2899 10.4277 20.354 10.4852 20.4177 10.5424C20.5427 10.6548 20.6114 10.7695 20.6844 10.831C20.7242 10.8645 20.7723 10.8413 20.8226 10.8935C20.8316 10.9029 20.8077 10.9428 20.9046 11.0357C21.1431 11.2672 21.836 11.7515 21.9605 11.9574C22.1486 12.1022 22.3382 12.2457 22.5689 12.3953C22.6929 12.4718 22.7964 12.5464 23.0401 12.644C23.0982 12.6651 23.1848 12.6982 23.3276 12.718C23.414 12.7274 23.4861 12.7374 23.6476 12.7126C23.8035 12.6861 24.0115 12.6108 24.1891 12.4286C24.5305 12.0354 24.4612 11.7677 24.4677 11.6479C24.4547 11.4964 24.4378 11.4485 24.4162 11.3684C24.2612 10.6673 23.5197 9.60759 22.4828 9.50194C22.3698 9.4845 22.2041 9.46499 22.0096 9.48783C21.9349 9.47745 21.8545 9.47313 21.7689 9.47777C21.6306 9.53738 21.3632 9.66904 21.1656 9.88701C20.965 10.1013 20.8455 10.3499 20.7704 10.5612C20.6223 10.992 20.5916 11.3564 20.5774 11.6075C20.5771 11.6156 20.5767 11.6235 20.5764 11.6313C20.5491 12.3581 20.5307 13.2844 20.499 13.9198C20.4922 14.0579 20.4588 14.1701 20.4521 14.3001C20.4492 14.3569 20.4804 14.429 20.4773 14.4872C20.4432 15.1453 20.3545 16.0294 20.3131 16.6918C20.2701 17.3702 20.2267 18.0558 20.1715 18.6786C20.1435 18.988 20.1408 19.2092 20.1143 19.3492C20.0856 19.5083 20.0676 19.4146 20.1979 19.3388C20.2303 19.3374 19.8884 19.4169 19.6156 19.4374C18.9028 19.505 18.0971 19.5335 17.2999 19.6178C16.1531 19.7319 14.8577 19.7582 13.6076 19.9462C10.9387 20.6225 9.06793 21.6206 8.22759 19.641C7.99102 19.1662 7.87401 18.421 7.81197 17.7072C7.80645 17.6427 7.84707 17.6424 7.84311 17.5923C7.81769 17.2988 7.75152 16.6259 7.74565 16.2785C7.73894 16.0029 7.7939 15.5602 7.73029 15.464C7.6516 16.4574 7.67989 17.4958 7.80024 18.4531C7.80903 18.5207 7.77264 18.535 7.77328 18.5434C7.78683 18.6988 7.82045 18.5944 7.86541 18.8101C7.87047 18.8878 7.93583 19.5468 8.03326 19.426C8.0344 19.4697 8.06156 19.5803 8.11118 19.6998C8.25699 20.0738 8.6067 20.5013 8.71786 20.565C8.76156 20.5965 8.75653 20.5441 8.76572 20.5497C8.80589 20.5734 8.79101 20.6254 8.82316 20.6517C8.90776 20.7278 9.16483 20.8188 9.21291 20.8328C9.31303 20.8851 9.66462 21.0059 9.8482 20.9949C10.0108 20.9904 9.98001 20.9375 10.1215 20.9269C10.2355 20.9145 10.111 20.9728 10.375 20.957C10.5051 20.9537 10.9745 20.8228 11.0937 20.7869C11.2115 20.7561 11.3522 20.749 11.5188 20.6959C11.7562 20.622 12.2886 20.4252 12.5557 20.3324C12.5713 20.3269 12.5978 20.2762 12.6386 20.2647C12.7223 20.2412 12.7117 20.2967 12.7757 20.2831C12.815 20.277 13.1995 20.1509 13.6271 20.0909C13.8758 20.0565 14.1063 20.0287 14.1832 20.0203C14.3109 20.0061 14.3963 19.9671 14.4666 19.9602C14.522 19.9548 14.5327 19.9957 14.5889 19.9906C14.6058 19.9889 14.7525 19.9382 14.9014 19.9264C15.0429 19.9137 15.5776 19.9107 15.6378 19.9081C15.6775 19.9057 15.6322 19.8788 15.7498 19.8722C15.8569 19.8664 15.9291 19.9007 15.9894 19.8977C16.1299 19.8907 16.2836 19.8488 16.4297 19.8394C16.8485 19.8118 16.8283 19.8589 16.8539 19.859C16.9235 19.858 16.947 19.8122 16.9696 19.8094C17.0457 19.8004 17.2096 19.7801 17.3147 19.7664C17.3427 19.7628 17.3668 19.7599 17.3847 19.7578C17.4966 19.745 17.5482 19.782 17.6674 19.7718C17.7555 19.7642 17.932 19.7092 18.1325 19.693C18.5849 19.6555 19.1182 19.6208 19.5286 19.5855C19.6509 19.5746 19.6725 19.6099 19.7086 19.6071C19.9015 19.5912 19.9877 19.5324 20.0341 19.5247C20.1324 19.5102 20.2709 19.4753 20.275 19.4795C20.2343 19.5117 20.2465 19.5662 20.2885 19.4653C20.3252 19.3763 20.3489 19.223 20.3588 19.0992C20.3645 19.0412 20.3644 18.9104 20.3789 18.6991C20.3948 18.4459 20.4103 18.0745 20.4307 17.8336C20.4345 17.7876 20.4612 17.8323 20.46 17.7813C20.4571 17.6628 20.3961 17.6665 20.4021 17.6062C20.4051 17.5781 20.4438 17.512 20.4529 17.4262C20.5003 16.9823 20.4932 16.6707 20.5077 16.4686C20.6239 14.8417 20.727 13.1855 20.8108 11.6189C20.8365 11.258 20.8569 10.8955 21.0623 10.4427C21.1355 10.2971 21.2343 10.0953 21.4796 9.90941C21.7205 9.71611 22.1212 9.65611 22.3616 9.71399C22.3749 9.73452 22.3869 9.7551 22.3977 9.77566C22.414 9.76157 22.4299 9.74758 22.445 9.73357C22.4472 9.7317 22.4494 9.72983 22.4517 9.72797C22.9444 9.81906 23.1902 9.90713 23.563 10.2921C23.596 10.3274 23.6192 10.4823 23.7527 10.484C23.9674 10.9416 23.8872 10.6702 24.0537 10.9856C24.1242 11.1362 24.1723 11.2925 24.206 11.4292C24.2251 11.5098 24.2458 11.5684 24.2455 11.7362C24.2442 11.7973 24.2322 11.9502 24.1513 12.0979C24.0658 12.2767 23.8387 12.4352 23.6883 12.4673C23.3712 12.5343 23.292 12.4682 23.2003 12.4496C23.1181 12.4227 23.0611 12.3955 23.0144 12.3726C22.9507 12.3211 23.0079 12.3391 23.2079 12.3862C23.2689 12.3979 23.3264 12.4146 23.4666 12.4135C23.571 12.4265 23.9488 12.3229 24.0674 12.0408C24.1678 11.808 24.1306 11.707 24.1231 11.623C24.11 11.5527 24.0946 11.509 24.0793 11.4658C24.0591 11.4196 24.0437 11.3834 24.0411 11.3748C24.0201 11.3062 24.0446 11.2149 24.0201 11.1442C23.9496 10.9336 23.7974 10.7572 23.8081 10.6878C23.5941 10.4573 23.8302 10.7642 23.7677 10.7558C23.6802 10.5757 23.5625 10.396 23.4078 10.2351C23.2927 10.2463 22.7543 9.83469 22.432 9.81291C22.324 9.79311 22.2285 9.79882 22.2557 9.83136C22.1468 9.80163 22.0104 9.78388 21.859 9.80241C21.28 10.1687 21.1444 10.4557 20.9586 10.9213C20.9844 10.8921 21.012 10.8586 21.0392 10.8297C21.0351 10.8468 20.99 11.2603 20.9378 11.1003C20.9672 11.4121 20.8991 11.4675 20.8928 11.6229C20.8916 11.6745 20.9006 11.737 20.9309 11.8249C20.9378 12.0122 20.8702 11.8964 20.8546 12.2317C20.8453 12.4299 20.8711 12.6781 20.8621 12.9008C20.86 12.9517 20.8164 12.9714 20.8141 13.0166C20.8117 13.0625 20.8521 13.0871 20.8502 13.1424C20.8465 13.2564 20.8095 13.4015 20.8085 13.4735C20.8074 13.5381 20.8394 13.6283 20.8367 13.7842C20.8278 14.3213 20.7841 14.1568 20.7618 14.24C20.738 14.3286 20.8032 14.4011 20.7851 14.5797C20.7832 14.5978 20.7429 14.5481 20.7412 14.6077C20.7398 14.6559 20.7852 14.6836 20.7849 14.8408C20.7851 14.9052 20.7378 15.8815 20.7292 16.0302C20.7168 16.2574 20.6454 16.7639 20.6303 16.9991C20.6246 17.0872 20.6555 17.1913 20.6491 17.2847C20.6268 17.6068 20.5893 18.1166 20.5553 18.5165C20.5499 18.5801 20.5417 18.6468 20.5312 18.7143C20.4836 19.1464 20.4072 19.4956 20.4282 19.5676C20.389 19.6687 20.3782 19.638 20.362 19.6382C20.325 19.6399 20.2768 19.6339 20.2676 19.6364C20.2041 19.6532 20.1774 19.704 20.0692 19.7265C19.3369 19.8591 18.3137 19.8655 17.3346 19.9657C16.3775 20.0565 15.3754 20.072 14.5369 20.165C14.2412 20.1954 13.9467 20.2311 13.6515 20.2716C11.2179 20.8855 8.86982 22.0348 7.93697 19.7879C7.53821 18.9431 7.46898 17.775 7.42306 16.6826C7.40388 16.6734 7.38471 16.6642 7.36554 16.655C7.3699 17.0948 7.36906 17.6101 7.40985 18.0353C7.45625 18.6112 7.69971 19.3908 7.74836 19.7703C7.67235 19.6363 7.63965 19.3708 7.57896 19.3951C7.62817 19.5648 7.68696 19.7287 7.75909 19.8778C7.81153 19.9855 7.8622 20.0807 7.92057 20.1799C7.94201 20.1564 7.96357 20.1331 7.98524 20.11C8.14397 20.3571 8.32163 20.595 8.53131 20.7741C8.56734 20.8046 8.55968 20.7614 8.59143 20.7882C8.62728 20.8179 8.5851 20.8195 8.59168 20.8253C8.6838 20.9002 8.72795 20.8931 8.73953 20.9023C8.76893 20.9234 8.72956 20.9317 8.81398 20.9938C8.97412 21.1082 9.13332 21.0874 9.04404 21.1819C9.10376 21.2071 9.16369 21.2291 9.226 21.2486C9.25183 21.2224 9.27695 21.1958 9.30138 21.1688C9.65417 21.3971 9.86641 21.1572 10.0933 21.3362C10.1685 21.305 10.2436 21.2711 10.3163 21.2353C10.3625 21.2634 10.41 21.2907 10.4587 21.3171C10.4636 21.2881 10.4682 21.2591 10.4727 21.2302C10.8916 21.1927 11.3346 21.0342 11.744 20.909C12.0303 20.821 12.103 20.8075 12.3609 20.7218C12.9424 20.5321 12.3775 20.7667 12.8844 20.6748C12.8492 20.6493 12.8137 20.624 12.778 20.5988C12.856 20.5621 12.9359 20.5258 13.017 20.4905C13.0821 20.5018 13.1501 20.5131 13.216 20.5258C13.4078 20.3537 13.5962 20.3856 13.6688 20.4004C13.6829 20.4035 13.6932 20.4055 13.6991 20.4047C13.7277 20.4009 13.8133 20.2997 14.1275 20.3371C13.986 20.2329 14.3617 20.3094 14.3892 20.3078C14.4175 20.3047 14.7642 20.2429 14.9077 20.2324C15.0195 20.2234 15.2613 20.2302 15.4272 20.2178C15.574 20.2066 15.5563 20.1672 15.5669 20.1661C15.7474 20.1511 15.6361 20.1899 15.7665 20.1833C15.8967 20.1769 15.9949 20.1364 16.0231 20.1378C16.0373 20.1386 15.9925 20.1793 16.0571 20.1791C16.2304 20.1789 16.5382 20.1274 16.7323 20.1143C16.801 20.1097 16.8904 20.1352 16.9668 20.1301C17.0843 20.1219 17.135 20.0744 17.2028 20.0695C17.2162 20.0686 17.2694 20.0842 17.3473 20.0929C17.4124 20.0997 17.4919 20.1027 17.5783 20.0904C17.6145 20.0851 17.7121 19.9362 17.8722 20.1219C17.8811 20.0933 17.8899 20.0647 17.8988 20.036C18.5442 19.9184 18.7366 20.137 19.0083 19.9173C19.4709 19.9081 19.1601 20.0078 19.2116 20.0163C19.2444 20.0217 19.3927 19.989 19.4093 19.9888C19.4385 19.9888 19.4356 20.0142 19.4669 20.0115C20.043 19.9528 19.7805 19.9277 19.9526 19.8767C20.1544 19.8128 20.3043 19.7918 20.341 19.8044C20.3758 19.8138 20.3369 19.8812 19.9749 19.9134C19.977 19.9273 19.979 19.9411 19.9811 19.955C20.1762 19.9251 20.5204 19.8078 20.4318 19.9144C20.4002 20.0392 19.2469 20.1241 19.8964 20.13C20.0429 20.1268 20.1062 20.0721 20.3639 20.1072C20.4672 20.0809 20.4916 20.0107 20.5388 19.9609C20.5611 19.9356 20.5879 19.9161 20.6377 19.8903C20.5873 19.878 20.5413 19.8577 20.5014 19.8311C20.5763 19.7423 20.7171 19.4561 20.707 19.217C20.7054 19.1435 20.5106 18.8309 20.7185 18.9137C20.7176 18.8802 20.7212 18.817 20.7305 18.734C20.7569 18.5017 20.8046 18.0972 20.7966 18.0063C20.7942 17.9748 20.6845 17.9325 20.7523 17.5154C20.7685 17.4864 20.7845 17.4585 20.8006 17.431C20.8158 17.8182 20.9031 17.1418 20.9977 17.3335C20.9454 17.3951 20.8958 17.6926 20.868 17.7429C20.8206 17.8233 20.7842 17.5712 20.7768 17.8889C20.9416 18.1017 20.8992 17.5219 21.0626 17.6228C21.0115 17.2015 21.0896 17.1628 21.0989 17.0697C21.1377 16.668 21.1356 16.4122 21.1786 16.0324C21.1495 15.9382 21.0567 16.6248 21.0662 16.7095C20.9623 16.3892 20.9228 16.9277 20.9811 17.1611C20.9425 17.178 20.9039 17.1948 20.8653 17.2114C20.905 16.9161 20.9338 16.627 20.9213 16.3311C20.9365 16.3129 20.9517 16.2945 20.9668 16.276C20.9837 16.3442 21.0008 16.4098 21.0177 16.4773C21.0672 16.2375 20.9495 16.3725 21.0647 16.0554C21.0233 16.0427 20.9818 16.0299 20.9404 16.0171C20.9733 15.7058 21.0058 15.3945 21.0378 15.0824C20.9632 14.9122 21.0282 14.3163 21.1313 14.4316C21.1527 14.1877 21.0778 14.4854 21.0638 14.2562C21.0577 14.1581 21.0653 13.9615 21.0972 13.9169C21.2002 13.9416 21.1971 14.2349 21.2637 14.3246C21.2903 14.2736 21.2883 12.9227 21.4033 13.0475C21.4235 12.9412 21.3583 12.9879 21.3523 12.7925C21.3424 12.4669 21.3975 12.0372 21.4147 11.6484C21.4263 11.38 21.4426 11.1389 21.4326 10.9377C21.2969 11.2581 21.3069 11.4531 21.3144 11.6435C21.321 11.7589 21.3296 11.8746 21.3235 12.0247C21.3142 12.2771 21.2483 13.812 21.1561 13.464C21.1671 13.5213 21.1781 13.5783 21.189 13.635C21.1533 13.689 21.1174 13.7458 21.0815 13.8009C21.0856 13.6378 21.0894 13.4802 21.0932 13.3182C21.1279 13.2819 21.1626 13.2455 21.1973 13.2089C21.1749 13.19 21.1525 13.1711 21.1301 13.1521C21.1291 13.0841 21.128 13.0154 21.1269 12.9485C21.1539 12.9688 21.181 12.9891 21.208 13.0094C21.2182 12.9064 21.2284 12.8024 21.2386 12.6974C21.1997 12.7238 21.1608 12.7501 21.1219 12.7764C21.1376 12.2863 21.1526 12.4512 21.2364 12.1843C21.2537 11.9813 21.1646 12.3208 21.1677 11.8902C21.1686 11.7614 21.1758 11.687 21.1861 11.6373C21.2235 11.4838 21.2499 11.5549 21.3212 11.0386C21.305 11.0246 21.289 11.0105 21.273 10.9962C21.3271 10.8444 21.3947 10.6882 21.5023 10.5414C21.4704 10.5495 21.4381 10.5601 21.406 10.5717C21.4883 10.4081 21.6733 10.1714 21.9231 10.103C22.1659 10.0343 22.3322 10.0925 22.3762 10.1418C21.9992 10.0534 22.0061 10.2693 22.1091 10.2725C22.139 10.2785 22.232 10.2797 22.3516 10.3051C22.5475 10.3418 22.8585 10.4429 23.1075 10.6887C23.3598 10.9287 23.525 11.2817 23.6181 11.5991C23.6313 11.6648 23.6673 11.7114 23.6124 11.8268C23.512 11.9447 23.4182 11.888 23.3689 11.8805C23.2584 11.8442 23.1825 11.7985 23.1075 11.7553C22.9634 11.6693 22.8544 11.5911 22.7932 11.5475C22.3135 11.1961 22.0119 10.8661 21.5526 10.5771C21.7833 10.8671 22.8029 11.6441 23.0106 11.8056C23.0308 11.8224 22.9443 11.9462 23.1769 11.8879C23.2527 11.9283 23.3087 11.9759 23.464 11.9915C23.4982 11.993 23.5717 11.9894 23.6367 11.9396C23.7075 11.8842 23.7275 11.8148 23.7344 11.7634C23.7429 11.6759 23.7273 11.627 23.7125 11.5718C23.6002 11.1854 23.3752 10.7355 22.9558 10.4535C22.997 10.4304 23.0396 10.4087 23.0831 10.3884C23.3994 10.7255 23.7173 11.0115 23.5538 11.0348C23.5934 11.1101 23.6282 11.187 23.6589 11.2643C23.6851 11.2539 23.7113 11.2436 23.7374 11.2332C23.7778 11.3347 23.8109 11.437 23.8392 11.5352C23.8477 11.5649 23.8549 11.5946 23.8601 11.6258C23.8324 11.6304 23.8046 11.6351 23.7768 11.6397C23.7823 11.6787 23.7906 11.7214 23.7763 11.7977C23.772 11.8668 23.6731 12.0038 23.5757 12.0241C23.393 12.065 23.3431 12.0146 23.2797 11.9978C23.2571 12.0191 23.2333 12.0397 23.2087 12.0595C22.8876 11.8622 22.0638 11.3704 22.4997 11.5071C22.3916 11.4233 22.287 11.3395 22.1821 11.2538C22.1694 11.2701 22.1567 11.2863 22.144 11.3025C22.0977 11.2683 22.0502 11.2328 22.0043 11.1984C22.0309 11.1962 22.0572 11.1938 22.0839 11.1916C21.8579 11.0485 21.7309 10.8112 21.5576 10.7477C21.6352 10.8327 21.7132 10.9177 21.7916 11.0023C21.6406 10.8404 21.2992 10.6191 21.2719 10.5955C21.1887 10.524 21.1718 10.4543 21.0838 10.3753C21.0035 10.3033 20.9943 10.3376 20.98 10.3237C20.6189 9.97368 20.7827 9.93726 20.6094 9.92318C20.5833 9.92058 20.5497 9.91834 20.5061 9.91551C20.5022 9.87527 20.4986 9.83533 20.4949 9.79515C20.4501 9.78738 20.4055 9.77962 20.3611 9.77186C20.2319 9.65627 20.1042 9.53918 19.9782 9.42025C19.9973 9.48532 20.016 9.54975 20.0362 9.61513C19.8316 9.45108 19.7914 9.31496 19.7742 9.29688C19.7254 9.24518 19.6708 9.25378 19.6549 9.23865C18.8991 8.48538 19.3843 8.91378 19.1393 8.41752C18.9641 8.32246 19.0447 8.5071 19.015 8.57193C18.8663 8.36429 18.8003 8.31794 18.6288 8.11141C18.5845 8.0576 18.5638 7.9769 18.5366 7.94296C18.5126 7.91333 18.408 7.84472 18.3513 7.77292C18.2563 7.65315 18.1511 7.4781 18.029 7.30909C17.9846 7.24773 17.8964 7.1328 17.7969 6.99581C17.6668 6.81723 17.5225 6.59941 17.4177 6.4216C17.3382 6.28654 17.3844 6.30211 17.3641 6.26726C17.3556 6.25282 17.2621 6.16704 17.2128 6.08182C17.0084 5.72742 16.812 5.38167 16.5834 5.06335C16.3376 4.72067 16.1264 4.36606 15.9212 4.02099C15.6268 3.529 15.3234 3.03258 15.0067 2.62792C14.9386 2.54338 14.9967 2.57059 14.9668 2.53352C14.956 2.52225 14.9082 2.5338 14.8131 2.41166C14.7776 2.36832 14.8475 2.3873 14.8085 2.34879C14.8043 2.34469 14.7992 2.34274 14.7925 2.34119C14.7853 2.35649 14.8228 2.39529 14.7656 2.39C14.5739 2.3891 14.3469 2.38894 14.33 2.39123C14.2784 2.40482 14.3008 2.43605 14.2314 2.45234C13.8904 2.5354 13.5953 2.63295 13.2806 2.7341C13.2669 2.73856 13.2455 2.74548 13.2177 2.75451C13.0034 2.80553 12.2279 3.22685 12.1832 3.2502C12.0639 3.30108 12.1324 3.17772 11.9881 3.26257C11.9571 3.30171 11.9244 3.34199 11.8934 3.38149C11.9659 3.35589 12.0362 3.33195 12.1087 3.30722C11.9189 3.38715 11.735 3.5342 11.6028 3.61165C11.5792 3.62518 11.3378 3.73135 11.227 3.80356C11.2677 3.7625 11.3088 3.72132 11.3503 3.67999C11.3271 3.68027 11.3037 3.68063 11.2803 3.68107C11.062 3.83458 10.822 3.98274 10.5887 4.12587C10.5044 4.17768 10.5181 4.13524 10.4327 4.18776C9.93506 4.49454 10.1258 4.51507 9.53076 4.62898C9.70066 4.54408 10.2712 4.14843 10.3599 4.10204C10.422 4.06896 10.7523 4.08534 10.565 3.97365C11.041 3.67846 10.6833 4.02588 11.1159 3.73185C11.0946 3.71713 11.0733 3.70244 11.0519 3.68777C11.2001 3.5794 11.3082 3.50012 11.4252 3.47864C11.3959 3.3615 11.9651 3.10084 12.2574 2.93669C12.532 2.78155 12.8372 2.60626 13.1363 2.49758C13.306 2.43798 13.4731 2.38186 13.6337 2.33358C13.7936 2.28554 13.8958 2.30569 13.916 2.30016C13.9453 2.29206 14.0173 2.23287 14.0767 2.21855C14.2546 2.17121 14.827 2.10732 14.9389 2.1766C14.9753 2.1967 15.0092 2.21256 15.0372 2.21798C15.0136 2.19462 14.9882 2.17064 14.9636 2.14878C14.458 1.95219 13.7292 2.28023 13.1205 2.44749C12.5064 2.66257 11.9279 3.02073 11.3543 3.35778C11.5269 3.31244 10.3543 4.03945 10.2946 4.07793C10.2381 4.11067 10.2643 4.04953 10.2468 4.05784C10.1179 4.11987 10.0421 4.23278 10.0043 4.2567C9.9755 4.27498 9.90052 4.29206 9.79781 4.35804C9.77876 4.37025 9.78804 4.39656 9.76748 4.40974C9.63076 4.49674 9.49623 4.58216 9.3606 4.66906C9.35215 4.67415 9.29626 4.66276 9.26147 4.68494C9.2267 4.70719 9.21456 4.76207 9.20585 4.7678C9.09658 4.83741 8.89614 4.93528 8.79191 5.00184C8.75615 5.02479 8.79668 5.03333 8.75637 5.05887C8.63243 5.13757 8.64117 5.06433 8.497 5.1743C8.44839 5.21136 8.47509 5.24595 8.37341 5.3044C8.30205 5.34536 8.26749 5.27538 8.25498 5.28006C8.23786 5.287 8.03099 5.49257 7.92457 5.50051C7.9783 5.3804 7.91882 5.42263 7.8593 5.49331C7.80901 5.55339 7.76046 5.63534 7.78286 5.65183C7.68219 5.70178 7.58192 5.75398 7.48228 5.80809C7.45922 5.84231 7.43722 5.87604 7.41489 5.91026C7.01315 6.12879 6.82327 6.33714 6.47542 6.61773C6.45828 6.63021 6.15843 6.86116 6.15782 6.83537C6.29946 6.65585 6.46885 6.50318 6.61991 6.45745C6.72128 6.21038 6.78656 6.27858 7.07706 6.02679C7.17473 5.94345 7.16292 5.91149 7.17428 5.90213C7.35056 5.75783 7.58255 5.58222 7.82114 5.43381C8.10791 5.25499 8.39223 5.09583 8.57565 5.04113C8.64105 4.968 8.34962 5.14273 8.45031 5.05515C8.50459 5.00685 9.95182 4.04464 9.5444 4.43753C9.59121 4.404 9.63751 4.37083 9.68503 4.33691C9.67709 4.21693 9.93206 4.08366 9.96072 4.18983C9.97208 4.1572 9.98336 4.12463 9.99455 4.09212C10.0303 4.04799 10.0795 4.00536 10.151 3.95345C10.4227 3.74483 12.1805 2.72903 12.2811 2.68532C12.2717 2.66213 12.2623 2.63893 12.2529 2.61572C11.4392 3.01725 10.7374 3.53527 9.87273 3.99588C9.9092 4.00042 9.9449 4.00546 9.98193 4.00968C9.63488 4.1905 9.28923 4.37253 8.943 4.55549C9.26799 4.29692 9.801 3.91462 10.1887 3.71249C10.2571 3.67689 10.2267 3.73442 10.2438 3.72838C10.2875 3.7131 10.3016 3.63741 10.4385 3.54553C10.5773 3.45207 10.9558 3.26665 10.9869 3.24687C11.0499 3.2057 11.1875 3.04705 11.2962 2.98361C11.4407 2.8993 11.3645 2.99092 11.3938 2.97459C11.5138 2.90829 11.6116 2.82863 11.7073 2.77745C11.8497 2.70019 12.175 2.60236 12.2298 2.4587C12.1235 2.50857 12.0189 2.55962 11.9163 2.61094C12.2813 2.38376 12.6239 2.25838 13.0201 2.13058C13.1911 2.07864 13.363 2.01628 13.5441 1.93027C13.646 1.77042 13.1544 1.93073 13.5596 1.75778C13.4832 1.78124 13.4077 1.8052 13.3325 1.82959C13.3219 1.86009 13.3123 1.89036 13.3022 1.92079C13.1914 1.93826 13.081 1.95653 12.9709 1.97525C12.9439 1.9803 12.9166 1.98593 12.8888 1.99214C12.9203 1.99654 12.9511 2.00162 12.9811 2.0074C12.9976 2.01139 13.014 2.0154 13.0304 2.01944C13.0168 2.02428 13.0032 2.02915 12.9895 2.03405C12.5017 2.21707 12.1262 2.46371 11.9191 2.43307C11.9251 2.46441 11.9311 2.49574 11.937 2.52707C11.5254 2.70872 11.0269 3.16244 11.0448 2.95415C11.0314 2.97264 11.0186 2.99081 11.0055 3.00923C10.7581 3.11877 10.8938 3.1183 10.8121 3.17733C10.7871 3.19459 10.3312 3.43431 10.4983 3.27188C10.0509 3.5048 10.2653 3.55801 10.1525 3.63663C9.83812 3.74137 9.41375 4.15077 9.55216 3.91624C9.50953 3.93784 9.46663 3.95964 9.42348 3.98162C9.34349 4.14782 9.15367 4.13852 8.99027 4.19939C8.93969 4.22915 8.89107 4.25766 8.84117 4.28701C8.8263 4.33538 8.8113 4.38385 8.79617 4.4324C8.25549 4.59414 8.63036 4.85966 8.22882 4.69226C8.24967 4.65344 8.26999 4.61496 8.29138 4.5758C8.36364 4.51734 8.43384 4.46019 8.50602 4.40181C8.19005 4.59328 7.87458 4.78476 7.55923 4.97581C7.55062 4.97905 7.54211 4.98233 7.53369 4.98563C7.07854 5.17414 6.91051 5.42579 6.4472 5.70211C6.41377 5.74192 6.38087 5.78166 6.3479 5.82182C6.3357 5.72665 6.4955 5.60709 6.18908 5.81819C6.12738 5.79522 6.31417 5.6268 6.43164 5.58865C6.45969 5.57957 6.30561 5.76204 6.51106 5.59653C6.65227 5.48625 6.35057 5.6324 6.79431 5.32128C6.76987 5.32222 6.74538 5.32326 6.72085 5.3244C6.76804 5.28883 6.81504 5.25394 6.86316 5.21879C6.9249 5.21335 6.9859 5.20891 7.04756 5.20446C7.13032 5.08854 7.15318 4.98838 7.42429 4.82889C7.39287 4.86171 7.41374 4.87521 7.45888 4.86899C7.49833 4.86466 7.55696 4.84448 7.61406 4.80721C7.6014 4.78749 7.58874 4.76776 7.57609 4.74804C7.85822 4.54906 7.79441 4.67171 8.00759 4.47106C8.04184 4.47122 8.07602 4.47142 8.11014 4.47167C8.20071 4.3222 8.65627 3.96801 8.63064 4.12123C8.70664 3.93959 9.01982 3.79924 9.17508 3.80642C9.17073 3.78159 9.16637 3.75677 9.162 3.73195C9.21529 3.69238 9.27125 3.65116 9.32513 3.6113C9.3645 3.60295 9.40274 3.59533 9.44276 3.5866C9.47592 3.54887 9.50884 3.51132 9.5415 3.47397C9.57838 3.47825 9.61449 3.48303 9.65194 3.48698C9.70277 3.42171 9.75195 3.35756 9.8024 3.29272C9.85261 3.28312 9.90252 3.27376 9.95211 3.26464C9.92953 3.22098 10.3211 2.96367 10.4505 2.92203C10.4765 2.88937 10.5011 2.85765 10.528 2.82458C10.5566 2.83424 10.5851 2.84396 10.6136 2.85374C10.6288 2.82267 10.6439 2.7917 10.659 2.76084C10.7256 2.74197 10.7942 2.72209 10.8605 2.70379C11.0383 2.46428 11.0984 2.54558 11.1517 2.51309C11.2509 2.45209 11.5654 2.18994 11.6275 2.16079C11.69 2.13038 11.7371 2.15116 11.7878 2.12794C12.6372 1.7572 12.2618 1.83922 12.4285 1.73792C12.5231 1.68592 12.6126 1.69006 12.7101 1.6494C12.736 1.6386 12.7878 1.61721 12.8502 1.59413C13.0848 1.50108 13.5845 1.32096 13.6253 1.31693C13.6902 1.30731 13.5879 1.51917 13.7805 1.42172C13.7586 1.32416 14.2474 1.31786 13.9998 1.2333C14.2002 1.20431 14.4021 1.17503 14.6832 1.18288C14.6695 1.13256 14.7264 1.11466 14.8582 1.12551C14.9863 1.14997 15.2199 1.13721 15.5924 1.44189C15.6173 1.4651 15.6425 1.48863 15.6679 1.51206C16.0348 1.83379 16.5135 2.48123 16.3972 2.51443C16.4644 2.57093 16.5308 2.62778 16.5961 2.68385C16.8523 3.18151 17.1322 3.60562 17.4005 4.00635C17.4691 4.10893 17.5387 4.20891 17.6097 4.30503C18.1278 5.00605 18.4552 5.73235 18.8326 6.29669C19.2016 6.86016 19.6141 7.38159 20.0558 7.85932C20.1036 7.91099 20.0691 7.93031 20.1041 7.96779C20.2847 8.16606 20.8117 8.63165 21.0971 8.88732C21.187 8.96941 21.2086 9.03695 21.2369 9.06346C21.2636 9.08844 21.2837 9.10224 21.2997 9.10989C21.3429 9.13102 21.3561 9.10871 21.3916 9.14036C21.4705 9.20998 21.8413 9.59214 21.9742 9.71334C22.0407 9.77402 22.146 9.81323 22.2172 9.8902C22.2233 9.89678 22.1845 9.91659 22.1898 9.92206C22.3308 10.0494 22.2667 9.9486 22.3142 9.99167C22.6516 10.2959 23.0282 10.616 23.3853 10.883C23.4713 10.9481 23.5922 11.0588 23.6272 11.0773C23.6307 11.0806 23.661 11.0594 23.6397 11.0544C23.6238 11.0496 23.6014 11.0533 23.5623 11.0575C23.5068 11.069 23.4891 11.0379 23.2393 11.1182C23.0634 11.1698 22.8695 11.4214 22.8503 11.5254C22.8083 11.6577 22.8159 11.7074 22.8135 11.7463C22.8151 11.824 22.8141 11.8226 22.8088 11.8331C22.7568 11.7522 22.7087 11.7139 22.7379 11.6032C22.6231 11.3264 22.4044 11.1901 22.2453 11.1706C22.2328 11.168 22.2223 11.1635 22.2122 11.1584C22.1899 11.1477 22.1804 11.1367 22.1794 11.137C22.1733 11.1371 22.2204 11.1764 22.2845 11.1495C22.3497 11.1272 22.3873 11.0213 22.3629 11.0567C22.3436 11.0859 22.3228 11.244 22.3195 11.2703C22.3131 11.3025 22.267 11.3116 22.2618 11.3479C22.2522 11.4118 22.2512 11.5479 22.258 11.6897C22.2616 11.8105 22.2646 11.9273 22.2626 12.0071C22.2572 12.2134 22.2298 12.3354 22.2267 12.405C22.224 12.4707 22.257 12.5486 22.2558 12.5783C22.254 12.6245 22.2103 12.6332 22.2077 12.6915C22.2035 12.7863 22.2254 12.889 22.2187 13.0315C22.1235 14.9947 22.0119 16.8918 21.8363 18.8438C21.8136 19.0329 21.8141 19.3058 21.7544 19.6406C21.7019 19.9507 21.5246 20.5117 20.9946 20.7926C20.7693 20.9105 20.6021 20.9474 20.4445 20.9832C20.0985 21.0512 19.9293 21.0972 19.4954 21.1205C19.3215 21.1283 19.3906 21.0783 19.2581 21.0962C19.1984 21.1042 19.2168 21.138 19.1419 21.1448C18.812 21.1738 18.4377 21.1645 18.2993 21.1751C18.244 21.1792 18.1846 21.2232 18.0731 21.2322C17.8768 21.2482 17.6735 21.2655 17.4663 21.2859C16.7394 21.3592 15.975 21.3798 15.2978 21.4375C14.8955 21.47 14.3259 21.5422 13.8324 21.6159C13.7709 21.6252 13.7021 21.6384 13.6375 21.6524C12.3656 21.919 10.5977 22.9618 8.70224 22.3008C7.74812 21.9499 7.10505 21.1479 6.72749 20.3993C6.01103 18.7726 6.08933 17.3689 6.05357 15.9496C5.98409 16.9597 6.01341 18.3474 6.33657 19.598C6.40892 19.867 6.50148 20.1483 6.64674 20.4401C7.12025 21.6796 8.89617 22.8824 10.3624 22.6011C11.7728 22.4629 12.9559 21.836 13.8435 21.6983C14.5119 21.6042 15.167 21.543 15.8424 21.5034C16.3255 21.4737 16.8875 21.4464 17.4766 21.3887C18.1846 21.3179 18.9264 21.295 19.6758 21.2439C19.7372 21.2394 19.8585 21.1975 19.996 21.1838C20.0217 21.1832 20.404 21.1859 20.5654 21.1415C20.4506 21.086 20.714 21.0901 21.0681 20.9267C21.1976 20.864 21.3093 20.7817 21.3713 20.7235C21.7476 20.4178 21.8929 19.689 21.9294 19.277C21.9801 18.8955 22.0093 19.0232 22.0136 18.9974C22.0276 18.929 22.0108 18.8935 21.996 18.8596C21.9879 18.8283 21.9807 18.7916 21.9816 18.7542C21.9967 18.3371 22.1598 16.3513 22.1943 15.7866C22.2033 15.6442 22.2426 15.6413 22.2447 15.6088C22.2502 15.5202 22.2186 15.3995 22.2271 15.2588C22.242 15.012 22.2953 14.7246 22.3031 14.5888C22.322 14.2607 22.3125 13.637 22.334 13.2107C22.3401 13.0904 22.3803 13.0994 22.383 13.0458C22.3949 12.8069 22.3786 12.183 22.3927 11.8868C22.3957 11.824 22.3992 11.7606 22.403 11.6968C22.4135 11.5231 22.4391 11.3584 22.4713 11.2444C22.4938 11.1273 22.5725 11.0923 22.4271 11.2171C22.4172 11.2472 22.4 11.2796 22.3772 11.3108C22.3207 11.3172 22.266 11.312 22.2293 11.2982C22.1711 11.3085 22.1484 11.3001 22.1879 11.3075C22.3062 11.332 22.3521 11.353 22.4321 11.4292C22.5105 11.5083 22.595 11.6513 22.6612 11.8757C22.659 11.8562 22.6427 11.8427 22.6438 11.6937C22.6467 11.6357 22.6559 11.4708 22.7757 11.2842C22.9093 11.065 23.1762 10.934 23.3271 10.9134C23.6167 10.8769 23.6407 10.9278 23.6802 10.9312C23.7063 10.9402 23.7057 10.9414 23.6994 10.9379C23.7023 10.9509 23.3854 10.6923 23.3287 10.6441C23.2812 10.6082 23.2084 10.6091 23.1407 10.5475C23.0479 10.4623 23.1934 10.4693 23.0164 10.3584C22.9683 10.3278 22.9874 10.3907 22.8924 10.3279C22.8613 10.3105 22.2819 9.84039 22.2523 9.80968C22.204 9.76252 22.2092 9.66335 22.1972 9.65077C22.1345 9.58499 22.0974 9.63255 22.0478 9.59689C21.9005 9.49124 21.7469 9.30435 21.7237 9.28549C21.6317 9.21081 21.5135 9.11853 21.3801 9.01515C21.1254 8.82014 20.8427 8.58715 20.6815 8.40884C20.6484 8.37231 20.6836 8.34376 20.6784 8.33682C20.645 8.29243 20.5841 8.30501 20.5456 8.26962C20.3354 8.07741 20.0528 7.7377 19.8732 7.5226C19.8521 7.49769 19.7888 7.46363 19.7523 7.41835C19.55 7.16339 19.6503 7.21704 19.6392 7.20219C19.6146 7.16641 19.5316 7.13514 19.4567 7.04651C19.3016 6.86538 19.0566 6.53415 18.8802 6.26461C18.8367 6.19881 18.7972 6.13655 18.7634 6.0822C18.6395 5.88058 18.6846 5.85463 18.6771 5.84132C18.6611 5.81121 18.5787 5.75174 18.4913 5.61031C18.3216 5.33498 18.3723 5.34372 18.3013 5.22487C18.2951 5.21448 18.2733 5.25232 18.1897 5.11812C18.0776 4.93749 17.8725 4.56851 17.6603 4.26762C17.5944 4.17129 17.5345 4.07928 17.4874 4.01019C17.427 3.92128 17.3822 3.92006 17.3206 3.82519C17.223 3.67697 17.0411 3.293 17.0234 3.26235C17.0185 3.25414 16.9711 3.25742 16.9426 3.20895C16.9111 3.15537 16.8989 3.09137 16.875 3.05088C16.7425 2.8227 16.4233 2.44261 16.623 2.47899C16.5426 2.41995 16.4614 2.36145 16.3779 2.30184C16.1878 2.00852 15.9807 1.70554 15.6331 1.39614C15.1462 1.02075 14.8684 1.09661 14.6654 1.08034C14.4606 1.08583 14.3035 1.11225 14.1547 1.13999C14.0036 1.16916 13.8806 1.16834 13.7658 1.19792C13.6455 1.22595 13.1849 1.40788 13.1106 1.43324C13.0671 1.44698 12.9572 1.48161 12.8278 1.52348C12.4493 1.64652 12.0901 1.84086 12.0225 1.87078C11.834 1.9594 11.6336 1.99851 11.567 2.04947C11.5137 2.09047 11.5847 2.09108 11.4812 2.16074C11.3018 2.28107 10.97 2.42447 10.915 2.45848C10.8919 2.47276 10.9492 2.46985 10.7308 2.60386C10.6122 2.67695 10.5351 2.68868 10.4919 2.71528C10.4785 2.72378 10.5244 2.75274 10.2889 2.89041C10.1285 2.98423 10.0396 2.99522 10.0234 3.00513C9.99892 3.02014 9.95801 3.09338 9.85878 3.15402C9.62328 3.29743 9.17354 3.5281 8.95242 3.66527C8.90911 3.6921 8.95041 3.72368 8.77875 3.82811C8.65506 3.9034 8.65646 3.85634 8.6102 3.88411C8.53691 3.9282 8.45648 4.0363 8.29664 4.13702C8.19691 4.19976 7.768 4.45989 7.35538 4.70761C6.90197 4.98024 6.50617 5.27736 6.46423 5.30183C6.40689 5.33608 6.34739 5.3833 6.3088 5.38741C6.31773 5.35409 6.32678 5.32077 6.33595 5.28747C6.60891 5.16193 6.46638 5.17194 6.52487 5.11965C6.60791 5.04369 6.96142 4.79983 7.04018 4.72715C7.06787 4.70077 6.97083 4.71299 7.12774 4.58177C7.1637 4.55202 7.19775 4.52934 7.22914 4.51078C7.33333 4.4498 7.40505 4.43965 7.411 4.33735C7.70547 4.28716 7.85945 4.04095 7.57462 4.18446C7.52908 4.20741 7.37543 4.29754 7.17071 4.41967C6.5771 4.76407 5.75658 5.42531 5.55419 5.60712C5.31638 5.80972 4.92105 6.22862 4.65421 6.48786C4.49496 6.63909 4.12184 7.02168 4.09773 6.96679C3.96053 7.10174 4.14079 6.992 4.11869 7.02669C4.071 7.0989 3.63837 7.50931 3.5648 7.59412C3.19709 8.00867 2.78899 8.56852 2.39044 8.9206C2.39525 8.8922 2.40006 8.86382 2.40486 8.83546C2.46139 8.72788 2.8548 8.33764 2.84294 8.24304C2.59418 8.5254 2.34871 8.80794 2.10507 9.08981C1.80153 9.44298 1.5027 9.8057 1.20669 10.253C1.26234 10.261 0.780829 10.9792 0.658019 11.5701C0.593043 11.84 0.624956 12.1611 0.694619 12.3628C0.762837 12.5691 0.83469 12.6731 0.855824 12.7128C0.725814 12.5693 0.6039 12.358 0.540613 12.1273C0.510849 11.9085 0.531404 11.7076 0.56857 11.5507C0.739675 11.0501 0.825949 10.9194 0.877964 10.77C0.934252 10.6311 0.97811 10.5173 1.13669 10.3368C1.2435 10.1727 1.17033 10.197 1.21585 10.1124C1.6669 9.32803 1.30461 10.1448 1.67108 9.59137C1.49365 9.70093 1.80443 9.2659 1.94823 9.0884C1.95484 9.08005 1.97911 9.05228 2.01511 9.01205C2.14257 8.86986 2.42345 8.56371 2.46259 8.51773C2.73677 8.19274 3.19671 7.61503 3.51874 7.32263C3.75217 7.07521 3.84406 6.90287 4.05217 6.66807C4.21052 6.49047 4.18958 6.56384 4.26799 6.48374C4.43382 6.31556 4.41368 6.18309 4.628 6.18293C4.72986 6.05565 4.83327 5.92905 4.9391 5.80275C4.95523 5.81976 4.97136 5.83676 4.98749 5.85377C5.06209 5.78301 5.13708 5.71291 5.21326 5.64286C5.21986 5.60507 5.22626 5.56755 5.23336 5.5295C5.50028 5.33154 5.43582 5.46657 5.52575 5.47499C5.58229 5.43104 5.63849 5.38799 5.69606 5.34437C5.70494 5.26947 5.71382 5.19493 5.72423 5.1195C5.97505 4.91339 6.23608 4.71195 6.51031 4.51857C6.54163 4.52473 6.57299 4.53094 6.6042 4.53733C6.59119 4.51792 6.57818 4.49851 6.56517 4.4791C6.7092 4.37427 6.8587 4.27068 7.01126 4.17105C7.29432 3.9856 7.57756 3.79972 7.86151 3.6136C7.95191 3.51102 7.27077 3.91455 7.21887 3.94517C7.15351 3.98376 7.06612 4.03957 6.96769 4.10311C6.56967 4.35529 6.09911 4.73141 6.05953 4.68188C5.90623 4.87469 5.36881 5.3126 5.1639 5.40293C5.40724 5.18822 5.65957 4.97667 5.92384 4.77084C5.89798 4.75578 5.87208 4.74077 5.84614 4.72582C6.24662 4.55246 6.28614 4.51315 6.59104 4.16926C6.61261 4.19985 6.63419 4.23045 6.65575 4.26105C6.71372 4.17045 6.81503 4.09569 6.92322 4.03379C7.11691 3.92533 7.33548 3.86463 7.28419 3.76777C7.40777 3.70391 7.53405 3.63831 7.65859 3.57384C7.90377 3.39347 7.43836 3.54413 8.4668 2.94359C8.53826 2.90199 8.54603 2.94557 8.64816 2.87712C8.67804 2.85718 8.81813 2.6968 9.15397 2.49199C9.20651 2.46001 9.22833 2.48824 9.28546 2.45758C9.41599 2.38789 9.62895 2.17216 9.57612 2.34011C10.0911 2.05895 9.83799 2.10628 9.97275 1.97916C10.0654 1.89326 10.0797 1.96398 10.1617 1.89598C10.2669 1.81055 10.1434 1.80231 10.6221 1.55513C10.573 1.58941 10.5227 1.62457 10.473 1.65954C10.5083 1.66011 10.5446 1.66012 10.5802 1.66065C10.8231 1.46593 10.8316 1.53725 10.908 1.37305C11.1321 1.29938 11.304 1.20583 11.6051 1.04197C11.8683 0.900709 11.9618 0.832693 12.0454 0.780623C12.1333 0.730171 12.1868 0.694817 12.5422 0.621532C12.5972 0.615507 12.6623 0.609389 12.7409 0.602888C12.841 0.549657 12.9431 0.49649 13.0489 0.443483C13.2473 0.433105 13.1082 0.52927 13.3967 0.462233C13.1392 0.416186 13.7646 0.291454 13.8973 0.172359C13.915 0.192797 13.9334 0.213142 13.9515 0.2336C14.0325 0.218453 14.121 0.203628 14.2163 0.190979C14.2142 0.172303 14.212 0.153628 14.2098 0.134951C14.3422 0.132004 14.4885 0.130819 14.6774 0.14362C14.8204 0.125381 14.9898 0.110854 15.2355 0.140354C15.479 0.21949 15.8452 0.340316 16.2383 0.715786C16.2786 0.770295 16.3172 0.825917 16.3505 0.878418C16.4259 0.956614 16.493 1.03284 16.5538 1.10617C16.555 1.06503 16.5554 1.02348 16.5541 0.980616C16.6348 1.08277 16.7043 1.1808 16.7667 1.27495C16.7161 1.14074 16.8277 1.18114 17.0192 1.44745C17.1643 1.65895 16.9377 1.48758 17.2502 1.89405C17.2687 1.91926 17.3713 1.94651 17.5977 2.30623C17.8581 2.72279 17.6925 2.53991 17.7352 2.6157C17.7433 2.63005 17.8454 2.73631 17.9144 2.84287C17.9537 2.90373 17.9646 2.97581 17.9695 2.98379C17.9929 3.02011 18.033 3.01063 18.0647 3.05991C18.1449 3.18542 18.2296 3.3549 18.3031 3.46018C18.3366 3.50854 18.386 3.5388 18.4006 3.55892C18.4229 3.59028 18.422 3.65002 18.4443 3.67994C18.4456 3.68174 18.447 3.68353 18.4484 3.68531C18.6022 3.88297 18.8908 4.12187 18.8086 4.2958C19.0598 4.40955 19.1124 4.86473 19.1828 4.78462C19.3115 5.0487 19.5648 5.43822 19.7368 5.68634C19.8956 5.91992 20.0113 6.10036 19.9412 6.13488C20.1983 6.23557 20.1021 6.28028 20.1649 6.35712C20.235 6.44136 20.2217 6.37968 20.2754 6.44802C20.4017 6.60792 20.5206 6.76415 20.6591 6.9171C20.6199 6.90871 20.5813 6.90063 20.542 6.89168C20.6827 7.05814 20.6718 6.96655 20.832 7.12135C21.1323 7.40452 20.9816 7.30907 20.981 7.39618C21.0092 7.34372 21.3571 7.69448 21.3917 7.73429C21.4112 7.75841 21.2598 7.72334 21.504 7.91391C21.5072 7.88523 21.5105 7.85663 21.5139 7.8281C21.5945 7.94674 21.9111 8.17023 21.9564 8.21813C21.9638 8.22612 21.9685 8.26295 21.9817 8.30648C22.0126 8.39081 22.0733 8.50017 22.2166 8.49736C22.2165 8.52804 22.2164 8.55881 22.2164 8.58967C22.3737 8.68854 22.5277 8.78512 22.6804 8.88004C22.6743 8.93034 22.6682 8.98071 22.6622 9.03114C22.7046 9.06772 22.7468 9.10412 22.7893 9.14061C22.7855 9.08811 22.7817 9.03557 22.7781 8.98313C23.0295 9.22314 23.3773 9.43824 23.3488 9.57754C23.4176 9.60414 23.4866 9.63058 23.5543 9.65546C23.5629 9.71645 23.5702 9.77611 23.5788 9.83657C23.8261 10.0184 23.8496 9.99921 24.0127 10.0611C23.9889 10.0845 23.9649 10.1076 23.9407 10.1305C23.9997 10.1449 24.0943 10.1793 24.1025 10.163C24.0861 10.1528 24.1298 10.1293 23.8122 10.0407C23.7401 10.0238 23.5751 9.99105 23.3563 10.0052C23.0992 10.0218 22.6544 10.1124 22.2548 10.5039C21.8572 10.9169 21.7954 11.2596 21.7543 11.5032C21.7286 11.7086 21.7401 11.8169 21.75 11.9134C21.7627 12.0168 21.7797 12.0778 21.7952 12.1261C21.7831 12.0506 21.799 12.0105 21.7932 12.0049C21.7811 11.9859 21.6142 12.0487 21.7514 11.9804C21.7078 12.0483 21.8695 12.1009 21.9202 12.1213C21.9598 12.1422 21.9676 12.1843 22.0061 12.199C22.0198 12.2041 22.0317 12.2063 22.041 12.2069C22.0458 12.2117 22.3425 12.2199 22.542 12.1523C22.6975 12.104 22.7445 12.1177 22.8498 12.0619C23.088 11.918 23.0938 11.8713 23.1259 11.8346C23.1495 11.7979 23.1953 11.744 23.2719 11.6296C23.2918 11.6071 23.4026 11.4765 23.3931 11.4707C23.3943 11.4491 23.3293 11.5217 23.3284 11.537C23.3241 11.5859 23.4238 11.5363 23.2971 11.7233C23.3161 11.7182 23.3351 11.7133 23.3542 11.7086C23.3557 11.7203 23.357 11.732 23.3581 11.7435C23.3747 12.0984 23.2957 12.1535 23.2863 12.2311C23.2853 12.2414 23.3127 12.3403 23.3053 12.3979C23.2928 12.4946 23.2466 12.5337 23.2436 12.5551C23.2329 12.6317 23.2391 12.8909 23.1877 13.0572C23.3152 13.0264 23.3285 13.6235 23.1793 13.7455C23.2017 13.8509 23.224 13.9593 23.2463 14.0643C23.2204 14.1096 23.1943 14.1566 23.1683 14.2029C23.1901 14.2331 23.2118 14.2633 23.2335 14.2933C23.1738 14.441 23.1138 14.594 23.0539 14.7419C23.1048 14.7547 23.1556 14.7674 23.2065 14.7801C23.1982 14.8229 23.1899 14.8655 23.1817 14.9077C23.1389 14.9386 23.0962 14.9694 23.0534 15C23.0581 15.054 23.0628 15.1088 23.0675 15.1625C23.0963 15.1774 23.1252 15.1923 23.154 15.2072C23.1713 15.4964 22.8982 15.3308 23.1135 15.894C23.085 15.9794 23.0568 16.0599 23.0282 16.1454C23.1357 16.2491 23.0559 16.4261 23.0597 16.5706C23.0623 16.6743 23.1076 16.6731 23.0999 16.8108C23.0919 16.953 23.0492 16.944 23.0482 16.955C23.0385 17.0657 23.0705 17.1597 23.0577 17.2398C23.0558 17.2522 23.0024 17.2827 22.9922 17.3882C22.9819 17.4947 23.0322 17.5608 23.011 17.7221C23.0004 17.8021 22.9555 17.8243 22.9467 17.8966C22.904 18.2422 23.0979 18.6023 22.8137 18.8697C22.8181 18.8816 22.8234 18.909 22.8291 18.9423C22.8678 18.9793 22.9353 19.3224 22.8986 19.5857C22.8178 20.0757 22.7896 19.8889 22.7277 20.1174C22.6898 20.161 22.7814 20.316 22.3069 21.0389C22.21 21.1659 22.252 21.1544 22.2382 21.1731C22.0795 21.3663 21.8273 21.5957 21.5236 21.7577C20.6431 22.1725 20.2748 22.0952 19.9741 22.1492C19.9431 22.1521 19.7774 22.2506 19.5111 22.1627C19.1296 22.2721 18.4661 22.1368 18.0413 22.292C17.9811 22.2993 17.906 22.2769 17.8796 22.2801C17.727 22.2994 17.7186 22.3415 17.5718 22.3437C17.4857 22.3463 17.3609 22.3397 17.1607 22.3141C17.213 22.3542 17.075 22.4063 16.8798 22.4167C16.5881 22.4315 16.7886 22.3352 16.5583 22.3567C16.5598 22.38 16.5613 22.4033 16.5627 22.4267C16.0364 22.3962 15.9463 22.4985 15.4627 22.5332C15.2895 22.5456 15.0346 22.5157 14.9936 22.5196C14.9778 22.521 14.7979 22.5948 14.7801 22.5972C14.6809 22.6089 14.6218 22.5891 14.5356 22.5985C14.3009 22.6239 14.0365 22.7087 13.973 22.6602C13.9671 22.6487 13.9639 22.6319 13.965 22.6081C13.9385 22.64 13.9012 22.6749 13.8608 22.7121C13.6432 22.6129 13.4829 22.8674 13.3914 22.7508C13.3509 22.7929 13.3125 22.8347 13.2708 22.8777C12.0917 23.1604 10.2416 24.2239 7.80902 23.0307C7.67756 23.0485 6.84005 22.3884 6.83636 22.3327C6.69251 22.1395 6.92636 22.2576 6.60507 21.9268C6.53891 21.914 6.47627 21.9042 6.41207 21.8915C6.06064 21.4468 6.26218 21.6408 6.16475 21.4492C6.11288 21.3783 6.10004 21.4203 6.03495 21.3192C5.95562 21.1945 5.87183 21.0517 5.78154 20.8775C5.40472 20.1425 5.26463 19.3719 5.18834 18.9317C5.16936 18.817 5.20282 18.8297 5.19742 18.7941C5.18241 18.6977 5.11739 18.5123 5.09608 18.3232C4.97488 17.2916 4.97654 15.985 4.99009 15.0113C4.99165 14.8787 4.99328 14.7539 4.9949 14.6319C4.99589 14.5638 5.03237 14.5536 5.0333 14.5072C5.03446 14.4436 5.00177 14.2998 5.00331 14.2319C5.00471 14.1691 5.03157 14.126 5.03319 14.0588C5.04091 13.7462 4.98119 13.3306 5.05047 12.9947C5.05655 12.9668 5.18992 12.6118 5.19907 12.6031C5.25439 12.554 5.35849 12.8621 5.41985 12.3462C5.51317 12.8005 5.63786 12.654 5.67296 12.0525C5.70376 12.352 5.73339 12.6507 5.76112 12.9486C5.77651 12.9485 5.79189 12.9483 5.80728 12.9482C5.87299 12.6729 5.8869 12.4014 5.87376 11.9845C5.88862 11.9967 5.90347 12.009 5.91832 12.0214C6.00739 12.3863 6.03918 12.8273 6.14604 13.104C6.20316 12.6912 6.25649 12.2769 6.30795 11.861C6.32017 11.881 6.33239 11.901 6.34462 11.9211C6.38362 12.1176 6.42031 12.5479 6.4539 12.7109C6.58281 13.3339 6.50864 12.159 6.57934 12.3492C6.60715 13.0118 6.62623 13.6742 6.63779 14.3374C6.69412 14.3603 6.73045 11.8039 6.86382 11.8221C6.8835 12.0303 6.90286 12.2391 6.92143 12.4475C6.95305 12.353 6.98449 12.2578 7.01584 12.163C7.02834 12.1884 7.04082 12.2133 7.0533 12.2385C7.09727 12.5904 7.13922 12.9426 7.17863 13.2961C7.11368 12.2205 7.10304 11.7223 7.37241 11.4517C7.38101 11.4803 7.38961 11.509 7.39822 11.5377C7.23471 11.7774 7.34432 12.8758 7.39519 13.4612C7.4435 13.3401 7.38527 12.8254 7.41136 12.7148C7.41899 12.6833 7.4591 12.7903 7.47451 12.7175C7.51551 12.5278 7.53885 11.7283 7.60244 11.8414C7.64529 11.9122 7.75208 13.198 7.75292 13.4502C7.80235 12.8588 7.79501 12.248 7.84737 11.6579C7.97932 12.0223 8.13642 12.3461 8.16788 13.0317C8.2376 13.2384 8.25937 11.7845 8.28811 11.7527C8.33535 11.9993 8.38218 12.2482 8.42789 12.498C8.40951 12.2856 8.39035 12.0742 8.37078 11.864C8.38245 11.8628 8.39413 11.8616 8.4058 11.8604C8.48657 12.4034 8.60808 12.9077 8.62001 13.5401C8.68156 13.5185 8.66359 13.1397 8.65712 12.9555ZM3.23973 7.41793C3.19275 7.39311 3.35717 7.22451 3.44793 7.12757C3.42744 7.13602 3.40704 7.14439 3.38671 7.15271C3.58421 6.95009 3.96594 6.5761 3.90896 6.49254C4.04277 6.33559 4.04238 6.46125 4.09564 6.42036C4.1164 6.40448 4.26835 6.17597 4.46727 6.06554C4.50355 6.02918 4.54074 5.99216 4.57765 5.95565C4.56194 5.92524 4.54626 5.89481 4.53061 5.86436C4.61017 5.84213 4.69055 5.81956 4.77054 5.79787C4.2254 6.3308 3.7235 6.87407 3.24045 7.41713C3.24021 7.41739 3.23997 7.41766 3.23973 7.41793ZM8.98802 2.70995C9.21661 2.58657 9.57032 2.39917 9.45419 2.3663C9.31804 2.4572 9.18086 2.54928 9.04453 2.64119C9.02577 2.66404 9.00694 2.68696 8.98802 2.70995ZM22.972 14.707C22.8717 14.9189 22.9368 15.1182 22.9014 15.4504C22.92 15.451 22.9386 15.4517 22.9573 15.4524C22.9207 15.3118 22.971 14.9584 22.972 14.707ZM4.35869 13.1883C4.41388 13.1823 4.47028 13.1755 4.52724 13.1679C4.46139 13.219 4.41156 13.2459 4.36537 13.2619C4.27216 13.294 4.19397 13.2818 4.03212 13.3215C4.01753 13.3251 4.02718 13.3465 4.02208 13.3477C3.96261 13.3612 3.90224 13.3447 3.84845 13.3551C3.74449 13.3748 3.66499 13.4179 3.47615 13.4453C3.32951 13.4657 3.32124 13.4216 3.26941 13.4295C3.22656 13.4344 2.9198 13.5726 2.54008 13.563C2.48136 13.5612 2.42233 13.5557 2.36515 13.5457C2.11121 13.4955 2.26774 13.4963 2.54038 13.4827C3.17458 13.4513 4.16969 13.2311 4.34843 13.1903C4.35245 13.1895 4.35588 13.1888 4.35869 13.1883ZM5.97818 12.6693C5.93098 12.6944 5.88292 12.7194 5.83399 12.7443C5.94899 12.6099 5.66511 12.7698 5.42537 12.872C5.41253 12.8118 5.90259 12.6135 6.07695 12.4909C6.04505 12.5503 6.0129 12.6095 5.97818 12.6693ZM2.2105 9.18176C2.09019 9.3317 2.04954 9.25574 2.03644 9.23369C2.06997 9.19421 2.10237 9.15641 2.13647 9.11695C2.14275 9.10969 2.14902 9.10243 2.1553 9.09517C2.17335 9.12346 2.1914 9.15175 2.20945 9.18003C2.2098 9.18061 2.21015 9.18118 2.2105 9.18176ZM1.30967 10.4029C1.2996 10.3102 1.5452 9.9155 1.66912 9.75361C1.67463 9.74666 1.66372 9.80923 1.75119 9.69283C1.77701 9.65571 1.95972 9.26032 1.99675 9.41177C1.76405 9.71462 1.53301 10.0307 1.31003 10.4023C1.30991 10.4025 1.30979 10.4027 1.30967 10.4029ZM1.02193 10.8373C1.05406 10.7355 1.0876 10.6395 1.12198 10.5471C1.16981 10.5167 1.21677 10.4892 1.26432 10.4617C1.21415 10.5544 1.1646 10.6511 1.1162 10.7544C1.0845 10.7815 1.05378 10.8077 1.02193 10.8373ZM7.20128 21.7537C7.19759 21.7899 7.19383 21.8257 7.19152 21.8627C7.24526 21.9527 7.68189 22.1646 7.58256 22.0499C7.44774 21.9579 7.32018 21.8579 7.20128 21.7537ZM6.28966 20.2138C6.27015 20.1271 6.25314 20.0394 6.23974 19.9559C6.16406 19.8776 6.09174 19.801 6.02075 19.7216C6.09178 20.1234 6.28353 20.6154 6.37426 20.4796C6.38681 20.506 6.39968 20.5322 6.4129 20.5583C6.445 20.6219 6.47786 20.6841 6.51149 20.7452C6.42366 20.7014 6.40865 20.7219 6.50343 20.957C6.60361 20.9693 6.69837 21.213 6.91498 21.4615C6.773 21.2724 6.6542 21.0849 6.54557 20.8899C6.55766 20.8829 6.56975 20.8758 6.58183 20.8688C6.81684 21.2587 6.61499 20.8097 6.44732 20.5409C6.43146 20.5155 6.41582 20.4912 6.40047 20.4688C6.40525 20.4356 6.41051 20.4026 6.41621 20.3699C6.37271 20.3186 6.33057 20.2665 6.28966 20.2138ZM23.4777 10.4523C23.5015 10.4878 23.5267 10.5241 23.5501 10.5585C23.7788 10.4971 23.4295 10.4624 23.3243 10.191C23.3193 10.3287 23.0285 10.0885 23.0057 10.0781C23.0165 10.1352 23.0272 10.1919 23.0376 10.2482C23.1871 10.3217 23.3355 10.3918 23.4777 10.4523ZM22.4587 11.7412C22.4328 11.8025 22.3773 11.7164 22.3277 11.6514C22.2761 11.5819 22.2464 11.5543 22.2418 11.5383C22.24 11.5305 22.253 11.4798 22.2426 11.482C22.2306 11.4968 22.2197 11.5122 22.2094 11.5281C22.2195 11.4984 22.2013 11.491 22.1569 11.4974C22.0749 11.5151 22.4035 11.5384 22.5391 11.4453C22.5498 11.4106 22.5568 11.3762 22.5584 11.3445C22.6304 11.2966 22.6672 11.256 22.6869 11.2414C22.6653 11.2321 22.6438 11.2226 22.6226 11.2127C22.6561 11.2121 22.6827 11.2195 22.7072 11.2336C22.7239 11.2802 22.6113 11.2125 22.632 11.2893C22.6547 11.3874 22.7613 11.2619 22.8058 11.2927C22.8035 11.2728 22.8087 11.2529 22.7628 11.3109C22.7249 11.3652 22.5649 11.5007 22.4454 11.5421C22.3804 11.5675 22.3911 11.5857 22.3436 11.6083C22.3181 11.6326 22.1138 11.638 22.1419 11.5831C22.1421 11.5834 22.1424 11.5837 22.1427 11.5841C22.1563 11.6099 22.1598 11.6356 22.1549 11.6586C22.1724 11.6254 22.1898 11.5903 22.2269 11.5719C22.2083 11.5989 22.1882 11.6248 22.167 11.6497C22.1571 11.6439 22.2566 11.6495 22.2794 11.6424C22.2535 11.7096 22.2821 11.7793 22.3323 11.9708C22.3246 11.9417 22.314 11.9169 22.303 11.8132C22.3076 11.743 22.3086 11.6887 22.3422 11.5326C22.3817 11.3788 22.4473 11.1669 22.6851 10.9361C22.2751 11.3961 22.3662 11.6498 22.3438 11.7275C22.3435 11.8328 22.3527 11.8724 22.3557 11.8961C22.3642 11.945 22.3691 11.953 22.3738 11.9588C22.3759 11.9519 22.3832 11.9526 22.392 11.9536C22.4002 11.9459 22.41 11.9368 22.4235 11.9445C22.426 11.9406 22.4281 11.9354 22.4293 11.9284C22.4369 11.8826 22.4436 11.7814 22.4587 11.7412ZM9.96548 22.8416C9.27443 22.8863 9.70742 22.8837 8.9375 22.7288C8.98077 22.7838 9.02644 22.838 9.07355 22.8912C9.48667 22.9132 10.0834 22.9567 9.96618 22.8416C9.96595 22.8416 9.96572 22.8416 9.96548 22.8416ZM5.69906 18.0522C5.75845 18.3646 5.80293 18.1978 5.87744 18.5972C5.87747 18.5974 5.8775 18.5976 5.87753 18.5977C5.85247 18.3883 5.83346 18.1815 5.81856 17.9777C5.77867 18.0024 5.73884 18.0272 5.69906 18.0522ZM22.2056 19.7035C22.2831 19.2942 22.2317 19.3707 22.3174 19.1003C22.2596 18.7667 22.2526 19.0369 22.1806 19.0364C22.1967 19.1175 22.2129 19.211 22.2258 19.3172C22.1349 19.5753 22.1244 19.3194 22.1172 19.3216C22.1172 19.3219 22.1171 19.3221 22.1171 19.3223C22.0953 19.321 22.0924 19.3103 22.0699 19.4097C22.1192 19.4968 22.1659 19.5929 22.2056 19.7035ZM22.2323 18.3985C22.2729 18.4957 22.3309 18.5478 22.3805 18.2948C22.3805 18.2946 22.3805 18.2944 22.3805 18.2942C22.2755 18.2637 22.3789 18.0312 22.3795 17.9175C22.3698 17.8887 22.3602 17.8593 22.3506 17.8295C22.3117 18.0184 22.2725 18.2074 22.2323 18.3985ZM22.3962 14.1891C22.5144 14.1945 22.514 14.4065 22.6392 14.1149C22.6403 14.0564 22.6412 14.0004 22.6422 13.9425C22.6184 13.9034 22.5945 13.8641 22.5706 13.8247C22.8234 13.1064 22.4716 12.8685 22.5409 14.1095C22.541 14.1097 22.5411 14.1098 22.5412 14.11C22.4928 14.1365 22.4445 14.1629 22.3962 14.1891ZM22.3331 15.4741C22.3946 15.4869 22.456 15.4997 22.5174 15.5125C22.3583 15.6664 22.4888 15.8817 22.364 16.1921C22.3811 16.2218 22.3982 16.2513 22.4153 16.2806C22.3673 16.3953 22.2805 17.5579 22.3919 17.3122C22.4409 17.2032 22.3998 16.9598 22.4023 16.941C22.4113 16.8729 22.4706 16.7821 22.4748 16.6661C22.4773 16.5966 22.4235 16.4521 22.4323 16.3105C22.4517 16.0004 22.6535 15.4449 22.5178 15.0266C22.5382 14.9979 22.5586 14.9694 22.5789 14.9416C22.5847 14.6389 22.5198 14.7362 22.6062 14.4583C22.323 14.2486 22.5563 15.5896 22.3332 15.3014C22.3332 15.3016 22.3332 15.3018 22.3332 15.302C22.3331 15.3599 22.3331 15.4173 22.3331 15.4741ZM17.2886 21.6551C17.2643 21.6048 16.9047 21.7155 16.9811 21.5821C16.8656 21.6352 16.7503 21.6875 16.6355 21.7393C16.6372 21.751 16.6388 21.7627 16.6405 21.7744C16.7569 21.7575 16.8742 21.7401 16.9923 21.7218C16.9942 21.7404 16.9961 21.759 16.9979 21.7776C17.0822 21.7381 17.3031 21.7104 17.5073 21.6962C17.6964 21.6839 17.8698 21.694 17.8619 21.7286C17.8953 21.6977 17.9292 21.6668 17.9632 21.636C18.2932 21.686 18.569 21.5875 18.9437 21.6382C18.9711 21.6132 18.9982 21.5882 19.0253 21.5632C19.0455 21.5807 19.0657 21.5981 19.0858 21.6156C19.2223 21.609 19.3608 21.602 19.5033 21.5932C19.962 21.4812 19.0546 21.4543 18.9617 21.4685C18.9482 21.4709 18.9527 21.5192 18.8679 21.5322C18.7124 21.5545 17.8821 21.562 17.6388 21.62C17.6337 21.5882 17.6285 21.5564 17.6233 21.5246C17.5808 21.542 17.5381 21.5595 17.4954 21.5772C17.4261 21.6035 17.3575 21.6295 17.2886 21.6551ZM22.6088 12.5681C22.6425 12.5505 22.6761 12.5329 22.7098 12.5152C22.694 12.1822 22.7328 11.9734 22.6206 12.0533C22.6206 12.0534 22.6205 12.0536 22.6205 12.0538C22.6167 12.2268 22.6129 12.395 22.6088 12.5681ZM8.20352 3.82782C8.24602 3.87782 8.39265 3.81262 8.5402 3.66281C8.52174 3.65221 8.50328 3.64161 8.4848 3.63103C8.42478 3.73522 8.25991 3.72618 7.98959 3.91489C8.00726 3.94242 8.02493 3.96995 8.0426 3.99748C8.09606 3.94103 8.14942 3.88465 8.20352 3.82782ZM22.58 12.8536C22.5362 12.9537 22.6383 13.2412 22.6538 13.056C22.6656 12.9144 22.6035 12.8 22.58 12.8536ZM5.67952 16.839C5.67601 16.9173 5.67281 16.9959 5.66999 17.0748C5.69987 17.1143 5.72984 17.1537 5.75992 17.1931C5.75991 17.1929 5.7599 17.1927 5.75989 17.1925C5.73226 17.0745 5.70553 16.9566 5.67952 16.839ZM20.8171 21.3738C20.9315 21.3359 21.059 21.2892 21.2187 21.2014C21.7395 20.9269 22.0371 20.3681 22.1236 20.0282C22.1076 20.0182 22.0916 20.0083 22.0756 19.9985C21.9974 20.5121 21.6646 20.7697 21.5514 20.8686C21.5519 20.8681 21.5525 20.8675 21.5531 20.867C21.4383 20.9714 21.3087 21.0603 21.1781 21.1274C20.865 21.2809 20.6667 21.3072 20.4836 21.3339C20.5828 21.3546 20.69 21.3709 20.8171 21.3738ZM19.6861 21.4521C19.7482 21.5727 19.7925 21.5952 20.2546 21.4382C20.2324 21.4257 20.2112 21.4129 20.1904 21.4C19.9474 21.4444 19.8262 21.483 19.8574 21.4132C19.7988 21.4268 19.743 21.4396 19.6861 21.4521ZM22.3214 17.4237C22.2776 17.4696 22.2934 17.8427 22.3151 17.826C22.3242 17.8155 22.4074 17.3389 22.3214 17.4237ZM5.78316 5.58454C5.85911 5.53073 5.93497 5.47804 6.01228 5.42526C5.92682 5.5153 5.84278 5.60617 5.76081 5.697C5.76814 5.65951 5.77559 5.62202 5.78316 5.58454ZM5.17379 6.39459C5.11651 6.42789 5.18521 6.19843 4.89056 6.4462C5.08694 6.24839 5.28812 6.05248 5.49568 5.85956C5.41044 5.96267 5.32658 6.06645 5.24386 6.17088C5.2834 6.17898 5.32286 6.1872 5.36225 6.19555C5.29838 6.26207 5.23644 6.3276 5.17379 6.39459ZM4.90204 6.54315C5.06768 6.49939 4.52234 7.06031 4.46767 7.10605C4.4547 7.11591 4.35347 7.12584 4.32384 7.13636C4.40473 7.05101 4.48562 6.96652 4.56821 6.8813C4.52575 6.89502 4.48284 6.90932 4.44065 6.92299C4.5315 6.81831 4.6231 6.71419 4.71592 6.61038C4.6891 6.66726 4.6623 6.7244 4.63578 6.78152C4.72416 6.70133 4.81241 6.62233 4.90204 6.54315ZM7.39757 4.46983C7.35113 4.49813 7.30447 4.52657 7.2576 4.55514C7.21865 4.57901 7.1798 4.60319 7.14106 4.62769C7.17697 4.64316 7.21274 4.65881 7.24834 4.67464C7.26855 4.66147 7.28879 4.64838 7.30906 4.63538C7.33899 4.61618 7.36883 4.59704 7.39858 4.57796C7.39827 4.5419 7.39794 4.50585 7.39757 4.46983ZM5.74608 5.77557C5.75299 5.55797 6.28458 5.55502 5.84525 5.76707C5.80117 5.78858 5.7457 5.79627 5.74608 5.77557ZM4.25386 7.30435C4.13044 7.60451 3.99112 7.38164 4.24254 7.22233C4.25538 7.21447 4.2634 7.2818 4.25386 7.30435ZM2.74841 8.98725C2.73174 9.00516 2.64231 8.98267 2.55015 9.20822C2.51825 9.23074 2.48633 9.25333 2.45436 9.27597C2.48259 9.18418 2.9674 8.59309 2.95959 8.72625C2.88323 8.81544 2.82989 8.89746 2.74841 8.98725ZM3.464 8.63139C3.53823 8.54396 3.61274 8.4566 3.68745 8.36951C3.64311 8.38056 3.59871 8.39173 3.55426 8.40301C3.58669 8.35602 3.61904 8.30924 3.65144 8.26253C3.74946 8.21947 3.8464 8.17797 3.94461 8.13548C3.78223 8.32565 3.62154 8.51665 3.46202 8.70814C3.46268 8.68254 3.46334 8.65696 3.464 8.63139ZM5.63012 6.44392C5.44361 6.57552 5.26898 6.79209 5.01027 7.04716C5.01009 7.04723 5.00991 7.0473 5.00972 7.04737C4.9968 7.05998 4.94866 7.05853 4.90716 7.09903C4.86779 7.13234 4.22693 7.86977 4.23693 7.77436C4.45383 7.46058 4.61157 7.41478 4.57787 7.25683C4.61101 7.26277 4.64412 7.26876 4.67719 7.27481C4.96506 7.04533 4.96923 6.9044 5.09095 6.73229C5.1053 6.74786 5.11965 6.76344 5.134 6.77901C5.23305 6.68345 5.3333 6.58833 5.43491 6.4938C5.4112 6.49725 5.38747 6.50077 5.36371 6.50435C5.39912 6.4702 5.43436 6.43645 5.46997 6.40258C5.60044 6.36499 5.7201 6.27344 5.63012 6.44392ZM3.09503 8.99863C3.12232 9.0956 2.92496 9.33654 2.69275 9.59777C2.47599 9.84059 2.23328 10.1158 2.10414 10.3176C2.18365 10.0489 2.48339 9.78268 2.66706 9.57557C2.66939 9.57293 2.6717 9.57029 2.67399 9.56767C3.01515 9.1763 2.73557 9.40893 2.77365 9.32533C2.79263 9.28376 3.06374 9.12856 3.09503 8.99863ZM6.22787 5.86821C6.01457 6.03428 5.92799 6.16223 5.71794 6.2757C5.72424 6.25391 5.73058 6.23212 5.73694 6.21035C5.80019 6.16213 6.31349 5.75888 6.22787 5.86821ZM1.64539 10.9328C1.99295 10.4721 1.72565 10.6345 1.97675 10.4575C1.87506 10.6128 1.77485 10.7765 1.68189 10.9535C1.66972 10.9466 1.65756 10.9397 1.64539 10.9328ZM21.9472 13.3918C21.9323 13.6032 21.8904 13.835 21.944 13.9636C21.9611 13.8221 21.9782 13.6791 21.9952 13.5375C21.9792 13.4892 21.9632 13.4401 21.9472 13.3918ZM23.0451 11.646C23.0767 11.6864 23.2631 11.7478 23.2833 11.755C23.3167 11.7716 23.2983 11.7858 23.2964 11.7911C23.5321 11.8741 23.3568 11.7562 23.4895 11.7579C23.491 11.7613 23.5253 11.744 23.499 11.6335C23.4694 11.4948 23.4146 11.3193 23.3695 11.2309C23.2579 10.9929 23.0859 10.7922 23.0113 10.7299C22.8908 10.6134 22.6033 10.4976 22.3468 10.4627C22.3398 10.4615 22.333 10.4603 22.3265 10.459C22.2368 10.442 22.2 10.4017 22.0996 10.4137C21.6856 10.4499 21.5572 11.1263 21.55 11.6551C21.5357 12.155 21.517 12.6357 21.4893 12.9412C21.4749 13.0985 21.4153 13.251 21.4151 13.334C21.4304 13.4004 21.4455 13.4698 21.4608 13.537C21.2809 13.7306 21.4273 13.8103 21.4311 14.0295C21.4333 14.1716 21.3797 14.2333 21.3788 14.2521C21.3729 14.3752 21.3931 14.4409 21.3916 14.5381C21.39 14.6459 21.3582 14.8062 21.3601 14.8444C21.3614 14.8683 21.4325 14.796 21.4066 15.2214C21.3799 15.6575 21.3472 16.0846 21.3164 16.5271C21.5264 16.3925 21.3969 16.2558 21.4005 16.0759C21.4015 16.0269 21.4315 16.0598 21.4327 16.017C21.4361 15.8993 21.4185 15.6681 21.4318 15.5705C21.4464 15.4637 21.5182 15.5043 21.4988 15.3687C21.4978 15.3618 21.466 15.3816 21.4627 15.3496C21.4309 15.0266 21.49 14.9266 21.5143 14.5228C21.5314 14.2552 21.5873 12.6305 21.6094 12.5757C21.7318 12.2891 21.6429 14.0021 21.6224 14.2014C21.6156 14.271 21.5859 14.196 21.5759 14.2592C21.5719 14.285 21.6227 14.5323 21.6143 14.7739C21.6043 15.0649 21.5263 15.6463 21.511 15.9235C21.4571 16.8833 21.3984 17.8321 21.3114 18.7917C21.2381 19.2205 21.3991 19.9056 20.7443 20.3358C19.7079 20.7086 18.84 20.5794 17.9136 20.686C17.8634 20.6901 17.8004 20.7336 17.6374 20.7481C17.563 20.7548 17.4893 20.7617 17.4148 20.7691C16.184 20.8852 14.9726 20.8951 13.7586 21.0673C12.1232 21.3183 10.1251 22.6881 8.27887 21.4381C7.81232 21.0978 7.46686 20.6456 7.21878 20.151C7.13803 19.9892 7.0768 19.8235 7.02894 19.6561C6.97388 19.5787 6.92093 19.4988 6.87023 19.4189C6.94468 19.6357 7.04638 20.0704 7.07016 20.1099C7.07376 20.1179 7.09859 20.1465 7.13252 20.1946C7.1564 20.2282 7.18452 20.2716 7.21254 20.3247C7.30608 20.5006 7.33501 20.5929 7.34348 20.6073C7.37169 20.6518 7.37779 20.6071 7.40471 20.6489C7.6093 20.9601 7.80786 21.1809 8.0788 21.4104C8.38873 21.6621 8.56102 21.8085 8.85859 21.8637C8.88149 21.8974 8.90497 21.9308 8.93001 21.964C9.17548 22.012 10.4394 22.081 10.9077 21.9385C11.0586 21.9095 11.0407 21.9543 11.0912 21.9433C11.1225 21.9346 11.1018 21.8914 11.4859 21.7997C11.6784 21.7518 11.7386 21.7737 11.833 21.7441C11.884 21.7277 11.8642 21.6933 11.9375 21.6705C12.3599 21.5391 12.7005 21.4323 13.097 21.3234C13.209 21.293 13.2185 21.3246 13.2429 21.3174C13.3312 21.2925 13.4779 21.1937 13.701 21.1569C13.7229 21.1534 13.7458 21.15 13.7693 21.1469C14.1927 21.0873 14.9238 21.0153 15.2389 21.0189C15.288 21.0191 15.3313 21.0548 15.3673 21.0517C15.4214 21.0468 15.4401 21.0048 15.4497 21.0039C15.6319 20.9908 15.525 21.0358 15.6465 21.0186C15.7124 21.0094 15.778 20.9589 15.932 20.9444C16.1355 20.9254 16.0988 20.9826 16.1839 20.9721C16.1929 20.9707 16.1933 20.9324 16.2773 20.9262C16.5959 20.9033 17.0632 20.8623 17.3685 20.8317C17.3865 20.8299 17.4037 20.8293 17.4208 20.8293C17.4849 20.8296 17.5451 20.8402 17.6398 20.832C17.8756 20.8047 19.2499 20.705 19.3718 20.7081C19.3841 20.7087 19.2631 20.7745 19.4625 20.7575C19.5184 20.7295 19.5754 20.7012 19.6308 20.6727C19.7321 20.7012 19.8345 20.7285 19.9394 20.7534C19.9194 20.6333 20.5055 20.51 20.5523 20.6181C20.6276 20.6007 20.7092 20.5777 20.7971 20.5405C20.8095 20.5255 20.8213 20.5113 20.833 20.4978C20.9542 20.3529 21.1209 20.2587 21.2143 19.9459C21.2616 19.9089 21.3065 19.869 21.3491 19.8276C21.3352 19.8094 21.321 19.7916 21.3066 19.7743C21.4568 19.6305 21.3822 19.3629 21.3833 19.3391C21.3916 19.2289 21.4216 19.1525 21.4239 19.1041C21.4278 19.0261 21.426 18.9114 21.4299 18.8034C21.4376 18.6329 21.4425 18.4635 21.4609 18.3454C21.4625 18.3354 21.505 18.3494 21.5149 18.2885C21.5321 18.1858 21.4697 18.1695 21.5543 18.0321C21.5377 18.0015 21.5209 17.9736 21.5042 17.9434C21.516 17.9141 21.5279 17.8825 21.5396 17.8535C21.5471 17.6738 21.5541 17.4973 21.561 17.3163C21.6235 17.4838 21.6768 17.301 21.6307 17.1188C21.615 17.0585 21.567 17.108 21.5615 17.0878C21.5547 17.0573 21.6277 16.261 21.6595 16.208C21.6478 16.1696 21.636 16.1309 21.6243 16.0919C21.6536 16.0743 21.6829 16.0566 21.7122 16.0388C21.7037 16.0166 21.6951 15.9957 21.6865 15.9744C21.7488 15.7675 21.667 15.2205 21.6816 15.1231C21.6893 15.0712 21.8065 15.1248 21.8087 14.8726C21.7763 14.862 21.7439 14.8515 21.7115 14.8409C21.71 14.7834 21.7086 14.7254 21.7072 14.6668C21.7162 14.5595 21.782 14.4056 21.8213 14.4023C21.7998 14.3669 21.7783 14.3316 21.7567 14.297C21.838 14.2124 21.8376 13.7234 21.7996 13.5289C21.8256 13.4734 21.8517 13.416 21.8777 13.3614C21.8537 13.2841 21.8298 13.2062 21.8059 13.1278C21.8068 12.9493 21.8434 13.1398 21.8493 13.1021C21.8615 13.0235 21.8041 12.6112 21.9004 12.6439C21.9035 12.5887 21.9066 12.5332 21.9097 12.4775C21.8832 12.4474 21.8567 12.4172 21.8302 12.387C21.9313 12.2982 21.9058 12.1291 21.9575 11.7944C21.9367 11.7649 21.9159 11.7353 21.8951 11.7056C21.899 11.6946 21.9029 11.6835 21.9068 11.6725C21.9393 11.5861 21.9738 11.5065 22.0109 11.4287C21.9765 11.406 21.9422 11.3837 21.9082 11.3602C21.9084 11.3182 21.9088 11.2805 21.9106 11.2398C22.0042 11.1772 21.9505 11.0285 22.0049 10.9829C22.0827 10.9268 22.1076 10.9934 22.0781 11.1578C22.108 11.1597 22.1497 11.0243 22.1889 10.9578C22.2391 10.8869 22.181 10.9416 22.1746 10.9308C22.173 10.9192 22.1709 10.9076 22.1682 10.8962C22.1923 10.9 22.1973 10.8865 22.1669 10.9619C22.0846 10.9601 22.0766 10.9054 22.0967 10.8571C22.1208 10.8068 22.1318 10.8112 22.1426 10.7975C22.1472 10.7981 22.1367 10.7284 22.279 10.7495C22.2852 10.7505 22.2915 10.7517 22.2978 10.7531C22.3643 10.761 22.5338 10.912 22.5558 10.9373C22.7753 11.1386 22.6925 10.9052 22.8222 11.2087C22.8446 11.1079 22.9121 11.2877 23.0081 11.4851C23.0196 11.5058 23.0953 11.627 23.1458 11.7356C23.1649 11.775 23.1572 11.6889 23.1844 11.6304C23.2047 11.5612 23.2989 11.4714 23.3454 11.4541C23.3945 11.4301 23.4199 11.4262 23.4354 11.421C23.4654 11.4126 23.4601 11.4067 23.4669 11.3991C23.464 11.3794 23.5698 11.3893 23.5097 11.3803C23.4885 11.3914 23.4642 11.4002 23.4345 11.4055C23.3987 11.3863 23.3562 11.361 23.3141 11.334C23.1513 11.0273 23.0206 11.0722 22.917 11.0145C22.8757 10.9905 22.9508 10.9942 22.8474 10.925C22.8098 10.8997 22.7453 10.895 22.6463 10.8182C22.3336 10.5736 22.331 10.3677 21.9468 10.2507C21.919 10.1963 21.8913 10.1417 21.8635 10.087C21.8163 10.0832 21.7695 10.0797 21.7219 10.0755C21.5532 9.82243 21.5792 9.95456 21.4995 9.88426C21.3726 9.77233 21.1658 9.58416 21.0223 9.43669C20.9308 9.34222 20.8685 9.26355 20.8711 9.2309C20.5906 9.19097 20.4966 8.87082 20.4252 8.81213C20.3725 8.78867 20.3187 8.76368 20.2661 8.73961C20.2314 8.68091 20.1983 8.62326 20.1643 8.56424C20.0814 8.69472 19.9453 8.35248 19.9259 8.32823C19.9001 8.30164 19.5124 7.96012 19.3886 7.81433C19.2611 7.6709 19.0819 7.38901 19.0645 7.36609C19.043 7.34027 18.8094 7.11256 18.6616 6.90572C18.6238 6.85338 18.5365 6.72329 18.4359 6.56451C18.1946 6.18819 17.8864 5.59989 17.8727 5.67591C17.9012 5.76256 17.9501 5.87971 17.997 5.97721C18.0454 6.07617 18.1778 6.32622 18.3612 6.61493C18.7351 7.22283 19.371 7.9848 19.6023 8.22945C20.0121 8.68155 20.4722 9.11335 20.9489 9.52324C21.2602 9.79173 21.5649 10.0635 21.8651 10.3283C21.9102 10.3681 21.8919 10.4039 21.9306 10.438C21.9895 10.49 22.1661 10.5885 22.2248 10.6387C22.4423 10.8265 22.7101 11.0503 22.8299 11.1427C23.0928 11.3456 23.2908 11.5182 23.4602 11.5883C23.4627 11.5964 23.5233 11.5814 23.4305 11.5949C23.3637 11.6076 23.3175 11.7179 23.3242 11.7188C23.322 11.7294 23.3193 11.7125 23.3094 11.6884C23.2611 11.5526 23.1997 11.4062 23.1514 11.2879C23.1409 11.2425 23.1285 11.197 23.1144 11.1526C23.1859 11.239 23.3228 11.4866 23.3797 11.668C23.3883 11.6931 23.3915 11.7059 23.3929 11.7167C23.3971 11.7321 23.3807 11.7109 23.428 11.6673C23.4741 11.6378 23.479 11.6519 23.4689 11.6465C23.4504 11.6415 23.4127 11.623 23.3853 11.6058C23.3264 11.5695 23.282 11.5331 23.245 11.5106C23.1797 11.4763 22.8246 11.2651 22.6757 11.1456C22.63 11.1099 22.6459 11.0703 22.6061 11.0388C22.3929 10.8701 22.1155 10.6383 21.9082 10.514C21.9906 10.5678 21.5454 10.1522 21.5219 10.1314C21.4797 10.0948 21.4114 10.0863 21.3257 10.0121C21.1632 9.87136 21.2361 9.82802 20.9798 9.71336C20.9545 9.66915 20.9263 9.62246 20.9015 9.57898C20.8921 9.5628 20.8827 9.54665 20.8733 9.53053C20.798 9.61109 20.2706 8.9525 20.0146 8.87937C19.9972 8.88853 20.652 9.53605 20.8175 9.67795C20.831 9.69018 20.8409 9.69914 20.8461 9.70386C21.2501 10.0657 21.8676 10.5744 22.2601 10.9214C22.3763 11.0274 22.7251 11.386 22.7583 11.4065C22.8073 11.441 22.7863 11.3789 22.8077 11.3932C23.2529 11.681 23.0004 11.5867 23.0451 11.646ZM5.25916 6.9014C5.37993 6.78747 5.50263 6.67403 5.62624 6.56257C5.63354 6.58797 5.641 6.61323 5.64849 6.63848C5.58748 6.6841 5.52573 6.73101 5.46521 6.77728C5.43326 6.82797 5.40116 6.87913 5.36957 6.93011C5.33282 6.92045 5.29602 6.91088 5.25916 6.9014ZM5.04188 7.26056C4.95066 7.37126 4.91017 7.34245 4.88565 7.36435C4.81225 7.43008 4.76748 7.50602 4.70164 7.57461C4.6913 7.41437 4.894 7.28062 5.04188 7.26056ZM7.31566 5.3239C7.28656 5.33724 7.02795 5.36373 6.90034 5.6107C6.72941 5.69503 6.55924 5.78445 6.39215 5.87616C6.67067 5.71385 6.9865 5.39866 7.11818 5.30884C7.1677 5.27435 7.19951 5.2994 7.23892 5.27242C7.36097 5.18861 7.46971 5.08689 7.55935 5.02563C7.63291 4.97509 7.69157 4.95296 7.73421 4.9964C7.68259 5.0195 7.6352 5.0474 7.59228 5.07697C7.43789 5.18293 7.34567 5.30958 7.31566 5.3239ZM6.01102 6.31651C5.96087 6.3257 5.91087 6.33499 5.86093 6.34442C5.97596 6.23867 6.09317 6.13367 6.21152 6.03087C6.19727 6.07926 6.18349 6.12746 6.16973 6.17586C6.11618 6.22271 6.06371 6.26922 6.01102 6.31651ZM16.2989 3.22266C16.2512 3.14113 16.2034 3.05972 16.1544 2.97766C16.1405 2.99238 16.1963 3.08544 16.2053 3.1267C16.2052 3.12654 16.2051 3.12639 16.205 3.12624C16.2148 3.17201 16.1834 3.16837 16.2148 3.24347C16.2429 3.23658 16.2709 3.22961 16.2989 3.22266ZM6.92155 19.2819C6.84948 19.1222 6.66427 17.6526 6.61926 17.784C6.58733 17.8501 6.67241 18.3529 6.69644 18.5021C6.71894 18.7009 6.7552 19.2677 6.92155 19.2819ZM6.63586 16.6826C6.5604 16.659 6.5978 17.5767 6.62292 17.6662C6.63147 17.6463 6.65161 17.6152 6.65475 17.5894C6.66738 17.4637 6.62209 16.8798 6.63586 16.6826ZM18.9686 7.68432C18.9503 7.60603 18.9328 7.52777 18.9163 7.44974C18.8916 7.49379 18.8669 7.53771 18.8425 7.58188C18.8844 7.61636 18.9263 7.65043 18.9686 7.68432ZM23.0686 11.1208C22.8911 10.8434 22.6229 10.6607 22.3017 10.6106C21.8588 10.4632 21.7326 11.1195 21.7058 11.6627C21.6932 11.9115 21.6804 12.1585 21.6674 12.405C21.6534 12.297 21.6393 12.1904 21.6253 12.0818C21.6332 11.9417 21.6412 11.803 21.6494 11.6599C21.679 11.1238 21.812 10.41 22.3099 10.5604C22.6057 10.6049 22.8617 10.7537 23.0469 10.9737C23.057 11.023 23.0641 11.072 23.0686 11.1208ZM7.72736 5.30158C7.72948 5.30022 7.7316 5.29886 7.73372 5.29751C7.99363 5.13099 8.19321 4.9631 8.5053 4.82722C8.26253 5.04601 8.08285 5.06401 7.8616 5.29871C7.86145 5.2988 7.86131 5.2989 7.86116 5.29899C7.81959 5.29972 7.77794 5.30051 7.73619 5.30135C7.73324 5.30143 7.7303 5.3015 7.72736 5.30158ZM13.8503 1.94035C13.7648 1.99633 13.6807 2.05357 13.5983 2.11127C13.7086 2.07958 13.8195 2.04911 13.9314 2.0209C13.9045 1.99396 13.8773 1.96714 13.8503 1.94035ZM21.0603 19.3401C21.0833 19.5286 20.9971 19.9968 20.6489 20.1618C20.4434 20.2597 20.2515 20.2855 20.153 20.3397C20.1361 20.3478 20.3047 20.3575 20.0549 20.469C20.2502 20.4263 20.3892 20.3747 20.3892 20.3174C20.4515 20.3203 20.5167 20.32 20.5836 20.3139C20.6215 20.293 20.6587 20.2702 20.6942 20.2444C20.7523 20.2028 20.804 20.1529 20.8461 20.0979C20.8721 20.145 20.8954 20.1396 20.962 19.9739C21.0154 19.9149 21.0602 19.849 21.0983 19.7811C21.0869 19.7428 21.0736 19.7062 21.0589 19.6711C21.1064 19.6199 21.1508 19.5647 21.193 19.508C21.1911 19.2645 21.1078 19.4032 21.0603 19.3401ZM21.1617 18.2044C21.1548 18.2237 21.1399 18.5051 21.1295 18.7736C21.1228 19.1307 21.1399 19.4869 21.2311 19.0847C21.2355 18.9817 21.2388 18.8808 21.2463 18.7852C21.2524 18.7067 21.257 18.6326 21.2618 18.5555C21.0693 18.6891 21.2692 18.2126 21.2752 18.1755C21.3069 17.9851 21.2806 17.7393 21.2921 17.6016C21.3024 17.4795 21.3392 17.4162 21.3442 17.3291C21.3602 17.045 21.3875 16.594 21.3164 16.5271C21.3011 16.7467 21.2857 16.975 21.2726 17.2048C21.2584 17.4488 21.174 17.6573 21.2382 18.1221C21.2195 18.236 21.1658 18.1908 21.1617 18.2044ZM13.3212 2.18576C13.3161 2.14873 13.1815 2.17465 13.047 2.21551C12.8972 2.26094 12.7584 2.33607 12.7626 2.35049C12.7677 2.36622 12.9488 2.29252 12.9765 2.29132C12.9767 2.29125 12.9768 2.29119 12.977 2.29112C12.989 2.29006 12.9427 2.33669 13.0327 2.3139C13.0461 2.30763 13.0593 2.30156 13.0724 2.2957C13.1554 2.25859 13.2379 2.222 13.3212 2.18576ZM8.23846 21.2069C8.20153 21.1669 7.63617 20.5754 7.39966 20.0595C7.26673 19.802 7.20018 19.59 7.18656 19.5747C7.17669 19.5624 7.16531 19.5877 7.15332 19.5854C7.22313 19.7299 7.29084 19.9003 7.37367 20.0727C7.51126 20.362 7.67097 20.6595 7.83387 20.8586C7.90859 20.9494 7.90873 20.9019 7.9134 20.9068C7.91358 20.9071 7.91376 20.9073 7.91394 20.9075C7.95168 20.9564 8.11334 21.2218 8.23846 21.2069ZM19.5844 20.4442C19.6615 20.4492 19.7391 20.4536 19.8164 20.4569C19.8335 20.4315 19.8503 20.406 19.8666 20.3806C19.8664 20.3806 19.8663 20.3806 19.8661 20.3806C19.7716 20.4034 19.679 20.4242 19.5844 20.4442ZM16.9633 20.5687C16.9829 20.5837 17.0026 20.5986 17.0223 20.6135C17.1469 20.6048 17.2715 20.5951 17.3963 20.5842C17.4623 20.5784 17.5271 20.573 17.5932 20.5678C17.575 20.5787 17.5567 20.5897 17.5385 20.6008C17.8264 20.5992 17.9401 20.5333 18.0934 20.53C18.0932 20.53 18.093 20.5301 18.0928 20.5301C18.1094 20.5298 18.132 20.5625 18.1929 20.5593C18.3328 20.5516 18.7362 20.5386 18.7829 20.5011C18.8803 20.421 18.0734 20.5078 17.9225 20.5183C17.8545 20.5221 17.7699 20.4991 17.7285 20.5019C17.6827 20.5052 17.6249 20.5507 17.5143 20.5599C17.5037 20.5608 17.4573 20.5598 17.3938 20.5594C17.2647 20.5587 17.0671 20.556 16.9633 20.5687ZM13.6262 20.9055C13.6566 20.9184 13.6977 20.9128 13.7367 20.9044C13.7817 20.895 13.8243 20.8812 13.8476 20.8813C13.8584 20.8813 13.7804 20.9228 13.8809 20.9191C13.9065 20.8944 13.9328 20.8697 13.9584 20.8452C13.8828 20.8579 13.8098 20.8707 13.7339 20.8841C13.6985 20.8905 13.6626 20.8977 13.6262 20.9055ZM12.4221 2.58046C12.4381 2.57959 12.72 2.44145 12.7331 2.43231C12.8774 2.29011 12.2873 2.5757 12.4221 2.58046ZM5.98655 6.98674C6.14863 6.95067 4.89599 8.08016 4.79637 8.21356C4.75595 8.1656 5.07625 7.91403 4.8705 8.00981C5.04104 7.89368 5.40811 7.47698 5.51134 7.39413C5.57287 7.34374 5.62517 7.36704 5.63475 7.35983C5.6711 7.33062 5.92577 6.99533 5.98655 6.98674ZM3.83202 9.22327C3.94667 9.11062 4.06165 8.9983 4.17749 8.88592C4.05641 9.03231 3.93688 9.17823 3.81687 9.32562C3.82193 9.29147 3.82698 9.25735 3.83202 9.22327ZM3.72 9.39355C3.76802 9.42916 3.37612 9.80954 3.29305 9.9271C3.32156 9.7385 3.57073 9.59784 3.72 9.39355ZM10.7224 3.74387C10.9561 3.64574 10.9529 3.43352 10.7343 3.66185C10.7279 3.66889 10.7125 3.74758 10.7224 3.74387ZM20.7964 19.3843C20.7932 19.4033 20.7613 19.5346 20.7147 19.6374C20.6691 19.7437 20.61 19.8046 20.6152 19.8209C20.6465 19.9391 20.7671 19.7096 20.8151 19.6056C20.9053 19.449 20.9176 19.7192 20.9398 19.2706C20.9568 19.2907 20.9736 19.3111 20.9902 19.3316C21.0206 19.0647 20.8814 19.1434 20.8687 19.0947C20.8647 19.0803 20.8855 18.9123 20.8798 18.8799C20.8023 18.4824 20.8097 19.3671 20.7964 19.3843ZM15.8035 3.32072C16.0102 3.77797 15.9685 3.55292 16.227 3.99711C16.2695 3.99121 15.8681 3.35747 15.8035 3.32072ZM21.1943 14.5509C21.1815 15.066 21.1028 15.4905 21.146 15.9732C21.26 15.948 21.2312 14.4197 21.1943 14.5509ZM7.11379 15.5293C7.01865 16.9347 6.94936 18.5834 7.56677 19.975C7.85372 20.5383 8.25606 21.0352 8.78501 21.3106C8.98048 21.4093 8.9898 21.452 9.06678 21.4765C9.11827 21.491 9.12072 21.4547 9.18742 21.475C10.7208 21.8801 12.1501 20.9359 13.7037 20.6597C14.7193 20.5102 15.7424 20.4584 16.7476 20.4022C16.8364 20.3968 17.1172 20.4002 17.3755 20.3754C17.583 20.3556 17.7757 20.3262 17.8459 20.2695C17.951 20.1839 17.5335 20.2612 17.367 20.29C17.3442 20.2938 17.3263 20.2965 17.3151 20.2975C17.2462 20.3035 17.2392 20.2629 17.1932 20.267C17.1444 20.2712 17.1874 20.2955 17.1306 20.301C16.8903 20.3242 16.6258 20.3313 16.4066 20.3472C15.502 20.4078 14.5913 20.4725 13.6955 20.5986C12.4085 20.824 11.3124 21.428 10.1148 21.4811C9.86896 21.4883 9.92111 21.4498 9.90856 21.4509C9.9084 21.451 9.90823 21.451 9.90807 21.4511C8.98809 21.4795 8.10334 20.8719 7.6508 19.9326C7.45969 19.5613 7.35433 19.1282 7.28723 18.7048C7.13754 17.6959 7.13548 16.6574 7.1396 15.6196C7.13099 15.5896 7.12238 15.5593 7.11379 15.5293ZM20.9994 18.3068C20.8842 18.4077 20.9608 18.4554 20.9251 18.7533C20.9186 18.8043 20.9106 18.8617 20.8994 18.9267C20.918 18.9665 20.9369 19.0056 20.9557 19.0448C20.9597 18.9503 20.9632 18.8548 20.971 18.7579C20.9824 18.6087 20.9908 18.458 20.9995 18.306C20.9994 18.3063 20.9994 18.3065 20.9994 18.3068ZM19.5012 20.202C19.4124 20.0465 18.3833 20.2249 17.9072 20.2313C17.828 20.3207 18.5088 20.2338 18.6702 20.2336C18.7507 20.2323 19.1869 20.2937 19.507 20.2186C19.5051 20.2131 19.5031 20.2075 19.5012 20.202ZM7.47637 6.03906C7.53303 5.99104 7.59019 5.94364 7.64792 5.8969C7.48562 5.98879 7.32544 6.08581 7.16712 6.18705C7.40883 6.01165 7.65643 5.84607 7.91058 5.69453C7.88351 5.75368 7.8569 5.81317 7.83159 5.87239C7.7124 5.92526 7.59405 5.9809 7.47637 6.03906ZM8.26862 5.48423C7.82913 5.78181 8.24511 5.40436 8.37879 5.36767C8.45854 5.34595 8.3139 5.4535 8.26862 5.48423ZM9.46276 4.78948C9.28728 4.974 8.86844 5.24775 8.95247 5.04908C9.20724 4.95352 9.32839 4.81939 9.67223 4.6389C9.63735 4.68885 9.60116 4.73966 9.56659 4.78947C9.56637 4.78961 9.56616 4.78974 9.56594 4.78988C9.53164 4.78968 9.49725 4.78955 9.46276 4.78948ZM8.10443 5.67721C7.77367 5.80627 8.63403 5.28258 8.39271 5.49219C8.38141 5.50196 8.11743 5.67206 8.10443 5.67721ZM7.33225 17.7206C7.28866 17.6833 7.31347 17.9436 7.32108 18.03C7.34969 18.4052 7.44076 18.8768 7.53485 19.2402C7.54014 19.2095 7.54549 19.1781 7.55143 19.148C7.43812 18.6922 7.37527 18.2079 7.33225 17.7206ZM8.00321 20.2829C8.14283 20.4935 8.29864 20.6808 8.48089 20.8413C8.49655 20.8558 8.60007 20.8969 8.54529 20.8407C8.34405 20.6899 8.16363 20.4997 8.00321 20.2829ZM20.8781 16.5575C20.8427 16.7666 20.7665 16.1531 20.8869 16.1873C20.884 16.3123 20.8813 16.4318 20.8781 16.5575ZM20.9459 14.5934C20.95 14.7288 20.9543 14.8571 20.9581 14.9927C20.9441 14.9921 20.93 14.9914 20.916 14.9908C20.9262 14.8559 20.9359 14.7282 20.9459 14.5934ZM7.29551 16.6571C7.25231 16.7976 7.27528 17.1272 7.28848 17.3317C7.31981 17.1884 7.28176 16.8529 7.29551 16.6571ZM20.5737 19.6011C20.5996 19.6136 20.513 19.7957 20.4465 19.7924C20.4036 19.8048 20.3821 19.7983 20.4194 19.759C20.422 19.7581 20.4245 19.7572 20.4267 19.7564C20.4776 19.7401 20.5248 19.7068 20.5737 19.6011ZM19.4276 19.9155C19.6016 19.8944 19.7349 19.891 19.7051 19.9461C19.6134 19.9534 19.5211 19.9594 19.4277 19.9648C19.4277 19.9484 19.4276 19.932 19.4276 19.9155ZM10.3089 4.36764C10.5623 4.20212 10.8162 4.03768 11.0705 3.87572C11.0684 3.89354 11.0663 3.91137 11.0642 3.92921C10.8191 4.08557 10.5746 4.24411 10.3304 4.4037C10.3233 4.39168 10.3161 4.37966 10.3089 4.36764ZM7.41582 16.4834C7.3998 16.2784 7.38562 16.0724 7.37245 15.8657C7.36699 16.073 7.36255 16.2796 7.35996 16.4858C7.37867 16.4852 7.39738 16.4845 7.41608 16.4839C7.416 16.4838 7.41591 16.4836 7.41582 16.4834ZM7.03228 6.80637C7.75515 6.29176 6.93066 7.05841 6.69665 7.15449C6.69652 7.15472 6.69639 7.15495 6.69625 7.15518C6.67519 7.16286 6.6798 7.10282 6.64309 7.1138C6.72359 7.06552 6.80316 7.0191 6.88398 6.97267C6.93054 6.90067 6.97825 6.8286 7.02612 6.75739C7.05266 6.74677 7.07948 6.73602 7.10623 6.72543C7.08131 6.75244 7.05676 6.77934 7.03228 6.80637ZM4.49268 9.44238C3.93498 10.0645 4.42128 9.35265 4.75815 9.10062C4.77008 9.11519 4.54363 9.38549 4.49268 9.44238ZM5.95333 7.83635C6.03792 7.73773 6.12306 7.64001 6.20898 7.54316C6.229 7.54011 6.24895 7.53717 6.26897 7.53419C6.20658 7.61105 6.14365 7.68945 6.0821 7.76737C6.03925 7.79009 5.99592 7.8135 5.95333 7.83635ZM9.38465 5.40592C9.57173 5.30148 9.72953 5.04442 9.17194 5.44285C9.17983 5.45451 9.18773 5.46617 9.19563 5.47783C9.21757 5.46108 9.27783 5.40675 9.28203 5.40531C9.29441 5.40155 9.30756 5.44896 9.38465 5.40592ZM3.76608 10.8431C3.75588 10.8643 3.86106 10.9672 3.59888 11.0479C3.56308 11.1077 3.52825 11.1674 3.49517 11.2261C3.45846 11.2203 3.42183 11.2144 3.38528 11.2085C3.5651 11.0145 3.53474 10.9517 3.54544 10.9351C3.59743 10.8611 3.58164 10.9346 3.61875 10.8898C3.68873 10.8049 3.81937 10.6328 3.8741 10.6189C3.88697 10.6154 3.89522 10.6209 3.89697 10.6386C3.89811 10.6483 3.89737 10.6616 3.89458 10.6789C3.88398 10.7443 3.77622 10.8224 3.76608 10.8431ZM4.19003 10.4793C4.15764 10.4977 4.19899 10.3838 4.17234 10.3958C4.14895 10.4062 3.88687 10.6413 3.89323 10.5218C3.93322 10.4803 3.97288 10.4392 4.01285 10.3978C4.04082 10.3963 4.06876 10.3947 4.09669 10.3932C4.11912 10.339 4.14133 10.2852 4.1637 10.2312C4.26278 10.1928 4.44132 10.0858 4.31703 10.29C4.37089 10.2217 4.4243 10.154 4.47832 10.0859C4.48998 10.0364 4.50156 9.98717 4.51314 9.93794C4.52491 9.97942 4.53674 10.0209 4.54854 10.0624C4.42879 10.2009 4.30929 10.34 4.19003 10.4793ZM2.61859 11.1104C2.63154 11.1397 2.64597 11.1712 2.66197 11.2068C2.45682 11.0594 2.45138 11.0929 2.45888 11.0811C2.47118 11.079 2.51423 11.0809 2.54942 11.0846C2.62246 11.0915 2.66565 11.1155 2.57125 11.1759C2.56342 11.1763 2.55601 11.1766 2.54907 11.1768C2.48583 11.18 2.42587 11.1728 2.44133 11.1779C2.45239 11.1849 2.48101 11.1801 2.60124 11.263C2.65898 11.3065 2.75449 11.3856 2.83258 11.5453C2.91326 11.7026 2.92613 11.9237 2.89238 12.0544C2.89969 11.9931 2.94309 11.8716 3.01361 11.7376C3.03623 11.7259 3.05974 11.7132 3.08282 11.7018C2.91883 11.8839 3.1547 11.9338 3.04417 12.0293C3.03005 12.0391 2.96433 11.9818 2.9854 12.0746C2.99454 12.0373 3.00218 11.9964 3.00663 11.9478C3.01571 11.9956 3.02142 12.0398 3.02456 12.083C3.03118 12.0837 3.0378 12.0843 3.04441 12.085C3.04399 12.0857 3.04357 12.0864 3.04317 12.0871C3.09123 11.9045 3.04494 11.5791 2.91779 11.3978C2.79591 11.2115 2.68353 11.1485 2.61859 11.1104ZM4.40549 10.7096C3.99656 10.831 4.41077 10.6111 4.50496 10.6262C4.50484 10.6263 4.50471 10.6264 4.50458 10.6264C4.77338 10.6787 4.29942 10.8021 4.27377 10.8044C4.23904 10.8173 4.18707 10.9562 3.93108 10.8559C4.10103 10.8141 4.25312 10.7679 4.40549 10.7096ZM2.9179 11.0243C2.95639 11.016 2.93821 11.0466 2.95509 11.0442C2.95524 11.0442 2.95539 11.0441 2.95554 11.0441C3.15978 11.0171 3.6148 10.9149 3.80932 10.9112C3.85222 10.9109 3.88315 10.9162 3.89838 10.9292C3.87906 10.9349 3.85216 10.9425 3.81884 10.9514C3.54381 11.0335 2.84399 11.1458 2.80668 11.0857C2.84324 11.0658 2.88067 11.0452 2.9179 11.0243ZM3.21249 11.5777C3.34256 11.487 3.16697 11.7681 3.11454 11.8158C3.102 11.8267 3.07542 11.6748 3.21249 11.5777ZM13.4044 3.46345C13.419 3.45565 13.429 3.44971 13.4363 3.4447C13.5645 3.38449 13.4848 3.38936 13.418 3.38674C13.391 3.3775 13.3617 3.36759 13.3928 3.33388C13.356 3.35075 13.3074 3.37401 13.2585 3.39936C13.3114 3.41801 13.3623 3.43856 13.4044 3.46345ZM20.432 10.4637C20.3738 10.6198 20.4318 10.5539 20.4275 10.5681C20.3955 10.6693 20.3484 10.7507 20.3435 10.7857C20.2836 11.4176 20.3879 11.0071 20.3925 11.0068C20.4277 11.0009 20.4397 11.1619 20.5149 10.9531C20.5284 10.8187 20.5496 10.6769 20.5916 10.5177C20.6358 10.4468 20.6843 10.3745 20.7413 10.2979C20.887 9.93323 20.6338 10.385 20.5804 10.4086C20.553 10.4213 20.6571 10.0901 20.432 10.4637ZM14.0458 3.3861C14.0852 3.31369 14.2023 3.2055 14.0526 3.18459C14.0525 3.18463 14.0523 3.18467 14.0522 3.18471C14.025 3.18077 13.9201 3.20419 13.8836 3.19906C13.6753 3.34256 13.7913 3.39121 14.0458 3.3861ZM23.8936 9.67988C24.1192 9.89621 24.2904 10.1384 24.4165 10.3746C24.3839 10.3889 24.3513 10.4033 24.3189 10.4179C24.2548 10.2944 24.1787 10.1698 24.0883 10.0478C24.0419 10.0179 23.9939 9.98843 23.9457 9.96125C24.0468 10.1257 24.1219 10.2928 24.1758 10.454C24.2942 10.6156 24.3898 10.7806 24.4695 10.9435C24.4562 10.8593 24.439 10.7734 24.4165 10.6851C24.6176 11.0819 24.508 11.0513 24.5588 11.3272C24.5646 11.3524 24.5706 11.3798 24.5764 11.4103C24.5993 11.4771 24.6239 11.5429 24.6376 11.6862C24.6441 11.7982 24.668 12.0479 24.4704 12.3816C24.238 12.7755 23.7696 12.9313 23.5503 12.9406C23.3444 12.9599 23.2072 12.9336 23.124 12.9215C22.6818 12.7459 22.6493 12.6362 22.5078 12.5178C22.282 12.3853 22.2577 12.3948 22.3734 12.5217C22.2445 12.4855 22.1746 12.3511 22.0559 12.283C22.0458 12.2771 22.0388 12.3224 22.0304 12.3166C21.4563 11.905 21.5708 11.8478 21.4874 11.776C21.4304 11.7252 21.1568 11.5879 21.1375 11.6033C21.1125 11.6245 21.4992 12.1247 20.7605 11.4991C21.0767 11.8912 21.5899 12.1938 21.3834 11.8528C21.4925 11.9655 22.089 12.3962 22.1388 12.4309C22.1955 12.4796 22.1416 12.5024 22.2211 12.5606C22.245 12.5778 22.3011 12.5834 22.4015 12.6309C22.4494 12.6528 22.5124 12.6882 22.5981 12.7421C22.6982 12.7962 22.7445 12.8687 23.1026 13.0032C23.2009 13.0161 23.3582 13.0538 23.6393 13.0135C23.8055 12.9869 24.0044 12.9299 24.2171 12.7754C24.4298 12.6277 24.598 12.36 24.6473 12.2076C24.7803 11.8623 24.7541 11.7142 24.7557 11.5769C24.7492 11.4475 24.741 11.3862 24.7284 11.3076C24.7622 11.384 24.792 11.439 24.8208 11.5829C24.8343 11.6554 24.8442 11.7393 24.843 11.8403C24.8414 11.9506 24.8179 12.133 24.7394 12.3185C24.6707 12.5005 24.4698 12.776 24.241 12.922C24.0201 13.0706 23.8078 13.1301 23.6348 13.1565C23.3483 13.1985 23.1727 13.1643 23.0686 13.154C23.1819 13.1738 23.3563 13.2302 23.7156 13.1769C23.9174 13.1408 24.1504 13.068 24.4019 12.865C24.6453 12.6699 24.7961 12.3901 24.8525 12.2151C24.9772 11.794 24.9287 11.6726 24.9188 11.5131C24.9029 11.3965 24.8829 11.3166 24.8614 11.2397C24.7818 10.9377 24.6813 10.5903 24.4787 10.3843C24.3168 10.0902 24.1922 9.94393 24.3319 10.0385C24.2654 9.95099 24.1919 9.86446 24.1116 9.78116C24.0401 9.74416 23.9675 9.71041 23.8936 9.67988ZM14.6221 3.15415C14.5367 3.16581 14.3464 3.07497 14.2466 2.95489C14.2755 2.94911 14.3089 2.92624 14.3059 2.91809C14.3032 2.91058 14.2999 2.9042 14.2963 2.89896C14.5126 3.06777 14.6025 3.06997 14.6316 3.10117C14.6605 3.12499 14.6654 3.14909 14.6221 3.15415ZM20.8534 9.81766C21.0426 9.60181 21.3701 9.37501 21.7132 9.29918C22.0546 9.21785 22.3463 9.26736 22.5105 9.30913C22.5165 9.27226 22.5225 9.23539 22.5284 9.19852C22.3544 9.1738 22.0456 9.14235 21.6978 9.2453C21.3478 9.34263 21.0278 9.59043 20.8534 9.81766ZM13.4018 3.55375C13.3814 3.5315 13.3595 3.50996 13.337 3.48876C13.2343 3.63882 12.9901 3.59674 12.9147 3.66952C12.8979 3.6856 12.9608 3.70877 13.0013 3.70033C13.0331 3.68807 13.3985 3.55894 13.4018 3.55375ZM6.04994 8.62386C6.09298 8.55162 6.13604 8.47985 6.17963 8.40805C6.19906 8.43324 6.2185 8.45843 6.23795 8.4836C6.21419 8.51647 6.19006 8.54985 6.16654 8.58272C6.12778 8.59623 6.08891 8.60995 6.04994 8.62386ZM6.66468 7.93194C6.76991 7.8334 6.87496 7.73719 6.98113 7.64237C6.60439 8.03614 6.93911 7.73906 6.72841 7.99766C6.70717 7.97575 6.68592 7.95384 6.66468 7.93194ZM7.76971 7.03557C7.76817 7.06083 7.76692 7.08591 7.76569 7.11102C7.6596 7.19633 7.5536 7.2848 7.44894 7.37499C7.55784 7.36731 7.6664 7.36106 7.77346 7.35728C7.81164 7.32595 7.85019 7.29473 7.88834 7.26427C7.84845 7.18826 7.80881 7.1121 7.76971 7.03557ZM19.9237 14.8782C19.9174 14.9704 19.9558 15.2908 19.9776 15.2785C20.0111 15.1471 20.0444 15.0183 20.0778 14.8865C20.0405 14.8837 20.0031 14.881 19.9658 14.8782C19.9855 14.8605 20.0052 14.8422 20.0249 14.825C20.0151 14.7501 20.0054 14.6744 19.9957 14.5978C20.0306 14.5612 20.0654 14.5254 20.1001 14.4898C20.065 14.45 20.0298 14.41 19.9946 14.3698C19.9082 14.7271 19.9748 14.7206 19.9698 14.7948C19.9674 14.8323 19.9428 14.8558 19.9304 14.8688C19.9282 14.8719 19.926 14.875 19.9237 14.8782ZM21.0366 9.31805C20.3727 9.85286 20.3546 10.2527 20.2624 10.5177C20.1937 10.7946 20.1672 10.9947 20.1001 11.2083C20.1849 11.1064 20.201 10.8244 20.4018 10.3001C20.5111 10.0474 20.6886 9.64624 21.1911 9.31751C21.703 8.98 22.3274 9.02168 22.5532 9.07141C22.9126 9.13356 23.2407 9.2886 23.4243 9.43915C23.5214 9.4622 23.6193 9.49205 23.7152 9.52747C23.2804 9.24385 22.9474 9.09731 22.7159 9.03492C22.6274 9.01252 22.5842 9.01155 22.5625 9.01417C22.5417 9.01751 22.5415 9.0253 22.5346 9.02399C22.5339 9.02389 22.5332 9.02379 22.5326 9.02369C22.0567 8.94454 21.5789 8.94583 21.0366 9.31805ZM13.247 3.76928C13.3521 3.76864 13.4657 3.71894 13.4417 3.65926C13.3754 3.66394 13.2889 3.68061 13.1999 3.70151C13.2238 3.70871 13.2296 3.76897 13.247 3.76928ZM8.00519 7.08136C8.08148 7.04846 8.22044 6.92273 8.12222 6.9257C8.10417 6.92617 7.97806 7.07143 8.00501 6.92384C7.85825 7.03789 7.96201 7.09971 8.00519 7.08136ZM18.7746 9.63942C18.714 9.58156 18.6544 9.52378 18.5948 9.46518C18.5626 9.46956 18.5302 9.47381 18.4977 9.47778C18.5897 9.53281 18.6818 9.58642 18.7746 9.63942ZM12.5002 4.21583C12.3516 4.1531 12.274 4.34242 12.0609 4.34667C12.0033 4.38008 11.942 4.41591 11.8842 4.44984C11.8841 4.44992 11.8839 4.45001 11.8838 4.4501C11.9003 4.48101 11.9168 4.51191 11.9333 4.54282C12.1237 4.43032 12.3132 4.3205 12.5002 4.21583ZM22.8697 13.0376C22.7354 12.9662 22.6681 12.91 22.6026 12.8557C22.4618 12.7984 22.3607 12.7543 22.257 12.7071C22.3004 12.753 22.3406 12.7959 22.3933 12.845C22.5125 12.8981 22.6277 12.9561 22.8697 13.0376ZM11.4798 4.84066C11.6947 4.72685 11.7132 4.58465 11.4494 4.74694C11.3392 4.81513 11.2558 4.95993 11.4798 4.84066ZM19.6615 19.2949C19.6693 19.3026 19.6848 19.2814 19.6995 19.2426C19.6782 19.2257 19.6568 19.2076 19.6353 19.1883C19.6425 19.2558 19.6467 19.2977 19.6615 19.2949ZM7.19127 7.75451C7.18216 7.73107 7.17307 7.70762 7.16401 7.68415C7.21905 7.64028 7.27364 7.59744 7.32863 7.5549C7.33098 7.58394 7.3335 7.61288 7.33615 7.64174C7.28807 7.67864 7.23926 7.71671 7.19127 7.75451ZM19.7048 19.0219C19.7131 18.9615 19.7214 18.8927 19.7313 18.8137C19.7236 18.7594 19.7166 18.7003 19.7117 18.634C19.6915 18.7239 19.675 18.8012 19.6593 18.8701C19.6741 18.9259 19.6894 18.976 19.7048 19.0219ZM9.51138 6.0761C9.60798 6.04757 9.87765 5.77042 9.57926 5.9351C9.38707 6.04148 9.49749 6.07992 9.51138 6.0761ZM9.09482 6.37684C9.42996 6.22547 9.05313 6.14364 8.78406 6.52612C9.13864 6.26978 9.0748 6.38583 9.09482 6.37684ZM6.91699 8.26548C6.91084 8.2713 6.87856 8.24793 6.82901 8.29454C6.65098 8.46174 6.4112 8.68514 6.28618 8.81273C5.98309 9.11161 5.13909 10.1595 4.94958 10.2079C4.90983 10.2171 4.90672 10.1129 4.89508 10.1206C4.86119 10.1435 4.73719 10.3374 4.72552 10.2712C4.87307 10.1033 5.02076 9.93634 5.16884 9.77078C5.16022 9.83599 5.15128 9.90166 5.14301 9.96668C5.49545 9.54104 5.37579 9.67986 5.42195 9.50795C5.50774 9.45945 5.59285 9.4121 5.67857 9.36452C5.79125 9.19479 5.90494 9.02604 6.01939 8.85916C6.00519 8.90822 5.99102 8.9574 5.97723 9.0063C6.21503 8.81655 6.13664 8.85883 6.20927 8.70068C6.22636 8.7166 6.24344 8.73253 6.26053 8.74846C6.41955 8.50107 6.50929 8.5114 6.55356 8.46747C6.64354 8.37979 6.56664 8.05957 7.10556 7.92914C7.16325 7.69457 7.3414 7.89707 7.33624 7.71711C7.6846 7.60548 7.17527 7.9856 6.95076 8.20102C6.95064 8.20113 6.95053 8.20125 6.95041 8.20136C6.93344 8.21724 6.97709 8.20973 6.91699 8.26548ZM8.11425 7.03958C8.03359 7.24743 8.64734 6.81811 8.34552 6.81892C8.31187 6.83551 8.27805 6.85251 8.24408 6.86993C8.20025 6.92592 8.15676 6.98264 8.11389 7.03985C8.11401 7.03976 8.11413 7.03967 8.11425 7.03958ZM14.6784 3.51592C14.7492 3.49742 14.6184 3.50113 14.4531 3.43192C14.2841 3.35965 14.2298 3.30211 14.3182 3.34303C14.4029 3.3799 14.5591 3.42245 14.624 3.43002C14.6952 3.44074 14.7011 3.44454 14.6917 3.46298C14.6834 3.4771 14.6726 3.497 14.6784 3.51592ZM20.1054 10.6176C20.1142 10.6417 20.1233 10.6656 20.1326 10.6893C20.1843 10.464 20.2859 10.0843 20.6157 9.66015C20.9417 9.21338 21.5416 8.98965 21.4939 8.96062C20.9723 9.13794 20.5945 9.54808 20.4208 9.84434C20.2362 10.1512 20.1616 10.4007 20.1054 10.6176ZM24.5004 10.0138C24.4502 9.91232 24.106 9.52671 24.1194 9.60098C24.2643 9.77497 24.38 9.95742 24.4699 10.1359C24.5356 10.2034 24.597 10.2719 24.655 10.3416C24.6012 10.2312 24.5196 10.041 24.5004 10.0138Z" fill="currentColor" />
</svg>
