<svg width="18" height="14" viewBox="0 0 18 14" fill="none" xmlns="http://www.w3.org/2000/svg">
<path d="M0.64212 10.9356C0.749781 10.3331 1.19563 10.1878 1.52984 9.79595C2.26532 8.93327 3.05978 7.67026 3.74012 6.7347C4.2163 6.07983 4.71036 5.42166 5.19732 4.77523C5.23726 4.7222 5.27663 4.66995 5.31545 4.61848C5.34255 4.58247 5.3817 4.57752 5.39394 4.56132C5.50891 4.40901 5.67731 4.13419 5.79266 3.9834C6.03494 3.66569 6.44696 3.10177 6.69268 2.82229C6.79673 2.70343 6.89888 2.57756 6.99075 2.57026C7.02831 2.52702 6.99941 2.46326 7.00577 2.44949C7.00592 2.44939 7.00607 2.44929 7.00623 2.4492C7.02736 2.40458 7.13771 2.33306 7.15277 2.30944C7.15491 2.30602 7.10429 2.29806 7.15555 2.25441C7.16007 2.25053 7.1806 2.27364 7.21594 2.22928C7.22432 2.21853 7.30587 2.04005 7.33779 1.99605C7.41542 1.8887 7.59309 1.69567 7.76453 1.51865C7.83225 1.44861 7.90137 1.37868 7.96555 1.31499C8.00101 1.28014 8.01005 1.24652 8.05771 1.20319C8.08179 1.18112 8.13886 1.15839 8.14862 1.15052C8.16813 1.1341 8.21796 1.06577 8.28953 1.01868C8.36358 0.969696 8.44542 0.951446 8.41702 1.06634C8.60215 0.947274 8.82143 0.884478 8.86343 0.859101C8.91509 0.830584 8.84247 0.817803 8.85079 0.797773C9.13961 0.734213 9.5653 0.841986 9.7599 0.985967C9.96704 1.12587 10.0379 1.23375 10.0925 1.30439C10.191 1.44539 10.2099 1.48933 10.2705 1.50562C10.3267 1.60838 10.3492 1.66276 10.3698 1.7076C10.5603 2.14192 10.7192 2.50598 10.9071 2.86695C10.9348 2.92033 10.9621 2.97189 10.9899 3.02259C11.0021 3.01569 11.0144 3.00879 11.0267 3.00188C11.0486 3.15208 11.1555 3.14282 11.1289 3.25467C11.1711 3.28797 11.213 3.31985 11.2563 3.353C11.5644 3.86603 11.9782 4.39692 12.3969 4.91456C12.8999 5.53382 13.4256 6.14403 13.9371 6.75741C13.9769 6.80509 13.9636 6.83601 14.0291 6.91452C14.1014 7.0012 14.23 7.10018 14.3255 7.21393C14.4092 7.31375 14.5117 7.4787 14.6025 7.59212C14.623 7.61771 14.6529 7.62341 14.6552 7.62628C14.6687 7.64326 14.6465 7.6636 14.6595 7.68014C14.675 7.69984 14.7117 7.70854 14.7296 7.73157C14.7964 7.81737 14.8793 7.90211 14.8878 7.91287C14.9288 7.96488 14.9159 7.99501 14.9192 7.99935C14.9647 8.05765 14.9667 8.01932 14.9775 8.03425C15.0334 8.11145 15.0275 8.20603 15.1605 8.26222C15.1396 8.27569 15.1187 8.28915 15.0978 8.30261C15.1526 8.38676 15.1588 8.29431 15.1811 8.30191C15.1901 8.30565 15.3243 8.47173 15.3345 8.48508C15.3691 8.53105 15.3455 8.55364 15.3484 8.55767C15.3552 8.56704 15.479 8.65179 15.5061 8.72557C15.539 8.81386 15.4207 8.78032 15.4258 8.80494C15.4267 8.80922 15.4926 8.87345 15.4851 8.89628C15.4773 8.9213 15.4253 8.8618 15.419 8.86886C15.4149 8.874 15.4671 9.00247 15.4273 9.00437C15.391 9.01055 15.3015 8.84911 15.266 8.83086C15.2601 8.82777 15.239 8.86203 15.2343 8.85881C15.2153 8.84558 14.9425 8.53539 14.9347 8.51634C14.9621 8.52121 14.9895 8.52602 15.0169 8.53076C14.9994 8.50799 14.9819 8.48514 14.9643 8.4622C15.0018 8.48396 15.0392 8.50553 15.0764 8.52689C15.1454 8.38668 14.9158 8.34513 14.8564 8.38637C14.8291 8.4057 14.8375 8.54625 14.7317 8.50029C14.7356 8.51786 14.7395 8.53541 14.7434 8.55295C14.7754 8.56843 14.807 8.58339 14.8392 8.59907C14.8315 8.57672 14.8241 8.55471 14.8166 8.53257C14.8294 8.53202 14.8422 8.53146 14.8549 8.53089C14.907 8.56633 14.9593 8.602 15.011 8.63691C15.0258 8.6651 14.9995 8.67987 15.0094 8.69984C15.1316 8.94873 15.0854 8.75711 15.1912 8.8975C15.1959 8.92677 15.2001 8.9556 15.205 8.98507C15.2483 8.93494 15.2693 9.0211 15.3521 9.07166C15.3288 9.07739 15.3056 9.08326 15.2823 9.08901C15.381 9.18367 15.4845 9.45911 15.5223 9.32569C15.5351 9.35495 15.549 9.38537 15.5624 9.41507C15.5942 9.42172 15.6259 9.42818 15.6574 9.43444C15.6797 9.46231 15.703 9.4913 15.7255 9.5192C15.718 9.52631 15.7104 9.53342 15.7028 9.54053C15.6835 9.51938 15.6639 9.49799 15.6443 9.47639C15.6356 9.51388 15.6269 9.55128 15.6181 9.5886C15.6363 9.60083 15.6545 9.61294 15.6725 9.62491C15.6445 9.56112 15.7013 9.57475 15.7523 9.58226C15.77 9.58517 15.787 9.58734 15.7998 9.58553C15.8622 9.63077 15.8535 9.70119 15.8694 9.72201C15.8771 9.73212 16.0403 9.76721 15.9269 9.79953C15.9855 9.84375 16.0422 9.88554 16.1012 9.92942C16.1146 9.95527 16.1273 9.98038 16.1407 10.0062C16.063 9.99553 16.1426 10.1646 16.0379 10.0841C15.9614 10.0256 15.9767 9.97493 15.946 9.94274C15.9178 9.913 15.88 9.91775 15.848 9.88544C15.7777 9.81419 15.7126 9.74547 15.6494 9.67635C15.5247 9.53983 15.4117 9.40605 15.2893 9.25506C15.2532 9.21043 15.2067 9.18078 15.183 9.15086C15.1559 9.11668 15.221 9.13191 15.1772 9.09657C15.131 9.0594 15.0987 9.07041 15.0882 9.0594C15.0816 9.0525 15.0829 9.01109 15.0644 8.99009C14.9879 8.90324 14.8566 8.79464 14.8458 8.782C14.834 8.76831 14.6394 8.50508 14.6326 8.48989C14.6291 8.48197 14.7197 8.42652 14.5883 8.44523C14.572 8.42962 14.5558 8.41397 14.5395 8.39828C14.5578 8.38738 14.576 8.37647 14.5942 8.36556C14.4471 8.31629 14.511 8.32248 14.4226 8.22908C14.2111 8.00587 13.9313 7.64885 13.7095 7.39599C13.6599 7.33959 13.6224 7.3338 13.5639 7.26677C13.5097 7.20461 13.429 6.99104 13.3795 7.09341C13.3308 6.8947 13.1934 6.97124 13.2086 6.8385C13.1907 6.83888 13.1728 6.83927 13.1549 6.83965C13.1378 6.72462 13.077 6.73419 13.0022 6.65498C12.9699 6.62079 13.054 6.62212 12.9384 6.59395C12.9309 6.57655 12.9235 6.55917 12.9161 6.54182C12.9307 6.53522 12.9454 6.52862 12.96 6.52201C12.8835 6.44896 12.8855 6.43858 12.8483 6.48473C12.8239 6.43847 12.7998 6.39244 12.776 6.34666C12.7573 6.35387 12.7386 6.36108 12.7198 6.36829C12.706 6.41089 13.4845 7.26583 13.6023 7.37682C13.6904 7.54916 13.9759 7.80373 14.0668 7.92624C14.103 7.97519 14.0878 8.02386 14.1413 8.09462C14.1948 8.16529 14.2973 8.22493 14.3288 8.25957C14.4343 8.37635 14.9151 8.94363 14.5433 8.59654C14.537 8.62134 14.5307 8.64613 14.5244 8.67091C14.71 8.7757 14.6295 8.75023 14.7332 8.8805C14.7774 8.936 14.922 9.02984 14.8446 9.08614C14.7453 8.99998 14.6771 8.8755 14.6013 8.79036C14.5938 8.78193 14.473 8.70919 14.4365 8.64877C14.4039 8.59453 14.501 8.56793 14.3347 8.53136C14.3445 8.38994 14.2379 8.40461 14.2132 8.39051C14.1704 8.36622 14.2046 8.33057 14.179 8.29184C14.1512 8.24962 14.1039 8.24449 14.0993 8.2394C14.0539 8.18774 13.8182 7.91714 13.8228 7.89167C13.8388 7.89703 13.8547 7.90237 13.8707 7.90775C13.8213 7.82763 13.7955 7.87498 13.775 7.86017C13.7634 7.84613 13.7518 7.83208 13.7401 7.81802C13.7528 7.81681 13.7654 7.8156 13.778 7.81438C13.7053 7.73175 13.7319 7.8195 13.6319 7.69945C13.5685 7.6232 13.5331 7.51904 13.5247 7.51358C13.5222 7.51194 13.5217 7.55313 13.4929 7.52448C13.4455 7.47712 13.3715 7.38771 13.3913 7.3544C13.3663 7.3326 13.3407 7.35767 13.3373 7.35486C13.3223 7.34259 13.103 7.09843 13.0643 7.05481C12.9556 6.93294 12.8467 6.78934 12.7298 6.65657C12.7178 6.64301 12.7429 6.63732 12.7308 6.62383C12.7116 6.60235 12.5884 6.50895 12.5726 6.49366C12.532 6.45396 12.451 6.3322 12.4279 6.32035C12.4246 6.31872 12.4313 6.376 12.388 6.33804C12.34 6.296 12.3937 6.29592 12.3919 6.29299C12.3229 6.18574 12.2489 6.14059 12.1901 6.07686C12.1708 6.05583 12.1623 5.9955 12.1303 5.97065C12.1267 5.96778 12.1098 5.99302 12.1058 5.99044C12.0565 5.95354 12.0624 5.87511 12.0491 5.85297C12.0161 5.7984 12.0068 5.85013 12.0045 5.84773C11.9771 5.81578 11.9517 5.76125 11.9105 5.71286C11.8366 5.62585 11.7687 5.54462 11.7034 5.46466C11.6016 5.34006 11.5033 5.21568 11.3915 5.06933C11.3687 5.03956 11.3626 4.98584 11.3591 4.98127C11.3479 4.96712 11.3248 4.99113 11.2939 4.94984C11.2273 4.86069 11.1654 4.78236 11.0996 4.6943C11.0866 4.67686 11.1057 4.65146 11.0959 4.63739C11.0635 4.5916 10.886 4.4865 10.9642 4.42483C10.8277 4.38777 10.8465 4.28435 10.7942 4.21262C10.6706 4.0441 10.4739 3.78496 10.3788 3.60489C10.3587 3.56734 10.37 3.53647 10.3592 3.5157C10.3387 3.47848 10.2063 3.27288 10.204 3.25866C10.2034 3.25584 10.2041 3.25285 10.2057 3.24967C10.2186 3.22332 10.2882 3.18572 10.1567 3.12414C10.1147 3.05955 10.1599 3.0462 10.1548 3.03102C10.1143 2.91356 9.96881 2.85126 10.0631 2.8294C9.97588 2.71183 9.88819 2.64861 9.94214 2.55726C9.90374 2.57655 9.85095 2.52574 9.83055 2.44338C9.93212 2.48966 9.96869 2.4609 10.0449 2.64934C10.0461 2.65229 10.0155 2.66039 10.0167 2.66335C10.0274 2.69038 10.068 2.73763 10.0884 2.78239C10.1087 2.82713 10.0776 2.8123 10.0867 2.82964C10.0952 2.84551 10.1215 2.83169 10.1336 2.85474C10.1725 2.92945 10.2141 2.99165 10.2367 3.03358C10.2509 3.06006 10.2436 3.10192 10.2546 3.12249C10.2658 3.14325 10.2815 3.16935 10.2996 3.19841C10.3506 3.28018 10.4207 3.38186 10.4614 3.454C10.4727 3.47427 10.4424 3.48085 10.4669 3.52611C10.4697 3.53119 10.5073 3.53445 10.536 3.56879C10.5652 3.60379 10.571 3.64122 10.5891 3.6637C10.6042 3.68247 10.6219 3.65987 10.65 3.70013C10.6706 3.73442 10.9243 4.1366 10.9387 4.16061C10.9557 4.19502 10.9349 4.23131 10.9524 4.24756C10.9556 4.25028 10.9896 4.23435 11 4.24427C11.1692 4.40538 11.4436 4.8484 11.611 5.06055C11.6898 5.16109 11.7658 5.25561 11.8449 5.35237C12.115 5.68235 12.387 5.99563 12.6729 6.33462C12.6843 6.33849 12.6958 6.34236 12.7072 6.34624C12.6705 6.30102 12.6344 6.25639 12.5981 6.21159C12.6113 6.20035 12.6245 6.1891 12.6377 6.17786C12.5902 6.11523 12.5651 6.14932 12.5473 6.16662C12.5371 6.13755 12.5271 6.10859 12.5172 6.07974C12.4544 6.09831 12.3641 5.92336 12.3017 5.8462C12.2616 5.7966 12.1945 5.75008 12.1751 5.72298C12.1332 5.66502 12.1629 5.64249 12.1599 5.63784C12.1542 5.62938 12.0669 5.57304 12.0219 5.51472C11.9615 5.43631 11.989 5.39051 11.8888 5.3176C11.8816 5.31229 11.8738 5.30685 11.8654 5.30126C11.7724 5.13616 11.6325 4.9822 11.506 4.82649C11.5711 4.82425 11.4223 4.71336 11.3735 4.64783C11.0782 4.25238 10.7436 3.75609 10.5304 3.34471C10.5024 3.29152 10.507 3.23616 10.4897 3.20749C10.4803 3.19176 10.4443 3.20262 10.4362 3.1779C10.4349 3.17375 10.46 3.15641 10.4478 3.11755C10.447 3.11505 10.4461 3.11247 10.445 3.1098C10.3988 3.00012 10.2107 2.75816 10.2365 2.65947C10.1146 2.42729 10.0017 2.19351 9.8763 1.93821C9.81611 1.85362 9.86756 1.78983 9.54779 1.48842C9.4571 1.41499 9.29329 1.33722 9.13499 1.32688C8.97659 1.31437 8.858 1.34916 8.77758 1.37971C8.62173 1.44338 8.55738 1.50075 8.4974 1.54695C8.47288 1.54849 8.44982 1.54935 8.42605 1.55117C8.38632 1.63954 8.2649 1.7645 8.16229 1.87404C8.09232 1.94785 8.02381 2.01914 7.98128 2.07194C7.79455 2.30348 7.58778 2.60433 7.43751 2.80354C7.40444 2.84735 7.36193 2.86933 7.33081 2.91071C7.31724 2.9288 7.32195 2.9661 7.30824 2.98432C7.15305 3.19098 6.92431 3.45069 6.77103 3.65812C6.42362 4.12802 6.09609 4.56926 5.75033 5.04693C5.72995 5.0751 5.70944 5.10348 5.6888 5.13206C4.5476 6.71413 3.4513 8.31328 2.31621 9.87614C2.30073 9.89746 2.2768 9.87876 2.26475 9.89527C2.19333 9.99277 2.05724 10.2265 1.97714 10.3364C1.9132 10.4241 1.77546 10.5373 1.79179 10.5949C2.07324 10.3221 2.30553 9.9875 2.55483 9.67239C2.57252 9.65 2.59805 9.66389 2.60052 9.66134C2.64637 9.61438 2.59018 9.62471 2.64359 9.54684C2.66149 9.52073 2.90532 9.33778 2.81072 9.31255C2.88103 9.27717 3.18142 8.88836 3.22674 8.80414C3.24044 8.77862 3.20652 8.77937 3.20872 8.77393C3.21824 8.75031 3.25519 8.763 3.26883 8.74559C3.30523 8.69869 3.36801 8.5587 3.38469 8.53575C3.42318 8.4825 3.5626 8.34002 3.60731 8.26522C3.64839 8.19657 3.60791 8.18594 3.64498 8.12798C3.67428 8.08236 3.66656 8.14965 3.74514 8.05697C3.78432 8.0106 3.88685 7.82705 3.91688 7.78515C3.94665 7.7436 3.99855 7.71136 4.03799 7.65326C4.09529 7.56895 4.2129 7.38261 4.26692 7.29447C4.27015 7.28924 4.25415 7.25936 4.26346 7.24747C4.28275 7.22278 4.30768 7.25249 4.32471 7.2353C4.34195 7.21776 4.57791 6.88134 4.61883 6.8252C4.64725 6.78602 4.64849 6.74596 4.66417 6.72449C4.67651 6.70769 4.70322 6.72415 4.71589 6.70713C4.71979 6.70172 4.73007 6.64086 4.76367 6.59525C4.79537 6.55227 4.93342 6.40476 4.9475 6.38565C4.95646 6.37339 4.92871 6.37386 4.95533 6.33781C4.97962 6.30502 5.01864 6.30028 5.03249 6.28177C5.06506 6.23819 5.0806 6.17453 5.1139 6.12815C5.20984 5.9946 5.23435 6.0218 5.24098 6.0146C5.25966 5.99424 5.2395 5.96619 5.24421 5.95851C5.26399 5.9264 5.31386 5.84702 5.33276 5.8187C5.35623 5.78351 5.39193 5.78729 5.41811 5.75125C5.4373 5.72467 5.4531 5.651 5.49633 5.58874C5.58233 5.46467 5.68274 5.31792 5.77294 5.19315C5.78557 5.17568 5.79798 5.15866 5.81012 5.14219C5.84012 5.10143 5.86757 5.11201 5.8772 5.10002C5.92726 5.03778 5.92911 4.98123 5.94291 4.96298C6.04197 4.83164 6.25538 4.62382 6.34976 4.5022C6.38753 4.45342 6.53082 4.21919 6.62572 4.09756C6.63651 4.08365 6.64468 4.11012 6.65347 4.09232C6.67448 4.04976 6.63511 4.0267 6.6505 4.00816C6.65807 3.99926 6.69442 3.9931 6.71636 3.9677C6.82987 3.8364 6.88587 3.72778 6.93372 3.66583C7.37606 3.09699 7.81237 2.52404 8.28856 1.98686C8.31972 1.95243 8.3502 1.91941 8.38309 1.88499C8.45246 1.81801 8.48589 1.7219 8.70403 1.60663C8.71839 1.61432 8.73258 1.62226 8.74656 1.63044C8.74775 1.61373 8.75048 1.59633 8.75359 1.57901C8.82948 1.53774 8.93867 1.48717 9.09822 1.49113C9.25795 1.49385 9.40608 1.57576 9.47805 1.64007C9.62442 1.77369 9.64907 1.85419 9.6849 1.93795C9.69088 1.95328 9.65043 2.01808 9.73258 2.00516C9.73258 2.00523 9.73258 2.0053 9.73259 2.00537C9.73917 2.15666 9.75983 2.06267 9.80751 2.15323C9.85476 2.24306 9.879 2.33839 9.91616 2.42718C9.91264 2.48748 9.75891 2.31391 9.753 2.30014C9.74341 2.27875 9.76928 2.23989 9.76164 2.21823C9.73934 2.1546 9.68272 2.10715 9.70845 2.07835C9.63662 2.01269 9.70075 2.10628 9.66525 2.11011C9.66071 2.08795 9.65601 2.06554 9.65135 2.04333C9.64308 2.00505 9.63381 1.96387 9.61633 1.91194C9.58496 1.91505 9.56048 1.89072 9.51709 1.83305C9.47601 1.78707 9.39443 1.63608 9.15438 1.58252C8.92343 1.54808 8.82169 1.6217 8.76777 1.64549C8.7145 1.6761 8.69898 1.6978 8.71888 1.71016C8.67048 1.72227 8.6302 1.73225 8.58986 1.74356C8.5474 1.92459 8.45504 1.91941 8.32159 2.01637C8.31934 2.01799 8.31707 2.01964 8.31479 2.02134C8.31916 2.02154 8.32351 2.02175 8.32786 2.02197C8.3419 2.02224 8.35586 2.02262 8.36974 2.02313C8.3703 2.02487 8.36496 2.03494 8.35646 2.04753C8.33498 2.07981 8.29218 2.12927 8.28324 2.0731C8.24935 2.2323 8.15348 2.14332 8.14533 2.30088C8.10733 2.36601 8.09268 2.29679 8.00969 2.40019C7.96078 2.46126 7.92171 2.55617 7.86991 2.62497C7.85777 2.64093 7.8269 2.62862 7.81609 2.64233C7.80524 2.65614 7.82447 2.68221 7.81175 2.6997C7.7849 2.73663 7.73312 2.76735 7.71722 2.79125C7.70278 2.81275 7.70389 2.85621 7.66992 2.90725C7.55429 3.08238 7.5623 3.00779 7.53146 3.02602C7.49853 3.04575 7.52417 3.09754 7.47677 3.14984C7.47195 3.15513 7.45741 3.12088 7.44438 3.14009C7.43385 3.15558 7.45586 3.18462 7.42433 3.237C7.41052 3.25912 7.18935 3.56528 7.15515 3.6125C7.10347 3.6831 6.96103 3.82464 6.9073 3.89753C6.88649 3.9256 6.88598 3.97365 6.86391 4.00315C6.78963 4.1024 6.6703 4.2602 6.57556 4.3869C6.49134 4.49932 6.29365 4.66411 6.29377 4.75927C6.18251 4.924 6.11513 4.93507 6.10567 4.94693C6.08067 4.9782 6.09545 5.01193 6.06658 5.05411C6.01409 5.13058 5.96111 5.20652 5.90349 5.28794C5.5505 5.78691 5.11634 6.36287 4.80337 6.80189C3.96128 7.98352 3.12765 9.18031 2.2719 10.3571C2.2811 10.3684 2.29031 10.3798 2.29952 10.3912C2.40692 10.2563 2.54434 10.106 2.64738 9.9713C2.78533 9.79078 2.93266 9.4835 3.10794 9.40395C3.07568 9.46364 2.98159 9.53178 3.02305 9.55899C3.09634 9.4625 3.16871 9.3673 3.24203 9.27078C3.22132 9.2604 3.20061 9.25002 3.17989 9.23964C3.24767 9.13335 3.3266 9.0315 3.39738 8.92689C3.40968 8.90876 3.38375 8.90929 3.39476 8.89372C3.4071 8.87633 3.41589 8.90039 3.41835 8.89724C3.4498 8.85362 3.44203 8.82771 3.4461 8.82255C3.45666 8.80924 3.46556 8.8318 3.49862 8.79537C3.56 8.72788 3.55352 8.64396 3.6145 8.71362C3.63144 8.68994 3.64838 8.66626 3.66547 8.64238C3.64993 8.62193 3.63438 8.60149 3.61884 8.58105C3.80399 8.49251 3.71086 8.32409 3.8808 8.32356C3.88271 8.28471 3.8846 8.24591 3.88644 8.20716C3.9171 8.20649 3.9479 8.20562 3.97861 8.20487C3.9636 8.18968 3.94858 8.17449 3.93356 8.15929C4.04892 8.02486 4.13766 7.85762 4.23802 7.72179C4.30812 7.62693 4.33054 7.60993 4.39043 7.52373C4.52251 7.33349 4.42253 7.54448 4.57108 7.41487C4.5442 7.40805 4.51745 7.40105 4.49066 7.39409C4.50139 7.36291 4.51259 7.33109 4.52349 7.29968C4.55357 7.29389 4.58362 7.28814 4.61365 7.28242C4.58209 7.13912 4.69109 7.13849 4.69893 7.12758C4.70507 7.1187 4.67361 7.0498 4.78641 6.98827C4.68521 6.97505 4.83804 6.91554 4.8449 6.90691C4.85151 6.89833 4.91241 6.77927 4.94523 6.73511C4.97082 6.70063 5.03955 6.63827 5.07566 6.58649C5.10797 6.54018 5.07982 6.52705 5.08197 6.52352C5.12035 6.46589 5.11427 6.5149 5.14437 6.47511C5.17443 6.43536 5.17572 6.3891 5.18391 6.38171C5.18811 6.378 5.20049 6.40944 5.21733 6.39076C5.26289 6.34035 5.31227 6.22932 5.35794 6.16729C5.37403 6.14538 5.41356 6.13182 5.43173 6.10791C5.45955 6.07117 5.44594 6.03531 5.46247 6.01404C5.46832 6.00666 5.54363 5.98689 5.58064 5.92271C5.58775 5.91028 5.52645 5.81635 5.67935 5.85806C5.66494 5.84237 5.65052 5.82668 5.6361 5.811C5.73924 5.58027 5.91746 5.62341 5.86054 5.44553C5.98007 5.30938 5.9548 5.44405 5.97372 5.43326C5.98532 5.42654 6.00527 5.37424 6.01084 5.36587C6.01109 5.3655 6.01131 5.36521 6.0115 5.36501C6.01976 5.35669 6.03381 5.36936 6.04117 5.35905C6.17392 5.17038 6.08427 5.23338 6.10928 5.16069C6.1683 4.98851 6.34313 4.95051 6.13746 5.17236C6.14595 5.17854 6.15444 5.18472 6.16293 5.19089C6.19888 5.12438 6.31296 4.97591 6.31908 5.05792C6.32391 5.12237 6.03984 5.46656 6.23538 5.29766C6.27983 5.25919 6.26614 5.21102 6.38374 5.17502C6.42537 5.12468 6.35436 5.05962 6.43747 5.01085C6.40194 5.00291 6.36637 4.99502 6.33078 4.98717C6.36638 4.86447 6.50203 4.77778 6.54258 4.69074C6.55615 4.6614 6.49492 4.47569 6.60765 4.59107C6.63159 4.54154 6.8033 4.35738 6.81958 4.31133C6.82361 4.30009 6.76387 4.2382 6.88427 4.12498C6.89955 4.12217 6.91481 4.11939 6.93004 4.11665C6.86647 4.25455 7.04751 4.06248 7.06985 4.16749C7.02695 4.16469 6.93806 4.2479 6.9129 4.25142C6.86864 4.25872 6.89313 4.1576 6.82938 4.26254C6.89179 4.4043 6.97255 4.19066 7.05552 4.29314C7.10357 4.12789 7.15871 4.14907 7.18243 4.12102C7.28251 4.00222 7.33092 3.91455 7.43046 3.8063C7.43047 3.76241 7.24138 3.95248 7.23091 3.98569C7.22888 3.83278 7.10053 3.99822 7.09245 4.10189C7.06545 4.09118 7.03843 4.08048 7.0114 4.0698C7.09252 3.98584 7.16501 3.90138 7.21487 3.79601C7.22773 3.79631 7.24059 3.79664 7.25343 3.79698C7.25086 3.82686 7.24805 3.85707 7.24536 3.88714C7.32315 3.82611 7.22351 3.82271 7.3561 3.76509C7.33316 3.74299 7.31021 3.72089 7.28726 3.69879C7.36799 3.60839 7.4493 3.51768 7.53047 3.42773C7.51825 3.33854 7.678 3.16781 7.71728 3.25175C7.77937 3.18005 7.67365 3.2464 7.7117 3.16378C7.72785 3.12841 7.7721 3.06686 7.80078 3.06585C7.85781 3.11984 7.79721 3.21462 7.81924 3.27422C7.84413 3.26875 8.12051 2.82189 8.16376 2.91616C8.19802 2.89047 8.14979 2.87547 8.18637 2.80993C8.28634 2.63177 8.54362 2.44916 8.59086 2.25695C8.59337 2.24738 8.59531 2.23786 8.59666 2.22836C8.58893 2.23287 8.58146 2.23746 8.57426 2.24212C8.41423 2.34471 8.42411 2.4329 8.33281 2.54751C8.27011 2.6231 7.91247 3.09709 7.92916 2.94225C7.92374 2.9663 7.91884 2.98972 7.91387 3.01326C7.881 3.01552 7.84795 3.01803 7.81472 3.02081C7.85057 2.96861 7.88566 2.91765 7.9212 2.86641C7.9495 2.87005 7.97809 2.87332 8.00671 2.87658C7.9972 2.86032 7.98768 2.84407 7.97815 2.82784C7.99178 2.80484 8.00455 2.783 8.01865 2.75953C8.03054 2.77844 8.04243 2.79737 8.05431 2.81632C8.08295 2.7858 8.1096 2.75796 8.13836 2.72763C8.10955 2.71863 8.08043 2.71005 8.05171 2.70097C8.16554 2.5469 8.13873 2.60888 8.24679 2.559C8.30076 2.50149 8.17379 2.57094 8.27007 2.43216C8.38468 2.27049 8.36524 2.42436 8.51921 2.21964C8.51115 2.20758 8.50308 2.19553 8.49503 2.18346C8.49761 2.18171 8.50019 2.17997 8.50276 2.17824C8.54917 2.14624 8.59529 2.1156 8.64292 2.08538C8.62519 2.0786 8.60733 2.07201 8.58934 2.06559C8.67202 1.98468 8.79852 1.82983 8.89824 1.85941C8.73526 1.92252 8.83463 2.01224 8.86903 2.00917C8.89154 2.01113 8.93021 1.95951 9.05663 1.9406C9.22452 1.94762 9.25514 2.10638 9.31146 2.20218C9.42982 2.44765 9.56804 2.7159 9.61088 2.79949C9.71169 2.99976 9.7546 3.16956 9.90304 3.32238C9.87808 3.17922 9.62675 2.76081 9.61877 2.66167C9.61785 2.65204 9.718 2.60757 9.58139 2.60685C9.53498 2.47146 9.45321 2.32933 9.37266 2.17358C9.3447 2.12093 9.32026 2.06656 9.27696 2.00041C9.30863 1.99074 9.34051 1.98187 9.37291 1.97427C9.39155 2.0545 9.4173 2.10107 9.44651 2.13906C9.49224 2.19898 9.53707 2.23079 9.46323 2.25176C9.47554 2.27847 9.48768 2.30486 9.49993 2.33149C9.51912 2.32266 9.5383 2.31384 9.55749 2.30501C9.57588 2.34498 9.59423 2.38484 9.61256 2.42444C9.5934 2.43331 9.57423 2.44218 9.55507 2.45105C9.57025 2.48385 9.58563 2.51696 9.60088 2.5496C9.62156 2.54411 9.64223 2.53862 9.66291 2.53312C9.66842 2.65064 9.93461 2.92898 9.75084 2.83929C9.77311 2.8849 9.79548 2.93014 9.81817 2.97542C9.8319 2.96835 9.84564 2.96129 9.85937 2.95422C9.87095 2.9727 9.88253 2.99107 9.89419 3.00947C9.87849 3.00942 9.86279 3.00935 9.8471 3.00928C9.9142 3.08665 9.89258 3.20422 9.96603 3.23935C9.95522 3.19651 9.94452 3.15337 9.93421 3.11048C9.95407 3.19311 10.0625 3.30706 10.0692 3.31864C10.07 3.32007 10.0707 3.32151 10.0714 3.32294C10.0878 3.35731 10.073 3.3902 10.0926 3.42844C10.111 3.46404 10.1293 3.44747 10.1322 3.45439C10.2185 3.65357 10.0667 3.64925 10.2502 3.65679C10.2378 3.67676 10.2254 3.69687 10.2132 3.7171C10.2358 3.72042 10.2581 3.72323 10.2805 3.72615C10.3128 3.78133 10.3458 3.83631 10.3793 3.89076C10.3896 3.85853 10.4002 3.82659 10.4108 3.79443C10.472 3.86801 10.453 3.93392 10.4572 3.94262C10.4694 3.9664 10.5033 3.95765 10.5079 3.96443C10.7266 4.2896 10.5678 4.10914 10.58 4.34273C10.6605 4.37166 10.6588 4.2853 10.6937 4.24881C10.7285 4.33767 10.7573 4.35423 10.813 4.4353C10.8276 4.45654 10.8227 4.49514 10.8318 4.50811C10.8397 4.51928 10.8894 4.53884 10.9092 4.56542C10.9429 4.61038 10.9744 4.68081 11.0215 4.74251C11.0608 4.79399 11.1961 4.93846 11.2807 5.04718C11.3172 5.09429 11.2898 5.09773 11.299 5.10968C11.3028 5.11459 11.3531 5.13296 11.3768 5.16312C11.4659 5.27691 11.5536 5.39443 11.6424 5.51301C11.7413 5.64503 11.841 5.77759 11.9445 5.90587C12.0819 6.07612 12.2398 6.23445 12.3767 6.4059C12.4055 6.4421 12.3739 6.43632 12.3861 6.45248C12.3904 6.45803 12.4238 6.44132 12.4582 6.50658C12.4707 6.53019 12.4319 6.52302 12.4473 6.54376C12.4547 6.55383 12.4829 6.5379 12.5346 6.58937C12.629 6.68357 12.6412 6.76536 12.6498 6.77374C12.6658 6.78941 12.6821 6.76756 12.7017 6.78983C12.7972 6.89847 12.8775 6.98856 12.9616 7.08654C13.0006 7.13221 13.271 7.44823 13.2819 7.46844C13.3065 7.51436 13.2337 7.51335 13.2772 7.56238C13.2997 7.56747 13.3222 7.5726 13.3447 7.57766C13.3341 7.54851 13.3235 7.51931 13.313 7.49016C13.3509 7.56315 13.4285 7.61652 13.466 7.66261C13.4729 7.67116 13.5187 7.76451 13.5539 7.8021C13.5319 7.79206 13.5099 7.782 13.4878 7.77194C13.4861 7.78357 13.4843 7.79519 13.4825 7.80682C13.5591 7.87693 13.6292 7.96043 13.6959 8.04217C13.7201 8.07167 13.6954 8.07575 13.7197 8.10565C13.8616 8.27968 13.8929 8.17853 13.9056 8.45189C13.8696 8.38644 13.6808 8.19757 13.6601 8.16435C13.6455 8.14121 13.6861 7.96976 13.5999 8.09308C13.461 7.92794 13.6433 8.01926 13.4999 7.87662C13.4889 7.89114 13.4779 7.90567 13.467 7.9202C13.413 7.87363 13.3727 7.83964 13.3692 7.78674C13.2939 7.83124 13.1786 7.61552 13.0903 7.5187C12.9624 7.37848 12.8092 7.227 12.6868 7.08477C12.6444 7.03549 12.6472 6.98582 12.642 6.97963C12.6342 6.97063 12.5904 6.96394 12.5751 6.94574C12.5176 6.87752 12.3863 6.63873 12.2801 6.63838C12.6135 7.04596 12.9496 7.45113 13.2884 7.854C13.2766 7.77758 13.6227 8.18172 13.639 8.20349C13.6538 8.2237 13.6186 8.22601 13.6221 8.23278C13.6486 8.28282 13.7104 8.29207 13.7218 8.30551C13.7305 8.31572 13.7334 8.34884 13.7646 8.3848C13.7703 8.3914 13.7874 8.38002 13.7935 8.38712C13.8336 8.43419 13.8735 8.48127 13.914 8.52845C13.9163 8.53145 13.9039 8.56275 13.9141 8.57471C13.9243 8.58667 13.957 8.57908 13.9597 8.58207C13.9921 8.6202 14.033 8.69758 14.0636 8.73346C14.0744 8.74589 14.0835 8.72304 14.0954 8.73719C14.132 8.78054 14.0875 8.79431 14.1415 8.84009C14.1596 8.8554 14.1833 8.83291 14.2094 8.86958C14.228 8.89577 14.1817 8.93122 14.1834 8.93644C14.1861 8.94349 14.2928 8.9964 14.2874 9.04823C14.16 9.05494 14.34 9.11676 14.3668 9.0829C14.3874 9.12285 14.4075 9.16213 14.4283 9.20222C14.4462 9.20639 14.4641 9.21054 14.482 9.21466C14.5606 9.378 14.6541 9.44021 14.757 9.57874C14.7619 9.58538 14.8413 9.71051 14.8253 9.7152C14.7481 9.66776 14.689 9.60299 14.6883 9.5296C14.5584 9.521 14.6127 9.47233 14.5053 9.36849C14.4693 9.33376 14.4485 9.34776 14.4445 9.34364C14.3077 9.20656 14.0967 8.97954 14.0672 8.83383C14.0285 8.81907 14.1082 8.92337 14.064 8.89427C14.0391 8.87846 13.5866 8.38541 13.7892 8.49349C13.773 8.47804 13.7569 8.4628 13.7408 8.44744C13.6663 8.48193 13.6084 8.38609 13.6765 8.34461C13.6574 8.34709 13.6384 8.34953 13.6193 8.35202C13.5956 8.34515 13.5742 8.33128 13.5488 8.30797C13.4506 8.21904 12.9692 7.60359 12.9344 7.5786C12.9195 7.58984 12.9045 7.60109 12.8896 7.61233C13.0947 7.89102 13.3455 8.11712 13.5486 8.43842C13.5548 8.41872 13.5611 8.39906 13.5674 8.3794C13.646 8.5098 13.7248 8.63989 13.8041 8.7699C13.6765 8.67002 13.4917 8.49435 13.4038 8.35022C13.3881 8.32456 13.4208 8.32537 13.4187 8.31825C13.413 8.29968 13.3683 8.31247 13.3238 8.2663C13.2793 8.22011 13.1985 8.07777 13.1884 8.06705C13.1688 8.04646 13.0823 8.01902 13.0516 7.98155C13.0114 7.93231 13.0618 7.94564 13.0541 7.93546C13.0224 7.89315 12.9807 7.86651 12.9557 7.83332C12.9188 7.78408 12.8777 7.65255 12.7906 7.66916C12.816 7.70511 12.8415 7.74116 12.8668 7.77699C12.6929 7.6122 12.6502 7.40592 12.4421 7.27418C12.3357 7.29281 12.4693 7.4344 12.3338 7.33336C12.3538 7.3555 12.3739 7.37771 12.3938 7.39963C12.4134 7.39246 12.433 7.38529 12.4525 7.37811C12.4743 7.42641 12.4964 7.47506 12.5183 7.52341C12.5225 7.50103 12.5266 7.47855 12.5307 7.45608C12.6567 7.5873 12.788 7.71659 12.7565 7.8257C12.7763 7.81397 12.7962 7.80223 12.8161 7.7905C12.9029 7.93768 13.1398 8.06932 13.0124 8.11466C13.0227 8.11645 13.0329 8.11823 13.0432 8.12002C13.0891 8.21468 13.1011 8.14762 13.1303 8.1731C13.1386 8.18039 13.2458 8.34926 13.1604 8.30643C13.2634 8.47267 13.3152 8.35056 13.3536 8.38787C13.3888 8.52021 13.6003 8.63266 13.4691 8.62152C13.4784 8.63781 13.4877 8.65408 13.497 8.67034C13.5916 8.66894 13.5679 8.7682 13.5896 8.83591C13.6028 8.85387 13.6159 8.87172 13.6292 8.8898C13.6576 8.88518 13.686 8.88054 13.7143 8.87587C13.762 9.11053 13.961 8.85213 13.8202 9.09972C13.7983 9.09893 13.7764 9.09812 13.7545 9.09728C13.7256 9.07545 13.6966 9.0534 13.6679 9.03173C13.7556 9.14459 13.8438 9.25745 13.9318 9.36955C13.9945 9.55624 14.123 9.57947 14.2121 9.77074C14.23 9.78016 14.2477 9.78946 14.2655 9.79884C14.2074 9.82485 14.1652 9.76361 14.2355 9.88443C14.2111 9.92161 14.1456 9.85588 14.1427 9.80272C14.1421 9.78982 14.2237 9.83268 14.1606 9.75926C14.1177 9.70919 14.1576 9.83305 14.0419 9.67212C14.0388 9.68453 14.0357 9.69693 14.0326 9.70933C14.0188 9.6931 14.005 9.67682 13.9911 9.66049C13.9968 9.63015 14.0026 9.59979 14.0083 9.5694C13.9494 9.55534 13.8949 9.56772 13.8291 9.47609C13.8606 9.48917 13.87 9.42563 13.8335 9.38482C13.8202 9.39634 13.8069 9.40786 13.7937 9.41938C13.6977 9.32593 13.7664 9.32648 13.6635 9.26904C13.6669 9.25151 13.6702 9.23397 13.6735 9.21642C13.5901 9.2081 13.4152 9.0646 13.5072 9.03916C13.4025 9.04603 13.3462 8.92204 13.3654 8.84111C13.3497 8.84958 13.334 8.85804 13.3183 8.86654C13.2987 8.84912 13.2792 8.83168 13.2597 8.8142C13.2583 8.79632 13.2569 8.77844 13.2556 8.76055C13.2356 8.75337 13.2156 8.74617 13.1956 8.73896C13.2017 8.71912 13.2079 8.69931 13.214 8.67952C13.1789 8.67061 13.1438 8.66166 13.1086 8.65267C13.1075 8.62982 13.1065 8.60696 13.1054 8.5841C13.0763 8.60626 12.9542 8.47467 12.9402 8.42084C12.9225 8.41628 12.9047 8.41172 12.887 8.40715C12.8956 8.39036 12.9042 8.37357 12.9128 8.35678C12.895 8.35726 12.8772 8.35773 12.8593 8.3582C12.8535 8.32965 12.8476 8.30111 12.8418 8.27257C12.7093 8.24754 12.7645 8.19678 12.7487 8.17888C12.7196 8.14576 12.5819 8.06457 12.5679 8.04352C12.554 8.02248 12.5697 7.99355 12.5589 7.97618C12.3816 7.68862 12.4066 7.84668 12.3536 7.8034C12.325 7.78006 12.3306 7.74212 12.3078 7.71958C12.2687 7.6809 12.0634 7.49207 12.0561 7.4774C12.0456 7.45619 12.184 7.41237 12.1095 7.37664C12.0524 7.42107 12.006 7.24989 11.9761 7.37222C11.9407 7.31528 11.9058 7.25899 11.8703 7.20178C11.8087 7.26178 11.8 7.16426 11.7396 7.09795C11.6548 7.00501 11.4313 6.81952 11.5061 6.7721C11.4714 6.76135 11.4368 6.75076 11.4022 6.74016C11.2933 6.56176 11.1432 6.42154 11.0138 6.26112C10.974 6.2118 10.9316 6.1587 10.8919 6.10834C10.5474 5.67173 10.1971 5.19442 9.88598 4.72584C9.86924 4.70052 9.89512 4.68739 9.88316 4.66916C9.82026 4.57491 9.63456 4.33555 9.55328 4.19051C9.52725 4.14478 9.53751 4.10759 9.53008 4.0929C9.50447 4.04174 9.4798 4.07218 9.46731 4.04923C9.44676 4.0128 9.36749 3.80565 9.33612 3.73929C9.33423 3.73538 9.3319 3.7316 9.32926 3.72791C9.30959 3.70038 9.27226 3.67721 9.2616 3.64028C9.26051 3.63668 9.29038 3.62844 9.28938 3.62545C9.25613 3.55505 9.25503 3.60862 9.24393 3.58473C9.16505 3.41437 9.0766 3.23608 8.99596 3.05307C8.97588 3.00752 8.96284 2.93007 8.94672 2.89091C8.94053 2.87601 8.93208 2.91211 8.91013 2.86066C8.90277 2.84335 8.92688 2.82447 8.91968 2.8044C8.8882 2.71725 8.78837 2.72945 8.82572 2.62625C8.80286 2.58069 8.77277 2.52461 8.74159 2.4685C8.715 2.41676 8.67074 2.3585 8.70783 2.41853C8.72514 2.44431 8.8121 2.54316 8.96642 2.57671C9.1186 2.60702 9.20151 2.56947 9.23455 2.55817C9.28098 2.53817 9.27137 2.5194 9.27448 2.51849C9.27541 2.51802 9.28326 2.54611 9.27015 2.55834C9.25754 2.56995 9.21274 2.57637 9.17611 2.61608C9.14859 2.64575 9.12137 2.68741 9.10314 2.71467C9.0961 2.72539 9.09068 2.7335 9.0879 2.73659C9.0766 2.74937 9.04614 2.73431 9.03537 2.74728C9.00129 2.78746 8.93318 2.91802 8.89106 2.97504C8.84529 3.03646 8.80452 3.06171 8.78843 3.0821C8.7738 3.10091 8.77746 3.14059 8.77056 3.14959C8.76016 3.16324 8.73253 3.14596 8.71906 3.16325C8.69681 3.192 8.69023 3.23296 8.6568 3.27619C8.0629 4.04969 7.47294 4.82909 6.88455 5.59522C6.81875 5.68114 6.8021 5.74252 6.69971 5.86602C6.69962 5.86613 6.69952 5.86624 6.69943 5.86636C6.65855 5.91548 6.64732 5.87409 6.62309 5.91823C6.61228 5.93798 6.63688 5.94882 6.62126 5.97251C6.552 6.07735 6.44688 6.1809 6.41566 6.22477C6.40324 6.24213 6.41311 6.27939 6.3876 6.31539C6.19782 6.58347 5.96367 6.89376 5.76159 7.1834C5.65384 7.33778 5.5018 7.57531 5.37767 7.75161C5.03563 8.23746 4.65883 8.75168 4.34574 9.19446C3.87373 9.86173 3.42307 10.5404 2.92236 11.1858C3.20292 10.9169 3.5002 10.4901 3.75352 10.1489C4.48539 9.16293 5.21177 8.07551 5.94782 7.05638C6.19218 6.718 6.49865 6.29105 6.7819 5.9257C6.79467 5.90922 6.80734 5.89292 6.81991 5.87682C6.83332 5.85961 6.84123 5.80969 6.87047 5.77361C6.87615 5.76675 6.98387 5.68983 7.00818 5.65717C6.92474 5.64537 7.07452 5.55234 7.10262 5.5108C7.13752 5.45898 7.18572 5.32987 7.29093 5.22177C7.38519 5.12527 7.38696 5.17131 7.39265 5.16657C7.43044 5.13465 7.40306 5.09401 7.42079 5.06197C7.49304 4.9312 7.9712 4.3296 8.10008 4.16212C8.13391 4.11776 8.1581 4.1344 8.16565 4.12452C8.18535 4.09865 8.19037 4.04384 8.22228 4.0019C8.27928 3.92708 8.36748 3.85674 8.3991 3.81546C8.47475 3.71658 8.59166 3.51103 8.69032 3.38459C8.71794 3.34913 8.73963 3.37092 8.75247 3.35447C8.80726 3.2837 8.92316 3.08167 8.99229 2.99857C9.05386 2.92395 9.12148 2.85356 9.18505 2.78785C9.23626 2.73487 9.28611 2.68402 9.3191 2.64668C9.33366 2.65163 9.34716 2.65769 9.36032 2.66415C9.35698 2.64792 9.35258 2.63293 9.34629 2.61965C9.35059 2.61594 9.35587 2.62286 9.27984 2.65745C9.24065 2.67305 9.1702 2.70049 9.05111 2.69813C8.93264 2.69811 8.78919 2.64048 8.71972 2.58587C8.57977 2.47235 8.59662 2.44742 8.59444 2.45181C8.59861 2.45635 8.6146 2.48542 8.6322 2.51962C8.7002 2.65148 8.77259 2.79474 8.8389 2.93827C8.85426 2.97209 8.91122 3.15235 8.92512 3.18071C8.93645 3.20409 8.97801 3.21248 8.99062 3.24944C9.0084 3.30111 8.92812 3.28374 8.98419 3.35537C8.99939 3.3747 9.01352 3.34157 9.04274 3.38073C9.05156 3.39382 9.20389 3.66388 9.21105 3.67932C9.22132 3.70532 9.18144 3.75536 9.18376 3.76231C9.19094 3.78385 9.20766 3.78453 9.2233 3.78572C9.23398 3.78652 9.24417 3.78758 9.25057 3.79578C9.29707 3.85523 9.31963 3.95639 9.32646 3.96678C9.40744 4.09344 9.58504 4.31162 9.65257 4.45065C9.66189 4.47013 9.63249 4.48665 9.63366 4.4904C9.64142 4.51466 9.68125 4.50532 9.69487 4.524C9.76745 4.62473 9.8547 4.79456 9.92067 4.8973C9.92854 4.9095 9.9601 4.92179 9.97339 4.9432C10.0475 5.06287 9.99703 5.04346 10.0006 5.05067C10.0096 5.06825 10.055 5.07505 10.0866 5.11439C10.1677 5.21554 10.3116 5.41393 10.393 5.5238C10.4539 5.60643 10.4235 5.62791 10.4269 5.63361C10.4344 5.6455 10.4826 5.65915 10.5265 5.7102C10.6107 5.80766 10.5792 5.81477 10.6124 5.8553C10.6152 5.85886 10.6328 5.83481 10.6718 5.87968C10.719 5.93408 10.7899 6.04023 10.8566 6.1363C10.8939 6.19026 10.9312 6.24263 10.959 6.27671C10.9882 6.31245 11.0166 6.30367 11.047 6.34086C11.0948 6.39918 11.1786 6.55125 11.1868 6.56124C11.1892 6.56417 11.2193 6.55073 11.2332 6.568C11.2485 6.58701 11.2509 6.61612 11.2625 6.63036C11.3271 6.70976 11.483 6.81363 11.3634 6.84668C11.406 6.85463 11.4487 6.86269 11.4915 6.87087C11.6235 7.04211 11.7652 7.19747 11.9056 7.35926C11.9371 7.39554 11.9463 7.44056 11.973 7.47121C11.9993 7.50157 12.1414 7.61755 12.1608 7.63989C12.1957 7.68041 12.3929 7.91179 12.4151 7.94216C12.4586 8.00192 12.4685 8.08709 12.4948 8.10417C12.5159 8.11789 12.5219 8.08382 12.5572 8.11424C12.6182 8.167 12.679 8.29225 12.6951 8.31056C12.7019 8.31835 12.7052 8.29026 12.7689 8.36362C12.8032 8.40313 12.804 8.43928 12.8163 8.45374C12.8202 8.45818 12.8427 8.42764 12.9058 8.51004C12.9493 8.56698 12.9473 8.60864 12.9521 8.61444C12.9592 8.62317 13 8.62429 13.0285 8.65956C13.0949 8.74205 13.1938 8.91198 13.2573 8.99026C13.2696 9.0054 13.2932 8.97661 13.341 9.03769C13.3752 9.08136 13.3467 9.09291 13.3594 9.10953C13.3796 9.13581 13.4387 9.14993 13.4852 9.20569C13.5431 9.27646 13.9622 9.81501 13.9789 9.84735C13.9898 9.86957 14.0077 9.89056 14.0036 9.90986C13.9855 9.91232 13.9674 9.91477 13.9493 9.9172C13.9199 9.80295 13.9023 9.87519 13.881 9.85692C13.8506 9.83079 13.7562 9.71094 13.7223 9.69258C13.7101 9.68594 13.7053 9.72985 13.6466 9.68784C13.5834 9.64238 13.6054 9.57964 13.5262 9.60867C13.5224 9.47053 13.385 9.45371 13.4471 9.56356C13.4809 9.62489 13.9041 10.1569 13.9938 10.2638C14.0666 10.3518 14.2237 10.4923 14.3138 10.6008C14.3466 10.6405 14.4154 10.72 14.4484 10.7748C14.4677 10.8063 14.4764 10.8307 14.4633 10.8386C14.5091 10.8962 14.4873 10.8108 14.502 10.8182C14.5325 10.8337 14.6657 11.0201 14.6976 11.0522C14.8481 11.2052 15.0692 11.3681 15.1801 11.5554C15.1652 11.5563 15.1503 11.5572 15.1354 11.558C15.0864 11.5381 14.9559 11.3615 14.8994 11.3801C15.1215 11.611 15.3497 11.8401 15.5909 12.0671C15.6159 12.0295 15.9204 12.309 15.9236 12.3371C15.9034 12.3488 15.8831 12.3605 15.8627 12.3722C15.7429 12.1525 15.6841 12.2483 15.6094 12.0983C15.5642 12.0547 15.5528 12.0943 15.525 12.0777C15.2529 11.9136 15.5729 12.0203 15.3802 11.8798C15.3935 11.967 15.2425 11.8473 15.1762 11.7904C15.1618 11.7787 14.9897 11.5857 14.9694 11.5656C14.8471 11.4476 14.6255 11.2568 14.5335 11.115C14.4508 11.0211 14.3769 10.9924 14.2933 10.9167C14.29 10.9137 14.2867 10.9107 14.2834 10.9075C14.2183 10.8461 14.2551 10.8469 14.2268 10.8153C14.1672 10.7485 14.0885 10.7824 14.1341 10.6641C14.0829 10.6283 14.0336 10.5945 13.9827 10.5588C13.9958 10.547 14.0089 10.5353 14.022 10.5236C13.9965 10.495 13.9723 10.468 13.9473 10.4399C13.9269 10.4433 13.9065 10.4467 13.886 10.4501C13.8243 10.3446 13.8897 10.3543 13.9121 10.3046C13.8977 10.2833 13.8834 10.2619 13.8689 10.2405C13.8272 10.2509 13.7853 10.2613 13.7435 10.2716C13.6705 10.1843 13.5973 10.0961 13.5245 10.0081C13.5328 9.991 13.5411 9.97389 13.5495 9.95678C13.5361 9.96812 13.5228 9.97946 13.5094 9.9908C13.3799 9.84803 13.2508 9.70449 13.1224 9.56081C13.0677 9.54047 13.2531 9.78802 13.2675 9.80697C13.3453 9.9113 13.5949 10.154 13.5481 10.1951C13.6371 10.2261 13.7898 10.4165 13.7993 10.511C13.7247 10.4221 13.6504 10.3329 13.5768 10.2442C13.5636 10.2608 13.5503 10.2774 13.5371 10.2941C13.5049 10.1296 13.4882 10.1175 13.3308 10.0585C13.3519 10.04 13.373 10.0214 13.3941 10.0029C13.2526 9.98928 13.2588 9.74356 13.1642 9.81837C13.1355 9.77023 13.1076 9.72301 13.0792 9.67504C12.9909 9.59483 13.0399 9.79494 12.7667 9.42011C12.748 9.39424 12.7756 9.37928 12.7429 9.34428C12.7335 9.33426 12.6482 9.30312 12.5539 9.18498C12.5392 9.16654 12.5584 9.14794 12.5451 9.12711C12.5146 9.07883 12.4018 9.02705 12.5003 9.01053C12.3751 8.82376 12.3811 8.93988 12.3149 8.90497C12.2709 8.88162 12.3158 8.85599 12.2812 8.83283C12.2384 8.80415 12.2225 8.86501 12.1131 8.69803C12.13 8.71282 12.147 8.72761 12.164 8.74241C12.1674 8.72489 12.1709 8.70737 12.1743 8.68986C12.0761 8.62472 12.1204 8.6016 12.0261 8.61089C12 8.5254 11.9566 8.46919 11.8797 8.38683C11.7305 8.22704 11.7372 8.3669 11.6653 8.10254C11.6272 8.08158 11.5893 8.06078 11.5513 8.03984C11.5347 7.96715 11.6012 7.98187 11.5447 7.90012C11.5302 8.01253 11.4205 7.83231 11.341 7.85167C11.3522 7.83763 11.3634 7.8236 11.3747 7.80957C11.3606 7.79249 11.3466 7.77544 11.3326 7.75843C11.3217 7.76733 11.3107 7.77623 11.2998 7.78513C11.2894 7.75583 11.2785 7.72595 11.268 7.69647C11.2431 7.68816 11.2182 7.67988 11.1934 7.67164C11.1932 7.62495 11.1928 7.5779 11.1924 7.53089C11.1795 7.51184 11.1665 7.49284 11.1537 7.4739C11.142 7.49277 11.1303 7.51166 11.1186 7.53055C11.1054 7.50328 11.0925 7.47641 11.0792 7.44903C11.0744 7.49755 11.0292 7.50613 10.9719 7.43418C10.9247 7.37484 11.0348 7.39626 10.9085 7.28826C10.8994 7.28052 10.8476 7.29817 10.7439 7.18272C10.6209 7.04558 10.7058 7.09151 10.6861 7.0651C10.6822 7.05988 10.6263 7.03172 10.5906 6.99318C10.5705 6.97159 10.5681 6.93528 10.5656 6.9323C10.5531 6.91832 10.5267 6.93252 10.5098 6.91311C10.4675 6.86444 10.423 6.78563 10.3824 6.73718C10.3643 6.71547 10.3327 6.70383 10.3245 6.6939C10.3117 6.67809 10.3166 6.64143 10.304 6.62563C10.2961 6.61592 10.2857 6.60692 10.2742 6.59821C10.2149 6.55227 10.1293 6.51548 10.1907 6.42787C10.0567 6.44066 10.0697 6.23553 10.0171 6.29131C9.91948 6.12175 9.52471 5.75676 9.63573 5.69097C9.48132 5.66657 9.54934 5.62559 9.52014 5.58907C9.48696 5.54731 9.48621 5.58181 9.46162 5.5469C9.40442 5.46557 9.35508 5.38235 9.29648 5.29966C9.31993 5.30244 9.34344 5.30528 9.36702 5.30818C9.3094 5.2181 9.29786 5.272 9.22859 5.18744C9.10097 5.02962 9.17619 5.08026 9.1969 5.02998C9.1656 5.06326 9.03448 4.85722 9.0257 4.83209C9.02047 4.81744 9.10397 4.84185 9.00605 4.72473C8.99595 4.7414 8.98562 4.75768 8.97542 4.77416C8.95757 4.70352 8.83072 4.55749 8.8189 4.52576C8.81323 4.51118 8.89341 4.37071 8.76035 4.36419C8.77102 4.34772 8.78175 4.33132 8.79254 4.31498C8.73384 4.25559 8.67608 4.19567 8.6198 4.13674C8.63079 4.12346 8.6418 4.11021 8.65284 4.097C8.66354 4.08417 8.67426 4.07137 8.68499 4.05859C8.67324 4.03698 8.6616 4.01542 8.65001 3.99381C8.63299 4.02135 8.61613 4.04912 8.59926 4.0768C8.53756 3.93676 8.4147 3.79328 8.48524 3.72321C8.45519 3.70267 8.42516 3.68196 8.3953 3.66137C8.41408 3.62862 8.43318 3.5964 8.45217 3.5639C8.38065 3.43653 8.36109 3.44368 8.28804 3.36883C8.31185 3.36176 8.33566 3.35468 8.35947 3.34759C8.2969 3.29678 8.21176 3.19114 8.16522 3.10074C8.14298 3.05751 8.13968 2.96945 8.13239 2.96093C8.12447 2.95142 7.95918 2.91004 8.05915 2.85229C8.04331 2.8355 8.03032 2.81988 8.01984 2.8058C7.97362 2.72566 7.95943 2.75689 8.24448 3.04049C8.47096 3.26674 8.98322 3.45603 9.37444 3.34369C9.85109 3.185 9.7446 3.14325 9.78231 3.1388C9.78722 3.1361 9.80472 3.15649 9.80545 3.15699C9.80061 3.16736 9.78923 3.13962 9.76792 3.16377C9.76564 3.16657 9.76956 3.2095 9.7355 3.24081C9.73043 3.24544 9.72122 3.25081 9.70997 3.25685C9.68127 3.27156 9.63918 3.29029 9.6361 3.29397C9.61634 3.31794 9.68973 3.34517 9.55572 3.37144C9.56847 3.37809 9.58121 3.38476 9.59393 3.39146C9.53555 3.5163 9.47235 3.49575 9.45135 3.51439C9.44888 3.51685 9.44632 3.5583 9.43048 3.57259C9.40441 3.59574 9.36981 3.58594 9.36375 3.59114C9.34208 3.60992 9.29627 3.6906 9.23301 3.71914C9.31447 3.76779 9.20863 3.95704 9.09453 3.93037C9.0876 3.97368 9.08021 4.01767 9.07356 4.06083C9.04895 4.06397 9.02422 4.06729 8.99937 4.07078C9.0066 4.09013 9.01428 4.10889 9.02169 4.12801C8.95675 4.14931 8.89147 4.17123 8.82615 4.19336C8.85468 4.21968 8.8832 4.24599 8.91173 4.2723C8.89838 4.28259 8.88528 4.29256 8.87227 4.30244C8.84035 4.29371 8.80838 4.28505 8.77636 4.27647C8.76893 4.29597 8.76137 4.31566 8.75376 4.33544C8.76853 4.35273 8.78331 4.37002 8.79808 4.38732C8.75405 4.48817 8.61781 4.31663 8.64283 4.5935C8.60985 4.60829 8.57662 4.62343 8.54315 4.63893C8.58911 4.7198 8.50826 4.74178 8.48239 4.79255C8.46465 4.82768 8.4934 4.84577 8.46248 4.88858C8.43146 4.93155 8.40645 4.91092 8.40383 4.9141C8.37651 4.94753 8.38049 4.9901 8.35694 5.01232C8.35339 5.01568 8.31543 5.0023 8.2891 5.03376C8.26347 5.0643 8.28207 5.10793 8.23986 5.15207C8.21815 5.17488 8.18688 5.16269 8.1685 5.18276C8.07991 5.27931 8.13382 5.48302 7.9195 5.44608C7.92627 5.47851 7.90134 5.65849 7.85658 5.71131C7.78688 5.79316 7.78076 5.73687 7.75006 5.76702C7.74565 5.77127 7.73683 5.80518 7.68188 5.87653C7.67219 5.88909 7.69177 5.89884 7.69066 5.90084C7.62916 5.98437 7.49518 6.13946 7.4256 6.23001C7.41987 6.2374 7.43367 6.30291 7.34609 6.33532C7.33749 6.33839 7.3279 6.34113 7.31718 6.34344C7.28659 6.48718 7.03279 6.61882 7.00141 6.81581C6.98832 6.83715 6.95328 6.84893 6.94757 6.85808C6.89814 6.93783 6.9707 6.94879 6.76874 7.06529C6.80577 7.07085 6.80113 7.12859 6.7576 7.18459C6.69218 7.26877 6.68618 7.17102 6.64059 7.2429C6.65479 7.25315 6.669 7.26339 6.68321 7.27364C6.53005 7.4055 6.56854 7.48019 6.45367 7.64046C6.41269 7.69756 6.31982 7.76018 6.30976 7.77398C6.30608 7.77929 6.2954 7.86646 6.29133 7.87268C6.26809 7.90716 6.23853 7.91492 6.21738 7.94416C6.14761 8.04049 6.10974 8.18739 6.0436 8.10848C6.04157 8.14739 6.03946 8.18643 6.03769 8.22499C5.87958 8.26253 5.94423 8.42426 5.84548 8.38442C5.85002 8.41472 5.85455 8.44505 5.85906 8.47541C5.54132 8.89971 5.22423 9.32397 4.90752 9.74822C4.92229 9.78478 4.77832 9.9658 4.76724 9.9724C4.71649 10.003 4.69093 9.91397 4.63971 10.0141C4.65842 10.0427 4.67707 10.0713 4.69584 10.0997C4.62333 10.2189 4.6365 10.1461 4.58697 10.1783C4.57678 10.1993 4.60118 10.2076 4.58451 10.234C4.49418 10.3773 4.29385 10.6597 4.188 10.8114C4.16672 10.842 4.15121 10.824 4.14444 10.8334C4.12613 10.8594 4.1133 10.9274 4.07612 10.9795C3.84652 11.3007 3.50819 11.7466 3.25735 12.0562C3.24027 12.0772 3.21593 12.0639 3.20422 12.078C3.18807 12.0975 3.17347 12.1563 3.15615 12.1766C3.1399 12.1957 3.11358 12.1966 3.09604 12.217C3.01553 12.3102 2.94871 12.4647 2.82236 12.5357C2.81174 12.5417 2.64181 12.5892 2.63409 12.5875C2.5884 12.5773 2.60415 12.4386 2.43634 12.5652C2.49559 12.3873 2.38382 12.3764 2.20993 12.5383C2.26772 12.4361 2.32558 12.3339 2.38336 12.2318C2.37406 12.2249 2.36477 12.2181 2.35548 12.2113C2.24725 12.2645 2.17048 12.3394 2.07235 12.4679C2.06658 12.4576 2.06081 12.4473 2.05504 12.437C2.09448 12.2898 2.18644 12.1439 2.19029 12.0131C2.05385 12.1116 1.91737 12.2101 1.78093 12.3086C1.7787 12.2972 1.77647 12.2858 1.77424 12.2745C1.80079 12.1996 1.8873 12.0561 1.90754 11.9926C1.98496 11.7502 1.73697 12.1316 1.74169 12.0432C1.89168 11.8359 2.04172 11.6285 2.19171 11.4212C2.16853 11.3935 1.51813 12.1391 1.43819 12.0696C1.47913 12 1.52006 11.9304 1.56103 11.8608C1.51839 11.8744 1.47575 11.888 1.43312 11.9017C1.43195 11.8887 1.43078 11.8757 1.42961 11.8628C1.4915 11.7401 1.55331 11.6176 1.61522 11.495C1.39263 11.8431 1.26893 11.9904 1.03976 11.9483C1.04189 11.9361 1.04401 11.9239 1.04614 11.9117C1.20552 11.9155 1.41571 11.5473 1.52455 11.3494C1.46656 11.3641 1.37616 11.5423 1.33304 11.5627C1.32075 11.5685 1.32284 11.5193 1.29575 11.5336C1.2251 11.5712 1.01052 11.7929 1.00065 11.7314C0.994324 11.6918 1.24801 11.2697 1.30603 11.1935C1.13454 11.3469 0.98835 11.5267 0.80766 11.6743C0.820473 11.509 0.808284 11.3456 0.955106 11.1318C0.964419 11.0414 0.59495 11.4522 0.567594 11.4484C0.601352 11.3557 0.635117 11.2631 0.66889 11.1705C0.627928 11.24 0.586957 11.3095 0.546009 11.379C0.538717 11.3741 0.531425 11.3692 0.524133 11.3643C0.611815 11.1711 0.661502 10.9725 0.804004 10.7814C0.761693 10.7607 0.682669 10.8794 0.64212 10.9356ZM14.5244 11.2613C14.5002 11.2918 14.441 11.2193 14.4076 11.1823C14.4077 11.1926 14.4077 11.203 14.4077 11.2134C14.3522 11.1452 14.2594 11.0285 14.1932 11.0083C14.1776 11.0039 14.1636 11.0049 14.1519 11.0137C14.0931 10.963 14.1641 10.9443 14.1528 10.9209C14.1482 10.9115 14.0523 10.8623 14.0326 10.7715C14.0196 10.7574 14.0063 10.7429 13.9935 10.729C13.9728 10.7427 13.9521 10.7564 13.9314 10.7701C13.9359 10.7305 13.9404 10.6909 13.9448 10.6512C14.0415 10.755 14.1416 10.8617 14.2401 10.9654C14.335 11.0654 14.4275 11.1617 14.5242 11.261C14.5242 11.2611 14.5243 11.2612 14.5244 11.2613ZM12.6724 9.21382C12.6182 9.12881 12.5361 8.99808 12.5047 9.06506C12.5483 9.11095 12.5918 9.15672 12.6353 9.20242C12.6476 9.20623 12.66 9.21003 12.6724 9.21382ZM8.78302 4.14635C8.68123 4.17085 8.68246 4.26386 8.59742 4.35682C8.60868 4.3651 8.61995 4.37338 8.63121 4.38166C8.63564 4.31998 8.73427 4.22652 8.78302 4.14635ZM16.6413 12.8647C16.6539 12.8804 16.6661 12.8958 16.6792 12.9119C16.5977 12.922 16.5889 12.8959 16.5575 12.8623C16.5476 12.8514 16.5339 12.8388 16.515 12.8269C16.5104 12.824 16.5015 12.8389 16.5 12.8379C16.4811 12.8252 16.4773 12.7964 16.4605 12.784C16.4288 12.7606 16.3898 12.7574 16.334 12.7128C16.2904 12.6778 16.3113 12.6521 16.2953 12.6405C16.2825 12.6316 16.0965 12.598 16.0425 12.5002C15.9525 12.3423 16.4192 12.7063 16.587 12.8226C16.6156 12.8438 16.6351 12.8588 16.6413 12.8647ZM17.0646 13.2363C17.0542 13.2296 17.0429 13.2223 17.0299 13.214C17.0956 13.1968 17.018 13.1547 16.938 13.1018C16.9701 13.0655 17.1085 13.1817 17.144 13.1901C17.1174 13.2053 17.0913 13.221 17.0646 13.2363ZM15.2877 11.6264C15.3412 11.6728 15.291 11.7084 15.2758 11.7188C15.259 11.702 15.2436 11.6867 15.2272 11.6703C15.2474 11.6557 15.2675 11.641 15.2877 11.6264ZM15.6938 11.9909C15.6492 12.0058 15.5206 11.9088 15.4651 11.8594C15.4628 11.8572 15.4932 11.8552 15.4537 11.8197C15.4424 11.8099 15.273 11.7587 15.3632 11.7164C15.4716 11.8086 15.5816 11.9002 15.6937 11.9908C15.6937 11.9908 15.6938 11.9909 15.6938 11.9909ZM15.7957 12.1185C15.7644 12.1075 15.7335 12.0965 15.7027 12.0856C15.7044 12.0608 15.7061 12.0359 15.7078 12.011C15.7367 12.0313 15.7645 12.0505 15.7931 12.0702C15.794 12.0863 15.7948 12.1024 15.7957 12.1185ZM4.33802 9.7136C4.35864 9.72033 4.37926 9.72706 4.39988 9.73379C4.42492 9.72057 4.42285 9.56858 4.38612 9.58997C4.37013 9.63112 4.3541 9.67233 4.33802 9.7136ZM4.00138 10.11C3.97804 10.1247 3.95469 10.1394 3.93133 10.1542C3.94278 10.1985 3.95425 10.2429 3.9658 10.2871C4.0592 10.197 4.1603 10.1024 4.06335 10.0601C4.08031 10.0364 4.09715 10.0128 4.11418 9.98899C4.13465 10.0339 4.14808 10.0394 4.21467 9.99291C4.17596 9.94468 4.24664 9.89795 4.28838 9.81704C4.24744 9.86834 4.20639 9.91978 4.16526 9.97136C4.15671 9.96526 4.14817 9.95916 4.13963 9.95305C4.22812 9.83576 4.06759 9.94586 4.0463 10.0474C4.03057 10.0454 4.01483 10.0434 3.99908 10.0414C3.99985 10.0643 4.00062 10.0871 4.00138 10.11ZM8.76046 3.25869C8.76154 3.23669 8.7629 3.21521 8.76408 3.19329C8.60821 3.18617 8.79033 3.26506 8.74082 3.41027C8.79901 3.34166 8.86938 3.49104 8.87888 3.49702C8.8952 3.46761 8.91142 3.4379 8.92791 3.40865C8.87172 3.35894 8.81594 3.30897 8.76046 3.25869ZM8.62018 2.73672C8.59663 2.79416 8.52923 2.6881 8.48127 2.59016C8.45622 2.53805 8.44589 2.51539 8.46381 2.53586C8.47097 2.54131 8.55258 2.59928 8.63506 2.66691C8.66995 2.71137 8.7253 2.7629 8.80087 2.80622C8.82489 2.80267 8.95313 2.8447 9.101 2.83519C9.24895 2.82682 9.34807 2.78155 9.39074 2.76447C9.47517 2.72589 9.45251 2.75942 9.45308 2.77957C9.43884 2.7689 9.4241 2.75872 9.40902 2.74891C9.40293 2.76437 9.39467 2.78245 9.38514 2.80233C9.37437 2.78836 9.36373 2.77425 9.35305 2.7602C9.35715 2.78609 9.36126 2.81223 9.36498 2.83901C9.33559 2.90528 9.29495 2.80878 9.27994 2.86975C9.27973 2.87055 9.27954 2.87134 9.27937 2.87212C9.27278 2.90489 9.29739 2.91145 9.32613 2.9139C9.35454 2.91546 9.3857 2.91468 9.39831 2.9274C9.42336 2.88488 9.47462 2.80239 9.48243 2.79542C9.46903 2.80178 9.58833 2.80519 9.4188 2.8229C9.37666 2.85923 9.26948 2.96123 8.97245 2.95562C8.69552 2.91384 8.50836 2.7269 8.46802 2.65533C8.41679 2.57402 8.42544 2.54897 8.43495 2.53952C8.41308 2.55053 8.3921 2.56317 8.37171 2.57708C8.3694 2.57731 8.39487 2.58885 8.42785 2.61512C8.45104 2.63227 8.4733 2.64614 8.47908 2.64015C8.45888 2.70766 8.49823 2.81372 8.54807 2.92705C8.56507 2.93211 8.58214 2.93728 8.59926 2.94257C8.52301 2.84635 8.59604 2.90214 8.60434 2.85941C8.60899 2.83447 8.6094 2.76641 8.62018 2.73672ZM4.76485 9.02471C4.69957 9.2185 4.73023 9.091 4.60753 9.26247C4.64182 9.26888 4.6761 9.27531 4.71037 9.28174C4.72349 9.16414 4.85411 9.04765 4.76497 9.02455C4.76493 9.0246 4.76489 9.02466 4.76485 9.02471ZM3.65149 10.7631C3.70055 10.6615 3.62823 10.6782 3.69755 10.554C3.69759 10.5539 3.69762 10.5539 3.69766 10.5538C3.65232 10.6112 3.60681 10.6689 3.56159 10.7261C3.59156 10.7385 3.62153 10.7508 3.65149 10.7631ZM7.42143 5.4555C7.49561 5.37735 7.46365 5.37937 7.55978 5.33129C7.59719 5.17945 7.53165 5.2831 7.48791 5.25125C7.48117 5.28728 7.47501 5.32254 7.46835 5.35851C7.38034 5.39308 7.40456 5.31686 7.40062 5.31402C7.40058 5.31407 7.40054 5.31413 7.4005 5.31418C7.38739 5.30459 7.38619 5.30044 7.36013 5.31942C7.38064 5.36467 7.40066 5.4106 7.42143 5.4555ZM7.63701 5.04849C7.64428 5.09926 7.67197 5.13944 7.74701 5.07633C7.74705 5.07627 7.74709 5.07622 7.74713 5.07617C7.68662 5.0229 7.79395 4.98646 7.81424 4.94989C7.8137 4.93592 7.81314 4.92197 7.81257 4.90805C7.75453 4.95412 7.69502 5.00227 7.63701 5.04849ZM8.53379 3.72679C8.60454 3.78031 8.56305 3.8482 8.69574 3.80962C8.70778 3.79136 8.71966 3.77333 8.7314 3.75553C8.72439 3.73273 8.71786 3.70935 8.71121 3.68612C9.00495 3.57008 8.83987 3.33585 8.63725 3.76464C8.63726 3.76473 8.63726 3.76482 8.63727 3.76491C8.60283 3.75212 8.56813 3.73969 8.53379 3.72679ZM8.24533 4.11882C8.28045 4.14961 8.31556 4.18039 8.35068 4.21117C8.22447 4.19205 8.26284 4.31937 8.12688 4.36886C8.13181 4.38592 8.13672 4.403 8.14161 4.42012C8.08918 4.4378 7.8191 4.78669 7.93343 4.75288C7.98394 4.73721 8.00357 4.63947 8.00891 4.63389C8.02781 4.61433 8.08077 4.61012 8.10544 4.57309C8.11934 4.55208 8.11486 4.47937 8.14633 4.43737C8.21721 4.34269 8.44687 4.24696 8.44471 4.05201C8.46266 4.05157 8.48057 4.05118 8.49844 4.05085C8.56009 3.95551 8.50271 3.95747 8.60869 3.90604C8.4774 3.71281 8.3588 4.25315 8.27895 4.06177C8.27891 4.06182 8.27887 4.06187 8.27883 4.06193C8.26778 4.08072 8.25637 4.10001 8.24533 4.11882ZM6.41448 6.72862C6.37832 6.71084 6.34931 6.85574 6.29062 6.77443C6.29185 6.82936 6.29235 6.8853 6.2939 6.93981C6.30127 6.94472 6.30864 6.94963 6.31601 6.95453C6.33557 6.91553 6.35611 6.87516 6.37596 6.83578C6.38744 6.84386 6.39892 6.85194 6.4104 6.86002C6.40698 6.77795 6.58451 6.57001 6.61956 6.60643C6.61089 6.58258 6.60258 6.55825 6.59411 6.53413C6.71683 6.462 6.73328 6.33561 6.86097 6.25452C6.85321 6.23559 6.84563 6.21641 6.83805 6.19723C6.85364 6.19964 6.86923 6.20206 6.88481 6.20448C6.91671 6.16351 6.94834 6.12293 6.97971 6.08274C6.98092 6.07881 6.98197 6.0751 6.98286 6.0716C6.99831 6.0126 6.96969 6.01064 6.92845 6.03209C6.86667 6.06332 6.77511 6.14967 6.7652 6.1717C6.76308 6.1766 6.793 6.19724 6.77849 6.22698C6.75283 6.27939 6.53085 6.52437 6.49186 6.61932C6.47181 6.60591 6.45176 6.59249 6.43171 6.57908C6.42611 6.62871 6.4201 6.67893 6.41448 6.72862ZM8.98313 3.30655C9.00675 3.31632 9.03033 3.32614 9.05387 3.33603C9.11078 3.22621 9.17491 3.18267 9.09286 3.15455C9.09282 3.1546 9.09278 3.15465 9.09274 3.1547C9.05579 3.20521 9.01996 3.25501 8.98313 3.30655ZM13.2864 9.3317C13.3212 9.29735 13.2949 9.23886 13.2165 9.20108C13.2082 9.2132 13.1999 9.2253 13.1917 9.23743C13.2503 9.24202 13.229 9.32845 13.3198 9.41916C13.3384 9.40315 13.357 9.38714 13.3756 9.37113C13.3457 9.35781 13.3161 9.34486 13.2864 9.3317ZM8.90888 3.38254C8.86351 3.39307 8.86641 3.53124 8.91295 3.47919C8.94879 3.43905 8.93318 3.37695 8.90888 3.38254ZM3.35805 11.0926C3.37899 11.0721 3.39991 11.0516 3.42083 11.0311C3.41256 11.0068 3.40429 10.9824 3.39601 10.9581C3.39597 10.9581 3.39594 10.9582 3.3959 10.9582C3.38331 11.003 3.37069 11.0478 3.35805 11.0926ZM7.21006 5.75195C7.26581 5.67025 7.31955 5.5914 7.37513 5.51015C7.36472 5.50134 7.3543 5.49253 7.34388 5.48372C7.32624 5.59206 7.25994 5.59213 7.24403 5.60838C7.24409 5.6083 7.24415 5.60822 7.24421 5.60814C7.19273 5.66041 7.14459 5.71302 7.09128 5.75861C7.13096 5.75627 7.17055 5.75405 7.21006 5.75195ZM6.94449 5.97107C7.03209 6.01411 7.05344 6.00371 7.08685 5.8428C7.07377 5.84066 7.06068 5.83853 7.04758 5.83641C7.00751 5.90352 6.99937 5.95251 6.96668 5.91218C6.95933 5.93174 6.95193 5.95137 6.94449 5.97107ZM7.86927 4.76015C7.83448 4.75566 7.77379 4.88956 7.79129 4.89186C7.79759 4.89359 7.93852 4.76745 7.86927 4.76015ZM14.0247 10.1465C14.0078 10.1169 13.9908 10.0871 13.9738 10.0571C14.0113 10.0839 14.0486 10.1104 14.0858 10.1365C14.0654 10.1399 14.0451 10.1432 14.0247 10.1465ZM14.3713 10.3298C14.3782 10.3558 14.2616 10.3555 14.3409 10.477C14.2699 10.4009 14.1987 10.3241 14.1286 10.2482C14.1717 10.2755 14.2136 10.3015 14.2572 10.3292C14.27 10.3063 14.2828 10.2833 14.2956 10.2604C14.321 10.2837 14.3462 10.3069 14.3713 10.3298ZM14.399 10.4552C14.41 10.3696 14.6123 10.5856 14.6245 10.6104C14.6248 10.611 14.6248 10.6121 14.6247 10.6136C14.624 10.6271 14.6105 10.6733 14.61 10.687C14.6001 10.6762 14.5901 10.6654 14.5801 10.6544C14.56 10.6325 14.5397 10.6104 14.5193 10.588C14.5178 10.6097 14.5163 10.6313 14.5147 10.6529C14.4759 10.6183 14.4353 10.5816 14.3971 10.5474C14.4237 10.5533 14.4501 10.559 14.4771 10.5653C14.4504 10.528 14.4253 10.4923 14.399 10.4552ZM13.6064 9.58186C13.6292 9.61068 13.6525 9.63999 13.6756 9.66906C13.6893 9.64736 13.7029 9.62566 13.7166 9.60396C13.702 9.58722 13.6872 9.57023 13.6729 9.5537C13.6507 9.56309 13.6286 9.57248 13.6064 9.58186ZM14.1285 10.1292C14.0045 10.1675 14.1 9.88566 14.1425 10.078C14.1467 10.0973 14.1404 10.1254 14.1285 10.1292ZM14.6896 10.7022C14.8316 10.7291 14.6735 10.8383 14.6407 10.7204C14.6391 10.7144 14.679 10.7001 14.6896 10.7022ZM15.296 11.3374C15.3021 11.3446 15.2709 11.4009 15.376 11.4238C15.3817 11.4394 15.3877 11.4554 15.3934 11.4711C15.3474 11.4663 15.124 11.2623 15.197 11.2494C15.23 11.2821 15.2646 11.3027 15.296 11.3374ZM15.258 10.9711C15.2265 10.9407 15.1929 10.908 15.162 10.8778C15.1581 10.9018 15.1537 10.9251 15.1503 10.9495C15.131 10.9369 15.1127 10.9252 15.0937 10.9128C15.0924 10.863 15.0895 10.8115 15.089 10.7624C15.1592 10.8293 15.23 10.8962 15.3003 10.9618C15.2863 10.965 15.2722 10.9681 15.258 10.9711ZM14.4933 10.0713C14.5324 10.1514 14.6211 10.2118 14.7102 10.3162C14.7102 10.3163 14.7102 10.3164 14.7102 10.3165C14.7147 10.3218 14.7034 10.3488 14.7177 10.3661C14.722 10.3713 14.7595 10.4074 14.8027 10.4508C14.8836 10.5323 14.9859 10.6398 14.9519 10.6459C14.8225 10.5655 14.8328 10.4858 14.7348 10.5267C14.7398 10.5175 14.7448 10.5083 14.7498 10.4992C14.7556 10.4889 14.7613 10.4787 14.7671 10.4684C14.7008 10.3417 14.6198 10.3607 14.5477 10.3208C14.5597 10.3104 14.5717 10.2999 14.5836 10.2895C14.5494 10.2492 14.5163 10.2101 14.4827 10.1702C14.4798 10.1826 14.4769 10.195 14.4741 10.2075C14.4618 10.1938 14.4495 10.18 14.4371 10.1662C14.4416 10.1007 14.4127 10.0519 14.4933 10.0713ZM15.3801 11.1352C15.4936 11.0802 15.7194 11.4257 15.8718 11.5353C15.7509 11.5198 15.6784 11.3788 15.6043 11.3035C15.461 11.1575 15.5292 11.2889 15.4909 11.2781C15.4722 11.2729 15.4457 11.136 15.3801 11.1352ZM14.2718 9.85387C14.331 9.93542 14.3888 9.95879 14.4135 10.053C14.4022 10.0534 14.3908 10.0539 14.3794 10.0543C14.3652 10.0265 14.2241 9.82886 14.2718 9.85387ZM16.0489 11.7457C15.9332 11.5788 15.9293 11.724 15.9111 11.5944C15.9633 11.637 16.0169 11.6802 16.0703 11.7226C16.0632 11.7303 16.0561 11.738 16.0489 11.7457ZM8.42088 3.27044C8.36946 3.33179 8.29713 3.38944 8.30448 3.4543C8.34243 3.41656 8.38212 3.37674 8.42059 3.33873C8.42079 3.31581 8.42088 3.29305 8.42088 3.27044ZM9.52463 2.73025C9.52657 2.70903 9.46644 2.65678 9.46319 2.64977C9.45715 2.63689 9.47314 2.63371 9.4768 2.63177C9.43467 2.54838 9.42666 2.64727 9.38773 2.58897C9.38102 2.57894 9.33492 2.42116 9.30555 2.36196C9.28325 2.31711 9.26233 2.27178 9.2447 2.23338C9.22645 2.19344 9.21157 2.16155 9.20229 2.14469C9.17036 2.0845 9.08282 2.00938 9.01909 2.06812C8.98858 2.08515 8.95917 2.07024 8.92622 2.09703C8.85703 2.15478 8.77635 2.24656 8.69331 2.34849C8.52716 2.55281 8.3499 2.79812 8.23775 2.91963C8.19578 2.96523 8.12933 2.98748 8.11196 3.01483C8.10749 3.04344 8.10283 3.07236 8.09796 3.10159C7.95001 3.08518 8.02229 3.17623 7.98026 3.25022C7.95255 3.29852 7.90844 3.29432 7.90387 3.30042C7.87522 3.33905 7.87472 3.36922 7.85455 3.40056C7.83155 3.4361 7.78088 3.47477 7.77444 3.48834C7.77058 3.49688 7.82789 3.50376 7.72837 3.63385C7.62674 3.76683 7.52342 3.89597 7.41962 4.03143C7.57467 4.07588 7.52116 3.97488 7.55816 3.9162C7.56827 3.90021 7.58031 3.92413 7.58926 3.91039C7.61462 3.87172 7.64806 3.78792 7.67566 3.76072C7.70519 3.73169 7.74081 3.77671 7.7558 3.72276C7.75656 3.72 7.73318 3.71291 7.73756 3.70072C7.78141 3.57963 7.83693 3.57225 7.93221 3.44909C7.99348 3.36781 8.35976 2.86097 8.38549 2.85565C8.5171 2.81739 8.11206 3.33282 8.06196 3.39063C8.04399 3.41042 8.04091 3.37281 8.02223 3.3892C8.01424 3.39642 7.99628 3.49929 7.94317 3.57587C7.87957 3.66743 7.71835 3.82668 7.65559 3.91253C7.23149 4.49224 6.80062 5.05453 6.37363 5.62928C6.25656 5.78692 6.13846 5.94741 6.02234 6.10774C6.01078 6.12373 6.01908 6.16161 5.98205 6.21284C5.28563 7.17562 4.55001 8.16298 3.8606 9.15042C3.71065 9.3652 3.58119 9.59313 3.40977 9.796C3.40776 9.83514 3.40594 9.87401 3.40405 9.91299C3.43903 9.83514 3.56777 9.73711 3.57638 9.72627C3.57948 9.72229 3.5786 9.68256 3.60942 9.6416C3.65294 9.58361 3.68814 9.56986 3.6916 9.56503C3.70234 9.55011 3.67747 9.54714 3.68776 9.53292C3.76442 9.42729 3.81858 9.34081 3.88808 9.24325C3.96672 9.13292 4.04032 9.10034 4.061 8.99423C4.08173 8.99537 4.10248 8.99646 4.12327 8.99751C4.10502 8.89279 4.36691 8.54127 4.47433 8.39824C4.508 8.35343 4.52727 8.37936 4.53822 8.36408C4.54512 8.35439 4.50978 8.33453 4.6019 8.21956C4.64825 8.16178 4.6832 8.16339 4.70409 8.13261C4.71544 8.11582 4.68987 8.10153 4.70681 8.07791C4.80441 7.94177 4.89205 7.83579 4.99171 7.70618C5.01994 7.66939 5.03994 7.68318 5.04572 7.67458C5.06712 7.64291 5.07197 7.56562 5.12843 7.48721C5.22165 7.35775 5.40604 7.10155 5.49863 7.00713C5.51217 6.99339 5.54502 6.99763 5.55284 6.98605C5.56459 6.96845 5.54475 6.94397 5.54678 6.94087C5.58812 6.88256 5.58596 6.93394 5.60833 6.89112C5.62037 6.86806 5.60795 6.82598 5.6395 6.77548C5.68099 6.70905 5.70566 6.74522 5.72159 6.71606C5.72311 6.71286 5.70052 6.69524 5.71873 6.66837C5.78754 6.56713 5.88653 6.41866 5.95453 6.32472C5.97416 6.29753 6.00436 6.28864 6.03178 6.25126C6.08707 6.17565 6.38972 5.73689 6.42422 5.70844C6.42784 5.70544 6.43446 5.76818 6.47734 5.70695C6.4773 5.70613 6.47725 5.7053 6.47721 5.70448C6.47607 5.67701 6.47488 5.64962 6.47365 5.6223C6.51806 5.60903 6.56231 5.596 6.6064 5.58321C6.52647 5.5278 6.64221 5.34323 6.72073 5.40433C6.7377 5.38786 6.75526 5.37061 6.77242 5.35391C6.74619 5.2733 6.78498 5.26311 6.80894 5.16187C6.83474 5.16225 6.8605 5.16268 6.88623 5.16315C6.8771 5.15187 6.86796 5.14058 6.85882 5.12929C6.94988 5.1336 6.93735 5.02137 6.94308 5.01282C6.96474 4.98037 6.99744 4.96845 7.00759 4.95354C7.04623 4.89737 7.11128 4.7637 7.16881 4.70636C7.17152 4.70375 7.19557 4.72594 7.21213 4.7102C7.24205 4.68178 7.20554 4.65106 7.28327 4.63984C7.27852 4.62262 7.27375 4.60542 7.26897 4.58825C7.28173 4.58318 7.29447 4.57815 7.30718 4.57314C7.34404 4.5169 7.38332 4.45747 7.42031 4.40125C7.42791 4.48355 7.49461 4.44506 7.50074 4.36404C7.50263 4.33683 7.46356 4.33324 7.46405 4.32407C7.46417 4.31218 7.66246 4.07423 7.69168 4.07154C7.69187 4.05364 7.69185 4.03603 7.69237 4.01771C7.71375 4.02438 7.73512 4.03107 7.75647 4.03778C7.7554 4.02688 7.75433 4.01599 7.75324 4.00512C7.82992 3.96461 7.88809 3.74554 7.91555 3.72052C7.93028 3.70703 7.99157 3.77511 8.04236 3.6929C8.02468 3.67531 8.00699 3.65773 7.98931 3.64015C7.99962 3.62071 8.01017 3.60097 8.0209 3.58103C8.04803 3.549 8.1178 3.52824 8.14263 3.544C8.13661 3.52294 8.13055 3.50193 8.12445 3.48098C8.19029 3.48904 8.28772 3.32916 8.30425 3.24912C8.3314 3.24235 8.35836 3.23586 8.38513 3.22965C8.38589 3.19458 8.38831 3.15746 8.38947 3.12201C8.42561 3.06587 8.40965 3.14257 8.42069 3.13326C8.44402 3.11313 8.4943 2.95507 8.54526 3.00913C8.55826 2.99316 8.57171 2.97667 8.58511 2.96031C8.57554 2.93871 8.56594 2.91717 8.5563 2.89568C8.63514 2.91339 8.6547 2.84802 8.75572 2.76789C8.74971 2.74909 8.74327 2.73081 8.73765 2.71158C8.78121 2.69649 8.82441 2.68218 8.86711 2.66886C8.85109 2.64518 8.83572 2.62076 8.82009 2.59667C8.82834 2.58108 8.83592 2.56635 8.84413 2.55099C8.87223 2.55688 8.88718 2.54594 8.89738 2.53083C8.91363 2.50719 8.91896 2.47531 8.9428 2.47188C8.99949 2.46575 9.00897 2.51953 8.96108 2.58576C8.99906 2.60848 9.14583 2.42245 9.16524 2.40798C9.15785 2.4027 9.1503 2.39758 9.14259 2.39261C9.11745 2.42328 9.08532 2.4647 9.05344 2.50831C8.93895 2.46442 9.06734 2.37253 9.09696 2.33094C9.09655 2.32914 9.10447 2.26753 9.11815 2.26548C9.11813 2.26265 9.1268 2.29449 9.04151 2.30596C8.95036 2.30887 8.90382 2.27348 8.90075 2.27435C8.87746 2.29956 8.94507 2.23029 8.93493 2.37814C8.93495 2.38109 8.93497 2.38414 8.93498 2.38731C8.97435 2.32945 8.97072 2.43977 9.02556 2.5314C9.03477 2.54676 9.14349 2.66613 9.14907 2.67496C9.18356 2.7306 9.10544 2.6888 9.15784 2.76839C9.17537 2.77287 9.19272 2.77696 9.21022 2.78134C9.21963 2.80138 9.22888 2.82102 9.23831 2.84093C9.18306 3.01511 9.27989 3.00387 9.31117 3.04136C9.32392 3.05662 9.28373 3.04847 9.31192 3.09039C9.32252 3.10615 9.35599 3.11304 9.38017 3.15734C9.45612 3.29581 9.37861 3.398 9.55358 3.47104C9.54874 3.49909 9.54392 3.52704 9.53931 3.55525C9.56494 3.55864 9.59057 3.562 9.61622 3.56531C9.61625 3.56734 9.6163 3.56932 9.61635 3.57125C9.61992 3.69438 9.65356 3.63013 9.67303 3.66665C9.72477 3.76487 9.83206 3.96629 9.8007 4.00963C9.9489 4.03088 9.9013 4.19601 9.92657 4.2262C9.95044 4.2371 9.9745 4.24816 9.99878 4.25942C10.0014 4.28874 10.0046 4.31869 10.0079 4.34857C10.094 4.27456 10.0786 4.44918 10.0852 4.46128C10.0921 4.47482 10.2395 4.62646 10.2845 4.68911C10.3295 4.75283 10.3837 4.87814 10.391 4.88801C10.3998 4.90002 10.5013 4.98532 10.5632 5.06781C10.6157 5.13985 10.9038 5.58403 10.9241 5.52702C10.9134 5.49068 10.8931 5.44488 10.8725 5.4076C10.8053 5.29178 10.3603 4.65976 10.2542 4.48844C10.0574 4.18503 9.84924 3.86406 9.68096 3.536C9.66357 3.50244 9.64656 3.46898 9.62988 3.43552C9.61929 3.41429 9.64351 3.39744 9.63465 3.37927C9.62098 3.35171 9.55901 3.29616 9.54574 3.26882C9.49608 3.16695 9.43961 3.04182 9.41385 2.98708C9.35608 2.86496 9.33275 2.77401 9.29226 2.68063C9.27953 2.65163 9.17896 2.52053 9.14737 2.41506C9.14649 2.39346 9.14573 2.37214 9.14494 2.35081C9.1773 2.39777 9.26155 2.52176 9.2933 2.58338C9.34012 2.67466 9.34161 2.73347 9.35817 2.7676C9.37195 2.79638 9.46644 2.93138 9.49989 2.99754C9.51025 3.01814 9.48472 3.03582 9.4936 3.05354C9.54156 3.14911 9.60668 3.27477 9.67668 3.34278C9.65649 3.32066 9.70653 3.44299 9.73509 3.50646C9.74378 3.52597 9.75034 3.54001 9.75178 3.54257C9.76214 3.56133 9.79844 3.56769 9.81974 3.60555C9.86097 3.67828 9.80363 3.69957 9.90865 3.75964C9.90697 3.79121 9.90497 3.82198 9.9037 3.85374C9.9714 3.81365 10.0549 4.15111 10.1888 4.17311C10.1974 4.1699 9.99537 3.79697 9.98123 3.76488C9.93403 3.67729 9.87118 3.57184 9.81089 3.4651C9.74437 3.34763 9.68017 3.22818 9.63881 3.13012C9.61462 3.07383 9.5739 2.88055 9.56712 2.86805C9.55571 2.84762 9.53983 2.87874 9.53455 2.87008C9.42672 2.69329 9.52188 2.76189 9.52463 2.73025ZM14.6805 10.2009C14.6399 10.151 14.6013 10.1032 14.5613 10.0535C14.5775 10.0452 14.5936 10.0369 14.6098 10.0286C14.624 10.0547 14.6382 10.0807 14.6522 10.1066C14.6747 10.1158 14.6974 10.1254 14.7202 10.1351C14.707 10.157 14.6937 10.179 14.6805 10.2009ZM14.8394 10.2667C14.8829 10.3014 14.8572 10.3282 14.8643 10.3387C14.8724 10.3507 14.8822 10.3601 14.8926 10.3686C14.9097 10.3828 14.9282 10.3948 14.9433 10.4117C14.907 10.4227 14.88 10.4152 14.8616 10.397C14.8335 10.3694 14.8269 10.3155 14.8394 10.2667ZM14.1148 9.40352C14.1193 9.41512 14.1026 9.54019 14.23 9.55172C14.2549 9.62254 14.2804 9.69398 14.3052 9.76437C14.2592 9.64769 14.1174 9.55335 14.0803 9.50824C14.0662 9.49111 14.0853 9.46874 14.0741 9.45527C14.0096 9.37772 13.8945 9.34566 13.9607 9.27497C14.0023 9.36569 14.1086 9.38854 14.1148 9.40352ZM14.4941 9.88629C14.4899 9.9119 14.4857 9.93748 14.4815 9.96303C14.4423 9.91898 14.4031 9.87487 14.3643 9.83104C14.3901 9.82943 14.4159 9.82777 14.4416 9.82607C14.4589 9.84593 14.4765 9.86606 14.4941 9.88629ZM11.6377 6.39804C11.6601 6.42617 11.6827 6.45449 11.7055 6.48302C11.7156 6.4722 11.6893 6.43986 11.6875 6.42179C11.6875 6.42184 11.6875 6.42189 11.6876 6.42195C11.6856 6.4017 11.7049 6.39543 11.692 6.36627C11.6739 6.37686 11.6558 6.38745 11.6377 6.39804ZM3.32746 9.91185C3.29141 9.96048 2.9674 10.4141 3.03861 10.4065C3.07424 10.4026 3.16608 10.2338 3.19911 10.1883C3.24348 10.1271 3.4097 9.99396 3.32746 9.91185ZM2.74517 10.7095C2.78309 10.7482 2.99224 10.4697 3.00461 10.4365C2.99421 10.4379 2.97395 10.4372 2.96522 10.4428C2.92279 10.4706 2.80084 10.6566 2.74517 10.7095ZM10.5139 4.70595C10.5088 4.74451 10.5036 4.78299 10.499 4.82217C10.5227 4.79522 10.5465 4.76833 10.5703 4.74149C10.5513 4.72947 10.5327 4.71789 10.5139 4.70595ZM9.12072 2.33728C9.11501 2.32485 9.10897 2.31176 9.10328 2.29947C9.0757 2.23886 9.04257 2.17276 9.02777 2.15715C9.01786 2.1487 9.0456 2.17176 9.06922 2.16898C9.08878 2.16668 9.07398 2.16704 9.0569 2.17867C8.97827 2.22876 8.87784 2.33574 8.78894 2.43393C8.67562 2.56004 8.56499 2.69297 8.45585 2.82715C8.46947 2.78701 8.48466 2.74517 8.49896 2.70469C8.58313 2.60464 8.67079 2.50431 8.75973 2.40783C8.85104 2.30975 8.95041 2.20406 9.03591 2.14707C9.09495 2.12178 9.03867 2.12384 9.05778 2.12756C9.0795 2.14723 9.11342 2.20873 9.14321 2.26378C9.1412 2.27031 9.13921 2.27692 9.13725 2.28359C9.13163 2.30121 9.12634 2.31959 9.12072 2.33728ZM14.1471 9.19998C14.0689 9.10919 13.9834 9.04988 13.9292 8.9242C14.0406 8.99247 14.0347 9.07963 14.1579 9.13234C14.158 9.13239 14.158 9.13244 14.1581 9.13249C14.1543 9.15488 14.1507 9.17741 14.1471 9.19998ZM12.4243 7.14567C12.4664 7.15814 12.5086 7.17067 12.5508 7.18326C12.5228 7.14932 12.4948 7.11548 12.467 7.08177C12.4528 7.10306 12.4385 7.12437 12.4243 7.14567ZM6.74133 4.88049C6.71088 5.01266 6.44247 5.21619 6.4354 5.33552C6.4349 5.34339 6.49276 5.31008 6.47734 5.42073C6.51255 5.354 6.53402 5.30584 6.5038 5.27703C6.52793 5.26773 6.55211 5.25838 6.5766 5.24861C6.58969 5.21262 6.60261 5.17687 6.61536 5.14137C6.64634 5.16883 6.64628 5.16519 6.65617 5.10376C6.67986 5.08902 6.70346 5.0744 6.72697 5.05991C6.71926 5.04086 6.71154 5.02184 6.70381 5.00284C6.73652 4.99946 6.76916 4.99617 6.80173 4.99299C6.8316 4.9073 6.76222 4.92203 6.74133 4.88049ZM7.00903 4.53269C6.98927 4.54381 6.67016 5.02935 6.89212 4.86548C6.93027 4.80895 6.96955 4.75098 7.00733 4.69512C6.86372 4.66067 7.07355 4.58071 7.0844 4.57083C7.13898 4.51911 7.16785 4.42545 7.20132 4.38298C7.22998 4.34667 7.2657 4.33944 7.28416 4.31344C7.34815 4.22336 7.45087 4.08372 7.41962 4.03143C7.36812 4.09862 7.31575 4.16812 7.26381 4.24062C7.20918 4.31689 7.1176 4.35124 7.07103 4.53742C7.03919 4.56745 7.01398 4.52989 7.00903 4.53269ZM12.6164 7.27144C12.57 7.30415 12.7224 7.46657 12.7405 7.4533C12.7508 7.44524 12.7044 7.38986 12.7016 7.37878C12.7016 7.37873 12.7015 7.37868 12.7015 7.37862C12.7004 7.37394 12.731 7.37686 12.714 7.34695C12.6815 7.32181 12.6489 7.29655 12.6164 7.27144ZM3.72866 9.13284C3.68541 9.13869 3.29634 9.70272 3.29684 9.72824C3.29708 9.73516 3.31286 9.73702 3.31814 9.74346C3.37476 9.58714 3.55005 9.43302 3.64095 9.31188C3.66639 9.27791 3.64072 9.27515 3.64177 9.27295C3.64183 9.27286 3.64189 9.27278 3.64195 9.2727C3.65592 9.25306 3.76365 9.19684 3.72866 9.13284ZM6.32722 5.52821C6.35161 5.5097 6.37589 5.49134 6.40007 5.47312C6.39023 5.45688 6.38037 5.44064 6.37051 5.42442C6.37047 5.42447 6.37043 5.42452 6.37039 5.42458C6.35615 5.4589 6.34177 5.49345 6.32722 5.52821ZM5.68876 6.31182C5.7029 6.3133 5.71704 6.31477 5.73117 6.31626C5.77502 6.25844 5.82 6.19908 5.86416 6.14089C5.86549 6.15094 5.8668 6.161 5.86812 6.17106C5.94771 6.09269 5.94001 6.02941 5.97963 5.98528C5.97959 5.98534 5.97955 5.98539 5.97951 5.98544C5.98382 5.98072 6.00915 5.98954 6.02365 5.97098C6.05638 5.92917 6.15631 5.80749 6.14598 5.77771C6.12475 5.71298 5.96255 5.98156 5.92621 6.02758C5.90973 6.04838 5.87276 6.06115 5.86311 6.07359C5.8525 6.08742 5.8632 6.12444 5.8374 6.15855C5.82985 6.16844 5.71929 6.26051 5.68876 6.31182ZM4.96204 7.38429C4.9979 7.382 5.00373 7.32787 5.01755 7.31643C5.02084 7.31368 5.02091 7.35346 5.04939 7.32576C5.04296 7.30753 5.03652 7.28929 5.03007 7.27107C5.00749 7.30867 4.98481 7.34641 4.96204 7.38429ZM12.8755 7.54136C12.876 7.53269 12.798 7.44248 12.7914 7.44044C12.7067 7.41795 12.869 7.60433 12.8755 7.54136ZM14.8799 9.78454C14.8923 9.72563 15.0601 9.93556 15.1887 10.0977C15.2563 10.1829 15.3108 10.2528 15.3268 10.2682C15.2904 10.2972 15.22 10.1521 15.2278 10.2544C15.2173 10.222 15.185 10.179 15.1477 10.1352C15.0954 10.0736 15.032 10.0097 15.0171 9.98438C15.0013 9.95776 15.0258 9.92516 15.0237 9.9209C15.0146 9.90427 14.8736 9.81655 14.8799 9.78454ZM15.6729 10.6804C15.6353 10.6287 15.6004 10.5795 15.5635 10.5279C15.6182 10.5779 15.6715 10.6259 15.7264 10.6751C15.7086 10.6769 15.6908 10.6787 15.6729 10.6804ZM15.7418 10.7213C15.7728 10.6891 15.895 10.8629 15.9411 10.8941C15.8431 10.904 15.8219 10.78 15.7418 10.7213ZM13.4724 8.07223C13.4327 7.97929 13.3013 8.03582 13.4227 8.08718C13.4265 8.08864 13.4738 8.07633 13.4724 8.07223ZM6.56809 4.79106C6.5578 4.80365 6.40055 4.94365 6.41166 4.96577C6.4461 5.03753 6.50302 4.91183 6.55095 4.89113C6.6285 4.85776 6.59332 4.96572 6.67781 4.80638C6.68483 4.82055 6.69185 4.83473 6.69887 4.84891C6.76414 4.76761 6.66541 4.73787 6.66634 4.71543C6.66654 4.70872 6.71144 4.66128 6.71357 4.64789C6.73715 4.48324 6.57804 4.77844 6.56809 4.79106ZM11.956 6.22355C11.8678 6.04885 11.8716 6.14999 11.7513 5.99461C11.7233 6.00913 11.919 6.22106 11.956 6.22355ZM7.73186 3.31867C7.62077 3.48456 7.48986 3.5913 7.42192 3.77248C7.49504 3.81311 7.77916 3.29115 7.73186 3.31867ZM2.18138 10.8461C2.7521 10.3022 3.23096 9.54718 3.70874 8.8752C3.76079 8.80206 3.79262 8.81447 3.80859 8.78596C3.81914 8.76721 3.79529 8.75474 3.8117 8.73158C4.40329 7.89731 4.94548 7.08129 5.53211 6.29546C5.56928 6.24571 5.7914 6.03598 5.75891 5.93365C5.73406 5.85624 5.64966 6.06013 5.62778 6.08944C5.61152 6.11123 5.58586 6.0942 5.57516 6.10883C5.56398 6.12412 5.5902 6.12374 5.57757 6.14177C5.52428 6.21808 5.45657 6.29788 5.4089 6.36706C4.93477 7.05405 4.45818 7.70996 3.97337 8.38203C3.91472 8.46342 3.90662 8.43237 3.90361 8.4364C3.90362 8.43649 3.90363 8.43658 3.90364 8.43667C3.58842 8.87303 3.27626 9.40489 2.92762 9.85673C2.68061 10.1734 2.43365 10.4902 2.18673 10.8071C2.18495 10.8201 2.18316 10.8331 2.18138 10.8461ZM6.8899 4.49935C6.7852 4.48478 6.8542 4.54909 6.71707 4.67192C6.72109 4.69327 6.72521 4.7145 6.72952 4.73547C6.78339 4.65605 6.83592 4.57861 6.89008 4.4991C6.89002 4.49918 6.88996 4.49927 6.8899 4.49935ZM6.16226 5.43816C6.14645 5.43169 6.12983 5.43271 6.11255 5.43972C6.00072 5.48336 5.86158 5.7846 5.75325 5.89898C5.78509 5.96256 5.91602 5.73327 5.95804 5.68664C5.97675 5.66595 6.10548 5.58185 6.16032 5.4744C6.1654 5.46455 6.16988 5.4545 6.17364 5.44429C6.16985 5.44225 6.16605 5.44021 6.16226 5.43816ZM14.568 9.15342C14.5461 9.1339 14.5239 9.11411 14.502 9.09455C14.5399 9.15908 14.5771 9.22272 14.6149 9.28691C14.545 9.19368 14.475 9.09989 14.4053 9.00616C14.4393 9.00549 14.4732 9.00475 14.5071 9.00394C14.5272 9.0536 14.5476 9.1035 14.568 9.15342ZM14.3099 8.87724C14.4507 9.02457 14.2589 8.91002 14.2488 8.85076C14.2428 8.81543 14.2955 8.86221 14.3099 8.87724ZM13.9979 8.44595C14.0942 8.48825 14.222 8.63203 14.1082 8.63981C14.0737 8.53401 14.0036 8.50693 13.9254 8.37747C13.9529 8.38268 13.9803 8.38787 14.0078 8.39302C14.0078 8.3931 14.0079 8.39317 14.008 8.39325C14.0046 8.41082 14.0012 8.42838 13.9979 8.44595ZM14.4126 8.91123C14.4603 9.04631 14.2208 8.74271 14.3265 8.81193C14.3315 8.81532 14.4108 8.90607 14.4126 8.91123ZM2.60168 10.0945C2.61662 10.125 2.67595 10.0409 2.69742 10.0143C2.79111 9.89838 2.89107 9.73604 2.98416 9.61281C2.96941 9.61655 2.95467 9.62028 2.93992 9.62403C2.82706 9.78098 2.71427 9.93789 2.60168 10.0945ZM3.26515 9.21986C3.32666 9.13379 3.38862 9.04711 3.45022 8.96096C3.45596 8.95293 3.46202 8.9004 3.43694 8.92475C3.37983 9.02289 3.32221 9.12175 3.26515 9.21986ZM7.14456 3.85389C7.08245 3.90929 7.15424 3.66945 7.22138 3.7331C7.19618 3.77276 7.16936 3.81465 7.14456 3.85389ZM7.57195 3.22462C7.54709 3.27168 7.52423 3.31623 7.49967 3.36313C7.49121 3.35682 7.48275 3.3505 7.47429 3.34418C7.50733 3.30356 7.53865 3.26534 7.57195 3.22462ZM2.34217 10.4219C2.40304 10.3988 2.47342 10.2906 2.52061 10.2258C2.46326 10.2527 2.39905 10.3689 2.34217 10.4219ZM6.39081 4.81485C6.4142 4.82447 6.21862 5.08213 6.2497 4.96598C6.29689 4.91533 6.34327 4.86585 6.39081 4.81485ZM5.97373 5.32571C6.0107 5.26563 6.04894 5.22741 6.07187 5.26164C6.04894 5.29039 6.02585 5.31937 6.00261 5.34858C5.99298 5.34096 5.98336 5.33334 5.97373 5.32571ZM13.8191 8.12277C13.7409 8.03616 13.6629 7.9494 13.585 7.86247C13.5958 7.85897 13.6067 7.85546 13.6176 7.85195C13.6927 7.93568 13.768 8.01926 13.8433 8.10268C13.8352 8.10938 13.8271 8.11607 13.8191 8.12277ZM2.22658 10.4206C2.1856 10.4899 2.14452 10.5593 2.10344 10.6287C2.15594 10.5674 2.20844 10.506 2.26083 10.4448C2.2494 10.4366 2.23798 10.4284 2.22655 10.4203C2.22656 10.4204 2.22657 10.4205 2.22658 10.4206ZM14.9658 9.23952C14.7684 8.94111 15.1062 9.24592 15.1145 9.36355C15.1146 9.36358 15.1147 9.36362 15.1148 9.36365C15.1155 9.37403 15.0808 9.38163 15.0806 9.40013C15.067 9.36385 15.0531 9.32715 15.04 9.29127C15.0053 9.27833 14.9704 9.26519 14.9354 9.25186C14.9333 9.23916 14.9312 9.22644 14.9291 9.2137C14.9414 9.22234 14.9536 9.23095 14.9658 9.23952ZM15.947 10.2724C16.1634 10.5054 15.8813 10.3251 15.8174 10.1678C15.8287 10.1593 15.9268 10.2506 15.947 10.2724ZM15.3655 9.67051C15.3269 9.63826 15.2868 9.60432 15.2483 9.57195C15.2506 9.56127 15.2529 9.55059 15.2552 9.5399C15.2873 9.5625 15.3201 9.58582 15.3527 9.60879C15.357 9.62943 15.3613 9.65 15.3655 9.67051ZM14.3689 8.32905C14.323 8.26059 14.1804 8.24568 14.371 8.42784C14.3789 8.42085 14.3868 8.41387 14.3947 8.40688C14.3867 8.40008 14.3592 8.38332 14.3587 8.38153C14.3576 8.37616 14.388 8.3575 14.3689 8.32905ZM16.5537 10.4934C16.5631 10.497 16.6434 10.4201 16.629 10.5672C16.6535 10.5813 16.6783 10.5957 16.7032 10.61C16.6913 10.6326 16.6794 10.6552 16.6675 10.6778C16.6027 10.5887 16.5612 10.6172 16.5545 10.6122C16.5254 10.5901 16.5624 10.5907 16.5459 10.574C16.5045 10.5323 16.3957 10.4477 16.4908 10.4397C16.5243 10.4363 16.5448 10.4903 16.5537 10.4934ZM16.4495 10.2996C16.4521 10.3155 16.3993 10.3084 16.3997 10.3219C16.3999 10.3337 16.4683 10.4496 16.4044 10.4634C16.3908 10.4465 16.377 10.4293 16.3639 10.4127C16.3695 10.397 16.3752 10.3813 16.3808 10.3655C16.3563 10.3606 16.3317 10.3554 16.3069 10.35C16.3092 10.2992 16.2919 10.2126 16.3749 10.2541C16.3503 10.2335 16.3252 10.2124 16.2999 10.1908C16.2754 10.1912 16.2511 10.1918 16.2266 10.192C16.2522 10.1795 16.2779 10.1669 16.3034 10.1542C16.3522 10.2033 16.4003 10.2511 16.4495 10.2996ZM17.1569 10.9855C17.1449 10.9936 17.1328 11.0017 17.1207 11.0097C17.2234 11.0657 17.3649 11.1697 17.2318 11.1734C17.1087 11.0799 16.9872 10.9819 16.8652 10.8793C16.8648 10.8645 16.8643 10.8496 16.8638 10.8348C16.923 10.9448 17.0128 10.7922 17.0545 10.8969C17.0614 10.9143 16.9843 10.9269 17.09 10.969C17.0966 10.956 17.1031 10.943 17.1097 10.93C17.1248 10.948 17.1416 10.9674 17.1569 10.9855ZM17.913 11.5987C17.7699 11.4737 17.9694 11.5516 17.9736 11.6051C17.9736 11.605 17.9735 11.605 17.9735 11.605C17.9878 11.7554 17.8488 11.5931 17.8383 11.5856C17.8241 11.5768 17.7428 11.6218 17.7373 11.4672C17.7972 11.513 17.8557 11.5571 17.913 11.5987ZM17.416 11.203C17.43 11.2107 17.4099 11.2217 17.4155 11.2258C17.4156 11.2259 17.4156 11.2259 17.4157 11.226C17.4708 11.2665 17.5766 11.3362 17.6432 11.4024C17.6773 11.4366 17.6985 11.4684 17.6922 11.4927C17.6765 11.4828 17.6486 11.4645 17.6145 11.4409C17.5026 11.3648 17.3449 11.2397 17.3548 11.2011C17.3748 11.2015 17.3959 11.2027 17.416 11.203ZM16.8282 10.7559C16.8106 10.6786 16.9227 10.7759 16.9365 10.8162C16.9391 10.8246 16.8463 10.8359 16.8282 10.7559ZM13.4182 6.77685C13.3005 6.67673 13.4078 6.84763 13.3316 6.82098C13.3528 6.84102 13.374 6.86103 13.3953 6.8811C13.4029 6.84632 13.4105 6.81157 13.4182 6.77685ZM8.02091 1.63956C7.98786 1.66839 8.02086 1.67001 8.0185 1.67314C8.00426 1.688 7.98205 1.69503 7.96946 1.70175C7.96549 1.70375 7.96255 1.70574 7.96128 1.70799C7.86791 1.87738 7.96725 1.79676 7.97147 1.79934C7.99307 1.81286 7.98305 1.8689 8.04933 1.83694C8.0574 1.82258 8.06535 1.80842 8.07322 1.79445C8.08707 1.77075 8.09954 1.7488 8.11412 1.72485C8.13961 1.71777 8.16349 1.71261 8.18988 1.70503C8.23103 1.61847 8.1418 1.6999 8.10513 1.68141C8.09002 1.6747 8.1336 1.6003 8.02091 1.63956ZM13.3094 6.51337C13.2596 6.52249 13.1782 6.51143 13.1817 6.58541C13.1818 6.58547 13.1818 6.58552 13.1818 6.58557C13.1826 6.59919 13.2077 6.63656 13.2077 6.65446C13.3153 6.69224 13.3385 6.62498 13.3094 6.51337ZM10.1046 1.65158C10.1341 1.72116 10.1478 1.76697 10.1591 1.80603C10.1657 1.82936 10.1722 1.8527 10.1785 1.87543C10.154 1.88561 10.1295 1.89579 10.105 1.90597C10.1001 1.88374 10.0949 1.86114 10.0896 1.83851C10.0869 1.82725 10.0841 1.81583 10.0808 1.80336C10.0639 1.79585 10.0469 1.78841 10.0288 1.7789C10.0277 1.81404 10.0234 1.84375 10.0184 1.8718C10.0139 1.89474 10.0094 1.91776 10.0048 1.9405C10.0351 1.98086 10.0646 2.01978 10.094 2.05837C10.0976 2.03273 10.1012 2.00707 10.1046 1.98115C10.1674 2.08061 10.0982 2.08439 10.1153 2.18031C10.1512 2.19937 10.1868 2.21778 10.2225 2.23642C10.2196 2.28854 10.2167 2.34038 10.214 2.39225C10.2573 2.45656 10.2772 2.4544 10.2804 2.3959C10.3258 2.41644 10.298 2.47542 10.3297 2.51073C10.3323 2.51362 10.3564 2.4941 10.3582 2.4969C10.4791 2.69776 10.4034 2.72079 10.417 2.75595C10.4268 2.7805 10.5222 2.84834 10.5392 2.84113C10.5618 2.8307 10.5493 2.59877 10.7064 2.89138C10.685 2.70995 10.536 2.56384 10.5057 2.72275C10.4891 2.6697 10.3585 2.4596 10.3545 2.44345C10.3485 2.42062 10.3857 2.41172 10.3742 2.38536C10.3673 2.36956 10.2704 2.36576 10.28 2.20965C10.2597 2.19945 10.2397 2.18976 10.2194 2.17937C10.2229 2.15947 10.2264 2.13953 10.2299 2.11956C10.2817 2.13371 10.3332 2.14688 10.3848 2.16032C10.2877 2.05771 10.3166 1.91873 10.2154 1.86847C10.2038 1.83395 10.1952 1.80626 10.195 1.78928C10.1943 1.76995 10.2036 1.7632 10.2285 1.77202C10.2182 1.74989 10.2067 1.72541 10.1915 1.69424C10.1643 1.6829 10.1356 1.6687 10.1046 1.65158ZM12.977 6.20896C12.9634 6.12757 12.8779 6.16286 12.8812 6.17493C12.9005 6.24196 12.9842 6.25137 12.977 6.20896ZM8.17269 1.54875C8.27659 1.48354 8.35055 1.42058 8.59727 1.30298C8.58396 1.27833 8.57064 1.25369 8.55733 1.22904C8.30839 1.38076 8.25804 1.46323 8.17269 1.54875ZM13.4808 6.75366C13.4693 6.7727 13.4579 6.79175 13.4464 6.81081C13.5612 6.82898 13.5322 6.96611 13.5773 6.98469C13.5871 6.9887 13.6035 6.95043 13.5982 6.93163C13.5949 6.92007 13.496 6.76092 13.4808 6.75366ZM15.839 9.50172C15.8073 9.48803 15.7755 9.47402 15.7434 9.4597C15.7621 9.44512 15.7807 9.43054 15.7994 9.41596C15.8133 9.42472 15.8272 9.43341 15.841 9.44202C15.8403 9.46197 15.8397 9.48187 15.839 9.50172ZM15.5664 9.25671C15.5297 9.21304 15.492 9.16801 15.4556 9.12443C15.6178 9.27335 15.506 9.1325 15.6175 9.21083C15.6004 9.22612 15.5834 9.24142 15.5664 9.25671ZM15.2152 8.7892C15.2305 8.78524 15.2458 8.78127 15.2611 8.77729C15.2992 8.82065 15.3369 8.86339 15.3754 8.9069C15.3879 8.84716 15.4002 8.78712 15.4132 8.72782C15.3994 8.71201 15.3856 8.69615 15.3717 8.68021C15.3196 8.71657 15.2674 8.75289 15.2152 8.7892ZM6.89128 2.87541C6.868 2.90468 6.82798 3.02871 6.84333 3.03454C6.8907 3.00384 6.93599 2.97599 6.98364 2.94513C6.96141 2.92798 6.93917 2.91084 6.91694 2.89369C6.93255 2.89623 6.94814 2.8988 6.96372 2.90138C6.97337 2.87129 6.98203 2.84252 6.99219 2.81183C7.02086 2.81467 7.04946 2.8176 7.078 2.82063C7.06478 2.79176 7.05153 2.76294 7.03823 2.73419C6.91224 2.8175 6.95462 2.84402 6.93637 2.86715C6.9271 2.87898 6.90745 2.87613 6.89723 2.87513C6.89525 2.87522 6.89326 2.87532 6.89128 2.87541ZM8.10837 1.36204C7.98302 1.47593 7.94481 1.56217 7.89019 1.63092C7.85968 1.67012 7.82511 1.70316 7.77433 1.72702C7.81444 1.73178 7.86139 1.70197 7.91491 1.65301C7.9994 1.57695 8.07821 1.46885 8.25681 1.31517C8.35838 1.24291 8.44509 1.12638 8.82738 1.03066C9.01653 0.984232 9.33309 1.01227 9.53306 1.12416C9.73525 1.23099 9.82206 1.34321 9.87218 1.41245C9.95205 1.47156 10.0079 1.51863 10.0547 1.55367C9.97359 1.45105 9.83736 1.19538 9.43658 1.03624C9.03124 0.893997 8.75208 0.993763 8.63256 1.03245C8.44092 1.10972 8.49554 1.11783 8.47829 1.12414C8.4778 1.12441 8.47731 1.12469 8.47682 1.12496C8.20678 1.28115 8.2043 1.28362 8.10837 1.36204ZM13.6392 6.78262C13.6362 6.72685 13.5838 6.66901 13.5458 6.69946C13.5626 6.74185 13.5796 6.78432 13.5967 6.82686C13.6005 6.812 13.6397 6.79214 13.6392 6.78262ZM15.2731 8.64891C15.2624 8.61272 15.198 8.56023 15.1896 8.6145C15.1882 8.62425 15.264 8.66584 15.1755 8.68006C15.2285 8.73876 15.2791 8.66956 15.2731 8.64891ZM11.1356 3.6845C11.1519 3.70587 11.1691 3.72821 11.1856 3.74946C11.2054 3.74344 11.2252 3.73743 11.2449 3.73141C11.2084 3.71591 11.1718 3.70012 11.1356 3.6845ZM13.9065 7.05017C13.8579 7.14192 13.9722 7.13264 13.9588 7.23953C13.9757 7.26062 13.9926 7.28172 14.0096 7.30277C14.0096 7.30282 14.0096 7.30287 14.0097 7.30292C14.0302 7.28658 14.0508 7.27024 14.0713 7.2539C14.0163 7.18604 13.9614 7.11818 13.9065 7.05017ZM10.3604 2.19493C10.3568 2.2161 10.353 2.23679 10.3495 2.25791C10.3755 2.27982 10.4015 2.30168 10.4276 2.32333C10.4297 2.30401 10.4317 2.28447 10.4339 2.26519C10.4093 2.24183 10.3849 2.21865 10.3604 2.19493ZM14.2183 7.40806C14.1666 7.32815 14.0798 7.35488 14.1576 7.44736C14.1905 7.48628 14.2726 7.49173 14.2183 7.40806ZM5.82137 4.37076C5.84656 4.34838 5.87114 4.32686 5.89652 4.30426C5.88901 4.28474 5.88149 4.26525 5.87396 4.24579C5.85591 4.28812 5.8389 4.32907 5.82137 4.37076ZM15.5602 8.98833C15.5446 8.99721 15.529 9.00609 15.5133 9.01496C15.497 8.9913 15.4801 8.96693 15.4641 8.94354C15.4819 8.93731 15.4996 8.93098 15.5175 8.9248C15.5318 8.94609 15.5461 8.96727 15.5602 8.98833ZM5.96043 4.19896C5.9785 4.17998 5.99661 4.16095 6.01509 4.14141C6.01873 4.12201 6.02232 4.10266 6.02587 4.08338C6.00449 4.09818 5.98303 4.1131 5.96147 4.12815C5.96073 4.15229 5.96082 4.1753 5.96043 4.19896ZM14.7921 8.09366C14.7847 8.05261 14.6403 7.9855 14.7126 8.09548C14.7586 8.16537 14.7932 8.09984 14.7921 8.09366ZM14.9356 8.22775C14.8763 8.09741 14.7886 8.30884 14.9969 8.34697C14.8746 8.23355 14.939 8.23541 14.9356 8.22775ZM15.8117 9.06406C15.8139 9.06667 15.7939 9.08834 15.8113 9.10928C15.8749 9.18574 15.9534 9.28941 15.9988 9.34164C16.0011 9.34435 16.0036 9.34716 16.0062 9.35006C16.1257 9.48538 16.4967 9.80716 16.4775 9.90539C16.4732 9.92676 16.4149 9.94314 16.4164 9.94868C16.4215 9.96507 16.4987 10.0075 16.4596 10.0236C16.4022 9.96407 16.3444 9.90339 16.2862 9.84171C16.3203 9.83737 16.3551 9.83372 16.3893 9.82939C16.235 9.68866 16.2832 9.73656 16.1982 9.73442C16.1913 9.69291 16.1841 9.65102 16.1766 9.60875C16.1073 9.56897 16.0363 9.52684 15.9672 9.48633C15.992 9.48745 16.0167 9.48846 16.0414 9.48935C15.9945 9.39741 15.992 9.41174 15.9451 9.40593C15.9374 9.40507 15.9284 9.40364 15.9179 9.40104C15.9307 9.38913 15.9436 9.37722 15.9564 9.36532C15.8492 9.31114 15.872 9.25799 15.8564 9.23984C15.8235 9.20187 15.6254 9.29222 15.6486 9.00873C15.5202 9.01376 15.6719 8.88075 15.5629 8.91258C15.5539 8.73417 15.6991 8.95887 15.7805 9.05473C15.7805 9.05478 15.7806 9.05483 15.7806 9.05487C15.7866 9.06206 15.7907 9.03846 15.8117 9.06406ZM15.2598 8.59622C15.384 8.60009 15.1701 8.34226 15.1439 8.51207C15.1515 8.52724 15.1591 8.5425 15.1669 8.55786C15.198 8.57082 15.229 8.58366 15.2599 8.59637C15.2598 8.59632 15.2598 8.59627 15.2598 8.59622ZM13.2634 6.14288C13.0365 5.9253 13.1083 6.09542 13.2151 6.14491C13.2364 6.15484 13.2545 6.15501 13.2634 6.14288ZM7.82953 1.55044C7.83386 1.56196 7.83821 1.57348 7.84256 1.585C7.90954 1.48934 8.16121 1.30074 8.12772 1.23785C7.98589 1.36748 7.9091 1.45877 7.82953 1.55044ZM10.3378 1.73987C10.3368 1.7362 10.3353 1.73091 10.3332 1.72467C10.3246 1.69462 10.2786 1.59183 10.2638 1.61525C10.2762 1.67197 10.2794 1.71346 10.2802 1.74944C10.2803 1.76152 10.2805 1.77381 10.2807 1.78594C10.3001 1.79872 10.3194 1.81144 10.3387 1.82405C10.3311 1.79777 10.3397 1.7467 10.3378 1.73987Z" fill="currentColor" fill-opacity="0.67"/>
</svg>
