<svg width="14" height="11" viewBox="0 0 14 11" fill="none" xmlns="http://www.w3.org/2000/svg">
<path d="M2.33641 1.36612C2.79512 1.50095 2.75966 1.88937 2.96604 2.20075C3.42063 2.88622 4.1847 3.6497 4.72011 4.29098C5.12542 4.77643 5.52715 5.27863 5.92242 5.76819C5.94285 5.79344 5.9333 5.82663 5.94243 5.83797C6.02928 5.94567 6.19702 6.10342 6.28349 6.21146C6.34277 6.28558 6.42014 6.37897 6.49925 6.47489C6.66166 6.67168 6.83781 6.88635 6.93778 7.03223C7 7.12339 7.07116 7.21459 7.04581 7.29041C7.06952 7.32369 7.13095 7.30046 7.14016 7.3061C7.14019 7.30623 7.14022 7.30636 7.14025 7.30649C7.16967 7.32497 7.19161 7.41745 7.20637 7.43052C7.20845 7.43231 7.23149 7.39037 7.25052 7.4334C7.25231 7.43727 7.22647 7.45392 7.25092 7.48309C7.25805 7.49165 7.37426 7.55506 7.40008 7.5803C7.48418 7.66406 7.63832 7.89117 7.68903 7.93525C7.6976 7.94342 7.71437 7.93471 7.72241 7.94161C7.72666 7.94523 7.71966 7.96486 7.72106 7.96593C7.72704 7.97048 7.80743 7.92311 7.6881 8.04923C7.70291 8.05561 7.71726 8.05123 7.72968 8.04132C7.73774 8.0193 7.76002 8 7.77299 7.98228C7.71546 7.93159 7.63933 7.98735 7.65483 7.89892C7.50931 7.82365 7.21816 7.8274 7.08419 7.90102C6.94039 7.99065 7.12345 7.88442 7.23743 7.74276C7.22669 7.73363 7.21594 7.7245 7.2052 7.71537C7.30552 7.6829 7.25182 7.59632 7.35058 7.60247C7.35729 7.56427 7.36468 7.52465 7.37148 7.48537C7.7027 7.08944 8.01893 6.575 8.3556 6.05987C8.58468 5.70593 8.79177 5.3176 9.00916 4.91117C9.02949 4.87312 9.06115 4.87758 9.095 4.81419C9.13244 4.74398 9.15394 4.62803 9.20386 4.5332C9.24747 4.45033 9.33745 4.33872 9.39114 4.24536C9.40323 4.22424 9.39454 4.19983 9.3959 4.19745C9.40402 4.1835 9.43106 4.19671 9.43906 4.18324C9.44856 4.16711 9.43941 4.13652 9.45074 4.11787C9.49277 4.04829 9.52817 3.96491 9.53348 3.95603C9.55967 3.91269 9.59096 3.9166 9.59319 3.91309C9.62285 3.86507 9.58951 3.87119 9.59748 3.85953C9.63936 3.79858 9.722 3.78473 9.71509 3.66486C9.73532 3.67911 9.75557 3.69336 9.77582 3.70759C9.82534 3.64611 9.74338 3.65961 9.74068 3.63995C9.73973 3.63215 9.8294 3.48765 9.8373 3.47655C9.86365 3.43861 9.89274 3.45371 9.89509 3.45045C9.90072 3.44254 9.92675 3.32285 9.98251 3.28486C10.0481 3.24053 10.0624 3.34681 10.0822 3.33786C10.0854 3.33645 10.1178 3.26879 10.1409 3.27085C10.1658 3.27288 10.1321 3.32816 10.1408 3.33202C10.1466 3.33466 10.2414 3.26678 10.2573 3.30054C10.2752 3.33073 10.1675 3.43346 10.1651 3.4671C10.1647 3.47263 10.2027 3.48388 10.2017 3.48841C10.196 3.50648 10.0384 3.78786 10.0269 3.79734C10.0196 3.77431 10.0123 3.75124 10.0051 3.72813C9.99279 3.74669 9.98048 3.76534 9.96828 3.78388C9.97114 3.74952 9.97418 3.71499 9.97732 3.68049C9.82796 3.65194 9.88819 3.84658 9.94904 3.88562C9.97715 3.90356 10.093 3.86985 10.099 3.96314C10.1123 3.95666 10.1255 3.95021 10.1388 3.94377C10.1383 3.91534 10.1378 3.88701 10.1375 3.85841C10.1217 3.86873 10.1061 3.87883 10.0904 3.8891C10.0845 3.87896 10.0787 3.86882 10.0728 3.85867C10.0811 3.81023 10.0898 3.76129 10.0987 3.71255C10.117 3.69495 10.1403 3.71381 10.1534 3.70209C10.3186 3.55681 10.1718 3.62937 10.2519 3.51715C10.2756 3.50808 10.2992 3.49911 10.3229 3.49023C10.2629 3.46285 10.3292 3.43124 10.3438 3.35258C10.3573 3.37124 10.3709 3.38985 10.3845 3.40843C10.4297 3.30984 10.6396 3.18107 10.5089 3.16804C10.5309 3.15237 10.5531 3.13655 10.5753 3.12091C10.5711 3.09253 10.5669 3.06407 10.563 3.03552C10.5646 3.03341 10.5663 3.03131 10.5679 3.02921C10.5826 3.01098 10.5969 2.99312 10.6113 2.97499C10.62 2.98063 10.6287 2.98627 10.6374 2.99192C10.6263 3.00888 10.6152 3.02552 10.6039 3.04251C10.6387 3.04741 10.6734 3.05231 10.7082 3.0572C10.7121 3.04185 10.7161 3.02626 10.72 3.01091C10.6603 3.04679 10.6653 2.95087 10.6414 2.91121C10.6573 2.85895 10.7211 2.86012 10.7328 2.84664C10.7385 2.84012 10.711 2.7062 10.7786 2.79526C10.795 2.74606 10.8115 2.69629 10.8275 2.64694C10.8449 2.63438 10.8622 2.62204 10.8795 2.60948C10.8981 2.67215 11.0146 2.59678 10.9828 2.68606C10.9591 2.75262 10.9112 2.74253 10.8941 2.77021C10.8786 2.79506 10.8961 2.82488 10.88 2.85253C10.8218 2.95179 10.7657 3.03811 10.7063 3.12203C10.6474 3.20586 10.5887 3.28884 10.5271 3.37643C10.5008 3.41379 10.4927 3.45635 10.4753 3.48121C10.4556 3.50924 10.4445 3.45263 10.4302 3.49489C10.4155 3.53906 10.4377 3.56351 10.4322 3.57414C10.4287 3.58071 10.3923 3.58675 10.3813 3.60557C10.3364 3.68252 10.297 3.80854 10.2909 3.8194C10.2833 3.83134 10.142 4.03575 10.1329 4.04361C10.1278 4.04786 10.0416 3.98684 10.1144 4.08736C10.1082 4.10317 10.1021 4.11907 10.0961 4.13476C10.0789 4.1225 10.0617 4.11024 10.0445 4.09797C10.0678 4.22289 10.0445 4.17221 10.0055 4.25918C9.91195 4.46825 9.74503 4.75343 9.6395 4.96989C9.61601 5.01817 9.62852 5.04821 9.6005 5.10493C9.57429 5.15802 9.43618 5.25702 9.5431 5.27688C9.40249 5.34853 9.52815 5.4407 9.41236 5.45104C9.42087 5.46468 9.42937 5.47832 9.43786 5.49198C9.35117 5.52411 9.38694 5.56868 9.35573 5.63875C9.34225 5.6689 9.30534 5.60429 9.33448 5.6972C9.32358 5.70556 9.31267 5.71392 9.30178 5.7222C9.28981 5.71193 9.27783 5.70166 9.26584 5.69141C9.24036 5.7611 9.23085 5.76108 9.28525 5.78301C9.2583 5.80838 9.23136 5.83346 9.20434 5.8584C9.2185 5.87186 9.23265 5.88534 9.24679 5.89883C9.29023 5.907 9.63745 5.16919 9.67333 5.05536C9.77446 4.95638 9.85304 4.6884 9.91359 4.59427C9.93773 4.55686 9.98511 4.55909 10.0197 4.50401C10.0544 4.4488 10.0578 4.35806 10.073 4.32638C10.1209 4.22178 10.3962 3.73546 10.2617 4.09425C10.2853 4.0947 10.3089 4.0952 10.3325 4.09563C10.3416 3.92943 10.3543 3.99799 10.4215 3.89228C10.4499 3.84759 10.472 3.71445 10.5513 3.76816C10.5174 3.86244 10.4403 3.93787 10.4005 4.01315C10.3966 4.02049 10.3867 4.12945 10.3521 4.16872C10.3208 4.20422 10.2554 4.13355 10.2982 4.27017C10.175 4.28919 10.2349 4.36962 10.2343 4.39138C10.2333 4.4291 10.1879 4.40959 10.1671 4.4368C10.1444 4.46641 10.1616 4.50404 10.1595 4.50858C10.1366 4.55372 10.0199 4.78761 9.99694 4.78868C9.99402 4.77537 9.99111 4.76207 9.98819 4.74877C9.94456 4.80218 9.9957 4.81291 9.99283 4.83145C9.98656 4.8431 9.98027 4.85479 9.97403 4.86637C9.96719 4.85691 9.96034 4.84747 9.9535 4.838C9.91873 4.90952 9.97904 4.87236 9.92594 4.972C9.89227 5.03506 9.82266 5.08182 9.82208 5.08925C9.82187 5.09145 9.8561 5.08411 9.84575 5.11149C9.82857 5.15689 9.78912 5.22984 9.75249 5.22085C9.74603 5.24399 9.77853 5.25904 9.77778 5.26218C9.77461 5.27607 9.67446 5.48777 9.656 5.52515C9.60542 5.62956 9.5362 5.73773 9.4792 5.84852C9.47333 5.85989 9.45754 5.84135 9.45178 5.8528C9.44261 5.87121 9.4204 5.98037 9.41443 5.99521C9.39976 6.03242 9.33425 6.11329 9.33459 6.13255C9.33464 6.13532 9.37888 6.12236 9.36632 6.1614C9.35231 6.20462 9.32919 6.1625 9.32758 6.16434C9.26848 6.23319 9.26289 6.29619 9.23457 6.35081C9.22536 6.36852 9.17926 6.38204 9.17179 6.4104C9.17092 6.41367 9.19869 6.42421 9.19815 6.42763C9.18773 6.47143 9.12101 6.4745 9.10805 6.48759C9.07625 6.51973 9.12268 6.52181 9.12164 6.52388C9.11453 6.53551 9.10347 6.54707 9.09127 6.55985C9.07623 6.57585 9.05961 6.59371 9.0461 6.61552C8.935 6.79498 8.84215 6.93947 8.71728 7.12284C8.70171 7.14572 8.6599 7.15802 8.65756 7.16149C8.65046 7.17256 8.67995 7.1877 8.65836 7.21886C8.61255 7.28472 8.57272 7.34741 8.52845 7.41233C8.51947 7.42548 8.49032 7.41416 8.48302 7.42385C8.45896 7.45643 8.44764 7.61564 8.36429 7.56124C8.39176 7.67722 8.29902 7.67808 8.26352 7.73052C8.17879 7.85619 8.05576 8.0563 7.95659 8.16219C7.9361 8.18414 7.90683 8.17983 7.89537 8.19183C7.8752 8.2142 7.77646 8.35142 7.7675 8.3539C7.74998 8.36143 7.67533 8.27825 7.68867 8.406C7.66008 8.44536 7.63103 8.40877 7.62253 8.4138C7.55728 8.45282 7.57298 8.57248 7.52194 8.49253C7.48066 8.56055 7.46855 8.62837 7.40585 8.56285C7.42563 8.59556 7.4174 8.6288 7.39529 8.63102C7.39328 8.631 7.39113 8.63047 7.3889 8.6294C7.38754 8.62069 7.38587 8.61246 7.38409 8.60473C7.37702 8.54376 7.35484 8.52071 7.41903 8.4921C7.42024 8.49151 7.43587 8.51849 7.43709 8.51789C7.44856 8.51257 7.46146 8.48365 7.48188 8.46909C7.50231 8.45448 7.50514 8.47964 7.51276 8.47274C7.51982 8.46618 7.50017 8.4439 7.51046 8.43436C7.54379 8.40359 7.56937 8.36698 7.58947 8.34588C7.60173 8.33306 7.6349 8.33623 7.64516 8.32535C7.68388 8.28486 7.75108 8.17657 7.80226 8.11711C7.81302 8.10483 7.83155 8.12868 7.8561 8.1018C7.85893 8.09867 7.8444 8.06792 7.85898 8.03894C7.87382 8.0096 7.90048 7.99974 7.9106 7.98121C7.91894 7.96585 7.89313 7.95504 7.91297 7.92583C7.93 7.90358 8.14509 7.63641 8.15931 7.62158C8.17989 7.60286 8.21869 7.61377 8.22441 7.5973C8.22526 7.5943 8.1978 7.56924 8.20132 7.55946C8.26024 7.39809 8.51094 7.11174 8.62032 6.94609C8.72952 6.7811 8.8319 6.61805 8.93577 6.45418C9.03958 6.28942 9.13768 6.11955 9.23991 5.93974C9.23805 5.93036 9.23618 5.92098 9.23429 5.91161C9.21352 5.94606 9.19271 5.98017 9.17167 6.01427C9.15673 6.00547 9.1418 5.99668 9.12686 5.98788C9.09648 6.03241 9.13509 6.0477 9.15697 6.05937C9.13756 6.07091 9.11814 6.08237 9.09871 6.09374C9.14101 6.14043 9.03602 6.23177 8.99884 6.28846C8.97466 6.3256 8.9647 6.38214 8.95017 6.40054C8.91957 6.43942 8.8894 6.41731 8.88675 6.42018C8.88665 6.4203 8.88654 6.42045 8.88643 6.42064C8.88131 6.42936 8.86667 6.50674 8.83648 6.54937C8.79078 6.61405 8.73842 6.5893 8.71889 6.70603C8.61744 6.80448 8.54584 6.93965 8.4687 7.06459C8.44011 7.01202 8.409 7.14937 8.37573 7.19767C8.17221 7.49343 7.90817 7.84231 7.68756 8.07575C7.65888 8.10634 7.61615 8.1083 7.60228 8.12587C7.59489 8.13518 7.61909 8.16334 7.60464 8.17234C7.60205 8.17381 7.57505 8.15266 7.55116 8.17137C7.4923 8.2201 7.41179 8.37356 7.34962 8.33497C7.3169 8.36428 7.29074 8.38123 7.29006 8.3841C7.32826 8.36341 7.45367 8.40064 7.4372 8.41117C7.41558 8.39556 7.39614 8.38097 7.37695 8.36578C7.38211 8.35166 7.3874 8.3376 7.39286 8.32366C7.31794 8.35604 7.21239 8.18848 7.13705 8.1076C7.00703 7.97206 6.82303 7.79072 6.70755 7.65887C6.68221 7.62991 6.67732 7.59274 6.65372 7.56558C6.6435 7.55387 6.61038 7.55562 6.59972 7.54326C6.48115 7.40664 6.3399 7.19742 6.22075 7.05743C6.16323 6.98983 6.1071 6.92349 6.04944 6.85515C5.84071 6.60772 5.63718 6.36389 5.41897 6.10787C4.48871 5.01695 3.53481 3.95448 2.62618 2.86112C2.61402 2.84649 2.63775 2.82757 2.62836 2.81619C2.57302 2.74879 2.42787 2.61662 2.36506 2.5406C2.3149 2.47996 2.26982 2.35529 2.21666 2.36487C2.34328 2.62301 2.53809 2.844 2.71106 3.07805C2.72334 3.09465 2.70302 3.11527 2.70426 3.11755C2.72702 3.15981 2.73791 3.11128 2.78357 3.16225C2.79894 3.1794 2.8648 3.39907 2.91841 3.32062C2.92331 3.38301 3.13935 3.66555 3.19275 3.70964C3.20898 3.72304 3.22018 3.69428 3.22389 3.69652C3.23999 3.70621 3.21677 3.7367 3.22645 3.74959C3.25252 3.78386 3.34601 3.847 3.35914 3.86277C3.38924 3.8987 3.45903 4.02792 3.50475 4.07064C3.54671 4.10991 3.56982 4.07671 3.60481 4.11235C3.63232 4.14051 3.57962 4.12929 3.62868 4.20238C3.65281 4.23829 3.76931 4.33909 3.7931 4.36709C3.81703 4.39527 3.82517 4.44099 3.85983 4.47902C3.90957 4.53367 4.022 4.64592 4.07634 4.69831C4.07955 4.70143 4.10975 4.69 4.11635 4.69875C4.13005 4.71685 4.097 4.73598 4.10515 4.75147C4.11295 4.76652 4.30875 4.99003 4.3416 5.02937C4.364 5.05608 4.39656 5.05985 4.40879 5.07456C4.41835 5.08614 4.39553 5.10762 4.40514 5.11949C4.40812 5.123 4.45515 5.13639 4.48108 5.16791C4.50573 5.19794 4.57913 5.32435 4.59039 5.338C4.59744 5.34647 4.6066 5.32289 4.62725 5.34804C4.646 5.37097 4.63651 5.40441 4.64704 5.41747C4.67145 5.44769 4.71831 5.46485 4.74553 5.49674C4.82309 5.58765 4.79144 5.60565 4.79523 5.61192C4.8055 5.62901 4.83545 5.61366 4.8403 5.61833C4.86044 5.63783 4.9088 5.68547 4.92551 5.70321C4.94639 5.72536 4.93091 5.75525 4.95157 5.77977C4.96744 5.79844 5.02249 5.81641 5.05909 5.85728C5.14177 5.94937 5.24212 6.05885 5.32005 6.15258C5.34316 6.18032 5.32479 6.20262 5.33165 6.21185C5.36703 6.25963 5.41227 6.26385 5.4227 6.2768C5.49733 6.36927 5.59677 6.56381 5.66485 6.65078C5.6931 6.68676 5.83626 6.82027 5.90615 6.90932C5.91397 6.91923 5.88934 6.92461 5.90104 6.93305C5.9212 6.94755 5.94373 6.93501 5.95843 6.93209C5.96419 6.93107 5.96879 6.93149 5.97165 6.93546C5.9765 6.94244 5.96941 6.97368 5.98309 6.99381C6.05255 7.09645 6.12373 7.14985 6.16005 7.19495C6.5012 7.61519 6.86138 8.07705 7.17033 8.40287C7.20444 8.43749 7.26106 8.4546 7.29407 8.51622C7.28661 8.52836 7.27919 8.54053 7.27182 8.55273C7.28249 8.54357 7.29312 8.53438 7.30372 8.52515C7.31394 8.53197 7.32357 8.5378 7.33284 8.54314C7.34971 8.5459 7.35939 8.53919 7.35896 8.55493C7.35769 8.55612 7.34323 8.619 7.3643 8.54186C7.35155 8.59842 7.36496 8.54117 7.3584 8.53532C7.35091 8.52966 7.34892 8.54995 7.36019 8.54997C7.36086 8.55102 7.36152 8.55213 7.36218 8.55332C7.36453 8.55679 7.36634 8.5611 7.36759 8.56601C7.37868 8.59657 7.37072 8.64581 7.3683 8.64547C7.36497 8.64569 7.35932 8.60624 7.35879 8.60413C7.35739 8.59806 7.34902 8.62871 7.3539 8.59353C7.34081 8.62912 7.3518 8.61229 7.34589 8.64548C7.34143 8.63057 7.33913 8.61524 7.33769 8.59946C7.31035 8.6611 7.29363 8.62742 7.28554 8.60295C7.26121 8.57149 7.24305 8.54961 7.22343 8.58076C7.22325 8.55766 7.2237 8.53483 7.22457 8.51214C7.10251 8.5498 7.12498 8.46421 7.08241 8.37234C7.0772 8.38724 7.07194 8.40206 7.06664 8.41681C7.06123 8.41995 6.98425 8.37071 7.0497 8.3531C6.92977 8.33959 7.02971 8.25436 6.90302 8.2549C6.85985 8.22454 6.92201 8.21195 6.86116 8.14408C6.82438 8.10288 6.75991 8.07244 6.71752 8.02629C6.7083 8.01615 6.72852 7.99079 6.7204 7.98134C6.71223 7.97186 6.68452 7.98755 6.6738 7.97626C6.6521 7.95358 6.64259 7.90873 6.62759 7.89443C6.61507 7.88254 6.57822 7.88183 6.54651 7.85131C6.43874 7.74834 6.49757 7.75667 6.49268 7.73038C6.48751 7.70242 6.43505 7.72074 6.40765 7.67915C6.4049 7.67493 6.43791 7.66389 6.42643 7.65232C6.41711 7.64286 6.38628 7.66081 6.35223 7.63076C6.33973 7.62016 6.15704 7.4159 6.13013 7.38503C6.08802 7.3367 6.01965 7.20976 5.97673 7.15931C5.95993 7.13943 5.92102 7.13708 5.90403 7.11669C5.88503 7.09388 5.86199 7.06599 5.83656 7.03512C5.78879 6.97708 5.73141 6.90714 5.68384 6.8495C5.6184 6.77018 5.55065 6.59386 5.4712 6.58699C5.37306 6.48241 5.38701 6.4246 5.38035 6.41573C5.36226 6.39161 5.33003 6.40278 5.30508 6.37562C4.98226 6.02327 4.59163 5.53043 4.29679 5.18707C3.61341 4.39162 2.91711 3.59908 2.24545 2.78891C2.23289 2.7959 2.22032 2.80288 2.20775 2.80986C2.28113 2.91023 2.35745 3.03785 2.43259 3.13492C2.53325 3.26477 2.73529 3.41184 2.73983 3.566C2.70163 3.5341 2.67852 3.44985 2.64167 3.483C2.69506 3.5513 2.74943 3.62075 2.80292 3.68916C2.81868 3.67236 2.83444 3.65557 2.8502 3.63877C2.91388 3.70343 2.97099 3.77834 3.03228 3.84541C3.04292 3.85711 3.05151 3.83513 3.0605 3.84554C3.07052 3.85721 3.04765 3.86296 3.04939 3.86527C3.07463 3.8953 3.0986 3.89047 3.10146 3.89431C3.10875 3.9042 3.08707 3.91013 3.1056 3.94075C3.13989 3.99757 3.2113 3.99807 3.1327 4.04476C3.14636 4.06083 3.15988 4.07675 3.1736 4.0929C3.19586 4.08121 3.21812 4.06951 3.24038 4.05781C3.24947 4.2215 3.41984 4.15367 3.36168 4.29816C3.39312 4.30264 3.42452 4.30709 3.4559 4.3115C3.44584 4.33755 3.43577 4.3636 3.42569 4.38963C3.44342 4.37797 3.46115 4.36632 3.47888 4.35466C3.54944 4.46171 3.65647 4.54867 3.73396 4.64365C3.78786 4.70972 3.79421 4.73005 3.84432 4.78661C3.95579 4.91231 3.81617 4.81245 3.87174 4.94759C3.88675 4.92538 3.90176 4.90317 3.91676 4.88095C3.93885 4.89235 3.9609 4.9037 3.98291 4.91501C3.97707 4.94065 3.97166 4.96682 3.96602 4.9927C4.09561 4.97658 4.05807 5.06857 4.06432 5.07594C4.06966 5.08194 4.13645 5.05901 4.14912 5.15996C4.19495 5.07506 4.19125 5.20877 4.1959 5.21507C4.2006 5.22117 4.27776 5.28105 4.30294 5.31202C4.32254 5.33608 4.35034 5.39873 4.38047 5.43276C4.40712 5.46286 4.42803 5.44034 4.43012 5.44232C4.46458 5.479 4.42614 5.47035 4.4487 5.49872C4.47122 5.52705 4.50907 5.53145 4.51231 5.53887C4.51389 5.54264 4.48378 5.5511 4.49323 5.56647C4.51803 5.60726 4.59438 5.65876 4.62914 5.70088C4.64156 5.71586 4.63898 5.7501 4.65232 5.76696C4.6733 5.79331 4.70791 5.7846 4.71978 5.80005C4.72384 5.80548 4.71409 5.87048 4.75417 5.90597C4.7618 5.91261 4.8609 5.86758 4.77377 5.99418C4.79168 5.98303 4.80959 5.97187 4.8275 5.96072C4.98233 6.06336 4.88648 6.21252 5.05202 6.17507C5.12388 6.28581 5.02104 6.25516 5.02347 6.27191C5.0252 6.28273 5.06505 6.30481 5.06734 6.30894C5.07131 6.31639 5.05604 6.32748 5.06196 6.3343C5.17116 6.45773 5.15153 6.37964 5.2026 6.40508C5.32392 6.46536 5.29587 6.61626 5.18328 6.42816C5.17528 6.43495 5.16727 6.44174 5.15926 6.44853C5.20131 6.48262 5.28578 6.58969 5.21572 6.58936C5.16044 6.58899 4.97232 6.32471 5.04618 6.50286C5.06301 6.54331 5.10699 6.53427 5.09649 6.63615C5.12458 6.6755 5.20216 6.61903 5.21421 6.69266C5.2329 6.66308 5.25157 6.63347 5.27022 6.60383C5.3591 6.64142 5.3858 6.76328 5.44302 6.80191C5.46309 6.81576 5.63768 6.77565 5.50382 6.86381C5.53542 6.88578 5.63011 7.04308 5.66366 7.06067C5.67034 7.06398 5.72492 7.03056 5.77264 7.08915C5.78071 7.09905 5.78862 7.11136 5.79611 7.12657C5.79331 7.13971 5.79049 7.15283 5.78765 7.16592C5.69447 7.10347 5.79315 7.26884 5.69847 7.28137C5.71132 7.253 5.691 7.19861 5.68318 7.16478C5.68126 7.15551 5.68035 7.14789 5.6815 7.14302C5.69052 7.10524 5.76569 7.1317 5.70069 7.07185C5.6054 7.10214 5.64671 7.15053 5.64438 7.19758C5.64391 7.21971 5.63439 7.24156 5.59888 7.2614C5.72052 7.31305 5.68277 7.35641 5.69888 7.37914C5.76451 7.47168 5.82024 7.51668 5.87766 7.60766C5.91405 7.61012 5.81921 7.43932 5.79484 7.428C5.92182 7.43433 5.82937 7.31845 5.74472 7.30375C5.7628 7.28165 5.78087 7.25953 5.79892 7.2374C5.84149 7.31134 5.88682 7.37708 5.95792 7.42551C5.95332 7.43633 5.94872 7.44714 5.9441 7.45794C5.92031 7.45429 5.8964 7.45048 5.87234 7.44652C5.89694 7.51571 5.93199 7.43037 5.9366 7.54691C5.96258 7.52868 5.98857 7.51045 6.01454 7.49221C6.06261 7.56532 6.1103 7.63795 6.15947 7.71227C6.23611 7.70471 6.32735 7.84879 6.24493 7.87849C6.28461 7.93418 6.26372 7.84209 6.31988 7.87737C6.3435 7.89179 6.38151 7.93272 6.3729 7.95667C6.30994 8.00331 6.24959 7.94732 6.19333 7.96398C6.1895 7.98658 6.47497 8.23499 6.38479 8.26982C6.39599 8.29969 6.42208 8.25786 6.46713 8.29163C6.59057 8.38362 6.67735 8.62279 6.84573 8.62849C6.79734 8.48314 6.71877 8.49726 6.64464 8.41804C6.59586 8.36704 6.31079 8.05146 6.43512 8.06941C6.41667 8.06397 6.39916 8.05964 6.38092 8.05444C6.38938 8.02646 6.39768 7.99828 6.40582 7.96991C6.43846 8.00276 6.4689 8.03296 6.50118 8.06523C6.48944 8.08923 6.47762 8.11315 6.46573 8.13698C6.48203 8.12908 6.49881 8.12173 6.51533 8.11409C6.53046 8.12639 6.54532 8.13833 6.5599 8.14994C6.54059 8.15978 6.52124 8.16958 6.50187 8.17935C6.51724 8.20275 6.5346 8.2284 6.55022 8.25196C6.56651 8.22778 6.58277 8.20357 6.59899 8.1793C6.69304 8.27713 6.64982 8.25409 6.65924 8.34484C6.69249 8.39075 6.67067 8.28432 6.75894 8.36346C6.86186 8.45421 6.73766 8.4465 6.87044 8.56232C6.88234 8.55447 6.89409 8.54647 6.90607 8.5387C6.92213 8.576 6.93818 8.61259 6.95473 8.6486C6.96336 8.6326 6.97239 8.61697 6.98126 8.60118C7.03052 8.66074 7.12633 8.69974 7.10248 8.76812C7.06612 8.6949 6.98789 8.78384 6.98898 8.81434C6.98951 8.82783 7.01427 8.85712 7.05574 8.89354C7.15051 8.99438 7.40092 9.03923 7.53379 8.956C7.58707 8.9299 7.62755 8.90141 7.64859 8.88721C7.77187 8.80149 7.88702 8.74292 7.94435 8.59734C7.84706 8.64193 7.61832 8.88415 7.54842 8.86876C7.54128 8.86857 7.49608 8.76947 7.51761 8.89521C7.51465 8.89591 7.51171 8.89662 7.50879 8.89734C7.41026 8.92223 7.29351 8.96096 7.17164 8.89341C7.19007 8.86746 7.20775 8.84104 7.22467 8.81421C7.26737 8.90905 7.3504 8.76678 7.32695 8.88773C7.34043 8.88906 7.35392 8.88951 7.36742 8.88909C7.36676 8.86798 7.3661 8.84688 7.36544 8.82577C7.38165 8.82526 7.39803 8.82317 7.41469 8.81941C7.41934 8.84001 7.42399 8.86061 7.42864 8.88121C7.4456 8.87737 7.46263 8.87217 7.47969 8.8656C7.47388 8.84527 7.4678 8.82503 7.46145 8.80489C7.46423 8.80598 7.46715 8.80661 7.47021 8.80681C7.54108 8.81387 7.64328 8.60911 7.6388 8.76217C7.66439 8.74344 7.69031 8.72273 7.71499 8.70167C7.70489 8.69 7.69479 8.67831 7.6847 8.66663C7.69373 8.6562 7.7033 8.64506 7.71205 8.6344C7.71802 8.64783 7.72394 8.66128 7.72957 8.67495C7.76058 8.61426 7.85869 8.62004 7.85464 8.55436C7.82684 8.56809 7.79853 8.58164 7.77087 8.59373C7.82517 8.56988 7.86524 8.4656 7.8711 8.45854C7.89019 8.43711 7.9231 8.44707 7.94494 8.42439C7.96456 8.40379 7.94384 8.39099 7.94788 8.38759C8.06445 8.28678 8.12826 8.41212 8.05387 8.25965C8.07501 8.26679 8.09622 8.27383 8.11749 8.28077C8.1101 8.26185 8.10267 8.24293 8.09521 8.22403C8.12492 8.18863 8.15396 8.15326 8.18295 8.11729C8.15281 8.11375 8.12259 8.11025 8.09241 8.10661C8.1243 8.04508 8.18547 8.05043 8.19058 8.04561C8.20439 8.03203 8.18269 8.00573 8.18611 8.00096C8.35369 7.77339 8.27662 7.93025 8.4608 7.88456C8.4501 7.81477 8.38055 7.82921 8.33576 7.80681C8.39332 7.76493 8.39445 7.73917 8.43693 7.68212C8.44806 7.66721 8.48149 7.66563 8.48848 7.65602C8.49463 7.64756 8.48885 7.60558 8.50255 7.58515C8.52547 7.55095 8.56966 7.5157 8.60083 7.46844C8.6263 7.42979 8.68938 7.29906 8.74448 7.21562C8.76819 7.17991 8.7825 7.20129 8.78867 7.19208C8.7912 7.18827 8.78586 7.14486 8.80099 7.12186C8.91468 6.94947 9.04438 6.78166 9.164 6.60928C9.17405 6.59481 9.18396 6.58027 9.19372 6.56566C9.27954 6.43726 9.34447 6.2924 9.42702 6.16102C9.44463 6.13302 9.45341 6.15881 9.46153 6.14683C9.46425 6.14265 9.4362 6.11877 9.47499 6.08248C9.48902 6.06929 9.49999 6.10065 9.51042 6.08564C9.51547 6.07831 9.49003 6.05874 9.51003 6.0105C9.54619 5.92282 9.60817 5.90002 9.6113 5.8921C9.61707 5.87712 9.59184 5.86797 9.60147 5.84924C9.64846 5.7576 9.6864 5.68039 9.72893 5.59852C9.7491 5.56076 9.88534 5.29631 9.89703 5.28362C9.92355 5.25619 9.95634 5.31222 9.97671 5.26975C9.97051 5.25159 9.96435 5.23333 9.95815 5.21513C9.93895 5.22876 9.91979 5.24228 9.90061 5.25577C9.94325 5.21326 9.95158 5.14351 9.97226 5.10615C9.97615 5.09923 10.0321 5.0464 10.0469 5.01218C10.0487 5.03105 10.0506 5.04977 10.0525 5.06858C10.0629 5.06773 10.0734 5.06689 10.0838 5.06604C10.1064 4.99387 10.1431 4.92418 10.1801 4.85717C10.1934 4.83301 10.2081 4.85128 10.2217 4.82675C10.301 4.68442 10.2027 4.6793 10.4243 4.6179C10.3859 4.65806 10.3158 4.83895 10.2978 4.86134C10.2853 4.87701 10.1246 4.87853 10.2665 4.92112C10.1937 5.05951 10.1853 4.902 10.1335 5.03934C10.1506 5.04497 10.1677 5.05061 10.1848 5.05624C10.1711 5.10667 10.1617 5.14389 10.1196 5.15676C10.1911 5.20613 10.0662 5.33537 10.0267 5.42153C9.96969 5.54593 9.91448 5.69154 9.85165 5.81142C9.82998 5.85275 9.78756 5.85912 9.78481 5.86422C9.78084 5.87174 9.79477 5.90716 9.78651 5.9221C9.75588 5.97833 9.61563 6.11937 9.66104 6.20268C9.85577 5.87728 10.0359 5.54295 10.2125 5.20588C10.1547 5.2296 10.3292 4.88658 10.34 4.87002C10.3499 4.85479 10.368 4.88139 10.372 4.87741C10.4013 4.84746 10.3806 4.79834 10.3865 4.78697C10.391 4.77835 10.4172 4.76985 10.4328 4.73909C10.4356 4.73346 10.4184 4.72247 10.4215 4.71642C10.4422 4.67666 10.4633 4.63714 10.4841 4.59722C10.4856 4.59489 10.5172 4.59866 10.5226 4.58855C10.5279 4.5784 10.5069 4.55451 10.5082 4.55191C10.5252 4.51999 10.5713 4.47433 10.5877 4.44401C10.5933 4.43347 10.5702 4.43053 10.5766 4.41882C10.5965 4.38281 10.6277 4.41495 10.642 4.36487C10.6469 4.34811 10.6176 4.33358 10.6369 4.3069C10.6506 4.28803 10.7005 4.31794 10.7041 4.31573C10.7087 4.31253 10.7066 4.22032 10.7525 4.21592C10.8133 4.31406 10.7871 4.16395 10.7474 4.14829C10.7721 4.12574 10.7967 4.1035 10.8216 4.08103C10.8175 4.06635 10.8134 4.05167 10.8094 4.03698C10.9145 3.94974 10.9283 3.8681 11.0061 3.76792C11.0097 3.76304 11.0854 3.6853 11.0957 3.69764C11.0844 3.76513 11.0534 3.81885 10.9912 3.82924C11.0362 3.93294 10.9725 3.89689 10.9294 3.99571C10.9151 4.02893 10.9355 4.04351 10.9337 4.04725C10.875 4.17431 10.7781 4.37466 10.6697 4.42367C10.6746 4.45621 10.7263 4.37621 10.7216 4.41558C10.7184 4.43654 10.5141 4.87535 10.5118 4.69974C10.5064 4.71506 10.501 4.7304 10.4957 4.74564C10.5583 4.79639 10.5054 4.85878 10.4398 4.81438C10.4505 4.82856 10.4613 4.84271 10.4721 4.85683C10.4774 4.87634 10.4757 4.89535 10.4681 4.91934C10.4393 5.01131 10.1529 5.4989 10.1477 5.53025C10.1639 5.53967 10.18 5.54908 10.1962 5.5585C10.3329 5.34786 10.4034 5.11095 10.5762 4.89482C10.557 4.89373 10.5379 4.8926 10.5187 4.8915C10.5906 4.80652 10.6624 4.72206 10.7347 4.6378C10.7092 4.75374 10.6487 4.92752 10.5698 5.0225C10.5558 5.03936 10.5414 5.01415 10.5365 5.01715C10.5237 5.02499 10.555 5.05676 10.5373 5.09971C10.5195 5.14276 10.4391 5.23193 10.4349 5.24179C10.427 5.26075 10.4442 5.33247 10.4273 5.3633C10.4051 5.40365 10.3929 5.36238 10.388 5.37026C10.3676 5.40268 10.3647 5.44009 10.3487 5.46555C10.325 5.50335 10.2349 5.56024 10.2885 5.62426C10.3067 5.59782 10.3248 5.57142 10.3429 5.54487C10.286 5.71087 10.1347 5.78225 10.1181 5.96863C10.1809 6.0486 10.2392 5.91819 10.2155 6.0428C10.225 6.02304 10.2345 6.0033 10.2439 5.98357C10.2292 5.96955 10.2145 5.95554 10.1998 5.94155C10.2303 5.91555 10.2607 5.88941 10.291 5.86328C10.2705 5.86425 10.25 5.8652 10.2295 5.86612C10.282 5.74337 10.329 5.61735 10.4338 5.62086C10.415 5.60774 10.3962 5.59463 10.3773 5.58152C10.4596 5.48617 10.4593 5.27862 10.5556 5.36782C10.5523 5.35957 10.549 5.35132 10.5458 5.34308C10.6029 5.28967 10.5419 5.29338 10.5495 5.26601C10.5518 5.2581 10.6419 5.14376 10.6459 5.21734C10.736 5.10659 10.611 5.09029 10.6241 5.05381C10.7174 5.00152 10.7134 4.81909 10.7644 4.92158C10.7737 4.91145 10.7829 4.90135 10.7921 4.89126C10.7476 4.81891 10.8406 4.81912 10.8868 4.79053C10.8957 4.77718 10.9046 4.76386 10.9134 4.75058C10.8967 4.72972 10.88 4.70886 10.8633 4.68799C11.0364 4.61074 10.7325 4.5023 11.0012 4.56871C11.0104 4.58564 11.0195 4.60261 11.0287 4.61948C11.0236 4.64512 11.0186 4.67082 11.0135 4.6966C11.0672 4.6107 11.1213 4.52498 11.1756 4.44089C11.3027 4.36624 11.2667 4.2635 11.388 4.17324C11.3884 4.15841 11.3888 4.14359 11.3892 4.1288C11.4348 4.17111 11.4019 4.20936 11.4726 4.14323C11.5135 4.15839 11.4866 4.21475 11.4437 4.22313C11.4332 4.2251 11.4345 4.15748 11.4001 4.21424C11.3769 4.25294 11.4624 4.20742 11.3785 4.31549C11.3901 4.31633 11.4017 4.31717 11.4133 4.318C11.4057 4.33063 11.3983 4.34312 11.3908 4.35576C11.3632 4.35515 11.3356 4.35465 11.308 4.35424C11.3219 4.40116 11.3558 4.4411 11.3092 4.50397C11.306 4.47817 11.2494 4.47969 11.2317 4.51383C11.2471 4.52226 11.2625 4.5307 11.278 4.53913C11.2433 4.62635 11.2133 4.57356 11.2118 4.66113C11.1958 4.66138 11.1798 4.66165 11.1638 4.66195C11.1944 4.72651 11.1555 4.88361 11.0926 4.81798C11.1461 4.89623 11.0694 4.96087 10.9937 4.96075C11.008 4.97122 11.0222 4.98168 11.0364 4.99214C11.0309 5.01028 11.0256 5.0282 11.0201 5.04629C11.006 5.05057 10.9918 5.05487 10.9777 5.05918C10.9809 5.07575 10.9842 5.09233 10.9874 5.10893C10.9682 5.10791 10.949 5.10683 10.9298 5.1058C10.9387 5.13428 10.9475 5.1628 10.9563 5.19137C10.9379 5.19646 10.9194 5.20162 10.901 5.2067C10.9329 5.22459 10.8803 5.34322 10.8423 5.36423C10.8467 5.37872 10.8512 5.39322 10.8556 5.40773C10.8377 5.40438 10.8198 5.40102 10.8019 5.39766C10.8106 5.41125 10.8191 5.42488 10.8278 5.43844C10.8068 5.44842 10.7859 5.45842 10.7649 5.46844C10.8052 5.57535 10.7378 5.54277 10.7302 5.55835C10.7161 5.58723 10.7119 5.70952 10.7007 5.72458C10.6896 5.73957 10.6584 5.73305 10.6488 5.74485C10.4904 5.93865 10.6102 5.88856 10.5982 5.93832C10.5916 5.96523 10.5575 5.96828 10.5489 5.99055C10.5345 6.02845 10.4675 6.22657 10.4581 6.23519C10.4449 6.24757 10.3476 6.14611 10.3503 6.21179C10.4124 6.24905 10.2893 6.3173 10.4048 6.31856C10.3724 6.35725 10.3399 6.39579 10.3071 6.43433C10.3839 6.47275 10.3054 6.49797 10.275 6.55814C10.2326 6.64312 10.1657 6.85714 10.0953 6.80332C10.1002 6.83351 10.1049 6.8638 10.1094 6.89419C10.0415 6.96822 9.9918 7.05258 9.94158 7.13775C9.91437 7.18453 9.88791 7.23141 9.85781 7.27687C9.62 7.63556 9.3461 8.02577 9.06904 8.38941C9.05571 8.40682 9.03416 8.38753 9.02446 8.40013C8.97437 8.46607 8.86181 8.65524 8.78071 8.74797C8.75493 8.7778 8.72118 8.77518 8.71253 8.78401C8.68243 8.81445 8.71737 8.82977 8.70417 8.84447C8.68446 8.86709 8.5501 8.97398 8.50714 9.01502C8.48586 9.03601 8.48454 9.08082 8.45289 9.10103C8.45024 9.10275 8.4322 9.07784 8.43004 9.07936C8.38279 9.12338 8.42839 9.11351 8.4122 9.12828C8.29441 9.23357 8.16511 9.35628 7.97293 9.4676C7.92512 9.49552 7.83523 9.51838 7.78568 9.53677C7.78407 9.53739 7.78291 9.53801 7.78209 9.53864C7.77204 9.54556 7.80585 9.55337 7.73774 9.57782C7.71173 9.5866 7.69321 9.56147 7.66372 9.56855C7.53814 9.59575 7.49493 9.69778 7.3687 9.62488C7.14729 9.6455 6.80069 9.52962 6.65305 9.40276C6.64474 9.39657 6.6369 9.39053 6.62963 9.38471C6.60674 9.3663 6.60674 9.34344 6.58494 9.32537C6.56946 9.31254 6.52463 9.30972 6.50082 9.28852C6.47733 9.26766 6.45892 9.215 6.41806 9.17574C6.37483 9.13435 6.31489 9.09349 6.30666 9.08458C6.29629 9.07357 6.31516 9.0457 6.30458 9.03496C6.27224 9.00211 6.16965 8.93667 6.13 8.8969C6.08809 8.8551 6.07675 8.81786 6.06305 8.80265C6.04984 8.78818 6.01568 8.7911 6.00972 8.78461C6.00071 8.77488 6.02312 8.75132 6.01167 8.73852C5.99402 8.71894 5.95949 8.71011 5.93291 8.68004C5.63498 8.34236 5.36018 8.00849 5.08606 7.66957C4.91631 7.45932 4.74503 7.2443 4.57798 7.03309C4.53029 6.97272 4.48287 6.95188 4.41733 6.85856C4.39032 6.82016 4.42855 6.81361 4.40005 6.78975C4.38729 6.77912 4.36988 6.79921 4.35555 6.78427C4.294 6.72018 4.24265 6.62189 4.21786 6.59331C4.20777 6.58161 4.17359 6.58744 4.15259 6.56335C3.99625 6.38426 3.82064 6.16438 3.65107 5.97262C3.56099 5.87073 3.41655 5.7241 3.31479 5.60737C3.03196 5.28294 2.73848 4.92678 2.48237 4.62991C2.09583 4.18166 1.69382 3.75124 1.33615 3.27999C1.4601 3.53728 1.70826 3.81997 1.90146 4.05939C2.45964 4.75082 3.10368 5.44408 3.69169 6.13931C3.89627 6.38115 4.15581 6.68449 4.36708 6.95955C4.37662 6.97195 4.41477 6.98146 4.43534 7.00949C4.43974 7.01555 4.46574 7.11098 4.48446 7.13372C4.52245 7.06348 4.54918 7.19759 4.57381 7.22389C4.60449 7.25649 4.69618 7.3072 4.74922 7.40239C4.79837 7.48989 4.75866 7.48727 4.76088 7.49267C4.77429 7.52647 4.81654 7.505 4.8378 7.52291C4.87033 7.55036 4.93999 7.63193 5.01774 7.72732C5.14552 7.88402 5.29947 8.08268 5.35998 8.15582C5.3863 8.18759 5.36447 8.20717 5.37032 8.21425C5.38609 8.2332 5.42864 8.23866 5.45449 8.2695C5.49893 8.32265 5.53027 8.40242 5.55414 8.43071C5.61398 8.50176 5.75046 8.6119 5.83019 8.70378C5.85278 8.72981 5.82813 8.74792 5.83817 8.75943C5.88273 8.81059 6.02637 8.92132 6.08544 8.9868C6.18069 9.09237 6.26799 9.21901 6.4049 9.33362C6.40392 9.35132 6.40304 9.36902 6.40225 9.38672C6.42541 9.38851 6.44832 9.38984 6.47141 9.39111C6.50812 9.42573 6.54702 9.45881 6.58507 9.48872C6.87903 9.74574 7.44979 9.83073 7.82813 9.64666C7.82828 9.6466 7.82843 9.64653 7.82858 9.64647C7.88176 9.62935 8.09195 9.53782 8.11641 9.51671C8.13991 9.50055 8.14333 9.45679 8.17797 9.43675C8.22545 9.40858 8.2251 9.49133 8.28385 9.41994C8.2986 9.4011 8.26394 9.39459 8.29353 9.35802C8.30942 9.34511 8.49773 9.14652 8.50479 9.13781C8.5235 9.12267 8.58011 9.1481 8.58529 9.14434C8.61132 9.12578 8.57692 9.09636 8.58774 9.07818C8.61875 9.02538 8.69177 8.98621 8.69717 8.97867C8.76643 8.88467 8.8638 8.70038 8.94689 8.62299C8.95859 8.61216 8.98456 8.63362 8.98708 8.63205C9.00329 8.62181 8.97866 8.59061 8.98777 8.57663C9.03763 8.50127 9.13824 8.40376 9.19366 8.33516C9.20001 8.32727 9.19701 8.29923 9.20875 8.28535C9.27476 8.20768 9.28043 8.25148 9.28476 8.24745C9.29501 8.23804 9.28195 8.19936 9.30037 8.16867C9.3486 8.08831 9.45055 7.94453 9.50672 7.86459C9.54912 7.8045 9.57939 7.82638 9.5827 7.82274C9.58947 7.81498 9.58033 7.77485 9.60413 7.73288C9.64933 7.65274 9.6681 7.67752 9.68789 7.64541C9.68964 7.64277 9.66266 7.63148 9.68327 7.5951C9.72332 7.52442 9.84647 7.39046 9.89271 7.31915C9.91053 7.29169 9.89189 7.2698 9.91016 7.24177C9.92412 7.22026 9.95284 7.18989 9.97941 7.16346C10.01 7.13194 10.0375 7.10507 10.0404 7.1006C10.042 7.09817 10.0192 7.07508 10.0286 7.06091C10.0389 7.04533 10.0628 7.03895 10.0704 7.02719C10.114 6.96034 10.1398 6.81557 10.2156 6.9084C10.2056 6.87183 10.1953 6.83548 10.1848 6.79915C10.277 6.66213 10.349 6.51949 10.4243 6.37716C10.4413 6.34525 10.475 6.32959 10.4891 6.30256C10.5034 6.27553 10.5379 6.14112 10.5479 6.12143C10.5667 6.08587 10.6708 5.88664 10.686 5.86325C10.716 5.81764 10.7822 5.79332 10.7845 5.76945C10.7862 5.75035 10.7552 5.75235 10.7643 5.71908C10.7802 5.66156 10.8562 5.59002 10.864 5.57412C10.8673 5.56734 10.8425 5.57019 10.874 5.50691C10.8908 5.47284 10.9204 5.46531 10.9267 5.45301C10.9286 5.44919 10.893 5.43768 10.932 5.37358C10.959 5.32937 10.9944 5.32292 10.997 5.31819C11.0009 5.31107 10.983 5.27965 10.999 5.25135C11.0366 5.18481 11.1311 5.0786 11.1666 5.01664C11.1735 5.00469 11.1388 4.99171 11.1673 4.94481C11.1878 4.91112 11.2104 4.93084 11.2182 4.91841C11.2307 4.89867 11.2151 4.85159 11.2402 4.80689C11.2713 4.74844 11.5296 4.3561 11.5504 4.34311C11.564 4.33248 11.5736 4.31673 11.5913 4.31792C11.601 4.33137 11.6108 4.34481 11.6206 4.35824C11.5395 4.39215 11.6064 4.39821 11.6005 4.41624C11.592 4.44217 11.535 4.52757 11.5349 4.55584C11.5349 4.56595 11.573 4.56398 11.5646 4.61361C11.5555 4.66701 11.4941 4.65918 11.5535 4.71496C11.4415 4.73734 11.4901 4.84342 11.5521 4.78081C11.5866 4.74287 11.8349 4.36447 11.8855 4.29551C11.9259 4.23587 11.9763 4.11127 12.0285 4.04408C12.0335 4.03764 12.0395 4.02963 12.0463 4.0209C12.089 3.9646 12.1538 3.88156 12.1803 3.90523C12.2145 3.86259 12.148 3.88786 12.1494 3.87511C12.1526 3.84863 12.2693 3.7214 12.2854 3.69357C12.3664 3.55657 12.4308 3.36271 12.554 3.2606C12.56 3.27244 12.566 3.28423 12.572 3.29608C12.5721 3.33596 12.4641 3.45638 12.5002 3.50023C12.6232 3.30085 12.7409 3.10174 12.8533 2.91124C12.8122 2.89049 12.9504 2.65831 12.9742 2.65937C12.9909 2.67476 13.0076 2.69015 13.0243 2.70554C12.8749 2.7915 12.9775 2.83734 12.874 2.8961C12.8517 2.93217 12.8898 2.93979 12.8852 2.96139C12.8379 3.17754 12.819 2.92542 12.7647 3.0816C12.8356 3.0665 12.7843 3.19121 12.7588 3.24706C12.7533 3.25941 12.6472 3.40948 12.6363 3.42868C12.5769 3.53603 12.4882 3.73353 12.3963 3.8222C12.3405 3.90258 12.3429 3.96844 12.301 4.04774C12.2692 4.10784 12.2577 4.07696 12.2398 4.10315C12.2313 4.11567 12.2275 4.12867 12.2253 4.14097C12.2231 4.17504 12.2384 4.20368 12.1511 4.17752C12.1434 4.21506 12.1361 4.25257 12.1287 4.29076C12.1139 4.2814 12.099 4.27203 12.0841 4.26267C12.072 4.28188 12.0599 4.30133 12.0478 4.32102C12.0591 4.336 12.0705 4.35097 12.0819 4.36591C12.0233 4.4158 12.003 4.36806 11.9532 4.35411C11.9419 4.36616 11.9306 4.37839 11.9194 4.39061C11.9458 4.42094 11.9723 4.45118 11.9988 4.48136C11.9594 4.54208 11.9202 4.60402 11.8811 4.66725C11.8634 4.66286 11.8458 4.65849 11.8281 4.65414C11.8433 4.66285 11.8585 4.67157 11.8737 4.68028C11.8151 4.79208 11.7567 4.90724 11.698 5.02502C11.7065 5.06861 11.8239 4.89458 11.8329 4.88223C11.8825 4.80942 11.9681 4.60023 12.0225 4.63174C12.0077 4.56338 12.0962 4.43647 12.1678 4.42714C12.1284 4.48515 12.0889 4.54524 12.0495 4.60669C12.0688 4.61513 12.088 4.62359 12.1073 4.63207C11.9889 4.66834 11.9858 4.68327 12.0089 4.80544C11.9843 4.79186 11.9598 4.77828 11.9352 4.76469C11.9881 4.87011 11.7851 4.89671 11.8893 4.95757C11.8634 4.98488 11.8373 5.01268 11.8113 5.04074C11.7865 5.11881 11.9273 5.04977 11.7469 5.31438C11.7344 5.33281 11.7094 5.31444 11.6957 5.34509C11.6918 5.35397 11.7059 5.42328 11.6524 5.51606C11.644 5.53055 11.6198 5.51938 11.6087 5.53327C11.583 5.5653 11.5926 5.66102 11.5333 5.58895C11.4368 5.7201 11.53 5.69355 11.5317 5.75099C11.5326 5.78936 11.4907 5.75994 11.4874 5.79103C11.4833 5.82967 11.5413 5.82953 11.4526 5.94769C11.4572 5.93156 11.4617 5.9155 11.4662 5.89942C11.4501 5.90024 11.4339 5.90101 11.4178 5.90181C11.4086 5.99103 11.369 5.96148 11.4196 6.03295C11.3603 6.07053 11.3329 6.1161 11.2986 6.19352C11.2312 6.3443 11.3457 6.31049 11.1548 6.42244C11.1537 6.45724 11.1527 6.492 11.1514 6.52695C11.0972 6.55527 11.0809 6.49868 11.0361 6.56108C11.1376 6.54959 11.0319 6.67535 11.0817 6.73624C11.065 6.73 11.0484 6.72375 11.0317 6.71749C11.0231 6.73245 11.0144 6.74743 11.0058 6.76242C11.0179 6.76953 11.0301 6.77665 11.0423 6.78376C11.0215 6.79849 11.0007 6.81322 10.9799 6.82791C10.9832 6.85 10.9864 6.87214 10.9895 6.89434C10.9495 6.90418 10.9094 6.91394 10.8693 6.92354C10.8583 6.938 10.8472 6.95246 10.8362 6.96694C10.8571 6.97287 10.878 6.97879 10.899 6.98469C10.8809 7.00109 10.8628 7.01748 10.8446 7.03386C10.8882 7.02843 10.914 7.06408 10.8746 7.1262C10.8419 7.17747 10.8172 7.08141 10.7732 7.20813C10.77 7.21701 10.8055 7.25793 10.7443 7.3677C10.67 7.49926 10.6787 7.4175 10.663 7.43928C10.6599 7.4436 10.6561 7.49627 10.6348 7.53449C10.6228 7.55618 10.5922 7.56423 10.5904 7.56696C10.5885 7.5702 10.5884 7.57387 10.5891 7.57784C10.5923 7.58869 10.6033 7.6026 10.5966 7.6139C10.5739 7.65188 10.5286 7.69316 10.5054 7.7304C10.4948 7.74727 10.4989 7.77255 10.4941 7.78005C10.4866 7.79165 10.4546 7.79146 10.4469 7.80319C10.4186 7.8465 10.4482 7.96163 10.3324 7.9138C10.3987 8.01827 10.2258 8.03148 10.2933 8.06702C10.1951 8.16352 10.0638 8.52813 9.963 8.4491C10.0082 8.57693 9.94641 8.52743 9.92863 8.55662C9.90855 8.58942 9.93721 8.58482 9.91925 8.60954C9.87683 8.66793 9.83007 8.71998 9.78788 8.77986C9.7801 8.76048 9.77229 8.74112 9.76446 8.72178C9.71633 8.78121 9.76456 8.78315 9.72536 8.85251C9.65164 8.98125 9.66092 8.91183 9.61115 8.9029C9.65126 8.92325 9.54102 9.06335 9.52425 9.07552C9.51472 9.08228 9.49833 9.00946 9.44601 9.10975C9.46374 9.11534 9.48151 9.12086 9.49915 9.12655C9.4496 9.15317 9.38543 9.28546 9.36475 9.30145C9.35518 9.3091 9.20733 9.26796 9.25685 9.38336C9.23882 9.37767 9.22083 9.37193 9.20285 9.36613C9.17785 9.42901 9.14991 9.49382 9.11894 9.5598C9.08789 9.54715 9.05694 9.53432 9.02611 9.52131C9.01112 9.53775 8.99627 9.55383 8.98065 9.57047C9.01156 9.57847 9.042 9.58687 9.07283 9.59473C8.97193 9.68787 8.85754 9.85691 8.76723 9.80963C8.75279 9.84615 8.73555 9.88439 8.7177 9.92215C8.67885 9.91367 8.63858 9.90598 8.59907 9.89719C8.45624 10.0169 8.46132 10.0373 8.34697 10.1468C8.33998 10.1224 8.33306 10.098 8.32537 10.074C8.27875 10.1251 8.19777 10.1928 8.0872 10.2546C7.9947 10.3049 7.88601 10.3482 7.78095 10.3744C7.66327 10.4078 7.44368 10.3923 7.41502 10.3938C7.39118 10.4044 7.07315 10.5165 7.05917 10.3914C6.62237 10.3592 6.49888 10.2025 6.36952 10.1321C6.29121 10.0839 6.24082 10.0789 6.16184 10.0239C6.15948 10.0224 6.1571 10.0208 6.15468 10.0191C6.09189 9.97475 6.03608 9.90919 6.00035 9.87961C5.97964 9.86261 5.95775 9.87902 5.9438 9.86738C5.87849 9.81213 5.93253 9.82548 5.87 9.76752C5.86381 9.76193 5.79734 9.74265 5.75652 9.69414C5.73334 9.66702 5.70172 9.57916 5.69772 9.57481C5.67591 9.552 5.63682 9.61919 5.62952 9.48411C5.62108 9.49572 5.61265 9.50732 5.60422 9.51894C5.4923 9.44777 5.5285 9.39335 5.51495 9.37156C5.51283 9.36861 5.47578 9.36309 5.46679 9.34774C5.45151 9.32159 5.46878 9.29096 5.46582 9.28533C5.45491 9.2651 5.39437 9.21748 5.38663 9.15937C5.32236 9.22931 5.18478 9.12041 5.24306 9.02415C5.20774 9.01519 5.1721 9.00583 5.13731 8.99744C5.14207 8.97592 5.14674 8.95428 5.15131 8.93252C5.13265 8.93761 5.1137 8.94237 5.09538 8.94786C5.09799 8.89137 5.09777 8.8315 5.10072 8.77533C5.06951 8.79827 5.0383 8.82119 5.00708 8.84411C5.00273 8.83219 4.99832 8.82019 4.99383 8.8081C5.01113 8.78103 5.02839 8.75391 5.04561 8.72674C5.03174 8.71944 5.01781 8.71206 5.00375 8.70453C4.98443 8.71608 4.9651 8.72763 4.94576 8.73917C4.87358 8.69355 5.06331 8.58975 4.82179 8.59268C4.8202 8.56366 4.81837 8.53438 4.81632 8.50482C4.73336 8.53874 4.74122 8.46808 4.70774 8.44332C4.68417 8.4259 4.65898 8.44856 4.63331 8.41936C4.60824 8.39084 4.63372 8.37082 4.63198 8.36843C4.61326 8.3432 4.5759 8.34323 4.56497 8.32149C4.56332 8.31822 4.58681 8.28643 4.57008 8.26286C4.55313 8.23904 4.51054 8.25202 4.48766 8.213C4.48101 8.20173 4.48457 8.18852 4.48698 8.17601C4.48906 8.16656 4.49044 8.15754 4.48588 8.1502C4.43554 8.06905 4.24875 8.10233 4.35042 7.92118C4.32126 7.92489 4.18044 7.89212 4.15155 7.85033C4.10802 7.78666 4.15618 7.78445 4.14162 7.75643C4.13969 7.75252 4.11392 7.74205 4.07381 7.6911C4.06669 7.68205 4.05196 7.69802 4.05068 7.69694C4.00212 7.63896 3.92008 7.51582 3.86762 7.4492C3.86279 7.44301 3.7925 7.45301 3.81123 7.35011C3.70141 7.31289 3.68068 7.09012 3.5282 7.04949C3.51507 7.03695 3.51721 7.00624 3.51144 7.00057C3.46243 6.95309 3.42943 7.01506 3.40141 6.83437C3.38407 6.86537 3.33803 6.85754 3.30705 6.81712C3.26029 6.75614 3.34295 6.75763 3.29897 6.71364C3.28561 6.72498 3.27225 6.73631 3.2589 6.74764C3.20284 6.60877 3.12736 6.63557 3.03493 6.52734C3.00189 6.48857 2.98218 6.40538 2.97426 6.39588C2.97091 6.39212 2.90271 6.37703 2.89901 6.37317C2.87863 6.35112 2.88247 6.32556 2.86569 6.30563C2.80993 6.23932 2.70198 6.19706 2.78997 6.14657C2.75866 6.14223 2.7273 6.13783 2.6959 6.13338C2.71874 5.9957 2.56413 6.04045 2.63078 5.95911C2.60417 5.96077 2.57753 5.96241 2.55088 5.96403C2.31055 5.66435 2.07088 5.36554 1.83076 5.06624C1.79556 5.07622 1.69601 4.94082 1.69458 4.93113C1.687 4.88597 1.76925 4.87067 1.70457 4.82017C1.67457 4.83398 1.64457 4.84778 1.61457 4.86158C1.54112 4.79113 1.59664 4.8076 1.58735 4.76338C1.57361 4.75327 1.55828 4.77334 1.54236 4.75737C1.45579 4.67067 1.29239 4.48018 1.20427 4.37961C1.18652 4.35937 1.20672 4.34752 1.20135 4.34111C1.1863 4.32372 1.13472 4.30792 1.10472 4.27265C0.919896 4.05484 0.670111 3.73564 0.502427 3.50067C0.491056 3.48468 0.510451 3.46502 0.502953 3.45408C0.49248 3.43899 0.449038 3.42222 0.438404 3.40612C0.428302 3.39098 0.436722 3.36861 0.426044 3.35228C0.377377 3.27741 0.273207 3.20936 0.258782 3.09726C0.257581 3.08783 0.277614 2.94037 0.28169 2.93395C0.306005 2.89598 0.414804 2.91939 0.368939 2.76801C0.494852 2.83113 0.542754 2.7372 0.469964 2.57814C0.533993 2.63453 0.59806 2.69096 0.662103 2.74736C0.670971 2.73998 0.679839 2.73261 0.688707 2.72523C0.682477 2.62963 0.647548 2.55916 0.575879 2.46668C0.586378 2.46254 0.596877 2.4584 0.607376 2.45426C0.714885 2.49834 0.803122 2.58692 0.9095 2.59964C0.875896 2.4769 0.842238 2.35409 0.808628 2.23133C0.818776 2.23027 0.828924 2.2292 0.839072 2.22813C0.891543 2.25609 0.979514 2.33976 1.02481 2.36155C1.19764 2.4448 0.96973 2.20689 1.04088 2.21733C1.15949 2.35952 1.27813 2.50172 1.39664 2.64379C1.42754 2.6262 1.03977 2.02097 1.12491 1.95828C1.16799 1.99803 1.21106 2.03776 1.25413 2.07751C1.25775 2.04039 1.26138 2.00329 1.265 1.96618C1.27609 1.96613 1.28718 1.96608 1.29827 1.96603C1.37769 2.02733 1.45718 2.08871 1.53655 2.14995C1.32737 1.93616 1.24909 1.82061 1.36355 1.6295C1.37289 1.63219 1.38222 1.63488 1.39156 1.63756C1.33286 1.77231 1.56307 1.97722 1.68813 2.08373C1.69612 2.03343 1.58097 1.94408 1.57911 1.906C1.57865 1.89516 1.61842 1.90051 1.61605 1.87651C1.6097 1.81389 1.50183 1.61602 1.55592 1.61211C1.59071 1.60964 1.85006 1.8552 1.89266 1.90989C1.82602 1.7535 1.72879 1.61655 1.67013 1.45274C1.80191 1.47561 1.94069 1.47712 2.06573 1.61705C2.137 1.63155 1.92717 1.28863 1.93989 1.26574C2.00446 1.30108 2.06897 1.33637 2.13356 1.37173C2.09053 1.33195 2.04757 1.29225 2.00457 1.25249C2.01115 1.24667 2.01774 1.24085 2.02433 1.23502C2.15292 1.32332 2.29921 1.37982 2.40699 1.51446C2.43881 1.4801 2.36847 1.40449 2.33641 1.36612ZM12.5262 3.81673C12.5608 3.83426 12.519 3.88814 12.4975 3.92017C12.5065 3.91909 12.5156 3.91801 12.5246 3.91693C12.4743 3.98205 12.3781 4.10147 12.4374 4.14729C12.4127 4.20138 12.3727 4.1439 12.3562 4.15538C12.3526 4.15784 12.3478 4.18446 12.3318 4.21242C12.3226 4.22942 12.3069 4.24631 12.2782 4.25243C12.2723 4.26175 12.2664 4.27123 12.2605 4.28057C12.28 4.29569 12.2994 4.3108 12.3189 4.32588C12.2856 4.32256 12.2522 4.31957 12.2186 4.31689C12.2444 4.27314 12.2705 4.23019 12.2964 4.18865C12.3747 4.06541 12.4511 3.94171 12.5261 3.81699C12.5261 3.81691 12.5262 3.81682 12.5262 3.81673ZM11.6211 5.42107C11.5764 5.47696 11.5065 5.56403 11.5763 5.57543C11.5939 5.53385 11.6116 5.49225 11.629 5.45121C11.6263 5.44119 11.6238 5.4311 11.6211 5.42107ZM5.15397 8.74103C5.1656 8.65246 5.0867 8.64786 5.0354 8.56877C5.02481 8.57789 5.01422 8.58701 5.00363 8.59613C5.05399 8.60369 5.10139 8.69423 5.15397 8.74103ZM12.907 2.61003C12.9096 2.61451 12.9128 2.61877 12.9164 2.62285C12.9441 2.69262 12.9225 2.64499 12.9371 2.6447C12.9382 2.64457 12.9469 2.65942 12.9472 2.65931C12.9518 2.65786 12.9448 2.63776 12.9494 2.63498C12.9585 2.62925 12.9796 2.64059 13.0022 2.61933C13.0199 2.60199 12.9965 2.57809 13.0029 2.57269C13.0058 2.57367 13.1355 2.55614 13.1171 2.50061C13.0951 2.45574 13.0643 2.48944 12.9967 2.5494C12.9214 2.61138 12.8988 2.60796 12.907 2.61003ZM13.5225 2.24497C13.512 2.25579 13.5007 2.26738 13.4885 2.27971C13.4881 2.20853 13.4281 2.28126 13.3478 2.35273C13.325 2.3105 13.4759 2.1961 13.4955 2.15419C13.5055 2.18355 13.5145 2.21374 13.5225 2.24497ZM12.578 3.1698C12.6 3.12344 12.6477 3.16182 12.6621 3.17291C12.6538 3.18689 12.6454 3.2009 12.637 3.21486C12.6174 3.19983 12.5977 3.18481 12.578 3.1698ZM12.7527 2.83385C12.7805 2.86788 12.7413 2.96981 12.7177 3.01622C12.7165 3.01818 12.7044 2.99438 12.6875 3.02701C12.6826 3.03665 12.6976 3.17251 12.6296 3.10413C12.6715 3.01297 12.7125 2.92275 12.7526 2.83398C12.7527 2.83393 12.7527 2.83389 12.7527 2.83385ZM12.8284 2.75375C12.8293 2.7775 12.8303 2.80125 12.8313 2.82512C12.8093 2.82422 12.7874 2.82328 12.7654 2.8224C12.7729 2.80023 12.7803 2.77804 12.7877 2.75602C12.8012 2.75525 12.8148 2.75449 12.8284 2.75375ZM2.05707 4.58606C2.04436 4.60305 2.03164 4.62003 2.01892 4.63702C2.02109 4.65916 2.14698 4.66818 2.14215 4.63557C2.11383 4.61911 2.08547 4.60261 2.05707 4.58606ZM1.8472 4.27206C1.84312 4.25115 1.83915 4.23036 1.83519 4.20958C1.79473 4.21617 1.75427 4.22274 1.71378 4.2293C1.75526 4.31466 1.79834 4.40746 1.86689 4.32832C1.88058 4.34444 1.89427 4.36053 1.90793 4.37662C1.86381 4.39077 1.85464 4.40176 1.86967 4.46138C1.92288 4.43204 1.93656 4.49499 1.98911 4.53662C1.96082 4.49796 1.93269 4.45948 1.90463 4.42108C1.91263 4.41428 1.92063 4.40749 1.92863 4.40069C1.99421 4.48373 1.95992 4.34054 1.88326 4.31479C1.89038 4.30158 1.8975 4.28838 1.90462 4.27517C1.88548 4.27414 1.86634 4.2731 1.8472 4.27206ZM8.21785 9.66805C8.19315 9.67216 8.16692 9.67682 8.14128 9.68054C8.1338 9.84685 8.23083 9.63618 8.38733 9.64796C8.30729 9.60688 8.44531 9.49864 8.44666 9.48805C8.41369 9.48004 8.38097 9.47153 8.34854 9.46249C8.31327 9.52894 8.27055 9.59803 8.21785 9.66805ZM7.39846 9.85719C7.53035 9.94036 6.89518 9.90597 6.75281 9.77296C6.71303 9.7498 6.66497 9.67865 6.63754 9.66634C6.61442 9.66817 6.59126 9.66955 6.56782 9.67032C6.57059 9.65382 6.54181 9.62825 6.49991 9.59641C6.44658 9.55783 6.33788 9.50514 6.28594 9.48053C6.29231 9.46255 6.29858 9.44445 6.3053 9.42674C6.27996 9.4125 6.25505 9.39816 6.23044 9.38368C6.24519 9.3737 6.2599 9.36369 6.27458 9.35363C6.24476 9.3538 6.21637 9.35515 6.18678 9.35509C6.11581 9.31602 6.21721 9.28371 6.15676 9.26366C6.08993 9.24117 6.11951 9.35458 6.09206 9.37896C6.13444 9.40978 6.2414 9.48522 6.28869 9.52573C6.31529 9.54815 6.24141 9.57416 6.40696 9.61402C6.41601 9.63615 6.42508 9.65803 6.4341 9.67963C6.44618 9.69727 6.4589 9.71492 6.47203 9.73236C6.57516 9.77274 6.68273 9.80317 6.79413 9.82179C6.80282 9.85242 6.81284 9.88316 6.82414 9.91389C6.83258 9.92814 7.11345 9.94821 7.10233 9.92156C7.19873 9.99 7.45299 10.0218 7.69128 9.96363C7.71107 9.94522 7.72954 9.92656 7.7474 9.90755C7.53262 9.99053 7.67376 9.91157 7.6033 9.90104C7.56225 9.89509 7.4412 9.87951 7.39846 9.85719ZM2.47666 4.99705C2.34014 4.92857 2.43423 4.96323 2.33534 4.84683C2.31816 4.87544 2.30098 4.90405 2.2838 4.93265C2.37655 4.95261 2.42656 5.07081 2.47675 4.99716C2.47672 4.99712 2.47669 4.99708 2.47666 4.99705ZM1.43063 3.92835C1.49755 3.97756 1.5088 3.91488 1.58705 3.98263C1.58708 3.98266 1.58711 3.9827 1.58714 3.98274C1.55564 3.9402 1.5239 3.89739 1.49241 3.85486C1.47181 3.87936 1.45122 3.90386 1.43063 3.92835ZM4.51155 7.49827C4.5501 7.56505 4.56006 7.53875 4.56783 7.62396C4.68026 7.66454 4.61724 7.60313 4.65851 7.56814C4.63106 7.56027 4.60345 7.55221 4.57569 7.54399C4.57624 7.46633 4.63181 7.49254 4.6355 7.48938C4.63547 7.48934 4.63543 7.4893 4.6354 7.48927C4.64779 7.47876 4.65166 7.47805 4.64453 7.45442C4.60021 7.46905 4.55595 7.48374 4.51155 7.49827ZM4.77605 7.70733C4.73169 7.71052 4.68901 7.73149 4.71566 7.79867C4.71569 7.7987 4.71573 7.79874 4.71576 7.79878C4.78087 7.75141 4.7751 7.84496 4.79846 7.86425C4.81022 7.86464 4.82195 7.86499 4.83366 7.86533C4.81544 7.81381 4.79458 7.75918 4.77605 7.70733ZM5.58693 8.55135C5.51931 8.60877 5.47452 8.56911 5.46671 8.68612C5.4785 8.69752 5.49013 8.70874 5.50162 8.71979C5.52308 8.71495 5.54495 8.7106 5.56682 8.70625C5.5792 8.96779 5.82594 8.83617 5.52292 8.63831C5.52284 8.63831 5.52276 8.63831 5.52268 8.63832C5.54413 8.60937 5.56554 8.58038 5.58693 8.55135ZM5.34927 8.28264C5.31207 8.31077 5.27488 8.33891 5.23768 8.36704C5.29442 8.26018 5.17547 8.28554 5.17866 8.16655C5.16267 8.16956 5.14633 8.17217 5.13066 8.17556C5.13447 8.13182 4.93137 7.8776 4.92246 7.97804C4.91775 8.02092 4.99423 8.04559 4.99685 8.05017C5.00685 8.06744 4.99136 8.11109 5.01507 8.13554C5.0286 8.14938 5.09047 8.14973 5.11478 8.17862C5.17134 8.24586 5.17516 8.44591 5.34072 8.45645C5.33522 8.47167 5.32958 8.48672 5.32442 8.50235C5.38677 8.56267 5.40049 8.51008 5.41221 8.60586C5.61522 8.50335 5.19953 8.37183 5.38586 8.31425C5.38583 8.31421 5.3858 8.31418 5.38576 8.31414C5.37313 8.30309 5.36135 8.29304 5.34927 8.28264ZM3.80192 6.55784C3.82876 6.52808 3.71893 6.49337 3.80635 6.44929C3.76065 6.44666 3.71484 6.44389 3.66891 6.44099C3.66232 6.4469 3.65573 6.45281 3.64914 6.45872C3.67498 6.47842 3.7007 6.49798 3.7263 6.5174C3.71568 6.52658 3.70505 6.53575 3.69443 6.54492C3.7637 6.54807 3.87412 6.71242 3.83222 6.73988C3.85512 6.73442 3.878 6.72894 3.90087 6.72345C3.91854 6.83266 4.01683 6.85457 4.04081 6.96912C4.05919 6.9639 4.07756 6.95867 4.09592 6.95343C4.08853 6.96642 4.08113 6.9794 4.07374 6.99238C4.09593 7.0213 4.11976 7.05214 4.14241 7.08159C4.26447 7.13816 4.16611 6.90899 4.14214 6.89356C4.1388 6.89142 4.11148 6.9154 4.09176 6.90097C4.05659 6.87496 3.93084 6.67077 3.86547 6.63077C3.88345 6.6147 3.90143 6.59862 3.9194 6.58255C3.88037 6.57446 3.84121 6.56623 3.80192 6.55784ZM5.81567 8.96384C5.80078 8.9841 5.78587 9.00435 5.77095 9.02458C5.85292 9.08144 5.87839 9.1422 5.92246 9.06962C5.92242 9.06958 5.92239 9.06954 5.92236 9.0695C5.88641 9.0342 5.85031 8.9983 5.81567 8.96384ZM11.4347 4.93724C11.3905 4.91651 11.3543 4.9457 11.3592 5.01138C11.373 5.0156 11.3868 5.01983 11.4006 5.02406C11.3774 4.97903 11.4582 4.98077 11.4914 4.89817C11.4697 4.88662 11.4481 4.87507 11.4264 4.86352C11.4292 4.88804 11.4319 4.91261 11.4347 4.93724ZM5.76978 8.89463C5.77205 8.85303 5.65382 8.85012 5.68482 8.89281C5.70854 8.92541 5.76838 8.91677 5.76978 8.89463ZM1.26133 3.65593C1.27091 3.67511 1.28048 3.69429 1.29005 3.71346C1.31297 3.7082 1.33595 3.70301 1.3589 3.69778C1.35887 3.69774 1.35884 3.69771 1.35881 3.69767C1.3262 3.68362 1.29383 3.66985 1.26133 3.65593ZM4.33747 7.299C4.38648 7.35212 4.43257 7.4018 4.48175 7.45515C4.49259 7.44689 4.50344 7.43864 4.51428 7.43038C4.42992 7.40762 4.45306 7.35212 4.44487 7.33739C4.44492 7.33744 4.44496 7.3375 4.44501 7.33755C4.4195 7.29077 4.39132 7.24524 4.37226 7.19759C4.36063 7.23135 4.34867 7.26472 4.33747 7.299ZM4.24654 7.05889C4.18088 7.13014 4.18195 7.14873 4.30431 7.18849C4.31056 7.17756 4.31682 7.16662 4.32306 7.15568C4.28116 7.11718 4.24254 7.10596 4.28732 7.08123C4.27377 7.07383 4.26017 7.06638 4.24654 7.05889ZM4.93804 7.92328C4.94935 7.90127 4.90178 7.86256 4.87302 7.84966C4.86362 7.84571 4.85635 7.84469 4.85426 7.84829C4.85364 7.84935 4.85513 7.85471 4.85812 7.86226C4.87232 7.89619 4.91413 7.97035 4.93804 7.92328ZM11.7766 4.28074C11.7594 4.29591 11.7423 4.31086 11.7251 4.32621C11.7309 4.29582 11.7368 4.26558 11.7428 4.23528C11.7541 4.25045 11.7653 4.2656 11.7766 4.28074ZM11.7851 4.00701C11.8036 4.00098 11.8499 4.08846 11.9174 4.02532C11.8834 4.0808 11.8497 4.13751 11.8163 4.19542C11.8209 4.16133 11.8254 4.12757 11.8302 4.09381C11.8063 4.08518 11.7823 4.07656 11.7584 4.06799C11.7672 4.04763 11.7762 4.02718 11.7851 4.00701ZM11.8769 3.98185C11.8403 3.97878 11.8455 3.93835 11.8625 3.89761C11.8847 3.84873 11.9192 3.79794 11.9282 3.7916C11.9322 3.78898 11.9859 3.79813 11.9992 3.79733C11.9808 3.82539 11.9628 3.85276 11.9443 3.88061C11.9635 3.88018 11.9828 3.87938 12.002 3.87878C11.9883 3.90733 11.9749 3.9351 11.9609 3.96362C11.9582 3.96963 11.9555 3.97566 11.9527 3.98171C11.9502 3.97213 11.9476 3.96254 11.945 3.95296C11.9431 3.94101 11.9411 3.92909 11.9391 3.9172C11.933 3.92372 11.927 3.93024 11.9209 3.93679C11.9063 3.9516 11.8916 3.96662 11.8769 3.98185ZM11.4955 4.6581C11.509 4.63675 11.5226 4.6154 11.5363 4.59414C11.5124 4.58667 11.4885 4.57923 11.4645 4.57181C11.4572 4.58511 11.4499 4.59843 11.4426 4.6117C11.4602 4.62718 11.4778 4.64264 11.4955 4.6581ZM11.7191 4.20341C11.8022 4.29418 11.5306 4.24566 11.6711 4.19687C11.6853 4.19206 11.711 4.19464 11.7191 4.20341ZM11.9851 3.73064C11.9599 3.61152 12.109 3.73117 12.0175 3.76939C12.0128 3.77118 11.9869 3.7396 11.9851 3.73064ZM12.3252 3.18402C12.3293 3.17842 12.3883 3.19995 12.372 3.11344C12.3836 3.1078 12.3952 3.10218 12.4068 3.09647C12.4187 3.13266 12.3199 3.32821 12.2834 3.2706C12.3 3.24163 12.3058 3.21238 12.3252 3.18402ZM12.0212 3.24439C12.0055 3.27292 11.9896 3.30161 11.9739 3.32992C11.996 3.33104 12.0179 3.33233 12.04 3.33329C12.0359 3.34977 12.032 3.366 12.0278 3.38249C11.9849 3.38826 11.9423 3.39346 11.8995 3.39889C11.9329 3.33625 11.9659 3.27353 11.9984 3.21078C12.006 3.22196 12.0136 3.23317 12.0212 3.24439ZM11.5236 3.92779C11.5736 3.89284 11.5897 3.82201 11.6419 3.7496C11.6429 3.74807 11.6441 3.74654 11.6452 3.74501C11.6452 3.745 11.6453 3.74499 11.6454 3.74499C11.6485 3.74091 11.6755 3.74812 11.6855 3.7351C11.6945 3.72422 11.8206 3.47834 11.8463 3.52046C11.8222 3.63192 11.749 3.6314 11.8182 3.70797C11.7978 3.70073 11.7774 3.69343 11.7569 3.68614C11.7106 3.72099 11.7017 3.75517 11.7015 3.78962C11.7032 3.81733 11.7119 3.84513 11.7092 3.87198C11.6961 3.86311 11.6829 3.85423 11.6698 3.84536C11.6495 3.87334 11.6296 3.90121 11.6097 3.92967C11.6211 3.93114 11.6325 3.93263 11.6439 3.93415C11.6374 3.94442 11.6308 3.95475 11.6243 3.96512C11.5687 3.96515 11.5391 3.99199 11.5236 3.92779ZM12.1205 3.13264C12.0338 3.04447 12.2537 2.83837 12.298 2.71302C12.3255 2.80892 12.2279 2.87569 12.1883 2.94023C12.1117 3.06526 12.2019 3.00122 12.2057 3.03259C12.2075 3.0483 12.0985 3.07957 12.1205 3.13264ZM11.4322 4.11838C11.4754 4.06467 11.4714 4.0179 11.5398 3.99113C11.5447 3.99991 11.5496 4.00869 11.5546 4.01745C11.537 4.02975 11.431 4.15743 11.4322 4.11838ZM12.422 2.56501C12.3145 2.66193 12.443 2.65868 12.336 2.67924C12.3557 2.63565 12.3753 2.59223 12.3949 2.54898C12.4039 2.55432 12.413 2.55966 12.422 2.56501ZM6.00792 8.47701C5.97115 8.42981 5.94506 8.36533 5.88846 8.3689C5.90782 8.40247 5.93037 8.43974 5.94987 8.47336C5.96934 8.47473 5.9887 8.47595 6.00792 8.47701ZM7.61445 8.96326C7.59904 8.9598 7.56645 9.01106 7.56113 9.01287C7.56012 9.01331 7.55918 9.0135 7.55829 9.0135C7.55099 9.01355 7.54808 9.00072 7.54653 8.99739C7.48699 9.02316 7.56157 9.04836 7.5156 9.07505C7.50718 9.08245 7.38147 9.08288 7.33363 9.07799C7.25737 9.07822 7.18555 9.04975 7.15972 9.03964C7.12306 9.02643 7.04882 9.01726 6.98719 8.98022C6.97573 8.97356 6.96477 8.96637 6.95465 8.95851C6.92925 8.93858 6.93968 8.90881 6.91524 8.8885C6.75442 8.75918 6.46321 8.48134 6.35902 8.33224C6.33431 8.29642 6.33495 8.23786 6.31783 8.22269C6.29522 8.21796 6.27179 8.21226 6.24923 8.20756C6.30949 8.08269 6.21025 8.14027 6.16189 8.10171C6.13036 8.07619 6.14759 8.03838 6.14415 8.03448C6.1214 8.00884 6.09623 8.00686 6.07609 7.9877C6.05437 7.96717 6.0386 7.92233 6.02897 7.91571C6.02296 7.91178 5.99888 7.96071 5.92273 7.86932C5.84594 7.77707 5.77073 7.67993 5.69423 7.5858C5.60617 7.71537 5.70604 7.67354 5.74392 7.70982C5.75387 7.71929 5.72999 7.72816 5.73845 7.73652C5.76221 7.76021 5.82055 7.79274 5.83447 7.81802C5.84896 7.84467 5.80012 7.87292 5.83966 7.88793C5.84167 7.88867 5.85538 7.86937 5.8639 7.87349C5.951 7.91767 5.93934 7.96564 6.01055 8.05139C6.05827 8.10952 6.36997 8.43909 6.36977 8.4606C6.36135 8.57442 6.04879 8.21146 6.01811 8.16467C6.00743 8.14866 6.03972 8.14757 6.0321 8.13109C6.02912 8.12459 5.94745 8.10302 5.90162 8.05515C5.84546 7.99644 5.76495 7.8503 5.71467 7.79262C5.60501 7.66684 5.49774 7.53997 5.39109 7.41171C5.07655 7.03341 4.76992 6.64622 4.44963 6.26788C4.44057 6.2572 4.4057 6.26081 4.37648 6.22638C3.82112 5.57092 3.26118 4.87649 2.6872 4.22201C2.56221 4.07948 2.41954 3.95359 2.31179 3.7935C2.28034 3.78912 2.24889 3.78471 2.21741 3.78028C2.2695 3.81564 2.30523 3.93145 2.31133 3.93972C2.31354 3.94264 2.34664 3.94483 2.36974 3.97395C2.40227 4.01485 2.40131 4.0456 2.40408 4.04887C2.41261 4.059 2.42372 4.03817 2.43183 4.04788C2.49252 4.12076 2.54485 4.17272 2.60099 4.23846C2.66491 4.31338 2.66599 4.37782 2.74631 4.40299C2.73818 4.42048 2.73004 4.43796 2.72191 4.45543C2.81449 4.44739 3.01412 4.69533 3.09406 4.79564C3.11955 4.82762 3.09145 4.84206 3.10033 4.85251C3.10598 4.85911 3.13463 4.83061 3.19729 4.9166C3.22873 4.95982 3.21538 4.98942 3.23363 5.00945C3.24355 5.02026 3.26419 4.99961 3.27781 5.01564C3.35628 5.10802 3.41326 5.1897 3.48579 5.28344C3.50615 5.3097 3.48785 5.32568 3.4929 5.33113C3.51138 5.35121 3.57418 5.36162 3.6192 5.4148C3.69293 5.50196 3.84156 5.67724 3.88734 5.76204C3.89401 5.77447 3.87917 5.80201 3.88603 5.80945C3.8965 5.82063 3.92355 5.80552 3.92541 5.80746C3.95879 5.84596 3.91744 5.84093 3.94508 5.86289C3.96002 5.87476 3.99911 5.86723 4.03004 5.89762C4.07082 5.93767 4.03215 5.95571 4.05061 5.97109C4.05271 5.97257 4.07503 5.95464 4.09074 5.97169C4.15165 6.03823 4.23876 6.13068 4.29379 6.1957C4.30941 6.21411 4.30632 6.24024 4.32766 6.2659C4.3717 6.31878 4.62897 6.60316 4.64192 6.63561C4.64318 6.6389 4.58878 6.64001 4.62514 6.68095C4.64881 6.68168 4.67243 6.68236 4.69601 6.68299C4.69149 6.72118 4.68707 6.75948 4.68307 6.79827C4.75707 6.73523 4.86848 6.84347 4.79195 6.90693C4.80009 6.92277 4.80817 6.93854 4.81619 6.95423C4.89181 6.93723 4.88711 6.97091 4.96252 6.99751C4.95348 7.01942 4.94441 7.04129 4.93532 7.06313C4.94778 7.05613 4.96025 7.04913 4.97271 7.04212C4.93859 7.11954 5.03508 7.1153 5.0401 7.12057C5.05992 7.14137 5.05889 7.17008 5.06792 7.17978C5.10098 7.21572 5.19075 7.28056 5.21793 7.33182C5.21916 7.33426 5.19266 7.35328 5.19997 7.36813C5.21306 7.39485 5.25201 7.36717 5.23476 7.43337C5.25063 7.4304 5.26648 7.42741 5.28231 7.42439C5.28219 7.43549 5.28204 7.44656 5.28187 7.4576C5.29024 7.46611 5.29856 7.47455 5.30683 7.48294C5.33396 7.51066 5.3606 7.53781 5.38676 7.56438C5.31596 7.56592 5.32507 7.62433 5.39036 7.63446C5.41253 7.63792 5.42842 7.6048 5.43594 7.60584C5.44643 7.60761 5.57781 7.78949 5.56991 7.81368C5.58498 7.81516 5.60001 7.81658 5.615 7.81795C5.60237 7.83572 5.58973 7.85348 5.57708 7.87123C5.58651 7.87094 5.59593 7.87064 5.60533 7.87033C5.61334 7.93741 5.77689 7.99863 5.78969 8.02416C5.79645 8.0377 5.719 8.08553 5.77132 8.13307C5.79179 8.11898 5.81225 8.10489 5.83271 8.0908C5.84597 8.10097 5.85909 8.11097 5.87208 8.12082C5.88922 8.14444 5.88582 8.20663 5.86427 8.22651C5.88381 8.22237 5.90329 8.21816 5.92273 8.21389C5.89444 8.26908 5.99936 8.36108 6.06119 8.37758C6.05869 8.40125 6.0561 8.4248 6.05332 8.4481C6.08312 8.45063 6.11269 8.45287 6.14298 8.45591C6.1802 8.48952 6.11952 8.47246 6.1242 8.48238C6.13397 8.50309 6.25314 8.55085 6.1931 8.59364C6.20346 8.60587 6.21361 8.61784 6.22357 8.62956C6.24453 8.62166 6.26571 8.61401 6.28698 8.60646C6.25061 8.67479 6.29975 8.69255 6.34472 8.78263C6.3625 8.77751 6.38068 8.77283 6.39852 8.76776C6.40073 8.80566 6.40406 8.84458 6.40708 8.88286C6.43178 8.86897 6.45639 8.85496 6.48091 8.84085C6.49287 8.84795 6.50444 8.85456 6.51679 8.86194C6.49026 8.9241 6.57264 8.91365 6.57254 8.94986C6.57206 9.00223 6.51993 9.01327 6.4654 8.9686C6.43375 9.00235 6.60167 9.142 6.64605 9.1738C6.64932 9.16495 6.65261 9.15612 6.65592 9.14729C6.61183 9.11725 6.5692 9.08622 6.52833 9.05532C6.57865 8.94574 6.65255 9.06267 6.71163 9.09442C6.71693 9.09713 6.76983 9.08743 6.81578 9.1302C6.82165 9.13566 6.82925 9.15099 6.83749 9.16953C6.86204 9.2143 6.90086 9.27344 6.91486 9.28399C7.08982 9.40385 6.97667 9.26133 7.15256 9.40051C7.12416 9.32982 7.22943 9.41711 7.36316 9.40374C7.38893 9.40672 7.55924 9.33168 7.56569 9.32358C7.63142 9.29529 7.57406 9.37137 7.66814 9.32231C7.67155 9.31292 7.6748 9.30352 7.67788 9.29411C7.68015 9.28605 7.6823 9.27799 7.68435 9.26993C7.70378 9.2613 7.72324 9.25188 7.7418 9.24225C7.91493 9.29013 7.89077 9.19022 7.91645 9.15839C7.92724 9.14458 7.9292 9.18378 7.96022 9.15194C7.97148 9.14009 7.96935 9.10792 8.00085 9.07946C8.09519 8.99185 8.20839 9.04169 8.20188 8.87556C8.22654 8.875 8.25143 8.87397 8.27586 8.87326C8.26842 8.85047 8.26083 8.82776 8.2531 8.80512C8.35749 8.77973 8.28927 8.7623 8.31071 8.73902C8.36732 8.67787 8.48107 8.55442 8.52913 8.57364C8.48194 8.44737 8.63481 8.45992 8.64786 8.43478C8.64644 8.41328 8.64499 8.39176 8.64349 8.3702C8.66604 8.36325 8.68861 8.35617 8.71126 8.34889C8.61451 8.28997 8.76221 8.27518 8.7691 8.26825C8.77726 8.26007 8.83705 8.11721 8.86897 8.07172C8.90138 8.02605 8.98147 7.96291 8.98613 7.9561C8.99163 7.94806 9.01932 7.85247 9.06062 7.7914C9.09721 7.73801 9.34366 7.44563 9.28827 7.43796C9.26289 7.45097 9.2335 7.4734 9.21105 7.49538C9.14253 7.56329 8.81053 8.01343 8.71863 8.12665C8.5388 8.35343 8.36091 8.60112 8.14344 8.81506C8.13052 8.82767 8.10756 8.80929 8.09654 8.81967C8.08033 8.83534 8.05813 8.89849 8.0405 8.91403C7.97602 8.97252 7.88714 9.03831 7.84596 9.0661C7.7672 9.1208 7.69672 9.14519 7.62506 9.17018C7.61329 9.17428 7.60187 9.17813 7.5898 9.18216C7.56648 9.1931 7.41947 9.27075 7.3079 9.2426C7.289 9.23293 7.27085 9.22244 7.25368 9.2113C7.30904 9.21437 7.4456 9.18584 7.50189 9.16512C7.54861 9.15147 7.5834 9.14413 7.61159 9.13856C7.63464 9.13415 7.65286 9.13089 7.66619 9.124C7.69196 9.11294 7.78984 9.02145 7.83312 8.98521C7.84688 8.97445 7.86866 8.99639 7.88077 8.98665C7.94614 8.93424 8.02426 8.85942 8.05124 8.78848C8.03888 8.81637 8.17386 8.70105 8.17937 8.69295C8.18975 8.68125 8.17938 8.64966 8.20039 8.62529C8.24 8.57893 8.2818 8.62283 8.28378 8.52564C8.30923 8.52213 8.33483 8.51828 8.36055 8.51412C8.29887 8.46459 8.53128 8.34139 8.49194 8.22856C8.48503 8.22152 8.27486 8.44719 8.25642 8.46457C8.15499 8.57678 8.01884 8.75987 7.89651 8.84821C7.86013 8.87743 7.71957 8.924 7.71182 8.92829C7.6989 8.93872 7.72701 8.95331 7.72144 8.95827C7.60256 9.05719 7.63897 8.96677 7.61445 8.96326ZM11.5597 3.77385C11.5334 3.80782 11.5078 3.84157 11.482 3.87629C11.4688 3.86427 11.4556 3.85224 11.4425 3.84019C11.4588 3.82708 11.4752 3.81413 11.4916 3.80134C11.4909 3.78298 11.4903 3.76464 11.4898 3.74615C11.5131 3.75533 11.5364 3.76456 11.5597 3.77385ZM11.5583 3.64296C11.573 3.60503 11.6052 3.62353 11.6117 3.61688C11.6316 3.59694 11.6322 3.56867 11.6474 3.54658C11.7041 3.62073 11.6337 3.65396 11.5583 3.64296ZM11.124 4.29525C11.132 4.28964 11.2426 4.28599 11.1982 4.18584C11.2469 4.15715 11.2954 4.12937 11.3441 4.10189C11.2653 4.151 11.2473 4.27265 11.2261 4.30715C11.218 4.32028 11.1911 4.30864 11.1847 4.31922C11.148 4.38006 11.1724 4.47286 11.0844 4.43292C11.1413 4.38713 11.1141 4.30231 11.124 4.29525ZM11.3688 3.94277C11.3918 3.94375 11.4149 3.94464 11.4379 3.94572C11.4167 3.98017 11.3959 4.01434 11.3751 4.04927C11.3632 4.02939 11.3514 4.00947 11.3396 3.98952C11.3493 3.97385 11.3591 3.95827 11.3688 3.94277ZM9.72682 6.75261C9.74165 6.73028 9.75632 6.708 9.77099 6.68554C9.75784 6.67888 9.74135 6.70466 9.72692 6.70871C9.72695 6.70867 9.72697 6.70863 9.727 6.70858C9.71079 6.71302 9.69784 6.69827 9.67846 6.71278C9.69459 6.72604 9.71071 6.73932 9.72682 6.75261ZM2.24496 3.71543C2.2173 3.68125 1.95624 3.3739 1.93781 3.43489C1.92851 3.46522 2.03585 3.55552 2.0618 3.58671C2.09678 3.62871 2.14864 3.77913 2.24496 3.71543ZM1.79036 3.16442C1.74512 3.19356 1.902 3.39125 1.92498 3.40395C1.92739 3.39504 1.93507 3.37793 1.93349 3.37014C1.92553 3.33238 1.81432 3.21512 1.79036 3.16442ZM8.78496 7.8839C8.81883 7.88214 8.85267 7.88037 8.88643 7.87868C8.85437 7.86341 8.82234 7.84812 8.79032 7.8328C8.78869 7.84962 8.78676 7.86687 8.78496 7.8839ZM7.22954 9.22351C7.10999 9.19954 7.00274 9.14444 6.91356 9.07334C6.70155 8.90502 6.53732 8.70843 6.37342 8.52115C6.40482 8.53497 6.43455 8.54677 6.46593 8.56032C6.60534 8.72297 6.75338 8.90417 6.93783 9.04265C7.01239 9.09967 7.09885 9.14178 7.18944 9.16106C7.20123 9.18221 7.21455 9.20309 7.22954 9.22351ZM10.9403 4.30076C10.8985 4.37572 10.887 4.45104 10.8066 4.51445C10.8139 4.4167 10.8889 4.40716 10.8791 4.30302C10.8791 4.30297 10.8792 4.30293 10.8792 4.30289C10.8996 4.30215 10.9199 4.30151 10.9403 4.30076ZM10.0192 6.00545C10.0109 5.97026 10.0026 5.93503 9.99411 5.89994C9.97854 5.92776 9.9629 5.95554 9.9472 5.98322C9.9712 5.99065 9.9952 5.99806 10.0192 6.00545ZM5.2183 6.95814C5.12008 6.92499 5.04213 6.68303 4.94638 6.66971C4.94006 6.6688 4.94763 6.71978 4.86173 6.69982C4.90462 6.73377 4.93695 6.75491 4.97108 6.73115C4.97062 6.75232 4.97049 6.77388 4.97011 6.79515C4.99541 6.80859 5.02057 6.82185 5.04558 6.83495C5.01228 6.8594 5.01539 6.85967 5.0627 6.87186C5.06646 6.89245 5.07094 6.91389 5.07494 6.93477C5.09336 6.92951 5.11177 6.92423 5.13016 6.91894C5.1219 6.94696 5.11357 6.9749 5.10518 7.00277C5.16516 7.03262 5.17703 6.97344 5.2183 6.95814ZM5.41567 7.20694C5.41447 7.19142 5.11839 6.88747 5.18006 7.08753C5.21428 7.12389 5.24756 7.15914 5.28232 7.19617C5.35983 7.07704 5.35363 7.25817 5.35881 7.26871C5.37828 7.30781 5.424 7.33489 5.45378 7.35871C5.46254 7.36586 5.47003 7.37274 5.47531 7.37956C5.49593 7.40624 5.48995 7.43699 5.50535 7.45424C5.55816 7.51344 5.63927 7.60803 5.69423 7.5858C5.65411 7.53653 5.61585 7.49031 5.57222 7.44089C5.54424 7.40924 5.53479 7.3654 5.49533 7.32358C5.47368 7.30076 5.44223 7.27876 5.39131 7.25979C5.37652 7.23018 5.4164 7.2114 5.41567 7.20694ZM10.0378 5.83307C10.0859 5.8633 10.1518 5.71518 10.1325 5.70353C10.1212 5.69698 10.0963 5.74331 10.0883 5.74744C10.0883 5.74748 10.0883 5.74752 10.0882 5.74757C10.0848 5.74926 10.0734 5.72499 10.0563 5.74367C10.0503 5.77343 10.0441 5.80323 10.0378 5.83307ZM2.74739 4.1113C2.75793 4.07468 2.42785 3.70386 2.40693 3.70273C2.40115 3.70244 2.39411 3.71567 2.38698 3.71968C2.49611 3.77894 2.56168 3.93796 2.63051 4.02437C2.64962 4.04832 2.66083 4.02678 2.66228 4.02782C2.66233 4.02788 2.66237 4.02793 2.66242 4.02799C2.67373 4.04121 2.68251 4.1364 2.74739 4.1113ZM4.82397 6.56523C4.83084 6.58702 4.83712 6.60811 4.84435 6.63032C4.86122 6.62314 4.87808 6.61594 4.89494 6.60874C4.89491 6.60871 4.89488 6.60867 4.89485 6.60863C4.87077 6.59363 4.84753 6.57962 4.82397 6.56523ZM4.39551 5.97088C4.3894 5.98274 4.38322 5.99451 4.37718 6.00644C4.41064 6.04851 4.44374 6.09017 4.47648 6.1314C4.46774 6.13186 4.459 6.13231 4.45026 6.13276C4.48709 6.20493 4.54285 6.20369 4.56548 6.24001C4.56545 6.23997 4.56542 6.23993 4.56539 6.2399C4.5678 6.24387 4.55182 6.26473 4.56217 6.27828C4.58547 6.30885 4.65163 6.40164 4.67998 6.39511C4.74059 6.38132 4.57441 6.22583 4.54889 6.19186C4.53738 6.17649 4.53952 6.14426 4.53231 6.13495C4.52455 6.12504 4.49037 6.13168 4.47117 6.1076C4.46575 6.10072 4.42768 6.00064 4.39551 5.97088ZM3.76171 5.28108C3.75112 5.31154 3.7936 5.3201 3.7982 5.33254C3.79931 5.33551 3.76658 5.33291 3.77944 5.35883C3.79668 5.35461 3.81391 5.35039 3.83114 5.34616C3.80808 5.32456 3.78494 5.30287 3.76171 5.28108ZM10.1439 5.58273C10.1365 5.58404 10.0974 5.66097 10.0987 5.66642C10.1186 5.7362 10.199 5.57597 10.1439 5.58273ZM11.1342 3.64663C11.0935 3.64394 11.1467 3.5562 11.2174 3.46488C11.2915 3.36926 11.3798 3.26638 11.3909 3.24546C11.4286 3.27266 11.3285 3.34109 11.4138 3.32661C11.3629 3.3505 11.3049 3.45468 11.2705 3.50051C11.2646 3.50844 11.2594 3.51462 11.2552 3.51827C11.2379 3.53312 11.2014 3.51577 11.1985 3.51786C11.1872 3.52645 11.1634 3.64857 11.1342 3.64663ZM11.6248 2.93342C11.5939 2.96694 11.5629 3.00023 11.5317 3.03355C11.5553 2.98592 11.5784 2.93863 11.6016 2.89082C11.6093 2.90499 11.6171 2.91919 11.6248 2.93342ZM11.6363 2.87447C11.5973 2.85233 11.7051 2.74067 11.7167 2.70103C11.7591 2.77889 11.6586 2.80599 11.6363 2.87447ZM10.308 5.023C10.2495 5.07111 10.357 5.16106 10.3434 5.05822C10.3428 5.05502 10.3108 5.02115 10.308 5.023ZM5.35158 6.81746C5.34526 6.80868 5.28173 6.66499 5.26029 6.67369C5.18927 6.69834 5.27348 6.75424 5.27464 6.79659C5.27581 6.86436 5.19923 6.82863 5.30123 6.90902C5.28705 6.914 5.27287 6.91897 5.25887 6.92417C5.30441 6.98514 5.36255 6.90333 5.38088 6.90563C5.38651 6.9064 5.41058 6.94748 5.42068 6.94981C5.5485 6.97956 5.35801 6.82605 5.35158 6.81746ZM9.45258 6.51891C9.34278 6.61213 9.4262 6.59563 9.34398 6.71159C9.36729 6.73311 9.46617 6.5488 9.45258 6.51891ZM6.18412 7.88748C6.08165 7.78545 6.03646 7.66953 5.90858 7.60225C5.84896 7.66116 6.19289 7.93131 6.18412 7.88748ZM1.87403 2.67676C2.1232 3.19951 2.57898 3.6602 2.96679 4.11305C3.00898 4.16237 2.98773 4.18848 3.00563 4.204C3.01733 4.21418 3.03588 4.19483 3.0493 4.21044C3.53209 4.772 4.01646 5.2884 4.46332 5.83968C4.49076 5.87364 4.58807 6.07684 4.68398 6.05646C4.75651 6.04072 4.61691 5.95509 4.60053 5.93488C4.58819 5.91969 4.61111 5.89913 4.60273 5.88908C4.59382 5.87841 4.58522 5.90078 4.57452 5.88866C4.52881 5.83707 4.48819 5.7765 4.44652 5.73017C4.043 5.2813 3.66728 4.8313 3.28136 4.37244C3.23434 4.31661 3.26297 4.31222 3.26065 4.30933C3.26057 4.30933 3.2605 4.30933 3.26042 4.30934C3.01055 4.01163 2.68024 3.70833 2.42944 3.38059C2.25427 3.14827 2.07944 2.91637 1.90432 2.68413C1.89423 2.68168 1.88413 2.67922 1.87403 2.67676ZM5.48381 7.10831C5.53194 7.02123 5.45417 7.07445 5.39975 6.95143C5.38085 6.95367 5.36193 6.95588 5.34297 6.95805C5.38947 7.00758 5.43752 7.05899 5.48395 7.10848C5.4839 7.10842 5.48385 7.10837 5.48381 7.10831ZM4.95505 6.4316C5.0368 6.33379 4.78033 6.16857 4.71457 6.05402C4.6513 6.07694 4.79491 6.20245 4.81961 6.24185C4.83172 6.2612 4.85947 6.39422 4.94607 6.44083C4.94906 6.43775 4.95206 6.43467 4.95505 6.4316ZM10.7217 3.97853C10.7143 3.99897 10.707 4.01945 10.6997 4.03998C10.7381 3.99986 10.7765 3.96042 10.8153 3.92084C10.7649 3.99051 10.7154 4.06032 10.6663 4.13064C10.6512 4.10412 10.6361 4.07756 10.6211 4.05096C10.6544 4.02682 10.6881 4.00245 10.7217 3.97853ZM10.5992 4.22731C10.6621 4.09166 10.6486 4.2617 10.6038 4.27954C10.5769 4.29022 10.5928 4.2413 10.5992 4.22731ZM10.3775 4.54787C10.3691 4.46517 10.4323 4.33956 10.4896 4.42654C10.4166 4.47271 10.4255 4.53211 10.3534 4.61665C10.3452 4.59448 10.3371 4.57231 10.3289 4.55014C10.329 4.55008 10.329 4.55001 10.329 4.54995C10.3452 4.54924 10.3613 4.54855 10.3775 4.54787ZM10.5833 4.14091C10.6762 4.08035 10.525 4.32027 10.5372 4.22572C10.5377 4.22127 10.5797 4.14325 10.5833 4.14091ZM2.34688 3.08722C2.31661 3.09771 2.36508 3.15388 2.37971 3.1742C2.44268 3.262 2.54149 3.3582 2.61082 3.44614C2.61287 3.43338 2.61491 3.4206 2.61695 3.40783C2.52663 3.3006 2.43699 3.19419 2.34688 3.08722ZM2.83674 3.71228C2.88655 3.7709 2.93637 3.82953 2.98583 3.88774C2.99045 3.89317 3.03158 3.90201 3.02026 3.87906C2.95936 3.82378 2.89806 3.76805 2.83674 3.71228ZM5.93325 7.36257C5.90768 7.30642 6.08329 7.3814 6.00757 7.43404C5.98326 7.41077 5.95849 7.38694 5.93325 7.36257ZM6.31452 7.75645C6.28468 7.73477 6.25258 7.71038 6.22315 7.68914C6.23117 7.68228 6.2392 7.67542 6.24722 7.66856C6.26863 7.69666 6.2927 7.7279 6.31452 7.75645ZM2.16762 2.84378C2.16537 2.89693 2.22992 2.96429 2.2671 3.00918C2.26477 2.9585 2.19131 2.89564 2.16762 2.84378ZM5.3922 6.66568C5.37576 6.68437 5.23018 6.50294 5.31543 6.53653C5.34134 6.57996 5.36571 6.62156 5.3922 6.66568ZM5.11269 6.27947C5.14921 6.31422 5.16738 6.34873 5.13132 6.36601C5.11564 6.34496 5.09984 6.32377 5.08391 6.30243C5.09351 6.29478 5.1031 6.28712 5.11269 6.27947ZM10.1903 4.7471C10.1543 4.8239 10.1183 4.90054 10.0825 4.97678C10.0746 4.96912 10.0667 4.96147 10.0587 4.95382C10.0932 4.88026 10.1278 4.80638 10.1625 4.73229C10.1718 4.73723 10.1811 4.74216 10.1903 4.7471ZM2.20891 2.74592C2.16603 2.70612 2.12304 2.66618 2.08027 2.62651C2.11242 2.67527 2.1448 2.72429 2.17706 2.77318C2.18775 2.76409 2.19845 2.755 2.20915 2.74591C2.20907 2.74591 2.20899 2.74592 2.20891 2.74592ZM10.6348 3.64594C10.456 3.85354 10.5847 3.52948 10.6853 3.50602C10.6853 3.50592 10.6853 3.50582 10.6853 3.50572C10.694 3.50371 10.7135 3.5312 10.7296 3.52882C10.7032 3.54503 10.6771 3.56111 10.6509 3.57755C10.6528 3.60807 10.6549 3.63854 10.6572 3.66875C10.6472 3.67231 10.6371 3.67589 10.627 3.6795C10.6296 3.66831 10.6322 3.65712 10.6348 3.64594ZM11.1766 2.74509C11.3016 2.55316 11.2448 2.79385 11.1325 2.85704C11.1209 2.84899 11.1652 2.76258 11.1766 2.74509ZM10.8653 3.25769C10.8495 3.29414 10.8337 3.33112 10.8186 3.36746C10.8085 3.36684 10.7984 3.36625 10.7882 3.36567C10.797 3.33574 10.806 3.30568 10.8153 3.27553C10.832 3.2695 10.8486 3.26356 10.8653 3.25769ZM10.1132 4.28188C10.0765 4.33071 10.1274 4.44463 10.1952 4.26132C10.1858 4.25646 10.1765 4.25159 10.1671 4.24672C10.1649 4.25436 10.163 4.27911 10.1618 4.27985C10.1578 4.28176 10.1286 4.26155 10.1132 4.28188ZM11.1583 2.23916C11.1582 2.23139 11.0642 2.1717 11.1981 2.17173C11.2026 2.15046 11.2072 2.12891 11.2117 2.10756C11.2355 2.11543 11.2594 2.12328 11.2832 2.13113C11.2259 2.19068 11.2644 2.22309 11.2623 2.22867C11.2527 2.25394 11.2408 2.224 11.2317 2.23853C11.2084 2.27626 11.1719 2.3706 11.1326 2.2944C11.1185 2.26701 11.1584 2.24688 11.1583 2.23916ZM11.0245 2.33925C11.0374 2.33589 11.0494 2.37897 11.061 2.37757C11.0711 2.37649 11.1487 2.31187 11.1826 2.36228C11.1725 2.37465 11.1625 2.38673 11.1525 2.39899C11.1368 2.39577 11.1211 2.39255 11.1055 2.38932C11.1096 2.40939 11.1137 2.4295 11.1178 2.44969C11.0728 2.4522 11.0037 2.47313 11.0109 2.40275C11.0015 2.42444 10.9919 2.44625 10.9824 2.46785C10.9913 2.48751 11.0001 2.50728 11.009 2.52688C10.9892 2.50725 10.9693 2.48771 10.9495 2.46805C10.9745 2.42535 10.9996 2.38235 11.0245 2.33925ZM11.4181 1.69724C11.4286 1.70708 11.439 1.71692 11.4495 1.72675C11.4573 1.69792 11.4691 1.66551 11.4828 1.63801L11.4436 1.71161C11.496 1.5865 11.5701 1.50532 11.5613 1.63472C11.542 1.67067 11.5249 1.70667 11.5097 1.74227L11.5451 1.67569C11.4961 1.76858 11.4485 1.86072 11.4017 1.95182C11.3885 1.95343 11.3753 1.95504 11.3621 1.95665C11.4435 1.89887 11.2802 1.83494 11.3638 1.79136C11.378 1.78399 11.4098 1.84883 11.4202 1.7557C11.4066 1.75109 11.3929 1.74647 11.3792 1.74186C11.3922 1.72701 11.4051 1.71214 11.4181 1.69724ZM12.1643 1.0082C12.1448 0.997631 12.1125 0.958709 12.1559 0.977315C12.1559 0.977328 12.1558 0.97734 12.1558 0.977353C12.2589 1.04177 12.1671 1.04713 12.1782 1.038C12.1793 1.03829 12.2026 1.07896 12.1953 1.05115L12.2826 1.00927C12.2598 1.00841 12.2306 1.00139 12.1903 0.98594C12.2147 0.975623 12.2384 0.9662 12.2619 0.957331L12.1678 1.00249C12.1565 1.01036 12.1559 1.01352 12.1643 1.0082ZM11.6496 1.35209C11.6673 1.32827 11.672 1.35471 11.6803 1.34519C11.6804 1.34511 11.6804 1.34503 11.6805 1.34495C11.8024 1.18494 12.1328 0.980964 12.1851 1.04013C12.1417 1.06327 12.0137 1.12951 11.8862 1.22666C11.7578 1.32115 11.6498 1.4439 11.6211 1.44386C11.6293 1.41332 11.6388 1.38264 11.6496 1.35209ZM11.3022 1.9925C11.2384 2.01338 11.2911 1.91266 11.3241 1.8971C11.3308 1.89449 11.3682 1.97082 11.3022 1.9925ZM9.26559 5.30144C9.23788 5.40727 9.3283 5.29778 9.34157 5.36016C9.34824 5.34063 9.3549 5.32107 9.36157 5.30142C9.32955 5.30152 9.29754 5.30155 9.26559 5.30144ZM7.45532 8.07623C7.44518 8.05875 7.43336 8.08303 7.4319 8.08208C7.42366 8.07255 7.42977 8.04894 7.42453 8.04659C7.32693 8.00364 7.35562 8.06545 7.35311 8.0701C7.33626 8.08889 7.29604 8.08897 7.30088 8.1362C7.32245 8.14614 7.34403 8.15584 7.36496 8.16453C7.36215 8.18167 7.35911 8.19849 7.3564 8.21556C7.40507 8.22166 7.37485 8.18007 7.39896 8.14769C7.40861 8.13519 7.44729 8.14779 7.45532 8.07623ZM9.10034 5.42587C9.13057 5.46228 9.15853 5.52612 9.21739 5.51209C9.21741 5.51205 9.21743 5.51201 9.21746 5.51197C9.22828 5.50931 9.24738 5.48438 9.262 5.48159C9.2438 5.39333 9.17782 5.38701 9.10034 5.42587ZM7.5544 8.09034C7.51852 8.08623 7.47772 8.08457 7.43499 8.08824C7.43152 8.11451 7.42793 8.14076 7.42423 8.167C7.44366 8.16294 7.46298 8.16018 7.48156 8.1584C7.48383 8.17173 7.48533 8.18497 7.48617 8.19809C7.45878 8.2204 7.43341 8.24504 7.41156 8.27183C7.39355 8.25784 7.37111 8.24534 7.34689 8.23556C7.35742 8.22125 7.36942 8.20742 7.38259 8.19428C7.31678 8.17721 7.33001 8.24302 7.29567 8.27343C7.27778 8.25211 7.25799 8.23216 7.23738 8.21344C7.23396 8.22377 7.23167 8.23392 7.23029 8.24385C7.23263 8.26032 7.23863 8.27542 7.24754 8.28887C7.24737 8.2758 7.23856 8.25907 7.22081 8.23691C7.20593 8.20843 7.23684 8.24887 7.23826 8.23197C7.23831 8.23065 7.21985 8.20664 7.2202 8.20595C7.25408 8.15589 7.31538 8.20459 7.3271 8.19922C7.33731 8.19348 7.337 8.11931 7.32461 8.10558C7.30719 8.08754 7.1674 8.09154 7.27951 7.97355C7.16805 7.99464 7.16602 8.08399 7.26719 8.12649C7.23908 8.14022 7.2 8.20039 7.20236 8.1939C7.19775 8.19155 7.17829 8.15959 7.17687 8.15931C7.1785 8.15815 7.20122 8.21891 7.20365 8.18134C7.20727 8.17456 7.21115 8.16557 7.21623 8.15372C7.22918 8.16403 7.24191 8.17474 7.25428 8.1859C7.25926 8.17257 7.26556 8.15918 7.27319 8.14589C7.24488 8.10958 7.21245 8.07575 7.17777 8.04439C7.26808 8.05667 7.37553 7.97028 7.43411 8.05125C7.48985 8.05164 7.51578 8.05326 7.50287 8.01165C7.51936 8.01596 7.53496 8.02085 7.54961 8.02613C7.55263 8.04778 7.55421 8.06923 7.5544 8.09034ZM9.00266 5.72244C8.94232 5.74385 9.00932 5.8043 9.01756 5.80033C9.0635 5.77716 9.03411 5.71115 9.00266 5.72244ZM7.46942 8.15668C7.48139 8.19985 7.4901 8.23828 7.504 8.27927C7.52179 8.25763 7.53957 8.23598 7.55736 8.21434C7.52742 8.19642 7.50086 8.17971 7.46942 8.15668ZM9.21776 5.25763C9.23863 5.26323 9.25953 5.26877 9.28042 5.27431C9.24236 5.18397 9.36796 5.18281 9.36245 5.14504C9.3612 5.13687 9.32223 5.13109 9.30927 5.1384C9.30115 5.1432 9.21679 5.24486 9.21776 5.25763ZM10.5565 2.88467C10.5561 2.91095 10.5552 2.93777 10.5546 2.9641C10.5356 2.94997 10.5166 2.93585 10.4977 2.92173C10.5 2.91023 10.5026 2.89843 10.505 2.88681C10.5222 2.88609 10.5394 2.88538 10.5565 2.88467ZM10.4328 3.14048C10.4057 3.17917 10.3792 3.21783 10.3531 3.25645C10.4293 3.09369 10.3423 3.21237 10.375 3.10344C10.3942 3.11578 10.4135 3.12813 10.4328 3.14048ZM10.1486 3.51679C10.1392 3.50489 10.1298 3.49297 10.1204 3.48104C10.1433 3.44154 10.1668 3.40149 10.1904 3.36189C10.1334 3.36194 10.0763 3.36236 10.0191 3.36313C10.0104 3.37786 10.0017 3.39252 9.9931 3.4071C10.0449 3.44373 10.0967 3.4803 10.1486 3.51679ZM6.82756 7.19674C6.81262 7.1778 6.72109 7.13589 6.71227 7.14982C6.72108 7.1902 6.731 7.23185 6.73935 7.27164C6.76088 7.25362 6.78241 7.2356 6.80394 7.21758C6.79658 7.23051 6.78915 7.24336 6.7818 7.25632C6.80372 7.26595 6.82539 7.27528 6.84682 7.28432C6.83488 7.30817 6.82287 7.33195 6.81081 7.35566C6.83867 7.3452 6.86728 7.3356 6.89554 7.32561C6.86855 7.21704 6.8327 7.25148 6.81927 7.23482C6.81224 7.22616 6.82154 7.21025 6.82576 7.2017C6.82636 7.20005 6.82696 7.19839 6.82756 7.19674ZM7.6098 8.04351C7.56673 7.99355 7.47382 8.00272 7.46979 7.90723C7.42337 8.01654 7.59287 8.09216 7.63562 8.16026C7.61665 8.15388 7.5947 8.15379 7.57289 8.16432C7.5768 8.14217 7.57904 8.11935 7.57935 8.09595C7.60952 8.12792 7.64109 8.12079 7.6656 8.12236C7.66398 8.11677 7.6624 8.11206 7.66025 8.10874C7.65183 8.09554 7.63922 8.11374 7.6385 8.11275C7.63846 8.11272 7.63842 8.11269 7.63838 8.11266C7.61856 8.08431 7.62676 8.06287 7.6098 8.04351ZM9.16822 5.13258C9.12408 5.14409 9.10103 5.1933 9.14347 5.21718C9.17035 5.1974 9.19724 5.17746 9.22411 5.15743C9.21017 5.15698 9.17577 5.13062 9.16822 5.13258ZM10.0041 3.49515C9.97646 3.51144 9.95683 3.57437 10.0071 3.57087C10.0161 3.57021 10.0222 3.49969 10.0695 3.57004C10.0996 3.51498 10.0199 3.48598 10.0041 3.49515ZM7.68921 7.53366C7.6994 7.51706 7.70968 7.50024 7.72004 7.48322C7.70668 7.46808 7.69337 7.45287 7.67993 7.43784C7.68303 7.46991 7.68606 7.50194 7.68921 7.53366ZM9.26338 4.88314C9.36136 4.90362 9.30066 4.81809 9.39492 4.80867C9.40446 4.79181 9.41399 4.77493 9.42352 4.75804C9.42355 4.758 9.42357 4.75796 9.42359 4.75792C9.40058 4.74528 9.37758 4.73264 9.35457 4.72001C9.32407 4.77484 9.29379 4.82905 9.26338 4.88314ZM7.17827 8.08343C7.17573 8.09116 7.17355 8.09884 7.17174 8.10645C7.17172 8.11289 7.17205 8.11921 7.17273 8.1254C7.16021 8.11549 7.14942 8.10515 7.14003 8.09412C7.13634 8.0845 7.13363 8.07436 7.1322 8.06365C7.14056 8.0692 7.14991 8.07443 7.16026 8.07953C7.16621 8.08076 7.17222 8.08206 7.17827 8.08343ZM9.41394 4.57821C9.37173 4.63312 9.43398 4.69456 9.47452 4.61727C9.49152 4.58465 9.45826 4.52037 9.41394 4.57821ZM5.95362 6.21176C5.96353 6.23451 5.9733 6.25711 5.98295 6.27954C6.0015 6.27425 6.02004 6.26894 6.03856 6.26362C6.01049 6.24661 5.98217 6.22933 5.95362 6.21176ZM10.1957 3.19027C10.2091 3.20212 10.2224 3.21396 10.2358 3.22579C10.2205 3.24401 10.2054 3.26193 10.1903 3.28007C10.1784 3.26603 10.1665 3.25196 10.1547 3.23788C10.1683 3.22201 10.1819 3.20625 10.1957 3.19027ZM6.04822 6.3402C6.05795 6.35689 6.06758 6.37346 6.07712 6.38993C6.09177 6.39401 6.10638 6.39804 6.12094 6.40202C6.11622 6.38331 6.11141 6.3645 6.10651 6.34558C6.08713 6.34385 6.0677 6.34205 6.04822 6.3402ZM9.72841 3.99495C9.69668 4.00953 9.70385 4.13678 9.76473 4.05772C9.80368 4.00712 9.73321 3.99281 9.72841 3.99495ZM9.7803 3.8535C9.69486 3.92746 9.91158 3.95514 9.85601 3.78039C9.81073 3.90161 9.78552 3.84906 9.7803 3.8535ZM10.1803 2.95761C10.182 2.9552 10.208 2.96907 10.2216 2.95005C10.2443 2.91824 10.2719 2.88251 10.2987 2.84859C10.3245 2.81711 10.3487 2.78754 10.364 2.76621C10.4331 2.67173 10.5794 2.34027 10.6736 2.34767C10.6935 2.34946 10.7282 2.39486 10.7324 2.39323C10.7446 2.38817 10.7544 2.32261 10.782 2.35271C10.7504 2.40381 10.7187 2.45451 10.6868 2.50495C10.671 2.4779 10.6553 2.4507 10.6395 2.42375C10.5737 2.5571 10.5982 2.51431 10.6264 2.58276C10.5933 2.59124 10.56 2.60007 10.527 2.60824C10.5174 2.66675 10.5078 2.7248 10.4976 2.7833C10.4896 2.76351 10.4818 2.74346 10.4738 2.7236C10.402 2.77415 10.4321 2.76694 10.443 2.82753C10.4284 2.81794 10.4137 2.80835 10.3991 2.79876C10.393 2.86521 10.3629 2.87297 10.3434 2.87859C10.3359 2.88154 10.3299 2.88398 10.3267 2.88848C10.3012 2.92522 10.4444 3.08251 10.1838 3.11016C10.232 3.22045 10.0609 3.1137 10.1276 3.20136C9.97231 3.24214 10.1201 3.07505 10.1817 2.98697C10.1817 2.98692 10.1817 2.98687 10.1818 2.98683C10.1864 2.98022 10.1636 2.98084 10.1803 2.95761ZM9.96343 3.51656C9.91735 3.41277 9.77922 3.64088 9.93705 3.62826C9.94711 3.61902 9.95724 3.60969 9.96734 3.60043C9.96597 3.57247 9.96469 3.54447 9.96351 3.51642C9.96348 3.51647 9.96346 3.51651 9.96343 3.51656ZM8.82004 5.51325C8.74642 5.71271 8.85176 5.63694 8.84362 5.54953C8.84202 5.53214 8.83389 5.51842 8.82004 5.51325ZM7.58124 7.91642C7.57166 7.92222 7.56204 7.92796 7.55238 7.93367C7.60143 7.97122 7.63027 8.05564 7.67761 7.9986C7.65134 7.97905 7.61927 7.95186 7.58124 7.91642ZM7.51691 7.89911C7.54031 7.89855 7.62095 7.91603 7.60082 7.93861C7.56323 7.94478 7.52479 7.95345 7.48684 7.96533C7.47361 7.95003 7.4589 7.93506 7.44273 7.92065C7.46769 7.91938 7.51083 7.89867 7.51691 7.89911Z" fill="currentColor" fill-opacity="0.67"/>
</svg>
